# Material-color atlas conversion for FMUR / Minecraft 1.7.10
# Shared texture: SnipexAlligator.png
# Blender 5.2.0 LTS
# www.blender.org
o Snipex_Bolt
v -0.482076 0.038945 0.026113
v -0.470268 0.046004 0.029713
v -0.470268 0.031886 0.022514
v -0.463624 0.029502 0.030093
v -0.463624 0.041269 0.036093
v -0.477554 0.004008 0.077188
v -0.474611 0.006521 0.078470
v -0.474611 0.015613 0.083106
v -0.477554 0.018126 0.084387
v -0.466367 0.021786 0.077458
v -0.466367 0.007466 0.070157
v -0.470268 0.046504 0.038762
v -0.471476 0.025744 0.079476
v -0.470268 0.024268 0.027424
v -0.471476 0.003508 0.068139
v -0.497390 0.031886 0.022514
v -0.500952 0.033643 0.023410
v -0.498249 0.032727 0.022943
v -0.500952 0.044246 0.028816
v -0.497390 0.046004 0.029713
v -0.498249 0.045162 0.029283
v -0.491148 0.005754 0.078079
v -0.487573 0.004008 0.077188
v -0.487573 0.018126 0.084387
v -0.491148 0.016379 0.083497
v -0.497387 0.024268 0.027424
v -0.500952 0.025994 0.028305
v -0.495072 0.005233 0.069018
v -0.491501 0.003508 0.068139
v -0.491501 0.025744 0.079476
v -0.495072 0.024019 0.078597
v -0.500952 0.044777 0.037882
v -0.497387 0.046504 0.038762
v -0.305408 0.051278 -0.016984
v -0.485598 0.051278 -0.016984
v -0.305408 0.063287 -0.012009
v -0.485598 0.063288 -0.012009
v -0.305408 0.068262 -0.000000
v -0.485598 0.068262 0.000000
v -0.305408 0.063287 0.012009
v -0.485598 0.063288 0.012009
v -0.305408 0.051278 0.016984
v -0.485598 0.051278 0.016984
v -0.305408 0.039269 0.012009
v -0.485598 0.039269 0.012009
v -0.305408 0.034295 0.000000
v -0.485598 0.034295 0.000000
v -0.305408 0.039269 -0.012009
v -0.485598 0.039269 -0.012009
v -0.305408 0.051278 -0.012027
v -0.305408 0.059782 -0.008504
v -0.305408 0.063305 -0.000000
v -0.305408 0.059782 0.008504
v -0.305408 0.051278 0.012027
v -0.305408 0.042774 0.008504
v -0.305408 0.039252 0.000000
v -0.305408 0.042774 -0.008504
v -0.292123 0.051278 -0.012027
v -0.292123 0.059782 -0.008504
v -0.292123 0.063305 -0.000000
v -0.292123 0.059782 0.008504
v -0.292123 0.051278 0.012027
v -0.292123 0.042774 0.008504
v -0.292123 0.039252 0.000000
v -0.292123 0.042774 -0.008504
v -0.287805 0.051278 -0.016256
v -0.287805 0.062773 -0.011495
v -0.287805 0.067534 -0.000000
v -0.287805 0.062773 0.011495
v -0.287805 0.051278 0.016256
v -0.287805 0.039783 0.011495
v -0.287805 0.035022 0.000000
v -0.287805 0.039783 -0.011495
v -0.278506 0.051278 -0.016256
v -0.278506 0.062773 -0.011495
v -0.278505 0.067534 -0.000000
v -0.278506 0.062773 0.011495
v -0.278506 0.051278 0.016256
v -0.278506 0.039783 0.011495
v -0.278506 0.035022 -0.000000
v -0.278506 0.039783 -0.011495
v -0.278506 0.051278 -0.012222
v -0.278506 0.059921 -0.008642
v -0.278506 0.063500 -0.000000
v -0.278506 0.059921 0.008642
v -0.278506 0.051278 0.012222
v -0.278506 0.042636 0.008642
v -0.278505 0.039056 -0.000000
v -0.278506 0.042636 -0.008642
v -0.284318 0.051278 -0.012222
v -0.284318 0.059921 -0.008642
v -0.284318 0.063500 -0.000000
v -0.284318 0.059921 0.008642
v -0.284318 0.051278 0.012222
v -0.284318 0.042636 0.008642
v -0.284318 0.039056 -0.000000
v -0.284318 0.042636 -0.008642
v -0.284318 0.051278 -0.002252
v -0.284318 0.052871 -0.001592
v -0.284318 0.053530 -0.000000
v -0.284318 0.052871 0.001592
v -0.284318 0.051278 0.002252
v -0.284318 0.049686 0.001592
v -0.284318 0.049026 -0.000000
v -0.284318 0.049686 -0.001592
v -0.319690 0.051278 -0.002252
v -0.319690 0.052871 -0.001592
v -0.319690 0.053530 0.000000
v -0.319690 0.052871 0.001592
v -0.319690 0.051278 0.002252
v -0.319690 0.049686 0.001592
v -0.319690 0.049026 0.000000
v -0.319690 0.049686 -0.001592
v -0.485598 0.051278 -0.015086
v -0.485598 0.061946 -0.010668
v -0.485598 0.066364 0.000000
v -0.485598 0.061946 0.010668
v -0.485598 0.051278 0.015086
v -0.485598 0.040611 0.010668
v -0.485598 0.036192 0.000000
v -0.485598 0.040611 -0.010667
v -0.503441 0.051278 -0.015086
v -0.503441 0.061946 -0.010668
v -0.503441 0.066364 0.000000
v -0.503441 0.061946 0.010668
v -0.503441 0.051278 0.015086
v -0.503441 0.040611 0.010668
v -0.503441 0.036192 0.000000
v -0.503441 0.040611 -0.010667
v -0.485199 0.035619 0.026185
v -0.483658 0.034195 0.025580
v -0.483658 0.041497 0.028684
v -0.485199 0.040073 0.028079
v -0.483658 0.045257 0.004903
v -0.485199 0.046680 0.005508
v -0.485199 0.051135 0.007401
v -0.483658 0.052558 0.008006
v -0.478806 0.034195 0.025580
v -0.477265 0.035619 0.026185
v -0.477265 0.040073 0.028079
v -0.478806 0.041497 0.028684
v -0.477265 0.046680 0.005508
v -0.478806 0.045257 0.004903
v -0.478806 0.052558 0.008006
v -0.477265 0.051135 0.007401
vn 0.7627 0.2938 -0.5762
vn 0.6889 -0.3293 0.6457
vn 0.6889 -0.3293 0.6458
vn -0.0000 0.9985 -0.0551
vn -0.8941 -0.2034 0.3990
vn -0.0000 -0.5418 -0.8405
vn -0.0000 -0.9985 0.0551
vn 0.4703 0.1651 0.8669
vn -0.0000 -0.4542 0.8909
vn -0.9918 -0.0580 0.1137
vn -0.0000 0.5418 0.8405
vn 0.4762 -0.8004 0.3640
vn 0.6577 -0.6783 -0.3277
vn 0.6608 -0.6763 -0.3257
vn 0.6623 -0.6752 -0.3246
vn -0.0000 0.4542 -0.8909
vn -0.0000 0.8909 0.4542
vn -0.0000 0.4543 -0.8909
vn -0.0000 -0.8909 -0.4542
vn 0.6073 0.7933 -0.0438
vn 0.6577 0.6632 0.3573
vn 0.6607 0.6610 0.3556
vn 0.6623 0.6599 0.3547
vn 0.9982 -0.0272 0.0534
vn -0.3819 -0.8987 0.2157
vn -0.3836 -0.8976 0.2174
vn -0.3813 -0.8991 0.2151
vn -0.4265 0.9031 -0.0503
vn -0.4300 0.9013 -0.0522
vn -0.4253 0.9037 -0.0498
vn -0.4306 -0.4887 -0.7588
vn -0.4260 -0.4881 -0.7618
vn -0.4319 -0.4888 -0.7580
vn -0.4763 -0.8093 -0.3438
vn -0.4766 -0.8091 -0.3437
vn -0.4767 -0.8091 -0.3437
vn -0.3838 0.3520 0.8537
vn -0.3816 0.3524 0.8545
vn -0.3845 0.3519 0.8534
vn -0.4762 0.7536 0.4531
vn -0.4764 0.7535 0.4530
vn -0.4758 0.7538 0.4532
vn -1.0000 -0.0000 -0.0000
vn 0.6073 -0.4305 -0.6678
vn 0.5000 0.1508 0.8528
vn -0.0000 -0.4543 0.8909
vn 0.4897 -0.7761 0.3973
vn 0.6561 -0.6793 -0.3287
vn 0.6561 0.6643 0.3582
vn -0.3841 -0.8972 0.2179
vn -0.4311 0.9007 -0.0527
vn -0.4246 -0.4880 -0.7626
vn -0.4758 -0.8095 -0.3441
vn -0.3809 0.3526 0.8548
vn -0.4767 0.7534 0.4530
vn -0.0000 0.3827 -0.9239
vn -0.0000 0.9239 -0.3827
vn -0.0000 0.9239 0.3827
vn -0.0000 0.3827 0.9239
vn -0.0000 -0.3827 0.9239
vn -0.0000 -0.9239 0.3827
vn -0.0000 -0.9239 -0.3827
vn -0.0000 -0.3827 -0.9239
vn 1.0000 -0.0000 -0.0000
vn -0.6710 0.6850 -0.2837
vn -0.6710 -0.6850 -0.2837
vn -0.6710 -0.2837 0.6850
vn -0.6710 0.6850 0.2837
vn -0.6710 0.2837 -0.6850
vn -0.6710 -0.2837 -0.6850
vn -0.6710 -0.6850 0.2837
vn -0.6710 0.2837 0.6850
vn -0.0000 -0.3912 0.9203
vn -0.0000 0.8818 0.4717
vn -0.0000 0.3912 -0.9203
vn -0.7071 -0.6235 -0.3335
vn -0.7071 -0.6235 -0.3336
vn -0.7071 0.6235 0.3336
vn -0.7071 0.6235 0.3335
vn 0.7071 -0.6235 -0.3336
vn 0.7071 -0.6235 -0.3335
vn 0.7071 0.6235 0.3335
vn -0.0000 -0.8818 -0.4717
s 1
vt 0.125000 0.875000
vt 0.375000 0.875000
vt 0.625000 0.875000
vt 0.875000 0.875000
vt 0.125000 0.625000
vt 0.375000 0.625000
vt 0.625000 0.625000
vt 0.875000 0.625000
vt 0.125000 0.375000
vt 0.375000 0.375000
f 2/2/1 4/2/1 3/2/1
f 10/2/2 7/2/2 11/2/3
f 2/2/4 33/2/4 12/2/4
f 31/2/5 22/2/5 25/2/5
f 3/2/6 26/2/6 16/2/6
f 29/2/7 6/2/7 23/2/7
f 13/2/8 8/2/8 10/2/8
f 25/2/9 22/2/9 23/2/9
f 32/2/10 28/2/10 31/2/10
f 30/2/11 9/2/11 13/2/11
f 11/2/12 6/2/12 15/2/12
f 4/2/13 15/2/14 14/2/15
f 16/2/16 1/2/16 3/2/16
f 12/2/17 30/2/17 13/2/17
f 1/2/16 20/2/18 2/2/16
f 17/2/16 19/2/16 1/2/16
f 14/2/19 29/2/19 26/2/19
f 5/2/20 2/2/20 12/2/20
f 12/2/21 10/2/22 5/2/23
f 5/2/24 11/2/24 4/2/24
f 16/2/16 17/2/16 18/2/16
f 19/2/16 20/2/18 21/2/18
f 23/2/25 28/2/26 29/2/27
f 20/2/28 32/2/29 33/2/30
f 26/2/31 17/2/32 16/2/33
f 29/2/34 27/2/35 26/2/36
f 30/2/37 25/2/38 24/2/39
f 33/2/40 31/2/41 30/2/42
f 19/2/43 27/2/43 32/2/43
f 14/2/44 3/2/44 4/2/44
f 2/2/1 5/2/1 4/2/1
f 10/2/2 8/2/2 7/2/2
f 2/2/4 20/2/4 33/2/4
f 31/2/5 28/2/5 22/2/5
f 3/2/6 14/2/6 26/2/6
f 29/2/7 15/2/7 6/2/7
f 13/2/45 9/2/45 8/2/45
f 23/2/9 6/2/46 7/2/46
f 7/2/46 8/2/9 23/2/9
f 8/2/9 9/2/46 24/2/9
f 23/2/9 8/2/9 24/2/9
f 24/2/9 25/2/9 23/2/9
f 32/2/10 27/2/10 28/2/10
f 30/2/11 24/2/11 9/2/11
f 11/2/47 7/2/47 6/2/47
f 4/2/13 11/2/48 15/2/14
f 18/2/16 1/2/16 16/2/16
f 12/2/17 33/2/17 30/2/17
f 1/2/16 21/2/18 20/2/18
f 21/2/18 1/2/16 19/2/16
f 2/2/16 3/2/16 1/2/16
f 1/2/16 18/2/16 17/2/16
f 14/2/19 15/2/19 29/2/19
f 12/2/21 13/2/49 10/2/22
f 5/2/24 10/2/24 11/2/24
f 23/2/25 22/2/50 28/2/26
f 20/2/28 19/2/51 32/2/29
f 26/2/31 27/2/52 17/2/32
f 29/2/34 28/2/53 27/2/35
f 30/2/37 31/2/54 25/2/38
f 33/2/40 32/2/55 31/2/41
f 19/2/43 17/2/43 27/2/43
f 35/6/56 36/6/56 34/6/56
f 37/6/57 38/6/57 36/6/57
f 39/6/58 40/6/58 38/6/58
f 41/6/59 42/6/59 40/6/59
f 42/6/60 45/6/60 44/6/60
f 45/6/61 46/6/61 44/6/61
f 41/6/43 118/6/43 43/6/43
f 46/6/62 49/6/62 48/6/62
f 48/6/63 35/6/63 34/6/63
f 48/6/64 56/6/64 46/6/64
f 56/6/62 65/6/62 64/6/62
f 38/6/64 51/6/64 36/6/64
f 44/6/64 54/6/64 42/6/64
f 48/6/64 50/6/64 57/6/64
f 34/6/64 51/6/64 50/6/64
f 38/6/64 53/6/64 52/6/64
f 46/6/64 55/6/64 44/6/64
f 40/6/64 54/6/64 53/6/64
f 59/6/65 68/6/65 67/6/65
f 55/6/60 62/6/60 54/6/60
f 53/6/58 60/6/58 52/6/58
f 50/6/56 59/6/56 58/6/56
f 57/6/63 58/6/63 65/6/63
f 56/6/61 63/6/61 55/6/61
f 54/6/59 61/6/59 53/6/59
f 51/6/57 60/6/57 59/6/57
f 66/6/63 81/6/63 73/6/63
f 64/6/66 73/6/66 72/6/66
f 63/6/67 70/6/67 62/6/67
f 61/6/68 68/6/68 60/6/68
f 58/6/69 67/6/69 66/6/69
f 65/6/70 66/6/70 73/6/70
f 64/6/71 71/6/71 63/6/71
f 62/6/72 69/6/72 61/6/72
f 76/6/64 85/6/64 84/6/64
f 72/6/61 79/6/61 71/6/61
f 69/6/59 78/6/59 77/6/59
f 67/6/57 76/6/57 75/6/57
f 73/6/62 80/6/62 72/6/62
f 71/6/60 78/6/60 70/6/60
f 68/6/58 77/6/58 76/6/58
f 67/6/56 74/6/56 66/6/56
f 89/6/58 96/6/58 88/6/58
f 74/6/64 83/6/64 82/6/64
f 74/6/64 89/6/64 81/6/64
f 80/6/64 87/6/64 79/6/64
f 78/6/64 85/6/64 77/6/64
f 76/6/64 83/6/64 75/6/64
f 81/6/64 88/6/64 80/6/64
f 79/6/64 86/6/64 78/6/64
f 93/6/64 102/6/64 101/6/64
f 86/6/56 95/6/56 94/6/56
f 85/6/62 92/6/62 84/6/62
f 83/6/60 90/6/60 82/6/60
f 89/6/59 90/6/59 97/6/59
f 87/6/57 96/6/57 95/6/57
f 85/6/63 94/6/63 93/6/63
f 83/6/61 92/6/61 91/6/61
f 105/6/59 106/6/59 113/6/59
f 91/6/64 100/6/64 99/6/64
f 96/6/64 105/6/64 104/6/64
f 94/6/64 103/6/64 102/6/64
f 93/6/64 100/6/64 92/6/64
f 91/6/64 98/6/64 90/6/64
f 90/6/64 105/6/64 97/6/64
f 96/6/64 103/6/64 95/6/64
f 109/6/64 111/6/64 113/6/64
f 103/6/57 112/6/57 111/6/57
f 102/6/63 109/6/63 101/6/63
f 100/6/61 107/6/61 99/6/61
f 105/6/58 112/6/58 104/6/58
f 103/6/56 110/6/56 102/6/56
f 101/6/62 108/6/62 100/6/62
f 98/6/60 107/6/60 106/6/60
f 119/6/60 126/6/60 127/6/60
f 47/6/43 121/6/43 49/6/43
f 37/6/43 116/6/43 39/6/43
f 43/6/43 119/6/43 45/6/43
f 35/6/43 121/6/43 114/6/43
f 37/6/43 114/6/43 115/6/43
f 39/6/43 117/6/43 41/6/43
f 47/6/43 119/6/43 120/6/43
f 128/6/43 126/6/43 124/6/43
f 117/6/58 124/6/58 125/6/58
f 114/6/56 123/6/56 115/6/56
f 121/6/63 122/6/63 114/6/63
f 119/6/61 128/6/61 120/6/61
f 118/6/59 125/6/59 126/6/59
f 115/6/57 124/6/57 116/6/57
f 120/6/62 129/6/62 121/6/62
f 130/6/73 131/6/73 139/6/73
f 142/6/64 140/6/64 139/6/64
f 144/6/74 132/6/74 141/6/74
f 133/6/43 135/6/43 130/6/43
f 142/6/75 143/6/75 135/6/75
f 134/6/76 130/6/77 135/6/76
f 132/6/78 136/6/79 133/6/78
f 143/6/80 139/6/81 138/6/81
f 141/6/82 145/6/82 144/6/82
f 143/6/83 131/6/83 134/6/83
f 35/6/56 37/6/56 36/6/56
f 37/6/57 39/6/57 38/6/57
f 39/6/58 41/6/58 40/6/58
f 41/6/59 43/6/59 42/6/59
f 42/6/60 43/6/60 45/6/60
f 45/6/61 47/6/61 46/6/61
f 41/6/43 117/6/43 118/6/43
f 46/6/62 47/6/62 49/6/62
f 48/6/63 49/6/63 35/6/63
f 48/6/64 57/6/64 56/6/64
f 56/6/62 57/6/62 65/6/62
f 38/6/64 52/6/64 51/6/64
f 44/6/64 55/6/64 54/6/64
f 48/6/64 34/6/64 50/6/64
f 34/6/64 36/6/64 51/6/64
f 38/6/64 40/6/64 53/6/64
f 46/6/64 56/6/64 55/6/64
f 40/6/64 42/6/64 54/6/64
f 59/6/65 60/6/65 68/6/65
f 55/6/60 63/6/60 62/6/60
f 53/6/58 61/6/58 60/6/58
f 50/6/56 51/6/56 59/6/56
f 57/6/63 50/6/63 58/6/63
f 56/6/61 64/6/61 63/6/61
f 54/6/59 62/6/59 61/6/59
f 51/6/57 52/6/57 60/6/57
f 66/6/63 74/6/63 81/6/63
f 64/6/66 65/6/66 73/6/66
f 63/6/67 71/6/67 70/6/67
f 61/6/68 69/6/68 68/6/68
f 58/6/69 59/6/69 67/6/69
f 65/6/70 58/6/70 66/6/70
f 64/6/71 72/6/71 71/6/71
f 62/6/72 70/6/72 69/6/72
f 76/6/64 77/6/64 85/6/64
f 72/6/61 80/6/61 79/6/61
f 69/6/59 70/6/59 78/6/59
f 67/6/57 68/6/57 76/6/57
f 73/6/62 81/6/62 80/6/62
f 71/6/60 79/6/60 78/6/60
f 68/6/58 69/6/58 77/6/58
f 67/6/56 75/6/56 74/6/56
f 89/6/58 97/6/58 96/6/58
f 74/6/64 75/6/64 83/6/64
f 74/6/64 82/6/64 89/6/64
f 80/6/64 88/6/64 87/6/64
f 78/6/64 86/6/64 85/6/64
f 76/6/64 84/6/64 83/6/64
f 81/6/64 89/6/64 88/6/64
f 79/6/64 87/6/64 86/6/64
f 93/6/64 94/6/64 102/6/64
f 86/6/56 87/6/56 95/6/56
f 85/6/62 93/6/62 92/6/62
f 83/6/60 91/6/60 90/6/60
f 89/6/59 82/6/59 90/6/59
f 87/6/57 88/6/57 96/6/57
f 85/6/63 86/6/63 94/6/63
f 83/6/61 84/6/61 92/6/61
f 105/6/59 98/6/59 106/6/59
f 91/6/64 92/6/64 100/6/64
f 96/6/64 97/6/64 105/6/64
f 94/6/64 95/6/64 103/6/64
f 93/6/64 101/6/64 100/6/64
f 91/6/64 99/6/64 98/6/64
f 90/6/64 98/6/64 105/6/64
f 96/6/64 104/6/64 103/6/64
f 113/6/64 106/6/64 107/6/64
f 107/6/64 108/6/64 113/6/64
f 108/6/64 109/6/64 113/6/64
f 109/6/64 110/6/64 111/6/64
f 111/6/64 112/6/64 113/6/64
f 103/6/57 104/6/57 112/6/57
f 102/6/63 110/6/63 109/6/63
f 100/6/61 108/6/61 107/6/61
f 105/6/58 113/6/58 112/6/58
f 103/6/56 111/6/56 110/6/56
f 101/6/62 109/6/62 108/6/62
f 98/6/60 99/6/60 107/6/60
f 119/6/60 118/6/60 126/6/60
f 47/6/43 120/6/43 121/6/43
f 37/6/43 115/6/43 116/6/43
f 43/6/43 118/6/43 119/6/43
f 35/6/43 49/6/43 121/6/43
f 37/6/43 35/6/43 114/6/43
f 39/6/43 116/6/43 117/6/43
f 47/6/43 45/6/43 119/6/43
f 124/6/43 123/6/43 128/6/43
f 123/6/43 122/6/43 128/6/43
f 122/6/43 129/6/43 128/6/43
f 128/6/43 127/6/43 126/6/43
f 126/6/43 125/6/43 124/6/43
f 117/6/58 116/6/58 124/6/58
f 114/6/56 122/6/56 123/6/56
f 121/6/63 129/6/63 122/6/63
f 119/6/61 127/6/61 128/6/61
f 118/6/59 117/6/59 125/6/59
f 115/6/57 123/6/57 124/6/57
f 120/6/62 128/6/62 129/6/62
f 131/6/73 138/6/73 139/6/73
f 139/6/73 140/6/73 133/6/73
f 140/6/73 141/6/73 133/6/73
f 141/6/73 132/6/73 133/6/73
f 133/6/73 130/6/73 139/6/73
f 142/6/64 145/6/64 140/6/64
f 144/6/74 137/6/74 132/6/74
f 133/6/43 136/6/43 135/6/43
f 143/6/75 134/6/75 135/6/75
f 135/6/75 136/6/75 145/6/75
f 136/6/75 137/6/75 145/6/75
f 137/6/75 144/6/75 145/6/75
f 145/6/75 142/6/75 135/6/75
f 134/6/76 131/6/77 130/6/77
f 132/6/78 137/6/79 136/6/79
f 143/6/80 142/6/80 139/6/81
f 141/6/82 140/6/82 145/6/82
f 143/6/83 138/6/83 131/6/83
