# Material-color atlas conversion for FMUR / Minecraft 1.7.10
# Shared texture: SnipexAlligator.png
# Blender 5.2.0 LTS
# www.blender.org
o Snipex_Magazine
v -0.462969 -0.108499 0.028134
v -0.464422 -0.098368 0.028134
v -0.462969 -0.108499 -0.028133
v -0.464422 -0.098368 -0.028133
v -0.296485 -0.084618 0.022611
v -0.297939 -0.074487 0.022611
v -0.296485 -0.084618 -0.022611
v -0.297939 -0.074487 -0.022611
v -0.364423 -0.094364 -0.028134
v -0.365876 -0.084232 -0.028134
v -0.364423 -0.094364 0.028134
v -0.365876 -0.084232 0.028134
v -0.353316 -0.082431 -0.022611
v -0.351863 -0.092562 0.022611
v -0.351863 -0.092562 -0.022611
v -0.353316 -0.082431 0.022611
v -0.462969 -0.108499 -0.022804
v -0.462969 -0.108499 0.022804
v -0.464422 -0.098368 0.022804
v -0.464422 -0.098368 -0.022804
v -0.296485 -0.084618 0.018327
v -0.296485 -0.084618 -0.018327
v -0.297939 -0.074487 -0.018327
v -0.297939 -0.074487 0.018327
v -0.365876 -0.084232 -0.022804
v -0.365876 -0.084232 0.022804
v -0.364423 -0.094364 -0.022804
v -0.364423 -0.094364 0.022804
v -0.353316 -0.082431 -0.018327
v -0.353316 -0.082431 0.018327
v -0.351863 -0.092562 -0.018327
v -0.351863 -0.092562 0.018327
v -0.463790 -0.102774 0.028134
v -0.463790 -0.102774 -0.028133
v -0.297307 -0.078893 -0.022611
v -0.297307 -0.078893 0.022611
v -0.365244 -0.088638 0.028134
v -0.365244 -0.088638 -0.028134
v -0.352684 -0.086837 0.022611
v -0.352684 -0.086837 -0.022611
v -0.297307 -0.078893 -0.018327
v -0.297307 -0.078893 0.018327
v -0.463790 -0.102774 0.022804
v -0.463790 -0.102774 -0.022804
v -0.365185 -0.088663 0.022804
v -0.365185 -0.088663 -0.022804
v -0.352568 -0.086703 0.018194
v -0.352568 -0.086703 -0.018194
v -0.460119 -0.102186 0.022155
v -0.466767 0.035193 0.015875
v -0.300190 -0.080004 0.017540
v -0.305308 0.035193 0.012568
v -0.365952 -0.089125 0.022155
v -0.371699 0.035193 0.015875
v -0.358554 -0.088099 0.017540
v -0.364230 0.035193 0.012568
v -0.466213 0.022732 0.022155
v -0.304908 0.024957 0.017540
v -0.371236 0.024042 0.022155
v -0.363774 0.024145 0.017540
v -0.386322 0.043284 0.011511
v -0.466767 0.043284 0.011511
v -0.460119 -0.102186 0.016337
v -0.305308 0.035193 0.009268
v -0.371699 0.035193 0.011706
v -0.365952 -0.089125 0.016337
v -0.364230 0.035193 0.009268
v -0.358554 -0.088099 0.012934
v -0.304908 0.024957 0.012934
v -0.466767 0.035193 0.011706
v -0.300190 -0.080004 0.012934
v -0.466213 0.022732 0.016337
v -0.303427 -0.080453 0.017540
v -0.308575 0.035193 0.012568
v -0.308172 0.024912 0.017540
v -0.308575 0.035193 0.009268
v -0.303427 -0.080453 0.012934
v -0.460632 0.035193 0.015875
v -0.454042 -0.101343 0.022155
v -0.460084 0.022817 0.022155
v -0.454042 -0.101343 0.016337
v -0.460632 0.035193 0.011706
v -0.386322 0.042670 0.009761
v -0.466767 0.042670 0.009761
v -0.460632 0.043284 0.011511
v -0.460632 0.042670 0.009761
v -0.466500 0.029188 0.007260
v -0.300190 -0.080004 0.008022
v -0.466213 0.022732 0.010133
v -0.460119 -0.102186 0.010133
v -0.305308 0.035193 0.005748
v -0.365952 -0.089125 0.010133
v -0.358554 -0.088099 0.008022
v -0.304908 0.024957 0.008022
v -0.303427 -0.080453 0.008022
v -0.308575 0.035193 0.005748
v -0.460365 0.029188 0.007260
v -0.454042 -0.101343 0.010133
v -0.371699 0.018429 0.015968
v -0.364230 0.018429 0.013529
v -0.308575 0.018429 0.013529
v -0.460632 0.018429 0.015968
v -0.308575 0.018429 0.010009
v -0.460365 0.012424 0.011522
v -0.371699 -0.006717 0.015968
v -0.364230 -0.006717 0.013529
v -0.308575 -0.006717 0.013529
v -0.460632 -0.006717 0.015968
v -0.308575 -0.006717 0.010009
v -0.460365 -0.012721 0.011522
v -0.460119 -0.102186 -0.022155
v -0.466767 0.035193 -0.015875
v -0.300190 -0.080004 -0.017540
v -0.305308 0.035193 -0.012568
v -0.365952 -0.089125 -0.022155
v -0.371699 0.035193 -0.015875
v -0.358554 -0.088099 -0.017540
v -0.364230 0.035193 -0.012568
v -0.466213 0.022732 -0.022155
v -0.304908 0.024957 -0.017540
v -0.371236 0.024042 -0.022155
v -0.363774 0.024145 -0.017540
v -0.460119 -0.102186 0.000000
v -0.466500 0.029188 0.000000
v -0.300190 -0.080004 0.000000
v -0.305308 0.035193 0.000000
v -0.386322 0.043284 -0.011511
v -0.365952 -0.089125 0.000000
v -0.466767 0.043284 -0.011511
v -0.358554 -0.088099 0.000000
v -0.304908 0.024957 0.000000
v -0.466213 0.022732 0.000000
v -0.460119 -0.102186 -0.016337
v -0.305308 0.035193 -0.009268
v -0.371699 0.035193 -0.011706
v -0.365952 -0.089125 -0.016337
v -0.364230 0.035193 -0.009268
v -0.358554 -0.088099 -0.012934
v -0.304908 0.024957 -0.012934
v -0.466767 0.035193 -0.011706
v -0.300190 -0.080004 -0.012934
v -0.466213 0.022732 -0.016337
v -0.303427 -0.080453 -0.017540
v -0.308575 0.035193 -0.012568
v -0.308172 0.024912 -0.017540
v -0.308575 0.035193 0.000000
v -0.303427 -0.080453 0.000000
v -0.308575 0.035193 -0.009268
v -0.303427 -0.080453 -0.012934
v -0.460632 0.035193 -0.015875
v -0.454042 -0.101343 -0.022155
v -0.460084 0.022817 -0.022155
v -0.454042 -0.101343 0.000000
v -0.460365 0.029188 0.000000
v -0.454042 -0.101343 -0.016337
v -0.460632 0.035193 -0.011706
v -0.386322 0.042670 -0.009761
v -0.466767 0.042670 -0.009761
v -0.460632 0.043284 -0.011511
v -0.460632 0.042670 -0.009761
v -0.466500 0.029188 -0.007260
v -0.300190 -0.080004 -0.008022
v -0.466213 0.022732 -0.010132
v -0.460119 -0.102186 -0.010132
v -0.305308 0.035193 -0.005748
v -0.365952 -0.089125 -0.010132
v -0.358554 -0.088099 -0.008022
v -0.304908 0.024957 -0.008022
v -0.303427 -0.080453 -0.008022
v -0.308575 0.035193 -0.005748
v -0.460365 0.029188 -0.007260
v -0.454042 -0.101343 -0.010132
v -0.371699 0.018429 -0.015967
v -0.364230 0.018429 -0.013529
v -0.308575 0.018429 0.000000
v -0.308575 0.018429 -0.013529
v -0.460365 0.012424 0.000000
v -0.460632 0.018429 -0.015967
v -0.308575 0.018429 -0.010009
v -0.460365 0.012424 -0.011522
v -0.371699 -0.006717 -0.015967
v -0.364230 -0.006717 -0.013529
v -0.308575 -0.006717 0.000000
v -0.308575 -0.006717 -0.013529
v -0.460365 -0.012721 0.000000
v -0.460632 -0.006717 -0.015967
v -0.308575 -0.006717 -0.010009
v -0.460365 -0.012721 -0.011522
v -0.451275 0.034542 -0.012355
v -0.374764 0.034542 -0.012355
v -0.451275 0.025805 -0.008736
v -0.374764 0.025805 -0.008736
v -0.451275 0.022186 0.000000
v -0.374764 0.022186 0.000000
v -0.451275 0.025805 0.008736
v -0.374764 0.025805 0.008736
v -0.451275 0.034542 0.012355
v -0.374764 0.034542 0.012355
v -0.451275 0.043278 0.008736
v -0.374764 0.043278 0.008736
v -0.451275 0.046897 0.000000
v -0.374764 0.046897 0.000000
v -0.451275 0.043278 -0.008736
v -0.374764 0.043278 -0.008736
v -0.452932 0.034542 -0.010381
v -0.452932 0.027201 -0.007340
v -0.452932 0.024161 0.000000
v -0.452932 0.027201 0.007340
v -0.452932 0.034542 0.010381
v -0.452932 0.041882 0.007340
v -0.452932 0.044922 0.000000
v -0.452932 0.041882 -0.007340
v -0.457451 0.034542 -0.010381
v -0.457451 0.027201 -0.007340
v -0.457451 0.024161 0.000000
v -0.457451 0.027201 0.007340
v -0.457451 0.034542 0.010381
v -0.457451 0.041882 0.007340
v -0.457451 0.044922 0.000000
v -0.457451 0.041882 -0.007340
v -0.457451 0.034542 -0.012680
v -0.457451 0.025575 -0.008966
v -0.457451 0.021861 0.000000
v -0.457451 0.025575 0.008966
v -0.457451 0.034542 0.012680
v -0.457451 0.043508 0.008966
v -0.457451 0.047222 0.000000
v -0.457451 0.043508 -0.008966
v -0.459560 0.034542 -0.012680
v -0.459560 0.025575 -0.008966
v -0.459560 0.021861 0.000000
v -0.459560 0.025575 0.008966
v -0.459560 0.034542 0.012680
v -0.459560 0.043508 0.008966
v -0.459560 0.047222 0.000000
v -0.459560 0.043508 -0.008966
v -0.460765 0.034542 -0.011288
v -0.460765 0.026559 -0.007982
v -0.460765 0.023253 0.000000
v -0.460765 0.026559 0.007982
v -0.460765 0.034542 0.011288
v -0.460765 0.042524 0.007982
v -0.460765 0.045830 0.000000
v -0.460765 0.042524 -0.007982
v -0.460765 0.034542 -0.004665
v -0.460765 0.031243 -0.003299
v -0.460765 0.029876 0.000000
v -0.460765 0.031243 0.003299
v -0.460765 0.034542 0.004665
v -0.460765 0.037840 0.003299
v -0.460765 0.039207 0.000000
v -0.460765 0.037840 -0.003299
v -0.459328 0.034542 -0.004665
v -0.459328 0.031243 -0.003299
v -0.459328 0.029876 0.000000
v -0.459328 0.031243 0.003299
v -0.459328 0.034542 0.004665
v -0.459328 0.037840 0.003299
v -0.459328 0.039207 0.000000
v -0.459328 0.037840 -0.003299
v -0.459328 0.031834 -0.002708
v -0.459328 0.030712 0.000000
v -0.459328 0.034542 0.003829
v -0.459328 0.037249 0.002708
v -0.459328 0.038371 0.000000
v -0.364512 0.034542 -0.007486
v -0.364512 0.029248 -0.005293
v -0.364512 0.027055 0.000000
v -0.364512 0.029248 0.005293
v -0.364512 0.034542 0.007486
v -0.364512 0.039835 0.005293
v -0.364512 0.042028 0.000000
v -0.364512 0.039835 -0.005293
v -0.350599 0.034542 -0.007486
v -0.350599 0.029248 -0.005293
v -0.350599 0.027055 0.000000
v -0.350599 0.029248 0.005293
v -0.350599 0.034542 0.007486
v -0.350599 0.039835 0.005293
v -0.350598 0.042028 0.000000
v -0.350599 0.039835 -0.005293
v -0.350599 0.034542 -0.006594
v -0.350598 0.029879 -0.004662
v -0.350599 0.027948 0.000000
v -0.350598 0.029879 0.004662
v -0.350599 0.034542 0.006594
v -0.350598 0.039204 0.004662
v -0.350599 0.041135 0.000000
v -0.350598 0.039204 -0.004662
v -0.378570 0.034542 -0.006594
v -0.378570 0.029879 -0.004662
v -0.378570 0.027948 0.000000
v -0.378570 0.029879 0.004662
v -0.378570 0.034542 0.006594
v -0.378570 0.039204 0.004662
v -0.378570 0.041135 0.000000
v -0.378570 0.039204 -0.004662
v -0.459328 0.034542 -0.003829
v -0.459328 0.031834 0.002708
v -0.459328 0.037249 -0.002708
v -0.460729 0.034542 -0.003829
v -0.460729 0.031834 -0.002708
v -0.460729 0.030712 0.000000
v -0.460729 0.031834 0.002708
v -0.460729 0.034542 0.003829
v -0.460729 0.037249 0.002708
v -0.460729 0.038371 0.000000
v -0.460729 0.037249 -0.002708
v -0.350599 0.034542 -0.006823
v -0.350599 0.029717 -0.004824
v -0.350598 0.027719 0.000000
v -0.350599 0.029717 0.004824
v -0.350599 0.034542 0.006823
v -0.350599 0.039366 0.004824
v -0.350599 0.041364 0.000000
v -0.350599 0.039366 -0.004824
v -0.339282 0.034542 -0.006823
v -0.339282 0.029717 -0.004824
v -0.339282 0.027719 0.000000
v -0.339282 0.029717 0.004824
v -0.339282 0.034542 0.006823
v -0.339282 0.039366 0.004824
v -0.339282 0.041364 0.000000
v -0.339282 0.039366 -0.004824
v -0.333233 0.034542 -0.006235
v -0.333233 0.030133 -0.004409
v -0.333233 0.028307 0.000000
v -0.333233 0.030133 0.004409
v -0.333233 0.034542 0.006235
v -0.333233 0.038950 0.004409
v -0.333233 0.040776 0.000000
v -0.333233 0.038950 -0.004409
v -0.322234 0.034542 -0.003846
v -0.322234 0.031822 -0.002720
v -0.322234 0.030695 0.000000
v -0.322234 0.031822 0.002720
v -0.322234 0.034542 0.003846
v -0.322234 0.037261 0.002720
v -0.322234 0.038388 0.000000
v -0.322234 0.037261 -0.002720
v -0.311997 0.034542 -0.001364
v -0.311997 0.033577 -0.000965
v -0.311997 0.033177 0.000000
v -0.311997 0.033577 0.000965
v -0.311997 0.034542 0.001364
v -0.311997 0.035506 0.000965
v -0.311997 0.035906 0.000000
v -0.311997 0.035506 -0.000965
v -0.310617 0.034542 -0.000446
v -0.310617 0.034226 -0.000315
v -0.310617 0.034096 0.000000
v -0.310617 0.034226 0.000315
v -0.310617 0.034542 0.000446
v -0.310617 0.034857 0.000315
v -0.310617 0.034987 0.000000
v -0.310617 0.034857 -0.000315
v -0.353455 0.034502 -0.004490
v -0.353455 0.030494 -0.002830
v -0.353455 0.028834 0.001178
v -0.353455 0.030494 0.005185
v -0.353455 0.034502 0.006845
v -0.353455 0.038509 0.005185
v -0.353455 0.040169 0.001178
v -0.353455 0.038509 -0.002830
v -0.451275 0.012426 -0.017270
v -0.374764 0.012426 -0.017270
v -0.451275 0.003689 -0.013651
v -0.374764 0.003689 -0.013651
v -0.451275 0.000071 -0.004915
v -0.374764 0.000071 -0.004915
v -0.451275 0.003689 0.003822
v -0.374764 0.003689 0.003822
v -0.451275 0.012426 0.007441
v -0.374764 0.012426 0.007440
v -0.451275 0.021162 0.003822
v -0.374764 0.021162 0.003822
v -0.451275 0.024781 -0.004915
v -0.374764 0.024781 -0.004915
v -0.451275 0.021162 -0.013651
v -0.374764 0.021162 -0.013651
v -0.452932 0.012426 -0.015295
v -0.452932 0.005086 -0.012255
v -0.452932 0.002045 -0.004915
v -0.452932 0.005086 0.002426
v -0.452932 0.012426 0.005466
v -0.452932 0.019766 0.002426
v -0.452932 0.022806 -0.004915
v -0.452932 0.019766 -0.012255
v -0.457451 0.012426 -0.015295
v -0.457451 0.005086 -0.012255
v -0.457451 0.002045 -0.004915
v -0.457451 0.005086 0.002426
v -0.457451 0.012426 0.005466
v -0.457451 0.019766 0.002426
v -0.457451 0.022806 -0.004915
v -0.457451 0.019766 -0.012255
v -0.457451 0.012426 -0.017595
v -0.457451 0.003460 -0.013881
v -0.457451 -0.000254 -0.004915
v -0.457451 0.003460 0.004052
v -0.457451 0.012426 0.007766
v -0.457451 0.021392 0.004052
v -0.457451 0.025106 -0.004915
v -0.457451 0.021392 -0.013881
v -0.459560 0.012426 -0.017595
v -0.459560 0.003460 -0.013881
v -0.459560 -0.000254 -0.004915
v -0.459560 0.003460 0.004052
v -0.459560 0.012426 0.007766
v -0.459560 0.021392 0.004052
v -0.459560 0.025106 -0.004915
v -0.459560 0.021392 -0.013881
v -0.460765 0.012426 -0.016203
v -0.460765 0.004444 -0.012897
v -0.460765 0.001137 -0.004915
v -0.460765 0.004444 0.003068
v -0.460765 0.012426 0.006374
v -0.460765 0.020408 0.003068
v -0.460765 0.023714 -0.004915
v -0.460765 0.020408 -0.012897
v -0.460765 0.012426 -0.009580
v -0.460765 0.009127 -0.008213
v -0.460765 0.007761 -0.004915
v -0.460765 0.009127 -0.001616
v -0.460765 0.012426 -0.000249
v -0.460765 0.015725 -0.001616
v -0.460765 0.017091 -0.004915
v -0.460765 0.015725 -0.008213
v -0.459328 0.012426 -0.009580
v -0.459328 0.009127 -0.008213
v -0.459328 0.007761 -0.004915
v -0.459328 0.009127 -0.001616
v -0.459328 0.012426 -0.000249
v -0.459328 0.015725 -0.001616
v -0.459328 0.017091 -0.004915
v -0.459328 0.015725 -0.008213
v -0.459328 0.012426 -0.008744
v -0.459328 0.008597 -0.004915
v -0.459328 0.012426 -0.001085
v -0.459328 0.016255 -0.004915
v -0.459328 0.015133 -0.007622
v -0.364512 0.012426 -0.012401
v -0.364512 0.007132 -0.010208
v -0.364512 0.004940 -0.004915
v -0.364512 0.007132 0.000379
v -0.364512 0.012426 0.002571
v -0.364512 0.017719 0.000379
v -0.364512 0.019912 -0.004915
v -0.364512 0.017719 -0.010208
v -0.350598 0.012426 -0.012401
v -0.350598 0.007132 -0.010208
v -0.350598 0.004940 -0.004915
v -0.350598 0.007132 0.000379
v -0.350598 0.012426 0.002571
v -0.350598 0.017719 0.000379
v -0.350598 0.019912 -0.004915
v -0.350598 0.017719 -0.010208
v -0.350598 0.012426 -0.011508
v -0.350598 0.007763 -0.009577
v -0.350598 0.005832 -0.004915
v -0.350598 0.007763 -0.000252
v -0.350598 0.012426 0.001679
v -0.350598 0.017088 -0.000252
v -0.350598 0.019019 -0.004915
v -0.350598 0.017088 -0.009577
v -0.378569 0.012426 -0.011508
v -0.378569 0.007763 -0.009577
v -0.378570 0.005832 -0.004915
v -0.378569 0.007763 -0.000252
v -0.378569 0.012426 0.001679
v -0.378569 0.017088 -0.000252
v -0.378570 0.019019 -0.004915
v -0.378570 0.017088 -0.009577
v -0.459328 0.009718 -0.007622
v -0.459328 0.009718 -0.002207
v -0.459328 0.015133 -0.002207
v -0.460729 0.012426 -0.008744
v -0.460729 0.009718 -0.007622
v -0.460729 0.008597 -0.004915
v -0.460729 0.009718 -0.002207
v -0.460729 0.012426 -0.001085
v -0.460729 0.015133 -0.002207
v -0.460729 0.016255 -0.004915
v -0.460729 0.015133 -0.007622
v -0.350598 0.012426 -0.011737
v -0.350598 0.007602 -0.009739
v -0.350598 0.005603 -0.004915
v -0.350598 0.007602 -0.000090
v -0.350598 0.012426 0.001908
v -0.350598 0.017250 -0.000090
v -0.350598 0.019248 -0.004915
v -0.350598 0.017250 -0.009739
v -0.339282 0.012426 -0.011737
v -0.339282 0.007602 -0.009739
v -0.339282 0.005603 -0.004915
v -0.339282 0.007602 -0.000090
v -0.339282 0.012426 0.001908
v -0.339282 0.017250 -0.000090
v -0.339282 0.019248 -0.004915
v -0.339282 0.017250 -0.009739
v -0.333233 0.012426 -0.011149
v -0.333233 0.008017 -0.009323
v -0.333233 0.006191 -0.004915
v -0.333233 0.008017 -0.000506
v -0.333233 0.012426 0.001320
v -0.333233 0.016835 -0.000506
v -0.333233 0.018661 -0.004915
v -0.333233 0.016835 -0.009323
v -0.322234 0.012426 -0.008761
v -0.322234 0.009706 -0.007634
v -0.322234 0.008580 -0.004915
v -0.322234 0.009706 -0.002195
v -0.322234 0.012426 -0.001068
v -0.322234 0.015145 -0.002195
v -0.322234 0.016272 -0.004915
v -0.322234 0.015145 -0.007634
v -0.311997 0.012426 -0.006279
v -0.311997 0.011461 -0.005879
v -0.311997 0.011062 -0.004915
v -0.311997 0.011461 -0.003950
v -0.311997 0.012426 -0.003550
v -0.311997 0.013391 -0.003950
v -0.311997 0.013790 -0.004915
v -0.311997 0.013391 -0.005879
v -0.310616 0.012426 -0.005360
v -0.310617 0.012111 -0.005230
v -0.310616 0.011980 -0.004915
v -0.310617 0.012111 -0.004599
v -0.310616 0.012426 -0.004469
v -0.310617 0.012741 -0.004599
v -0.310616 0.012871 -0.004915
v -0.310617 0.012741 -0.005230
v -0.353455 0.012386 -0.009404
v -0.353455 0.008378 -0.007744
v -0.353455 0.006718 -0.003737
v -0.353455 0.008378 0.000271
v -0.353455 0.012386 0.001931
v -0.353455 0.016393 0.000271
v -0.353455 0.018053 -0.003737
v -0.353455 0.016393 -0.007744
v -0.451275 -0.007724 -0.009898
v -0.374764 -0.007724 -0.009898
v -0.451275 -0.016460 -0.006279
v -0.374764 -0.016460 -0.006279
v -0.451275 -0.020079 0.002457
v -0.374764 -0.020079 0.002457
v -0.451275 -0.016460 0.011194
v -0.374764 -0.016460 0.011194
v -0.451275 -0.007724 0.014812
v -0.374764 -0.007724 0.014812
v -0.451275 0.001012 0.011194
v -0.374764 0.001012 0.011194
v -0.451275 0.004631 0.002457
v -0.374764 0.004631 0.002457
v -0.451275 0.001012 -0.006279
v -0.374764 0.001012 -0.006279
v -0.452932 -0.007724 -0.007923
v -0.452932 -0.015064 -0.004883
v -0.452932 -0.018105 0.002457
v -0.452932 -0.015064 0.009798
v -0.452932 -0.007724 0.012838
v -0.452932 -0.000384 0.009798
v -0.452932 0.002656 0.002457
v -0.452932 -0.000384 -0.004883
v -0.457451 -0.007724 -0.007923
v -0.457451 -0.015064 -0.004883
v -0.457451 -0.018105 0.002457
v -0.457451 -0.015064 0.009798
v -0.457451 -0.007724 0.012838
v -0.457451 -0.000384 0.009798
v -0.457451 0.002657 0.002457
v -0.457451 -0.000384 -0.004883
v -0.457451 -0.007724 -0.010223
v -0.457451 -0.016690 -0.006509
v -0.457451 -0.020404 0.002457
v -0.457451 -0.016690 0.011424
v -0.457451 -0.007724 0.015137
v -0.457451 0.001242 0.011424
v -0.457451 0.004956 0.002457
v -0.457451 0.001242 -0.006509
v -0.459560 -0.007724 -0.010223
v -0.459560 -0.016690 -0.006509
v -0.459560 -0.020404 0.002457
v -0.459560 -0.016690 0.011424
v -0.459560 -0.007724 0.015137
v -0.459560 0.001242 0.011424
v -0.459560 0.004956 0.002457
v -0.459560 0.001242 -0.006509
v -0.460765 -0.007724 -0.008831
v -0.460765 -0.015706 -0.005525
v -0.460765 -0.019012 0.002457
v -0.460765 -0.015706 0.010439
v -0.460765 -0.007724 0.013746
v -0.460765 0.000258 0.010439
v -0.460765 0.003564 0.002457
v -0.460765 0.000258 -0.005525
v -0.460765 -0.007724 -0.002208
v -0.460765 -0.011023 -0.000841
v -0.460765 -0.012389 0.002457
v -0.460765 -0.011023 0.005756
v -0.460765 -0.007724 0.007123
v -0.460765 -0.004425 0.005756
v -0.460765 -0.003059 0.002457
v -0.460765 -0.004425 -0.000841
v -0.459328 -0.007724 -0.002208
v -0.459328 -0.011023 -0.000841
v -0.459328 -0.012389 0.002457
v -0.459328 -0.011023 0.005756
v -0.459328 -0.007724 0.007123
v -0.459328 -0.004425 0.005756
v -0.459328 -0.003059 0.002457
v -0.459328 -0.004425 -0.000841
v -0.459328 -0.010432 0.005165
v -0.364512 -0.007724 -0.005029
v -0.364512 -0.013017 -0.002836
v -0.364512 -0.015210 0.002457
v -0.364512 -0.013017 0.007751
v -0.364512 -0.007724 0.009943
v -0.364512 -0.002431 0.007751
v -0.364512 -0.000238 0.002457
v -0.364512 -0.002431 -0.002836
v -0.350599 -0.007724 -0.005029
v -0.350599 -0.013017 -0.002836
v -0.350599 -0.015210 0.002457
v -0.350599 -0.013017 0.007751
v -0.350599 -0.007724 0.009943
v -0.350599 -0.002431 0.007751
v -0.350598 -0.000238 0.002457
v -0.350599 -0.002431 -0.002836
v -0.350599 -0.007724 -0.004136
v -0.350598 -0.012386 -0.002205
v -0.350599 -0.014318 0.002457
v -0.350598 -0.012386 0.007120
v -0.350599 -0.007724 0.009051
v -0.350598 -0.003062 0.007120
v -0.350599 -0.001131 0.002457
v -0.350598 -0.003062 -0.002205
v -0.378570 -0.007724 -0.004136
v -0.378569 -0.012386 -0.002205
v -0.378569 -0.014318 0.002457
v -0.378569 -0.012386 0.007120
v -0.378570 -0.007724 0.009051
v -0.378570 -0.003062 0.007120
v -0.378570 -0.001131 0.002457
v -0.378570 -0.003062 -0.002205
v -0.459328 -0.007724 -0.001372
v -0.459328 -0.010432 -0.000250
v -0.459328 -0.011553 0.002457
v -0.459328 -0.007724 0.006286
v -0.459328 -0.005016 0.005165
v -0.459328 -0.003895 0.002457
v -0.459328 -0.005016 -0.000250
v -0.460729 -0.007724 -0.001372
v -0.460729 -0.010432 -0.000250
v -0.460729 -0.011553 0.002457
v -0.460729 -0.010432 0.005165
v -0.460729 -0.007724 0.006286
v -0.460729 -0.005016 0.005165
v -0.460729 -0.003895 0.002457
v -0.460729 -0.005016 -0.000250
v -0.350599 -0.007724 -0.004365
v -0.350598 -0.012548 -0.002367
v -0.350598 -0.014547 0.002457
v -0.350598 -0.012548 0.007282
v -0.350599 -0.007724 0.009280
v -0.350599 -0.002900 0.007282
v -0.350599 -0.000901 0.002457
v -0.350599 -0.002900 -0.002367
v -0.339282 -0.007724 -0.004365
v -0.339282 -0.012548 -0.002367
v -0.339282 -0.014547 0.002457
v -0.339282 -0.012548 0.007282
v -0.339282 -0.007724 0.009280
v -0.339282 -0.002900 0.007282
v -0.339282 -0.000901 0.002457
v -0.339282 -0.002900 -0.002367
v -0.333233 -0.007724 -0.003778
v -0.333233 -0.012133 -0.001951
v -0.333233 -0.013959 0.002457
v -0.333233 -0.012133 0.006866
v -0.333233 -0.007724 0.008692
v -0.333233 -0.003315 0.006866
v -0.333233 -0.001489 0.002457
v -0.333233 -0.003315 -0.001951
v -0.322234 -0.007724 -0.001389
v -0.322234 -0.010444 -0.000262
v -0.322234 -0.011570 0.002457
v -0.322234 -0.010444 0.005177
v -0.322234 -0.007724 0.006303
v -0.322234 -0.005004 0.005177
v -0.322234 -0.003878 0.002457
v -0.322234 -0.005004 -0.000262
v -0.311997 -0.007724 0.001093
v -0.311997 -0.008689 0.001493
v -0.311997 -0.009088 0.002457
v -0.311997 -0.008689 0.003422
v -0.311997 -0.007724 0.003822
v -0.311997 -0.006759 0.003422
v -0.311997 -0.006360 0.002457
v -0.311997 -0.006759 0.001493
v -0.310617 -0.007724 0.002012
v -0.310617 -0.008039 0.002142
v -0.310617 -0.008170 0.002457
v -0.310617 -0.008039 0.002772
v -0.310617 -0.007724 0.002903
v -0.310617 -0.007409 0.002772
v -0.310617 -0.007278 0.002457
v -0.310617 -0.007409 0.002142
v -0.353455 -0.007764 -0.002033
v -0.353455 -0.011772 -0.000373
v -0.353455 -0.013432 0.003635
v -0.353455 -0.011772 0.007643
v -0.353455 -0.007764 0.009302
v -0.353455 -0.003757 0.007643
v -0.353455 -0.002097 0.003635
v -0.353455 -0.003756 -0.000373
vn -0.9899 -0.1420 -0.0000
vn -0.0000 -0.0000 -1.0000
vn 0.9899 0.1420 -0.0000
vn -0.0000 -0.0000 1.0000
vn 0.1420 -0.9899 -0.0000
vn -0.1420 0.9899 -0.0000
vn 0.3950 0.0567 0.9169
vn 0.3950 0.0567 -0.9169
vn -0.1417 0.9899 -0.0000
vn -0.1412 0.9900 -0.0000
vn -0.1531 0.9882 -0.0000
vn -0.1540 0.9881 -0.0000
vn -0.1403 0.9901 -0.0000
vn -0.1399 0.9902 -0.0000
vn -0.0044 0.0304 0.9995
vn -0.0044 0.0304 -0.9995
vn -0.3287 -0.0513 -0.9430
vn -0.3287 -0.0513 0.9430
vn 0.9991 0.0420 -0.0000
vn 0.9992 0.0390 -0.0000
vn 0.9992 0.0395 -0.0000
vn -0.0042 0.4517 0.8921
vn -0.0012 0.4505 0.8928
vn -0.0032 0.4524 0.8918
vn 0.1374 -0.9905 -0.0000
vn -0.0000 0.4747 0.8802
vn -0.0000 1.0000 -0.0000
vn 0.4655 0.4489 0.7627
vn -0.0058 0.4352 0.9003
vn -0.0060 0.4352 0.9003
vn -0.0022 0.4356 0.9001
vn 0.5258 0.0245 0.8502
vn 0.5263 0.0245 0.8499
vn 0.5267 0.0246 0.8497
vn 0.9990 0.0449 -0.0000
vn -0.9988 -0.0486 -0.0000
vn -0.9988 -0.0487 -0.0000
vn -0.9990 -0.0444 -0.0000
vn -0.9990 -0.0445 -0.0000
vn -0.9988 -0.0490 -0.0000
vn -0.0000 0.9436 -0.3311
vn -0.0000 -0.2517 -0.9678
vn -0.0000 -0.2523 -0.9676
vn -0.0000 0.5950 -0.8037
vn -0.0046 0.4364 0.8997
vn -0.0060 0.4367 0.8996
vn -1.0000 -0.0000 -0.0000
vn -0.0068 0.4905 0.8714
vn -0.0000 -0.2502 -0.9682
vn 0.4841 0.8750 -0.0000
vn -0.0000 -0.2464 -0.9692
vn 1.0000 -0.0000 -0.0000
vn 0.9989 0.0113 0.0447
vn 0.9989 0.0114 0.0447
vn -0.3017 -0.2349 -0.9240
vn 0.9982 -0.0000 0.0600
vn -0.3104 -0.0000 -0.9506
vn -0.0011 0.4505 -0.8928
vn -0.0042 0.4517 -0.8921
vn -0.0032 0.4524 -0.8918
vn -0.0000 0.4747 -0.8802
vn 0.3722 0.3937 -0.8406
vn -0.0060 0.4352 -0.9003
vn -0.0059 0.4352 -0.9003
vn -0.0023 0.4357 -0.9001
vn 0.5259 0.0245 -0.8502
vn 0.5264 0.0246 -0.8499
vn 0.5256 0.0244 -0.8504
vn -0.9989 -0.0465 -0.0000
vn -0.0000 0.9436 0.3311
vn -0.0000 -0.2517 0.9678
vn -0.0000 -0.2523 0.9676
vn -0.0000 0.5950 0.8037
vn -0.0046 0.4364 -0.8997
vn -0.0060 0.4367 -0.8996
vn -0.0068 0.4905 -0.8714
vn -0.0000 -0.2502 0.9682
vn -0.0000 -0.2464 0.9692
vn 0.9989 0.0113 -0.0447
vn 0.9989 0.0114 -0.0447
vn -0.3017 -0.2349 0.9240
vn 0.9982 -0.0000 -0.0600
vn -0.3104 -0.0000 0.9506
vn -0.0000 -0.3827 -0.9239
vn -0.0000 -0.9239 -0.3827
vn -0.0000 -0.9239 0.3827
vn -0.0000 -0.3827 0.9239
vn -0.0000 0.3827 0.9239
vn -0.0000 0.9239 0.3827
vn 0.4018 -0.8460 -0.3504
vn -0.0000 0.9239 -0.3827
vn -0.0000 0.3827 -0.9239
vn -0.7402 -0.6212 0.2573
vn -0.7402 0.6212 0.2573
vn -0.7402 -0.2573 0.6212
vn -0.7402 0.6212 -0.2573
vn -0.7402 -0.6212 -0.2573
vn -0.7402 0.2573 0.6212
vn -0.7402 0.2573 -0.6212
vn -0.7402 -0.2573 -0.6212
vn -0.7296 -0.6318 -0.2617
vn -0.7296 0.6318 -0.2617
vn -0.7296 0.2617 0.6318
vn -0.7296 -0.6318 0.2617
vn -0.7296 -0.2617 -0.6318
vn -0.7296 0.2617 -0.6318
vn -0.7296 0.6318 0.2617
vn -0.7296 -0.2617 0.6318
vn 0.4018 0.3504 0.8460
vn 0.4018 0.3504 -0.8460
vn 0.4018 -0.3504 -0.8460
vn 0.4018 -0.8460 0.3504
vn 0.4018 0.8460 0.3504
vn 0.4018 -0.3504 0.8460
vn 0.4018 0.8460 -0.3504
vn 1.0000 -0.0001 -0.0000
vn 1.0000 0.0001 -0.0000
vn 1.0000 -0.0000 0.0001
vn 1.0000 -0.0000 -0.0001
vn 0.0894 -0.3812 -0.9202
vn 0.0063 -0.3827 0.9239
vn -0.0001 0.3827 0.9239
vn 0.1967 0.9058 -0.3752
vn 0.0894 0.3812 -0.9202
vn 0.0894 0.9202 0.3812
vn 0.0894 -0.3812 0.9202
vn 0.0894 -0.9202 -0.3811
vn 0.0894 0.9202 -0.3812
vn 0.0894 0.3812 0.9202
vn 0.0894 -0.9202 0.3812
vn 0.2186 -0.9015 -0.3734
vn 0.2186 -0.9015 -0.3735
vn 0.1967 0.3752 0.9058
vn 0.1967 -0.9058 0.3752
vn 0.1967 -0.3752 -0.9058
vn 0.1967 0.3752 -0.9058
vn 0.1967 0.9058 0.3752
vn 0.1967 -0.3752 0.9058
vn 0.1967 -0.9058 -0.3752
vn 0.5238 0.3260 -0.7870
vn 0.2186 0.9015 -0.3734
vn 0.2186 0.3734 0.9015
vn 0.2186 -0.9015 0.3734
vn 0.2186 -0.9015 0.3735
vn 0.2186 -0.3734 -0.9015
vn 0.2186 0.3734 -0.9015
vn 0.2186 0.9015 0.3734
vn 0.2186 -0.3734 0.9015
vn 0.5238 0.7870 0.3260
vn 0.5238 0.7870 0.3259
vn 0.5238 -0.3260 0.7870
vn 0.5238 -0.7870 -0.3260
vn 0.5238 -0.7870 -0.3259
vn 0.5238 0.7870 -0.3260
vn 0.5238 0.7870 -0.3259
vn 0.5238 0.7871 -0.3259
vn 0.5238 0.3260 0.7870
vn 0.5238 -0.7870 0.3260
vn 0.5238 -0.7870 0.3259
vn 0.5238 -0.3260 -0.7870
vn 0.0016 0.3827 0.9239
vn 0.0019 0.3827 0.9239
vn -0.1988 -0.9054 0.3750
vn -0.5995 -0.3063 -0.7394
vn -0.6050 0.3047 -0.7356
vn -0.2230 0.9006 0.3730
vn 0.0127 -0.3827 0.9238
vn 0.0120 -0.3827 0.9238
vn -0.4602 -0.8202 -0.3397
vn -0.4780 0.8115 -0.3361
vn 0.0894 0.9202 0.3811
vn 0.0894 -0.9202 -0.3812
vn 0.0894 0.9202 -0.3811
vn 1.0000 -0.0003 0.0003
vn 0.5238 -0.3261 0.7870
vn 0.5238 -0.7870 -0.3261
vn 0.5238 0.7870 -0.3261
vn 0.5238 0.3261 -0.7870
vn 0.0018 0.3827 0.9239
vn 0.0024 0.0003 1.0000
vn 0.0024 0.0003 -1.0000
vn -0.3389 -0.0300 -0.9403
vn -0.3389 -0.0300 0.9403
vn -0.0000 0.4501 0.8930
vn 0.3722 0.3937 0.8406
vn -0.0000 0.4104 0.9119
vn 0.5256 0.0244 0.8504
vn -0.9990 -0.0443 -0.0000
vn -0.0000 0.4525 0.8918
vn 0.4659 0.8349 -0.2930
vn -0.0000 0.4501 -0.8930
vn 0.4655 0.4489 -0.7627
vn -0.0000 0.4104 -0.9119
vn 0.5267 0.0246 -0.8497
vn -0.0000 0.4525 -0.8918
vn 0.4659 0.8349 0.2930
vn 1.0000 -0.0000 0.0002
vn 1.0000 -0.0001 0.0003
vn 1.0000 -0.0001 -0.0003
vn 0.5238 -0.7871 -0.3259
vn 1.0000 -0.0003 -0.0003
vn 0.5238 0.3261 0.7870
vn 0.5238 -0.7870 0.3261
vn 0.5238 -0.3261 -0.7870
vn 1.0000 -0.0003 -0.0004
vn 1.0000 0.0001 0.0001
vn 1.0000 0.0003 0.0004
vn 1.0000 -0.0001 -0.0001
s 1
vt 0.125000 0.875000
vt 0.375000 0.875000
vt 0.625000 0.875000
vt 0.875000 0.875000
vt 0.125000 0.625000
vt 0.375000 0.625000
vt 0.625000 0.625000
vt 0.875000 0.625000
vt 0.125000 0.375000
vt 0.375000 0.375000
f 69/4/19 52/4/20 58/4/21
f 78/4/22 57/4/23 80/4/24
f 71/4/25 73/4/25 77/4/25
f 50/4/26 85/4/26 62/4/26
f 65/4/27 56/4/27 67/4/27
f 66/4/25 79/4/25 81/4/25
f 60/4/28 54/4/28 59/4/28
f 74/4/29 60/4/30 75/4/31
f 67/4/27 74/4/27 76/4/27
f 66/4/25 55/4/25 53/4/25
f 73/4/4 60/4/4 55/4/4
f 55/4/32 59/4/33 53/4/34
f 79/4/4 57/4/4 49/4/4
f 69/4/19 51/4/35 71/4/35
f 89/4/36 123/4/37 90/4/37
f 87/4/38 132/4/39 89/4/36
f 50/4/38 72/4/38 57/4/40
f 57/4/40 63/4/37 49/4/37
f 94/4/19 71/4/35 88/4/35
f 92/4/25 68/4/25 66/4/25
f 84/4/41 85/4/41 86/4/41
f 92/4/25 81/4/25 98/4/25
f 70/4/42 86/4/42 82/4/43
f 87/4/44 82/4/44 97/4/44
f 88/4/25 77/4/25 95/4/25
f 94/4/19 64/4/20 69/4/19
f 95/4/25 68/4/25 93/4/25
f 96/4/27 64/4/27 91/4/27
f 51/4/4 75/4/4 73/4/4
f 76/4/27 52/4/27 64/4/27
f 52/4/45 75/4/31 58/4/46
f 77/4/25 55/4/25 68/4/25
f 86/4/41 61/4/41 83/4/41
f 98/4/25 63/4/25 90/4/25
f 53/4/4 80/4/4 79/4/4
f 81/4/25 49/4/25 63/4/25
f 70/4/47 62/4/47 84/4/47
f 54/4/48 80/4/48 59/4/48
f 82/4/43 83/4/42 65/4/49
f 65/4/50 61/4/50 54/4/50
f 78/4/26 61/4/26 85/4/26
f 123/4/25 98/4/25 90/4/25
f 146/4/27 91/4/27 126/4/27
f 147/4/25 93/4/25 130/4/25
f 131/4/19 91/4/20 94/4/19
f 125/4/25 95/4/25 147/4/25
f 124/4/27 97/4/27 154/4/27
f 153/4/25 92/4/25 98/4/25
f 128/4/25 93/4/25 92/4/25
f 131/4/19 88/4/35 125/4/35
f 72/4/38 87/4/38 89/4/36
f 72/4/38 90/4/37 63/4/37
f 76/4/51 100/4/51 67/4/51
f 97/4/52 177/4/52 154/4/52
f 65/4/49 102/4/51 82/4/43
f 76/4/47 103/4/47 101/4/47
f 96/4/47 175/4/47 103/4/47
f 97/4/53 102/4/54 104/4/54
f 65/4/55 100/4/55 99/4/55
f 104/4/56 108/4/56 110/4/56
f 101/4/2 106/4/2 100/4/2
f 100/4/57 105/4/57 99/4/57
f 175/4/47 109/4/47 103/4/47
f 103/4/47 107/4/47 101/4/47
f 99/4/2 108/4/2 102/4/2
f 104/4/52 185/4/52 177/4/52
f 139/4/19 114/4/20 134/4/20
f 119/4/58 150/4/59 152/4/60
f 149/4/25 113/4/25 141/4/25
f 112/4/61 159/4/61 150/4/61
f 118/4/27 135/4/27 137/4/27
f 151/4/25 136/4/25 155/4/25
f 122/4/62 116/4/62 118/4/62
f 122/4/63 144/4/64 145/4/65
f 144/4/27 137/4/27 148/4/27
f 136/4/25 117/4/25 138/4/25
f 143/4/2 122/4/2 145/4/2
f 117/4/66 121/4/67 122/4/68
f 151/4/2 119/4/2 152/4/2
f 113/4/35 139/4/19 141/4/35
f 164/4/37 132/4/39 163/4/69
f 132/4/39 161/4/38 163/4/69
f 142/4/38 112/4/38 119/4/40
f 133/4/37 119/4/40 111/4/37
f 141/4/35 168/4/19 162/4/35
f 166/4/25 138/4/25 167/4/25
f 160/4/70 129/4/70 158/4/70
f 155/4/25 166/4/25 172/4/25
f 160/4/71 140/4/71 156/4/72
f 156/4/73 161/4/73 171/4/73
f 169/4/25 141/4/25 162/4/25
f 168/4/19 134/4/20 165/4/20
f 138/4/25 169/4/25 167/4/25
f 134/4/27 170/4/27 165/4/27
f 113/4/2 145/4/2 120/4/2
f 114/4/27 148/4/27 134/4/27
f 145/4/65 114/4/74 120/4/75
f 117/4/25 149/4/25 138/4/25
f 157/4/70 159/4/70 160/4/70
f 133/4/25 172/4/25 164/4/25
f 115/4/2 152/4/2 121/4/2
f 111/4/25 155/4/25 133/4/25
f 140/4/47 129/4/47 112/4/47
f 152/4/76 116/4/76 121/4/76
f 157/4/71 156/4/72 135/4/77
f 127/4/50 135/4/50 116/4/50
f 150/4/61 127/4/61 116/4/61
f 123/4/25 172/4/25 153/4/25
f 126/4/27 170/4/27 146/4/27
f 167/4/25 147/4/25 130/4/25
f 131/4/19 165/4/20 126/4/20
f 169/4/25 125/4/25 147/4/25
f 171/4/27 124/4/27 154/4/27
f 153/4/25 166/4/25 128/4/25
f 128/4/25 167/4/25 130/4/25
f 162/4/35 131/4/19 125/4/35
f 142/4/38 161/4/38 140/4/38
f 164/4/37 142/4/38 133/4/37
f 174/4/78 148/4/78 137/4/78
f 177/4/52 171/4/52 154/4/52
f 178/4/78 135/4/77 156/4/72
f 148/4/47 179/4/47 170/4/47
f 170/4/47 175/4/47 146/4/47
f 171/4/79 178/4/80 156/4/79
f 135/4/81 174/4/81 137/4/81
f 180/4/82 186/4/82 178/4/82
f 182/4/4 176/4/4 174/4/4
f 181/4/83 174/4/83 173/4/83
f 187/4/47 175/4/47 179/4/47
f 184/4/47 179/4/47 176/4/47
f 186/4/4 173/4/4 178/4/4
f 185/4/52 180/4/52 177/4/52
f 69/4/19 64/4/20 52/4/20
f 78/4/22 50/4/184 57/4/23
f 71/4/25 51/4/25 73/4/25
f 50/4/26 78/4/26 85/4/26
f 65/4/27 54/4/27 56/4/27
f 66/4/25 53/4/25 79/4/25
f 60/4/185 56/4/185 54/4/185
f 74/4/186 56/4/186 60/4/186
f 67/4/27 56/4/27 74/4/27
f 66/4/25 68/4/25 55/4/25
f 73/4/4 75/4/4 60/4/4
f 55/4/32 60/4/187 59/4/33
f 79/4/4 80/4/4 57/4/4
f 69/4/19 58/4/21 51/4/35
f 89/4/36 132/4/39 123/4/37
f 87/4/38 124/4/188 132/4/39
f 50/4/38 70/4/38 72/4/38
f 57/4/40 72/4/38 63/4/37
f 94/4/19 69/4/19 71/4/35
f 92/4/25 93/4/25 68/4/25
f 84/4/41 62/4/41 85/4/41
f 92/4/25 66/4/25 81/4/25
f 70/4/42 84/4/42 86/4/42
f 87/4/44 70/4/44 82/4/44
f 88/4/25 71/4/25 77/4/25
f 94/4/19 91/4/20 64/4/20
f 95/4/25 77/4/25 68/4/25
f 96/4/27 76/4/27 64/4/27
f 51/4/4 58/4/4 75/4/4
f 76/4/27 74/4/27 52/4/27
f 52/4/45 74/4/29 75/4/31
f 77/4/25 73/4/25 55/4/25
f 86/4/41 85/4/41 61/4/41
f 98/4/25 81/4/25 63/4/25
f 53/4/4 59/4/4 80/4/4
f 81/4/25 79/4/25 49/4/25
f 70/4/47 50/4/47 62/4/47
f 54/4/189 78/4/22 80/4/24
f 82/4/43 86/4/42 83/4/42
f 65/4/190 83/4/190 61/4/190
f 78/4/26 54/4/26 61/4/26
f 123/4/25 153/4/25 98/4/25
f 146/4/27 96/4/27 91/4/27
f 147/4/25 95/4/25 93/4/25
f 131/4/19 126/4/20 91/4/20
f 125/4/25 88/4/25 95/4/25
f 124/4/27 87/4/27 97/4/27
f 153/4/25 128/4/25 92/4/25
f 128/4/25 130/4/25 93/4/25
f 131/4/19 94/4/19 88/4/35
f 72/4/38 70/4/38 87/4/38
f 72/4/38 89/4/36 90/4/37
f 76/4/51 101/4/51 100/4/51
f 97/4/52 104/4/52 177/4/52
f 65/4/49 99/4/51 102/4/51
f 76/4/47 96/4/47 103/4/47
f 96/4/47 146/4/47 175/4/47
f 97/4/53 82/4/53 102/4/54
f 65/4/55 67/4/55 100/4/55
f 104/4/56 102/4/56 108/4/56
f 101/4/2 107/4/2 106/4/2
f 100/4/57 106/4/57 105/4/57
f 175/4/47 183/4/47 109/4/47
f 103/4/47 109/4/47 107/4/47
f 99/4/2 105/4/2 108/4/2
f 104/4/52 110/4/52 185/4/52
f 139/4/19 120/4/21 114/4/20
f 119/4/58 112/4/191 150/4/59
f 149/4/25 143/4/25 113/4/25
f 112/4/61 129/4/61 159/4/61
f 118/4/27 116/4/27 135/4/27
f 151/4/25 115/4/25 136/4/25
f 122/4/192 121/4/192 116/4/192
f 122/4/193 118/4/193 144/4/193
f 144/4/27 118/4/27 137/4/27
f 136/4/25 115/4/25 117/4/25
f 143/4/2 117/4/2 122/4/2
f 117/4/66 115/4/194 121/4/67
f 151/4/2 111/4/2 119/4/2
f 113/4/35 120/4/21 139/4/19
f 164/4/37 123/4/37 132/4/39
f 132/4/39 124/4/188 161/4/38
f 142/4/38 140/4/38 112/4/38
f 133/4/37 142/4/38 119/4/40
f 141/4/35 139/4/19 168/4/19
f 166/4/25 136/4/25 138/4/25
f 160/4/70 159/4/70 129/4/70
f 155/4/25 136/4/25 166/4/25
f 160/4/71 158/4/71 140/4/71
f 156/4/73 140/4/73 161/4/73
f 169/4/25 149/4/25 141/4/25
f 168/4/19 139/4/19 134/4/20
f 138/4/25 149/4/25 169/4/25
f 134/4/27 148/4/27 170/4/27
f 113/4/2 143/4/2 145/4/2
f 114/4/27 144/4/27 148/4/27
f 145/4/65 144/4/64 114/4/74
f 117/4/25 143/4/25 149/4/25
f 157/4/70 127/4/70 159/4/70
f 133/4/25 155/4/25 172/4/25
f 115/4/2 151/4/2 152/4/2
f 111/4/25 151/4/25 155/4/25
f 140/4/47 158/4/47 129/4/47
f 152/4/60 150/4/59 116/4/195
f 157/4/71 160/4/71 156/4/72
f 127/4/196 157/4/196 135/4/196
f 150/4/61 159/4/61 127/4/61
f 123/4/25 164/4/25 172/4/25
f 126/4/27 165/4/27 170/4/27
f 167/4/25 169/4/25 147/4/25
f 131/4/19 168/4/19 165/4/20
f 169/4/25 162/4/25 125/4/25
f 171/4/27 161/4/27 124/4/27
f 153/4/25 172/4/25 166/4/25
f 128/4/25 166/4/25 167/4/25
f 162/4/35 168/4/19 131/4/19
f 142/4/38 163/4/69 161/4/38
f 164/4/37 163/4/69 142/4/38
f 174/4/78 176/4/78 148/4/78
f 177/4/52 180/4/52 171/4/52
f 178/4/78 173/4/78 135/4/77
f 148/4/47 176/4/47 179/4/47
f 170/4/47 179/4/47 175/4/47
f 171/4/79 180/4/80 178/4/80
f 135/4/81 173/4/81 174/4/81
f 180/4/82 188/4/82 186/4/82
f 182/4/4 184/4/4 176/4/4
f 181/4/83 182/4/83 174/4/83
f 187/4/47 183/4/47 175/4/47
f 184/4/47 187/4/47 179/4/47
f 186/4/4 181/4/4 173/4/4
f 185/4/52 188/4/52 180/4/52
f 20/5/1 34/5/1 44/5/1
f 40/5/2 8/5/2 35/5/2
f 24/5/3 36/5/3 42/5/3
f 12/5/4 33/5/4 37/5/4
f 21/5/5 14/5/5 32/5/5
f 19/5/6 12/5/6 26/5/6
f 26/5/6 16/5/6 30/5/6
f 28/5/5 1/5/5 18/5/5
f 16/5/7 37/5/7 39/5/7
f 34/5/2 10/5/2 38/5/2
f 6/5/4 39/5/4 36/5/4
f 24/5/6 16/5/6 6/5/6
f 28/5/5 14/5/5 11/5/5
f 10/5/8 40/5/8 38/5/8
f 15/5/5 27/5/5 9/5/5
f 31/5/5 28/5/5 27/5/5
f 13/5/6 23/5/6 8/5/6
f 9/5/5 17/5/5 3/5/5
f 17/5/5 28/5/5 18/5/5
f 13/5/6 25/5/6 29/5/6
f 4/5/6 25/5/6 10/5/6
f 7/5/5 31/5/5 15/5/5
f 22/5/5 32/5/5 31/5/5
f 35/5/3 23/5/3 41/5/3
f 2/5/1 43/5/1 33/5/1
f 43/5/1 17/5/1 18/5/1
f 33/5/1 18/5/1 1/5/1
f 41/5/3 21/5/3 22/5/3
f 7/5/3 41/5/3 22/5/3
f 9/5/8 40/5/8 15/5/8
f 5/5/4 39/5/4 14/5/4
f 3/5/2 38/5/2 9/5/2
f 39/5/7 11/5/7 14/5/7
f 37/5/4 1/5/4 11/5/4
f 42/5/3 5/5/3 21/5/3
f 15/5/2 35/5/2 7/5/2
f 44/5/1 3/5/1 17/5/1
f 44/5/9 45/5/10 46/5/11
f 46/5/11 47/5/12 48/5/13
f 48/5/13 42/5/14 41/5/14
f 48/5/15 23/5/15 29/5/15
f 24/5/16 47/5/16 30/5/16
f 30/5/17 45/5/17 26/5/17
f 46/5/18 29/5/18 25/5/18
f 44/5/4 25/5/4 20/5/4
f 26/5/2 43/5/2 19/5/2
f 20/5/1 4/5/1 34/5/1
f 40/5/2 13/5/2 8/5/2
f 24/5/3 6/5/3 36/5/3
f 12/5/4 2/5/4 33/5/4
f 21/5/5 5/5/5 14/5/5
f 19/5/6 2/5/6 12/5/6
f 26/5/6 12/5/6 16/5/6
f 28/5/5 11/5/5 1/5/5
f 16/5/7 12/5/7 37/5/7
f 34/5/2 4/5/2 10/5/2
f 6/5/4 16/5/4 39/5/4
f 24/5/6 30/5/6 16/5/6
f 28/5/5 32/5/5 14/5/5
f 10/5/8 13/5/8 40/5/8
f 15/5/5 31/5/5 27/5/5
f 31/5/5 32/5/5 28/5/5
f 13/5/6 29/5/6 23/5/6
f 9/5/5 27/5/5 17/5/5
f 17/5/5 27/5/5 28/5/5
f 13/5/6 10/5/6 25/5/6
f 4/5/6 20/5/6 25/5/6
f 7/5/5 22/5/5 31/5/5
f 22/5/5 21/5/5 32/5/5
f 35/5/3 8/5/3 23/5/3
f 2/5/1 19/5/1 43/5/1
f 43/5/1 44/5/1 17/5/1
f 33/5/1 43/5/1 18/5/1
f 41/5/3 42/5/3 21/5/3
f 7/5/3 35/5/3 41/5/3
f 9/5/8 38/5/8 40/5/8
f 5/5/4 36/5/4 39/5/4
f 3/5/2 34/5/2 38/5/2
f 39/5/7 37/5/7 11/5/7
f 37/5/4 33/5/4 1/5/4
f 42/5/3 36/5/3 5/5/3
f 15/5/2 40/5/2 35/5/2
f 44/5/1 34/5/1 3/5/1
f 44/5/9 43/5/9 45/5/10
f 46/5/11 45/5/10 47/5/12
f 48/5/13 47/5/12 42/5/14
f 48/5/180 41/5/180 23/5/180
f 24/5/181 42/5/181 47/5/181
f 30/5/182 47/5/182 45/5/182
f 46/5/183 48/5/183 29/5/183
f 44/5/4 46/5/4 25/5/4
f 26/5/2 45/5/2 43/5/2
f 189/10/84 192/10/84 191/10/84
f 192/10/85 193/10/85 191/10/85
f 193/10/86 196/10/86 195/10/86
f 196/10/87 197/10/87 195/10/87
f 198/10/88 199/10/88 197/10/88
f 199/10/89 202/10/89 201/10/89
f 194/10/90 267/10/90 268/10/90
f 201/10/91 204/10/91 203/10/91
f 203/10/92 190/10/92 189/10/92
f 193/10/93 208/10/93 207/10/93
f 211/10/89 218/10/89 210/10/89
f 199/10/94 211/10/94 210/10/94
f 197/10/95 208/10/95 195/10/95
f 203/10/96 211/10/96 201/10/96
f 193/10/97 206/10/97 191/10/97
f 199/10/98 209/10/98 197/10/98
f 203/10/99 205/10/99 212/10/99
f 191/10/100 205/10/100 189/10/100
f 214/10/52 221/10/52 213/10/52
f 209/10/87 216/10/87 208/10/87
f 207/10/85 214/10/85 206/10/85
f 212/10/91 219/10/91 211/10/91
f 209/10/88 218/10/88 217/10/88
f 208/10/86 215/10/86 207/10/86
f 205/10/84 214/10/84 213/10/84
f 212/10/92 213/10/92 220/10/92
f 227/10/91 236/10/91 235/10/91
f 213/10/52 228/10/52 220/10/52
f 218/10/52 227/10/52 226/10/52
f 216/10/52 225/10/52 224/10/52
f 214/10/52 223/10/52 222/10/52
f 219/10/52 228/10/52 227/10/52
f 218/10/52 225/10/52 217/10/52
f 216/10/52 223/10/52 215/10/52
f 231/10/101 238/10/101 230/10/101
f 225/10/88 234/10/88 233/10/88
f 224/10/86 231/10/86 223/10/86
f 222/10/84 229/10/84 221/10/84
f 221/10/92 236/10/92 228/10/92
f 227/10/89 234/10/89 226/10/89
f 225/10/87 232/10/87 224/10/87
f 222/10/85 231/10/85 230/10/85
f 237/10/47 252/10/47 244/10/47
f 236/10/102 243/10/102 235/10/102
f 234/10/103 241/10/103 233/10/103
f 232/10/104 239/10/104 231/10/104
f 230/10/105 237/10/105 229/10/105
f 229/10/106 244/10/106 236/10/106
f 235/10/107 242/10/107 234/10/107
f 233/10/108 240/10/108 232/10/108
f 248/10/91 255/10/91 247/10/91
f 243/10/47 250/10/47 242/10/47
f 240/10/47 249/10/47 248/10/47
f 238/10/47 247/10/47 246/10/47
f 243/10/47 252/10/47 251/10/47
f 242/10/47 249/10/47 241/10/47
f 239/10/47 248/10/47 247/10/47
f 238/10/47 245/10/47 237/10/47
f 259/10/47 300/10/47 265/10/47
f 245/10/88 254/10/88 253/10/88
f 245/10/87 260/10/87 252/10/87
f 250/10/85 259/10/85 258/10/85
f 248/10/92 257/10/92 256/10/92
f 247/10/89 254/10/89 246/10/89
f 251/10/86 260/10/86 259/10/86
f 249/10/84 258/10/84 257/10/84
f 257/10/47 264/10/47 263/10/47
f 255/10/47 299/10/47 262/10/47
f 254/10/47 298/10/47 253/10/47
f 253/10/47 300/10/47 260/10/47
f 259/10/47 264/10/47 258/10/47
f 256/10/47 263/10/47 299/10/47
f 254/10/47 262/10/47 261/10/47
f 271/10/88 278/10/88 279/10/88
f 200/10/109 270/10/109 271/10/109
f 204/10/110 266/10/110 190/10/110
f 192/10/111 266/10/111 267/10/111
f 194/10/112 269/10/112 196/10/112
f 202/10/113 271/10/113 272/10/113
f 198/10/114 269/10/114 270/10/114
f 204/10/115 272/10/115 273/10/115
f 281/10/52 288/10/116 289/10/117
f 268/10/86 277/10/86 269/10/86
f 266/10/84 275/10/84 267/10/84
f 273/10/92 274/10/92 266/10/92
f 272/10/89 279/10/89 280/10/89
f 269/10/87 278/10/87 270/10/87
f 268/10/85 275/10/85 276/10/85
f 272/10/91 281/10/91 273/10/91
f 278/10/52 287/10/117 279/10/52
f 276/10/52 285/10/118 277/10/118
f 275/10/119 282/10/52 283/10/119
f 274/10/52 289/10/117 282/10/52
f 279/10/52 288/10/116 280/10/116
f 277/10/118 286/10/52 278/10/52
f 276/10/52 283/10/119 284/10/52
f 289/10/87 290/10/87 282/10/87
f 287/10/85 296/10/85 288/10/85
f 286/10/92 293/10/92 294/10/92
f 284/10/89 291/10/89 292/10/89
f 289/10/86 296/10/86 297/10/86
f 286/10/84 295/10/84 287/10/84
f 284/10/91 293/10/91 285/10/91
f 282/10/88 291/10/88 283/10/88
f 365/10/84 368/10/84 367/10/84
f 368/10/85 369/10/85 367/10/85
f 369/10/86 372/10/86 371/10/86
f 371/10/87 374/10/87 373/10/87
f 374/10/88 375/10/88 373/10/88
f 376/10/89 377/10/89 375/10/89
f 370/10/90 443/10/90 444/10/90
f 378/10/91 379/10/91 377/10/91
f 379/10/92 366/10/92 365/10/92
f 369/10/93 384/10/93 383/10/93
f 387/10/89 394/10/89 386/10/89
f 377/10/94 386/10/94 375/10/94
f 373/10/95 384/10/95 371/10/95
f 379/10/96 387/10/96 377/10/96
f 369/10/97 382/10/97 367/10/97
f 375/10/98 385/10/98 373/10/98
f 365/10/99 388/10/99 379/10/99
f 367/10/100 381/10/100 365/10/100
f 390/10/52 397/10/52 389/10/52
f 385/10/87 392/10/87 384/10/87
f 383/10/85 390/10/85 382/10/85
f 388/10/91 395/10/91 387/10/91
f 386/10/88 393/10/88 385/10/88
f 383/10/86 392/10/86 391/10/86
f 381/10/84 390/10/84 389/10/84
f 388/10/92 389/10/92 396/10/92
f 403/10/91 412/10/91 411/10/91
f 389/10/52 404/10/52 396/10/52
f 394/10/52 403/10/52 402/10/52
f 393/10/52 400/10/52 392/10/52
f 391/10/52 398/10/52 390/10/52
f 396/10/52 403/10/52 395/10/52
f 393/10/52 402/10/52 401/10/52
f 391/10/52 400/10/52 399/10/52
f 407/10/101 414/10/101 406/10/101
f 401/10/88 410/10/88 409/10/88
f 400/10/86 407/10/86 399/10/86
f 397/10/84 406/10/84 405/10/84
f 404/10/92 405/10/92 412/10/92
f 402/10/89 411/10/89 410/10/89
f 401/10/87 408/10/87 400/10/87
f 398/10/85 407/10/85 406/10/85
f 413/10/47 428/10/47 420/10/47
f 411/10/102 420/10/102 419/10/102
f 410/10/103 417/10/103 409/10/103
f 407/10/104 416/10/104 415/10/104
f 406/10/105 413/10/105 405/10/105
f 405/10/106 420/10/106 412/10/106
f 411/10/107 418/10/107 410/10/107
f 409/10/108 416/10/108 408/10/108
f 424/10/91 431/10/91 423/10/91
f 419/10/47 426/10/47 418/10/47
f 417/10/47 424/10/47 416/10/47
f 415/10/47 422/10/47 414/10/47
f 419/10/47 428/10/47 427/10/47
f 418/10/47 425/10/47 417/10/47
f 415/10/47 424/10/47 423/10/47
f 413/10/47 422/10/47 421/10/47
f 436/10/47 440/10/47 435/10/47
f 422/10/88 429/10/88 421/10/88
f 421/10/87 436/10/87 428/10/87
f 427/10/85 434/10/85 426/10/85
f 425/10/92 432/10/92 424/10/92
f 422/10/89 431/10/89 430/10/89
f 428/10/86 435/10/86 427/10/86
f 425/10/84 434/10/84 433/10/84
f 434/10/47 439/10/47 433/10/47
f 432/10/47 438/10/47 431/10/47
f 430/10/47 437/10/47 429/10/47
f 429/10/47 441/10/47 436/10/47
f 434/10/47 440/10/47 476/10/47
f 432/10/47 439/10/47 475/10/47
f 430/10/47 438/10/47 474/10/47
f 447/10/88 454/10/88 455/10/88
f 376/10/109 446/10/109 447/10/109
f 380/10/110 442/10/110 366/10/110
f 368/10/111 442/10/111 443/10/111
f 370/10/112 445/10/112 372/10/112
f 376/10/113 448/10/113 378/10/113
f 372/10/114 446/10/114 374/10/114
f 380/10/115 448/10/115 449/10/115
f 456/10/52 465/10/52 457/10/52
f 444/10/86 453/10/86 445/10/86
f 443/10/84 450/10/84 451/10/84
f 449/10/92 450/10/92 442/10/92
f 448/10/89 455/10/89 456/10/89
f 445/10/87 454/10/87 446/10/87
f 444/10/85 451/10/85 452/10/85
f 448/10/91 457/10/91 449/10/91
f 454/10/52 463/10/52 455/10/52
f 452/10/52 461/10/52 453/10/52
f 450/10/52 459/10/52 451/10/52
f 450/10/52 465/10/52 458/10/52
f 455/10/52 464/10/52 456/10/52
f 454/10/52 461/10/52 462/10/52
f 452/10/52 459/10/52 460/10/52
f 458/10/87 473/10/87 466/10/87
f 463/10/85 472/10/85 464/10/85
f 462/10/92 469/10/92 470/10/92
f 460/10/89 467/10/89 468/10/89
f 465/10/86 472/10/86 473/10/86
f 462/10/84 471/10/84 463/10/84
f 460/10/91 469/10/91 461/10/91
f 459/10/88 466/10/88 467/10/88
f 542/10/84 543/10/84 541/10/84
f 544/10/85 545/10/85 543/10/85
f 545/10/86 548/10/86 547/10/86
f 547/10/87 550/10/87 549/10/87
f 550/10/88 551/10/88 549/10/88
f 551/10/89 554/10/89 553/10/89
f 546/10/90 615/10/90 616/10/90
f 554/10/91 555/10/91 553/10/91
f 555/10/92 542/10/92 541/10/92
f 545/10/93 560/10/93 559/10/93
f 562/10/89 571/10/89 570/10/89
f 551/10/94 563/10/94 562/10/94
f 549/10/95 560/10/95 547/10/95
f 555/10/96 563/10/96 553/10/96
f 545/10/97 558/10/97 543/10/97
f 549/10/98 562/10/98 561/10/98
f 541/10/99 564/10/99 555/10/99
f 543/10/100 557/10/100 541/10/100
f 566/10/52 573/10/52 565/10/52
f 561/10/87 568/10/87 560/10/87
f 559/10/85 566/10/85 558/10/85
f 563/10/91 572/10/91 571/10/91
f 562/10/88 569/10/88 561/10/88
f 560/10/86 567/10/86 559/10/86
f 557/10/84 566/10/84 565/10/84
f 557/10/92 572/10/92 564/10/92
f 580/10/91 587/10/91 579/10/91
f 565/10/52 580/10/52 572/10/52
f 570/10/52 579/10/52 578/10/52
f 568/10/52 577/10/52 576/10/52
f 567/10/52 574/10/52 566/10/52
f 572/10/52 579/10/52 571/10/52
f 569/10/52 578/10/52 577/10/52
f 567/10/52 576/10/52 575/10/52
f 582/10/101 591/10/101 590/10/101
f 577/10/88 586/10/88 585/10/88
f 576/10/86 583/10/86 575/10/86
f 574/10/84 581/10/84 573/10/84
f 573/10/92 588/10/92 580/10/92
f 578/10/89 587/10/89 586/10/89
f 577/10/87 584/10/87 576/10/87
f 574/10/85 583/10/85 582/10/85
f 589/10/47 604/10/47 596/10/47
f 588/10/102 595/10/102 587/10/102
f 586/10/103 593/10/103 585/10/103
f 584/10/104 591/10/104 583/10/104
f 581/10/105 590/10/105 589/10/105
f 581/10/106 596/10/106 588/10/106
f 587/10/107 594/10/107 586/10/107
f 584/10/108 593/10/108 592/10/108
f 600/10/91 607/10/91 599/10/91
f 595/10/47 602/10/47 594/10/47
f 593/10/47 600/10/47 592/10/47
f 590/10/47 599/10/47 598/10/47
f 595/10/47 604/10/47 603/10/47
f 593/10/47 602/10/47 601/10/47
f 591/10/47 600/10/47 599/10/47
f 589/10/47 598/10/47 597/10/47
f 612/10/47 651/10/47 611/10/47
f 597/10/88 606/10/88 605/10/88
f 597/10/87 612/10/87 604/10/87
f 603/10/85 610/10/85 602/10/85
f 601/10/92 608/10/92 600/10/92
f 599/10/89 606/10/89 598/10/89
f 603/10/86 612/10/86 611/10/86
f 601/10/84 610/10/84 609/10/84
f 609/10/47 650/10/47 649/10/47
f 608/10/47 648/10/47 607/10/47
f 606/10/47 646/10/47 605/10/47
f 612/10/47 646/10/47 652/10/47
f 610/10/47 651/10/47 650/10/47
f 608/10/47 649/10/47 613/10/47
f 607/10/47 647/10/47 606/10/47
f 619/10/88 626/10/88 627/10/88
f 552/10/109 618/10/109 619/10/109
f 556/10/110 614/10/110 542/10/110
f 544/10/111 614/10/111 615/10/111
f 546/10/112 617/10/112 548/10/112
f 552/10/113 620/10/113 554/10/113
f 548/10/114 618/10/114 550/10/114
f 554/10/115 621/10/115 556/10/115
f 629/10/52 636/10/116 637/10/117
f 616/10/86 625/10/86 617/10/86
f 615/10/84 622/10/84 623/10/84
f 621/10/92 622/10/92 614/10/92
f 620/10/89 627/10/89 628/10/89
f 617/10/87 626/10/87 618/10/87
f 616/10/85 623/10/85 624/10/85
f 620/10/91 629/10/91 621/10/91
f 626/10/52 635/10/117 627/10/52
f 625/10/52 632/10/52 633/10/118
f 623/10/52 630/10/52 631/10/119
f 622/10/52 637/10/117 630/10/52
f 627/10/52 636/10/116 628/10/116
f 625/10/52 634/10/52 626/10/52
f 623/10/52 632/10/52 624/10/52
f 630/10/87 645/10/87 638/10/87
f 636/10/85 643/10/85 644/10/85
f 634/10/92 641/10/92 642/10/92
f 631/10/89 640/10/89 632/10/89
f 636/10/86 645/10/86 637/10/86
f 634/10/84 643/10/84 635/10/84
f 632/10/91 641/10/91 633/10/91
f 630/10/88 639/10/88 631/10/88
f 189/10/84 190/10/84 192/10/84
f 192/10/85 194/10/85 193/10/85
f 193/10/86 194/10/86 196/10/86
f 196/10/87 198/10/87 197/10/87
f 198/10/88 200/10/88 199/10/88
f 199/10/89 200/10/89 202/10/89
f 194/10/90 192/10/90 267/10/90
f 201/10/91 202/10/91 204/10/91
f 203/10/92 204/10/92 190/10/92
f 193/10/93 195/10/93 208/10/93
f 211/10/89 219/10/89 218/10/89
f 199/10/94 201/10/94 211/10/94
f 197/10/95 209/10/95 208/10/95
f 203/10/96 212/10/96 211/10/96
f 193/10/97 207/10/97 206/10/97
f 199/10/98 210/10/98 209/10/98
f 203/10/99 189/10/99 205/10/99
f 191/10/100 206/10/100 205/10/100
f 214/10/52 222/10/52 221/10/52
f 209/10/87 217/10/87 216/10/87
f 207/10/85 215/10/85 214/10/85
f 212/10/91 220/10/91 219/10/91
f 209/10/88 210/10/88 218/10/88
f 208/10/86 216/10/86 215/10/86
f 205/10/84 206/10/84 214/10/84
f 212/10/92 205/10/92 213/10/92
f 227/10/91 228/10/91 236/10/91
f 213/10/52 221/10/52 228/10/52
f 218/10/52 219/10/52 227/10/52
f 216/10/52 217/10/52 225/10/52
f 214/10/52 215/10/52 223/10/52
f 219/10/52 220/10/52 228/10/52
f 218/10/52 226/10/52 225/10/52
f 216/10/52 224/10/52 223/10/52
f 231/10/101 239/10/101 238/10/101
f 225/10/88 226/10/88 234/10/88
f 224/10/86 232/10/86 231/10/86
f 222/10/84 230/10/84 229/10/84
f 221/10/92 229/10/92 236/10/92
f 227/10/89 235/10/89 234/10/89
f 225/10/87 233/10/87 232/10/87
f 222/10/85 223/10/85 231/10/85
f 237/10/47 245/10/47 252/10/47
f 236/10/102 244/10/102 243/10/102
f 234/10/103 242/10/103 241/10/103
f 232/10/104 240/10/104 239/10/104
f 230/10/105 238/10/105 237/10/105
f 229/10/106 237/10/106 244/10/106
f 235/10/107 243/10/107 242/10/107
f 233/10/108 241/10/108 240/10/108
f 248/10/91 256/10/91 255/10/91
f 243/10/47 251/10/47 250/10/47
f 240/10/47 241/10/47 249/10/47
f 238/10/47 239/10/47 247/10/47
f 243/10/47 244/10/47 252/10/47
f 242/10/47 250/10/47 249/10/47
f 239/10/47 240/10/47 248/10/47
f 238/10/47 246/10/47 245/10/47
f 259/10/47 260/10/47 300/10/47
f 245/10/88 246/10/88 254/10/88
f 245/10/87 253/10/87 260/10/87
f 250/10/85 251/10/85 259/10/85
f 248/10/92 249/10/92 257/10/92
f 247/10/89 255/10/89 254/10/89
f 251/10/86 252/10/86 260/10/86
f 249/10/84 250/10/84 258/10/84
f 257/10/47 258/10/47 264/10/47
f 255/10/47 256/10/47 299/10/47
f 254/10/47 261/10/47 298/10/47
f 253/10/47 298/10/47 300/10/47
f 259/10/47 265/10/47 264/10/47
f 256/10/47 257/10/47 263/10/47
f 254/10/47 255/10/47 262/10/47
f 271/10/88 270/10/88 278/10/88
f 200/10/109 198/10/109 270/10/109
f 204/10/110 273/10/110 266/10/110
f 192/10/111 190/10/111 266/10/111
f 194/10/112 268/10/112 269/10/112
f 202/10/113 200/10/113 271/10/113
f 198/10/114 196/10/114 269/10/114
f 204/10/115 202/10/115 272/10/115
f 281/10/52 280/10/116 288/10/116
f 268/10/86 276/10/86 277/10/86
f 266/10/84 274/10/84 275/10/84
f 273/10/92 281/10/92 274/10/92
f 272/10/89 271/10/89 279/10/89
f 269/10/87 277/10/87 278/10/87
f 268/10/85 267/10/85 275/10/85
f 272/10/91 280/10/91 281/10/91
f 278/10/52 286/10/52 287/10/117
f 276/10/52 284/10/52 285/10/118
f 275/10/119 274/10/52 282/10/52
f 274/10/52 281/10/52 289/10/117
f 279/10/52 287/10/117 288/10/116
f 277/10/118 285/10/118 286/10/52
f 276/10/52 275/10/119 283/10/119
f 289/10/87 297/10/87 290/10/87
f 287/10/85 295/10/85 296/10/85
f 286/10/92 285/10/92 293/10/92
f 284/10/89 283/10/89 291/10/89
f 289/10/86 288/10/86 296/10/86
f 286/10/84 294/10/84 295/10/84
f 284/10/91 292/10/91 293/10/91
f 282/10/88 290/10/88 291/10/88
f 365/10/84 366/10/84 368/10/84
f 368/10/85 370/10/85 369/10/85
f 369/10/86 370/10/86 372/10/86
f 371/10/87 372/10/87 374/10/87
f 374/10/88 376/10/88 375/10/88
f 376/10/89 378/10/89 377/10/89
f 370/10/90 368/10/90 443/10/90
f 378/10/91 380/10/91 379/10/91
f 379/10/92 380/10/92 366/10/92
f 369/10/93 371/10/93 384/10/93
f 387/10/89 395/10/89 394/10/89
f 377/10/94 387/10/94 386/10/94
f 373/10/95 385/10/95 384/10/95
f 379/10/96 388/10/96 387/10/96
f 369/10/97 383/10/97 382/10/97
f 375/10/98 386/10/98 385/10/98
f 365/10/99 381/10/99 388/10/99
f 367/10/100 382/10/100 381/10/100
f 390/10/52 398/10/52 397/10/52
f 385/10/87 393/10/87 392/10/87
f 383/10/85 391/10/85 390/10/85
f 388/10/91 396/10/91 395/10/91
f 386/10/88 394/10/88 393/10/88
f 383/10/86 384/10/86 392/10/86
f 381/10/84 382/10/84 390/10/84
f 388/10/92 381/10/92 389/10/92
f 403/10/91 404/10/91 412/10/91
f 389/10/52 397/10/52 404/10/52
f 394/10/52 395/10/52 403/10/52
f 393/10/52 401/10/52 400/10/52
f 391/10/52 399/10/52 398/10/52
f 396/10/52 404/10/52 403/10/52
f 393/10/52 394/10/52 402/10/52
f 391/10/52 392/10/52 400/10/52
f 407/10/101 415/10/101 414/10/101
f 401/10/88 402/10/88 410/10/88
f 400/10/86 408/10/86 407/10/86
f 397/10/84 398/10/84 406/10/84
f 404/10/92 397/10/92 405/10/92
f 402/10/89 403/10/89 411/10/89
f 401/10/87 409/10/87 408/10/87
f 398/10/85 399/10/85 407/10/85
f 413/10/47 421/10/47 428/10/47
f 411/10/102 412/10/102 420/10/102
f 410/10/103 418/10/103 417/10/103
f 407/10/104 408/10/104 416/10/104
f 406/10/105 414/10/105 413/10/105
f 405/10/106 413/10/106 420/10/106
f 411/10/107 419/10/107 418/10/107
f 409/10/108 417/10/108 416/10/108
f 424/10/91 432/10/91 431/10/91
f 419/10/47 427/10/47 426/10/47
f 417/10/47 425/10/47 424/10/47
f 415/10/47 423/10/47 422/10/47
f 419/10/47 420/10/47 428/10/47
f 418/10/47 426/10/47 425/10/47
f 415/10/47 416/10/47 424/10/47
f 413/10/47 414/10/47 422/10/47
f 436/10/47 441/10/47 440/10/47
f 422/10/88 430/10/88 429/10/88
f 421/10/87 429/10/87 436/10/87
f 427/10/85 435/10/85 434/10/85
f 425/10/92 433/10/92 432/10/92
f 422/10/89 423/10/89 431/10/89
f 428/10/86 436/10/86 435/10/86
f 425/10/84 426/10/84 434/10/84
f 434/10/47 476/10/47 439/10/47
f 432/10/47 475/10/47 438/10/47
f 430/10/47 474/10/47 437/10/47
f 429/10/47 437/10/47 441/10/47
f 434/10/47 435/10/47 440/10/47
f 432/10/47 433/10/47 439/10/47
f 430/10/47 431/10/47 438/10/47
f 447/10/88 446/10/88 454/10/88
f 376/10/109 374/10/109 446/10/109
f 380/10/110 449/10/110 442/10/110
f 368/10/111 366/10/111 442/10/111
f 370/10/112 444/10/112 445/10/112
f 376/10/113 447/10/113 448/10/113
f 372/10/114 445/10/114 446/10/114
f 380/10/115 378/10/115 448/10/115
f 456/10/52 464/10/52 465/10/52
f 444/10/86 452/10/86 453/10/86
f 443/10/84 442/10/84 450/10/84
f 449/10/92 457/10/92 450/10/92
f 448/10/89 447/10/89 455/10/89
f 445/10/87 453/10/87 454/10/87
f 444/10/85 443/10/85 451/10/85
f 448/10/91 456/10/91 457/10/91
f 454/10/52 462/10/52 463/10/52
f 452/10/52 460/10/52 461/10/52
f 450/10/52 458/10/52 459/10/52
f 450/10/52 457/10/52 465/10/52
f 455/10/52 463/10/52 464/10/52
f 454/10/52 453/10/52 461/10/52
f 452/10/52 451/10/52 459/10/52
f 458/10/87 465/10/87 473/10/87
f 463/10/85 471/10/85 472/10/85
f 462/10/92 461/10/92 469/10/92
f 460/10/89 459/10/89 467/10/89
f 465/10/86 464/10/86 472/10/86
f 462/10/84 470/10/84 471/10/84
f 460/10/91 468/10/91 469/10/91
f 459/10/88 458/10/88 466/10/88
f 542/10/84 544/10/84 543/10/84
f 544/10/85 546/10/85 545/10/85
f 545/10/86 546/10/86 548/10/86
f 547/10/87 548/10/87 550/10/87
f 550/10/88 552/10/88 551/10/88
f 551/10/89 552/10/89 554/10/89
f 546/10/90 544/10/90 615/10/90
f 554/10/91 556/10/91 555/10/91
f 555/10/92 556/10/92 542/10/92
f 545/10/93 547/10/93 560/10/93
f 562/10/89 563/10/89 571/10/89
f 551/10/94 553/10/94 563/10/94
f 549/10/95 561/10/95 560/10/95
f 555/10/96 564/10/96 563/10/96
f 545/10/97 559/10/97 558/10/97
f 549/10/98 551/10/98 562/10/98
f 541/10/99 557/10/99 564/10/99
f 543/10/100 558/10/100 557/10/100
f 566/10/52 574/10/52 573/10/52
f 561/10/87 569/10/87 568/10/87
f 559/10/85 567/10/85 566/10/85
f 563/10/91 564/10/91 572/10/91
f 562/10/88 570/10/88 569/10/88
f 560/10/86 568/10/86 567/10/86
f 557/10/84 558/10/84 566/10/84
f 557/10/92 565/10/92 572/10/92
f 580/10/91 588/10/91 587/10/91
f 565/10/52 573/10/52 580/10/52
f 570/10/52 571/10/52 579/10/52
f 568/10/52 569/10/52 577/10/52
f 567/10/52 575/10/52 574/10/52
f 572/10/52 580/10/52 579/10/52
f 569/10/52 570/10/52 578/10/52
f 567/10/52 568/10/52 576/10/52
f 582/10/101 583/10/101 591/10/101
f 577/10/88 578/10/88 586/10/88
f 576/10/86 584/10/86 583/10/86
f 574/10/84 582/10/84 581/10/84
f 573/10/92 581/10/92 588/10/92
f 578/10/89 579/10/89 587/10/89
f 577/10/87 585/10/87 584/10/87
f 574/10/85 575/10/85 583/10/85
f 589/10/47 597/10/47 604/10/47
f 588/10/102 596/10/102 595/10/102
f 586/10/103 594/10/103 593/10/103
f 584/10/104 592/10/104 591/10/104
f 581/10/105 582/10/105 590/10/105
f 581/10/106 589/10/106 596/10/106
f 587/10/107 595/10/107 594/10/107
f 584/10/108 585/10/108 593/10/108
f 600/10/91 608/10/91 607/10/91
f 595/10/47 603/10/47 602/10/47
f 593/10/47 601/10/47 600/10/47
f 590/10/47 591/10/47 599/10/47
f 595/10/47 596/10/47 604/10/47
f 593/10/47 594/10/47 602/10/47
f 591/10/47 592/10/47 600/10/47
f 589/10/47 590/10/47 598/10/47
f 612/10/47 652/10/47 651/10/47
f 597/10/88 598/10/88 606/10/88
f 597/10/87 605/10/87 612/10/87
f 603/10/85 611/10/85 610/10/85
f 601/10/92 609/10/92 608/10/92
f 599/10/89 607/10/89 606/10/89
f 603/10/86 604/10/86 612/10/86
f 601/10/84 602/10/84 610/10/84
f 609/10/47 610/10/47 650/10/47
f 608/10/47 613/10/47 648/10/47
f 606/10/47 647/10/47 646/10/47
f 612/10/47 605/10/47 646/10/47
f 610/10/47 611/10/47 651/10/47
f 608/10/47 609/10/47 649/10/47
f 607/10/47 648/10/47 647/10/47
f 619/10/88 618/10/88 626/10/88
f 552/10/109 550/10/109 618/10/109
f 556/10/110 621/10/110 614/10/110
f 544/10/111 542/10/111 614/10/111
f 546/10/112 616/10/112 617/10/112
f 552/10/113 619/10/113 620/10/113
f 548/10/114 617/10/114 618/10/114
f 554/10/115 620/10/115 621/10/115
f 629/10/52 628/10/116 636/10/116
f 616/10/86 624/10/86 625/10/86
f 615/10/84 614/10/84 622/10/84
f 621/10/92 629/10/92 622/10/92
f 620/10/89 619/10/89 627/10/89
f 617/10/87 625/10/87 626/10/87
f 616/10/85 615/10/85 623/10/85
f 620/10/91 628/10/91 629/10/91
f 626/10/52 634/10/52 635/10/117
f 625/10/52 624/10/52 632/10/52
f 623/10/52 622/10/52 630/10/52
f 622/10/52 629/10/52 637/10/117
f 627/10/52 635/10/117 636/10/116
f 625/10/52 633/10/118 634/10/52
f 623/10/52 631/10/119 632/10/52
f 630/10/87 637/10/87 645/10/87
f 636/10/85 635/10/85 643/10/85
f 634/10/92 633/10/92 641/10/92
f 631/10/89 639/10/89 640/10/89
f 636/10/86 644/10/86 645/10/86
f 634/10/84 642/10/84 643/10/84
f 632/10/91 640/10/91 641/10/91
f 630/10/88 638/10/88 639/10/88
f 299/9/87 305/9/87 304/9/87
f 304/9/47 306/9/47 308/9/47
f 262/9/85 302/9/85 261/9/85
f 265/9/91 308/9/91 307/9/91
f 264/9/88 305/9/88 263/9/88
f 299/9/86 303/9/86 262/9/86
f 261/9/84 301/9/84 298/9/84
f 300/9/92 301/9/92 308/9/92
f 265/9/89 306/9/89 264/9/89
f 475/9/87 481/9/87 480/9/87
f 484/9/47 478/9/47 480/9/47
f 438/9/85 478/9/85 474/9/85
f 441/9/91 483/9/91 440/9/91
f 476/9/88 481/9/88 439/9/88
f 438/9/86 480/9/86 479/9/86
f 437/9/84 478/9/84 477/9/84
f 441/9/92 477/9/92 484/9/92
f 440/9/89 482/9/89 476/9/89
f 613/9/87 657/9/87 656/9/87
f 658/9/47 659/9/47 660/9/47
f 648/9/85 654/9/85 647/9/85
f 651/9/91 660/9/91 659/9/91
f 650/9/88 657/9/88 649/9/88
f 648/9/86 656/9/86 655/9/86
f 646/9/84 654/9/84 653/9/84
f 652/9/92 653/9/92 660/9/92
f 650/9/89 659/9/89 658/9/89
f 299/9/87 263/9/87 305/9/87
f 308/9/47 301/9/47 302/9/47
f 302/9/47 303/9/47 304/9/47
f 304/9/47 305/9/47 306/9/47
f 306/9/47 307/9/47 308/9/47
f 308/9/47 302/9/47 304/9/47
f 262/9/85 303/9/85 302/9/85
f 265/9/91 300/9/91 308/9/91
f 264/9/88 306/9/88 305/9/88
f 299/9/86 304/9/86 303/9/86
f 261/9/84 302/9/84 301/9/84
f 300/9/92 298/9/92 301/9/92
f 265/9/89 307/9/89 306/9/89
f 475/9/87 439/9/87 481/9/87
f 484/9/47 477/9/47 478/9/47
f 478/9/47 479/9/47 480/9/47
f 480/9/47 481/9/47 482/9/47
f 482/9/47 483/9/47 480/9/47
f 483/9/47 484/9/47 480/9/47
f 438/9/85 479/9/85 478/9/85
f 441/9/91 484/9/91 483/9/91
f 476/9/88 482/9/88 481/9/88
f 438/9/86 475/9/86 480/9/86
f 437/9/84 474/9/84 478/9/84
f 441/9/92 437/9/92 477/9/92
f 440/9/89 483/9/89 482/9/89
f 613/9/87 649/9/87 657/9/87
f 660/9/47 653/9/47 656/9/47
f 653/9/47 654/9/47 656/9/47
f 654/9/47 655/9/47 656/9/47
f 656/9/47 657/9/47 660/9/47
f 657/9/47 658/9/47 660/9/47
f 648/9/85 655/9/85 654/9/85
f 651/9/91 652/9/91 660/9/91
f 650/9/88 658/9/88 657/9/88
f 648/9/86 613/9/86 656/9/86
f 646/9/84 647/9/84 654/9/84
f 652/9/92 646/9/92 653/9/92
f 650/9/89 651/9/89 659/9/89
f 315/8/89 322/8/89 323/8/89
f 317/8/120 326/8/120 318/8/120
f 313/8/121 320/8/87 321/8/87
f 310/8/85 319/8/85 311/8/85
f 315/8/91 324/8/91 316/8/91
f 314/8/122 321/8/88 322/8/88
f 312/8/86 319/8/86 320/8/86
f 309/8/84 318/8/84 310/8/84
f 316/8/92 317/8/92 309/8/92
f 332/8/123 339/8/123 340/8/123
f 317/8/124 332/8/124 325/8/124
f 322/8/125 331/8/125 323/8/125
f 321/8/126 328/8/126 329/8/126
f 318/8/127 327/8/127 319/8/127
f 323/8/128 332/8/128 324/8/128
f 321/8/129 330/8/129 322/8/129
f 320/8/130 327/8/130 328/8/130
f 335/8/131 342/8/132 343/8/132
f 329/8/133 338/8/133 330/8/133
f 327/8/134 336/8/134 328/8/134
f 325/8/135 334/8/135 326/8/135
f 325/8/136 340/8/136 333/8/136
f 330/8/137 339/8/137 331/8/137
f 329/8/138 336/8/138 337/8/138
f 327/8/139 334/8/139 335/8/139
f 348/8/140 349/8/140 341/8/140
f 339/8/141 348/8/141 340/8/141
f 337/8/142 346/8/142 338/8/142
f 335/8/143 344/8/144 336/8/143
f 333/8/145 342/8/145 334/8/145
f 340/8/146 341/8/146 333/8/146
f 339/8/147 346/8/147 347/8/147
f 336/8/148 345/8/148 337/8/148
f 352/8/119 351/8/52 355/8/52
f 347/8/149 354/8/150 355/8/150
f 345/8/151 352/8/151 353/8/151
f 342/8/152 351/8/153 343/8/152
f 348/8/154 355/8/155 356/8/156
f 345/8/157 354/8/157 346/8/157
f 343/8/158 352/8/159 344/8/158
f 341/8/160 350/8/160 342/8/160
f 313/8/161 362/8/162 361/8/162
f 312/8/163 359/8/163 311/8/163
f 310/8/164 357/8/164 309/8/164
f 316/8/165 357/8/165 364/8/165
f 314/8/166 363/8/166 362/8/166
f 313/8/121 360/8/167 312/8/168
f 311/8/169 358/8/169 310/8/169
f 315/8/170 364/8/170 363/8/170
f 364/8/47 357/8/47 361/8/47
f 491/8/89 498/8/89 499/8/89
f 493/8/120 502/8/120 494/8/120
f 489/8/121 496/8/87 497/8/87
f 487/8/85 494/8/85 495/8/85
f 491/8/91 500/8/91 492/8/91
f 490/8/88 497/8/88 498/8/88
f 488/8/86 495/8/86 496/8/86
f 485/8/84 494/8/84 486/8/84
f 485/8/92 500/8/92 493/8/92
f 508/8/123 515/8/123 516/8/123
f 493/8/124 508/8/124 501/8/124
f 498/8/171 507/8/171 499/8/125
f 497/8/126 504/8/126 505/8/126
f 495/8/172 502/8/172 503/8/127
f 499/8/173 508/8/173 500/8/128
f 497/8/129 506/8/129 498/8/129
f 495/8/130 504/8/130 496/8/130
f 510/8/131 519/8/131 511/8/131
f 505/8/133 514/8/133 506/8/133
f 504/8/134 511/8/134 512/8/134
f 501/8/135 510/8/135 502/8/135
f 501/8/136 516/8/136 509/8/136
f 506/8/137 515/8/137 507/8/137
f 505/8/138 512/8/138 513/8/138
f 503/8/139 510/8/139 511/8/139
f 524/8/140 525/8/140 517/8/140
f 515/8/141 524/8/141 516/8/141
f 514/8/142 521/8/142 522/8/142
f 511/8/143 520/8/143 512/8/143
f 509/8/145 518/8/145 510/8/145
f 516/8/146 517/8/146 509/8/146
f 515/8/147 522/8/147 523/8/147
f 513/8/148 520/8/148 521/8/148
f 529/8/117 528/8/174 527/8/116
f 522/8/149 531/8/149 523/8/149
f 521/8/151 528/8/151 529/8/175
f 519/8/152 526/8/152 527/8/176
f 523/8/154 532/8/177 524/8/154
f 521/8/157 530/8/157 522/8/157
f 519/8/158 528/8/158 520/8/158
f 517/8/160 526/8/160 518/8/160
f 489/8/162 538/8/162 537/8/162
f 488/8/163 535/8/163 487/8/163
f 486/8/164 533/8/164 485/8/164
f 492/8/165 533/8/165 540/8/165
f 490/8/166 539/8/166 538/8/166
f 489/8/121 536/8/167 488/8/168
f 487/8/169 534/8/169 486/8/169
f 491/8/170 540/8/170 539/8/170
f 539/8/47 540/8/47 533/8/47
f 667/8/89 674/8/89 675/8/89
f 670/8/120 677/8/120 678/8/120
f 665/8/121 672/8/87 673/8/87
f 663/8/85 670/8/85 671/8/85
f 668/8/91 675/8/91 676/8/91
f 666/8/88 673/8/88 674/8/88
f 664/8/86 671/8/86 672/8/86
f 661/8/84 670/8/84 662/8/84
f 661/8/92 676/8/92 669/8/92
f 683/8/123 692/8/123 684/8/123
f 669/8/124 684/8/124 677/8/124
f 675/8/125 682/8/125 683/8/125
f 672/8/126 681/8/126 673/8/126
f 670/8/172 679/8/172 671/8/172
f 675/8/128 684/8/128 676/8/128
f 673/8/129 682/8/129 674/8/129
f 672/8/130 679/8/130 680/8/130
f 687/8/131 694/8/131 695/8/131
f 681/8/133 690/8/133 682/8/133
f 679/8/134 688/8/134 680/8/134
f 677/8/135 686/8/135 678/8/135
f 677/8/136 692/8/136 685/8/136
f 682/8/137 691/8/137 683/8/137
f 681/8/138 688/8/138 689/8/138
f 679/8/139 686/8/139 687/8/139
f 693/8/140 708/8/140 701/8/178
f 691/8/141 700/8/141 692/8/141
f 689/8/142 698/8/142 690/8/142
f 687/8/143 696/8/143 688/8/143
f 685/8/145 694/8/145 686/8/145
f 685/8/146 700/8/146 693/8/146
f 690/8/147 699/8/147 691/8/147
f 689/8/148 696/8/148 697/8/148
f 704/8/118 703/8/52 707/8/52
f 698/8/149 707/8/149 699/8/149
f 697/8/151 704/8/151 705/8/175
f 695/8/152 702/8/152 703/8/176
f 699/8/154 708/8/154 700/8/154
f 697/8/157 706/8/157 698/8/157
f 695/8/158 704/8/158 696/8/158
f 693/8/160 702/8/160 694/8/160
f 665/8/179 714/8/162 713/8/162
f 664/8/163 711/8/163 663/8/163
f 662/8/164 709/8/164 661/8/164
f 668/8/165 709/8/165 716/8/165
f 666/8/166 715/8/166 714/8/166
f 665/8/121 712/8/167 664/8/168
f 663/8/169 710/8/169 662/8/169
f 667/8/170 716/8/170 715/8/170
f 709/8/47 711/8/47 713/8/47
f 315/8/89 314/8/89 322/8/89
f 317/8/120 325/8/120 326/8/120
f 313/8/121 312/8/168 320/8/87
f 310/8/85 318/8/85 319/8/85
f 315/8/91 323/8/91 324/8/91
f 314/8/122 313/8/161 321/8/88
f 312/8/86 311/8/86 319/8/86
f 309/8/84 317/8/84 318/8/84
f 316/8/92 324/8/92 317/8/92
f 332/8/123 331/8/123 339/8/123
f 317/8/124 324/8/124 332/8/124
f 322/8/125 330/8/125 331/8/125
f 321/8/126 320/8/126 328/8/126
f 318/8/127 326/8/127 327/8/127
f 323/8/128 331/8/128 332/8/128
f 321/8/129 329/8/129 330/8/129
f 320/8/130 319/8/130 327/8/130
f 335/8/131 334/8/131 342/8/132
f 329/8/133 337/8/133 338/8/133
f 327/8/134 335/8/134 336/8/134
f 325/8/135 333/8/135 334/8/135
f 325/8/136 332/8/136 340/8/136
f 330/8/137 338/8/137 339/8/137
f 329/8/138 328/8/138 336/8/138
f 327/8/139 326/8/139 334/8/139
f 348/8/140 356/8/140 349/8/140
f 339/8/141 347/8/141 348/8/141
f 337/8/142 345/8/142 346/8/142
f 335/8/143 343/8/144 344/8/144
f 333/8/145 341/8/145 342/8/145
f 340/8/146 348/8/146 341/8/146
f 339/8/147 338/8/147 346/8/147
f 336/8/148 344/8/148 345/8/148
f 351/8/52 350/8/197 355/8/52
f 350/8/197 349/8/118 355/8/52
f 349/8/118 356/8/198 355/8/52
f 355/8/52 354/8/199 353/8/119
f 353/8/119 352/8/119 355/8/52
f 347/8/149 346/8/149 354/8/150
f 345/8/151 344/8/151 352/8/151
f 342/8/152 350/8/200 351/8/153
f 348/8/154 347/8/154 355/8/155
f 345/8/157 353/8/157 354/8/157
f 343/8/158 351/8/159 352/8/159
f 341/8/160 349/8/160 350/8/160
f 313/8/161 314/8/122 362/8/162
f 312/8/163 360/8/163 359/8/163
f 310/8/164 358/8/164 357/8/164
f 316/8/165 309/8/165 357/8/165
f 314/8/166 315/8/166 363/8/166
f 313/8/121 361/8/167 360/8/167
f 311/8/169 359/8/169 358/8/169
f 315/8/170 316/8/170 364/8/170
f 357/8/47 358/8/47 359/8/47
f 359/8/47 360/8/47 357/8/47
f 360/8/47 361/8/47 357/8/47
f 361/8/47 362/8/47 363/8/47
f 363/8/47 364/8/47 361/8/47
f 491/8/89 490/8/89 498/8/89
f 493/8/120 501/8/120 502/8/120
f 489/8/121 488/8/168 496/8/87
f 487/8/85 486/8/85 494/8/85
f 491/8/91 499/8/91 500/8/91
f 490/8/88 489/8/162 497/8/88
f 488/8/86 487/8/86 495/8/86
f 485/8/84 493/8/84 494/8/84
f 485/8/92 492/8/92 500/8/92
f 508/8/123 507/8/123 515/8/123
f 493/8/124 500/8/124 508/8/124
f 498/8/171 506/8/171 507/8/171
f 497/8/126 496/8/126 504/8/126
f 495/8/172 494/8/172 502/8/172
f 499/8/173 507/8/173 508/8/173
f 497/8/129 505/8/129 506/8/129
f 495/8/130 503/8/130 504/8/130
f 510/8/131 518/8/131 519/8/131
f 505/8/133 513/8/133 514/8/133
f 504/8/134 503/8/134 511/8/134
f 501/8/135 509/8/135 510/8/135
f 501/8/136 508/8/136 516/8/136
f 506/8/137 514/8/137 515/8/137
f 505/8/138 504/8/138 512/8/138
f 503/8/139 502/8/139 510/8/139
f 524/8/140 532/8/178 525/8/140
f 515/8/141 523/8/141 524/8/141
f 514/8/142 513/8/142 521/8/142
f 511/8/143 519/8/143 520/8/143
f 509/8/145 517/8/145 518/8/145
f 516/8/146 524/8/146 517/8/146
f 515/8/147 514/8/147 522/8/147
f 513/8/148 512/8/148 520/8/148
f 527/8/116 526/8/201 525/8/117
f 525/8/117 532/8/119 527/8/116
f 532/8/119 531/8/52 527/8/116
f 531/8/52 530/8/118 527/8/116
f 530/8/118 529/8/117 527/8/116
f 522/8/149 530/8/149 531/8/149
f 521/8/151 520/8/151 528/8/151
f 519/8/152 518/8/152 526/8/152
f 523/8/154 531/8/177 532/8/177
f 521/8/157 529/8/202 530/8/157
f 519/8/158 527/8/203 528/8/158
f 517/8/160 525/8/204 526/8/160
f 489/8/162 490/8/88 538/8/162
f 488/8/163 536/8/163 535/8/163
f 486/8/164 534/8/164 533/8/164
f 492/8/165 485/8/165 533/8/165
f 490/8/166 491/8/166 539/8/166
f 489/8/121 537/8/167 536/8/167
f 487/8/169 535/8/169 534/8/169
f 491/8/170 492/8/170 540/8/170
f 533/8/47 534/8/47 537/8/47
f 534/8/47 535/8/47 537/8/47
f 535/8/47 536/8/47 537/8/47
f 537/8/47 538/8/47 533/8/47
f 538/8/47 539/8/47 533/8/47
f 667/8/89 666/8/89 674/8/89
f 670/8/120 669/8/120 677/8/120
f 665/8/121 664/8/168 672/8/87
f 663/8/85 662/8/85 670/8/85
f 668/8/91 667/8/91 675/8/91
f 666/8/88 665/8/179 673/8/88
f 664/8/86 663/8/86 671/8/86
f 661/8/84 669/8/84 670/8/84
f 661/8/92 668/8/92 676/8/92
f 683/8/123 691/8/123 692/8/123
f 669/8/124 676/8/124 684/8/124
f 675/8/125 674/8/125 682/8/125
f 672/8/126 680/8/126 681/8/126
f 670/8/172 678/8/127 679/8/172
f 675/8/128 683/8/128 684/8/128
f 673/8/129 681/8/129 682/8/129
f 672/8/130 671/8/130 679/8/130
f 687/8/131 686/8/131 694/8/131
f 681/8/133 689/8/133 690/8/133
f 679/8/134 687/8/134 688/8/134
f 677/8/135 685/8/135 686/8/135
f 677/8/136 684/8/136 692/8/136
f 682/8/137 690/8/137 691/8/137
f 681/8/138 680/8/138 688/8/138
f 679/8/139 678/8/139 686/8/139
f 693/8/140 700/8/140 708/8/140
f 691/8/141 699/8/141 700/8/141
f 689/8/142 697/8/142 698/8/142
f 687/8/143 695/8/143 696/8/143
f 685/8/145 693/8/145 694/8/145
f 685/8/146 692/8/146 700/8/146
f 690/8/147 698/8/147 699/8/147
f 689/8/148 688/8/148 696/8/148
f 703/8/52 702/8/205 701/8/206
f 701/8/206 708/8/119 703/8/52
f 708/8/119 707/8/52 703/8/52
f 707/8/52 706/8/207 705/8/208
f 705/8/208 704/8/118 707/8/52
f 698/8/149 706/8/149 707/8/149
f 697/8/151 696/8/151 704/8/151
f 695/8/152 694/8/152 702/8/152
f 699/8/154 707/8/177 708/8/154
f 697/8/157 705/8/202 706/8/157
f 695/8/158 703/8/203 704/8/158
f 693/8/160 701/8/204 702/8/160
f 665/8/179 666/8/88 714/8/162
f 664/8/163 712/8/163 711/8/163
f 662/8/164 710/8/164 709/8/164
f 668/8/165 661/8/165 709/8/165
f 666/8/166 667/8/166 715/8/166
f 665/8/121 713/8/167 712/8/167
f 663/8/169 711/8/169 710/8/169
f 667/8/170 668/8/170 716/8/170
f 709/8/47 710/8/47 711/8/47
f 711/8/47 712/8/47 713/8/47
f 713/8/47 714/8/47 715/8/47
f 715/8/47 716/8/47 713/8/47
f 716/8/47 709/8/47 713/8/47
