# Material-color atlas conversion for FMUR / Minecraft 1.7.10
# Shared texture: AKM.png
# Blender 5.2.0 LTS
# www.blender.org
o AKM_Bolt
v -0.502709 1.031047 0.075697
v 0.476477 0.807903 0.155553
v 0.476478 1.031046 0.075697
v -0.502709 0.805655 0.119974
v 0.476478 0.913424 0.119975
v -0.502709 0.913424 0.119974
v 0.476477 0.885182 0.155553
v 0.059078 0.913424 0.119975
v 0.157527 0.807903 0.155553
v 0.059078 1.031047 0.075697
v 0.157527 0.885182 0.155553
v 0.059078 0.805655 0.119975
v 0.476478 0.913424 0.071677
v 0.476478 1.041452 0.059718
v -0.502709 0.913424 0.071677
v 0.476478 0.884777 0.099745
v -0.502709 1.041452 0.059718
v 0.476478 0.807903 0.099745
v -0.502709 0.806129 0.071677
v 0.059078 1.041452 0.059718
v -0.502709 1.012296 0.078113
v 0.476478 1.012296 0.078113
v 0.059078 1.012296 0.078113
v -0.502709 1.021043 0.061625
v 0.476478 1.021043 0.061625
v 0.445638 0.913424 0.071677
v 0.445638 0.884777 0.099745
v 0.445638 0.807903 0.099745
v 0.445638 1.021043 0.061625
v -0.502709 1.031047 -0.075697
v 0.476478 0.807903 -0.106134
v 0.476477 1.031047 -0.075697
v -0.502709 0.913424 -0.000000
v -0.502709 0.805655 -0.090855
v 0.476477 0.913424 -0.090855
v -0.502709 0.913424 -0.090855
v 0.476478 0.885182 -0.106134
v -0.502709 0.807903 -0.000000
v -0.502709 1.080340 -0.000000
v 0.476477 1.080340 0.000000
v 0.059078 0.913424 -0.090855
v 0.157527 0.807903 -0.106134
v 0.059078 1.031047 -0.075697
v 0.157527 0.885182 -0.106134
v 0.059078 1.080340 -0.000000
v 0.059078 0.805655 -0.090855
v 0.476477 0.913424 -0.071677
v 0.476477 1.041452 -0.059718
v -0.502709 0.913424 -0.071677
v 0.476478 0.884777 -0.099745
v -0.502709 1.041452 -0.059718
v 0.476478 0.807903 -0.099745
v -0.502709 0.806129 -0.071677
v 0.059078 1.041452 -0.059718
v -0.502709 1.012296 -0.078113
v 0.476477 1.012296 -0.078113
v 0.476477 1.053732 0.000000
v -0.502709 1.053732 -0.000000
v 0.059078 1.012296 -0.078113
v -0.502709 1.021043 -0.061625
v 0.476477 1.021043 -0.061625
v 0.445638 0.913424 0.000000
v 0.445638 0.807903 0.000000
v 0.445638 0.883265 0.000000
v 0.445638 0.913424 -0.071677
v 0.445638 0.884777 -0.099745
v 0.445638 0.807903 -0.099745
v 0.445638 1.053732 0.000000
v 0.445638 1.021043 -0.061625
v 0.386500 0.807903 0.155553
v 0.358727 1.080340 0.000000
v 0.358727 0.913424 0.119975
v 0.358727 1.031047 0.075697
v 0.386500 0.885182 0.155553
v 0.358727 1.041452 0.059718
v 0.358727 1.012296 0.078113
v 0.386500 0.807903 -0.106134
v 0.358727 0.913424 -0.090855
v 0.358727 1.031047 -0.075697
v 0.386500 0.885182 -0.106134
v 0.358727 1.041452 -0.059718
v 0.358727 1.012296 -0.078113
v 0.458154 0.807903 0.155553
v 0.452499 1.080340 0.000000
v 0.452499 1.041452 0.059718
v 0.458154 0.807903 -0.106134
v 0.452499 1.041452 -0.059718
v 0.452499 0.913424 0.119975
v 0.452499 1.031047 0.075697
v 0.458154 0.885182 0.155553
v 0.452499 1.012296 0.078113
v 0.452499 0.913424 -0.090855
v 0.452499 1.031047 -0.075697
v 0.458154 0.885182 -0.106134
v 0.452499 1.012296 -0.078113
v 0.431945 0.807903 0.225075
v 0.431945 0.885182 0.225075
v 0.458154 0.807903 0.225075
v 0.458154 0.885182 0.225075
v 0.431945 0.885182 0.439153
v 0.458154 0.885182 0.439153
v 0.431945 0.926782 0.260415
v 0.458154 0.926782 0.260415
v 0.431945 0.926782 0.403814
v 0.458154 0.926782 0.403814
v 0.431945 0.807903 0.418802
v 0.431945 0.830321 0.439153
v 0.458154 0.830321 0.439153
v 0.458154 0.807903 0.418802
vn 1.0000 -0.0000 -0.0000
vn -0.0000 0.1278 0.9918
vn -0.3399 -0.0000 0.9405
vn -0.0000 0.8380 0.5457
vn -0.0000 -0.0000 1.0000
vn -1.0000 -0.0000 -0.0000
vn -0.0000 0.7832 0.6217
vn -0.0000 -0.0000 -1.0000
vn -0.0000 -0.8834 -0.4686
vn -0.0000 -0.0930 -0.9957
vn -0.0000 0.3899 0.9209
vn -0.0000 -0.6999 -0.7143
vn -0.0000 0.1278 -0.9918
vn -0.1534 -0.0000 -0.9882
vn -0.0000 0.8380 -0.5457
vn -0.0000 0.4758 -0.8795
vn -0.0000 -0.8834 0.4686
vn -0.0000 -0.0930 0.9957
vn -0.0000 -0.6999 0.7143
vn -0.8370 -0.0000 0.5472
vn -0.0000 1.0000 -0.0000
vn -0.0000 -1.0000 -0.0000
vn -0.0000 0.6474 -0.7621
vn -0.0000 0.6474 0.7621
vn -0.0000 -0.6721 0.7404
s 1
vt 0.125000 0.875000
vt 0.375000 0.875000
vt 0.625000 0.875000
vt 0.875000 0.875000
vt 0.125000 0.625000
vt 0.375000 0.625000
vt 0.625000 0.625000
vt 0.875000 0.625000
vt 0.125000 0.375000
vt 0.375000 0.375000
vt 0.625000 0.375000
vt 0.875000 0.375000
f 16/12/1 5/12/1 7/12/1
f 25/12/1 3/12/1 22/12/1
f 10/12/2 21/12/2 23/12/2
f 12/12/3 11/12/3 8/12/3
f 20/12/4 1/12/4 10/12/4
f 16/12/1 2/12/1 18/12/1
f 6/12/5 12/12/5 8/12/5
f 17/12/6 58/12/6 24/12/6
f 72/12/7 11/12/7 74/12/7
f 74/12/5 9/12/5 70/12/5
f 20/12/4 73/12/4 75/12/4
f 73/12/2 23/12/2 76/12/2
f 19/12/6 6/12/6 15/12/6
f 38/12/6 15/12/6 33/12/6
f 71/12/4 20/12/4 75/12/4
f 1/12/6 24/12/6 21/12/6
f 18/12/8 27/12/8 16/12/8
f 39/12/4 20/12/4 45/12/4
f 57/12/1 14/12/1 25/12/1
f 57/12/9 29/12/9 68/12/9
f 25/12/10 26/12/10 29/12/10
f 21/12/6 15/12/6 6/12/6
f 76/12/11 8/12/11 72/12/11
f 24/12/6 33/12/6 15/12/6
f 23/12/11 6/12/11 8/12/11
f 13/12/1 22/12/1 5/12/1
f 64/12/1 28/12/1 63/12/1
f 64/12/1 26/12/1 27/12/1
f 62/12/1 29/12/1 26/12/1
f 13/12/12 27/12/12 26/12/12
f 50/12/1 35/12/1 47/12/1
f 61/12/1 32/12/1 48/12/1
f 55/12/13 43/12/13 59/12/13
f 44/12/14 46/12/14 41/12/14
f 43/12/15 51/12/15 54/12/15
f 31/12/1 50/12/1 52/12/1
f 46/12/8 36/12/8 41/12/8
f 58/12/6 51/12/6 60/12/6
f 44/12/16 78/12/16 80/12/16
f 80/12/8 42/12/8 44/12/8
f 79/12/15 54/12/15 81/12/15
f 59/12/13 79/12/13 82/12/13
f 53/12/6 36/12/6 34/12/6
f 38/12/6 49/12/6 53/12/6
f 71/12/15 54/12/15 45/12/15
f 60/12/6 30/12/6 55/12/6
f 66/12/5 52/12/5 50/12/5
f 54/12/15 39/12/15 45/12/15
f 57/12/1 48/12/1 40/12/1
f 68/12/17 61/12/17 57/12/17
f 61/12/18 65/12/18 47/12/18
f 49/12/6 55/12/6 36/12/6
f 41/12/13 82/12/13 78/12/13
f 33/12/6 60/12/6 49/12/6
f 36/12/13 59/12/13 41/12/13
f 47/12/1 56/12/1 61/12/1
f 67/12/1 64/12/1 63/12/1
f 64/12/1 65/12/1 62/12/1
f 62/12/1 69/12/1 68/12/1
f 47/12/19 66/12/19 50/12/19
f 78/12/13 95/12/13 92/12/13
f 87/12/15 71/12/15 84/12/15
f 82/12/13 93/12/13 95/12/13
f 93/12/15 81/12/15 87/12/15
f 86/12/8 80/12/8 94/12/8
f 80/12/16 92/12/16 94/12/16
f 91/12/11 72/12/11 88/12/11
f 84/12/4 75/12/4 85/12/4
f 89/12/2 76/12/2 91/12/2
f 75/12/4 89/12/4 85/12/4
f 70/12/20 97/12/20 74/12/20
f 88/12/7 74/12/7 90/12/7
f 5/12/7 90/12/7 7/12/7
f 7/12/5 83/12/5 2/12/5
f 14/12/4 89/12/4 3/12/4
f 3/12/2 91/12/2 22/12/2
f 40/12/4 85/12/4 14/12/4
f 22/12/11 88/12/11 5/12/11
f 94/12/16 35/12/16 37/12/16
f 37/12/8 86/12/8 94/12/8
f 48/12/15 93/12/15 87/12/15
f 95/12/13 32/12/13 56/12/13
f 48/12/15 84/12/15 40/12/15
f 92/12/13 56/12/13 35/12/13
f 101/12/1 108/12/1 109/12/1
f 90/12/1 98/12/1 83/12/1
f 90/12/21 97/12/21 99/12/21
f 83/12/22 96/12/22 70/12/22
f 96/12/22 109/12/22 106/12/22
f 101/12/1 103/12/1 105/12/1
f 101/12/5 107/12/5 108/12/5
f 102/12/21 105/12/21 103/12/21
f 99/12/23 102/12/23 103/12/23
f 100/12/6 102/12/6 97/12/6
f 101/12/24 104/12/24 100/12/24
f 106/12/25 108/12/25 107/12/25
f 106/12/6 107/12/6 100/12/6
f 16/12/1 13/12/1 5/12/1
f 25/12/1 14/12/1 3/12/1
f 10/12/2 1/12/2 21/12/2
f 12/12/3 9/12/3 11/12/3
f 20/12/4 17/12/4 1/12/4
f 16/12/1 7/12/1 2/12/1
f 6/12/5 4/12/5 12/12/5
f 17/12/6 39/12/6 58/12/6
f 72/12/7 8/12/7 11/12/7
f 74/12/5 11/12/5 9/12/5
f 20/12/4 10/12/4 73/12/4
f 73/12/2 10/12/2 23/12/2
f 19/12/6 4/12/6 6/12/6
f 38/12/6 19/12/6 15/12/6
f 71/12/4 45/12/4 20/12/4
f 1/12/6 17/12/6 24/12/6
f 18/12/8 28/12/8 27/12/8
f 39/12/4 17/12/4 20/12/4
f 57/12/1 40/12/1 14/12/1
f 57/12/9 25/12/9 29/12/9
f 25/12/10 13/12/10 26/12/10
f 21/12/6 24/12/6 15/12/6
f 76/12/11 23/12/11 8/12/11
f 24/12/6 58/12/6 33/12/6
f 23/12/11 21/12/11 6/12/11
f 13/12/1 25/12/1 22/12/1
f 64/12/1 27/12/1 28/12/1
f 64/12/1 62/12/1 26/12/1
f 62/12/1 68/12/1 29/12/1
f 13/12/12 16/12/12 27/12/12
f 50/12/1 37/12/1 35/12/1
f 61/12/1 56/12/1 32/12/1
f 55/12/13 30/12/13 43/12/13
f 44/12/14 42/12/14 46/12/14
f 43/12/15 30/12/15 51/12/15
f 31/12/1 37/12/1 50/12/1
f 46/12/8 34/12/8 36/12/8
f 58/12/6 39/12/6 51/12/6
f 44/12/16 41/12/16 78/12/16
f 80/12/8 77/12/8 42/12/8
f 79/12/15 43/12/15 54/12/15
f 59/12/13 43/12/13 79/12/13
f 53/12/6 49/12/6 36/12/6
f 38/12/6 33/12/6 49/12/6
f 71/12/15 81/12/15 54/12/15
f 60/12/6 51/12/6 30/12/6
f 66/12/5 67/12/5 52/12/5
f 54/12/15 51/12/15 39/12/15
f 57/12/1 61/12/1 48/12/1
f 68/12/17 69/12/17 61/12/17
f 61/12/18 69/12/18 65/12/18
f 49/12/6 60/12/6 55/12/6
f 41/12/13 59/12/13 82/12/13
f 33/12/6 58/12/6 60/12/6
f 36/12/13 55/12/13 59/12/13
f 47/12/1 35/12/1 56/12/1
f 67/12/1 66/12/1 64/12/1
f 64/12/1 66/12/1 65/12/1
f 62/12/1 65/12/1 69/12/1
f 47/12/19 65/12/19 66/12/19
f 78/12/13 82/12/13 95/12/13
f 87/12/15 81/12/15 71/12/15
f 82/12/13 79/12/13 93/12/13
f 93/12/15 79/12/15 81/12/15
f 86/12/8 77/12/8 80/12/8
f 80/12/16 78/12/16 92/12/16
f 91/12/11 76/12/11 72/12/11
f 84/12/4 71/12/4 75/12/4
f 89/12/2 73/12/2 76/12/2
f 75/12/4 73/12/4 89/12/4
f 70/12/20 96/12/20 97/12/20
f 88/12/7 72/12/7 74/12/7
f 5/12/7 88/12/7 90/12/7
f 7/12/5 90/12/5 83/12/5
f 14/12/4 85/12/4 89/12/4
f 3/12/2 89/12/2 91/12/2
f 40/12/4 84/12/4 85/12/4
f 22/12/11 91/12/11 88/12/11
f 94/12/16 92/12/16 35/12/16
f 37/12/8 31/12/8 86/12/8
f 48/12/15 32/12/15 93/12/15
f 95/12/13 93/12/13 32/12/13
f 48/12/15 87/12/15 84/12/15
f 92/12/13 95/12/13 56/12/13
f 109/12/1 98/12/1 99/12/1
f 99/12/1 101/12/1 109/12/1
f 90/12/1 99/12/1 98/12/1
f 90/12/21 74/12/21 97/12/21
f 83/12/22 98/12/22 96/12/22
f 96/12/22 98/12/22 109/12/22
f 101/12/1 99/12/1 103/12/1
f 101/12/5 100/12/5 107/12/5
f 102/12/21 104/12/21 105/12/21
f 99/12/23 97/12/23 102/12/23
f 100/12/6 104/12/6 102/12/6
f 101/12/24 105/12/24 104/12/24
f 106/12/25 109/12/25 108/12/25
f 100/12/6 97/12/6 106/12/6
f 97/12/6 96/12/6 106/12/6
