# PVS-14: supplied geometry, split by Blockbench animation groups; triangulated.
v 0.296875 0.421875 0.046875
v 0.296875 0.421875 -0.046875
v 0.296875 0.265625 0.0625
v 0.296875 0.265625 -0.0625
v 0.203125 0.421875 0.046875
v 0.203125 0.421875 -0.046875
v 0.203125 0.265625 0.0625
v 0.203125 0.265625 -0.0625
v 0.296875 0.34375 0.109375
v 0.203125 0.34375 0.109375
v 0.296875 0.34375 -0.109375
v 0.203125 0.34375 -0.109375
v 0.296875 0.3046875 0.109375
v 0.203125 0.3046875 0.109375
v 0.296875 0.30296 -0.109375
v 0.203125 0.3046875 -0.109375
v 0.296875 0.265625 -0.0625
v 0.3125 0.375 0.0625
v 0.3125 0.375 -0.0625
v 0.3125 0.28125 0.0625
v 0.3125 0.28125 -0.0625
v 0.1875 0.375 0.0625
v 0.1875 0.375 -0.0625
v 0.1875 0.28125 0.0625
v 0.1875 0.28125 -0.0625
v 0.328125 0.296875 -0.03125
v 0.328125 0.296875 0.03125
v 0.332311875 0.28125 -0.03125
v 0.332311875 0.28125 0.03125
v 0.339563125 0.285436875 -0.03125
v 0.339563125 0.285436875 0.03125
v 0.34375 0.292688125 -0.03125
v 0.34375 0.292688125 0.03125
v 0.34375 0.301061875 -0.03125
v 0.34375 0.301061875 0.03125
v 0.339563125 0.308313125 -0.03125
v 0.339563125 0.308313125 0.03125
v 0.332311875 0.3125 -0.03125
v 0.332311875 0.3125 0.03125
v 0.323938125 0.3125 -0.03125
v 0.323938125 0.3125 0.03125
v 0.316686875 0.308313125 -0.03125
v 0.316686875 0.308313125 0.03125
v 0.3125 0.301061875 -0.03125
v 0.3125 0.301061875 0.03125
v 0.3125 0.292688125 -0.03125
v 0.3125 0.292688125 0.03125
v 0.316686875 0.285436875 -0.03125
v 0.316686875 0.285436875 0.03125
v 0.323938125 0.28125 -0.03125
v 0.323938125 0.28125 0.03125
v 0.34375 0.3125 -0.0309375
v 0.34375 0.3125 -0.0465625
v 0.34375 0.28125 -0.0309375
v 0.34375 0.28125 -0.0465625
v 0.3125 0.3125 -0.0309375
v 0.3125 0.3125 -0.0465625
v 0.3125 0.28125 -0.0309375
v 0.3125 0.28125 -0.0465625
v 0.34375 0.3125 0.0465625
v 0.34375 0.3125 0.0309375
v 0.34375 0.28125 0.0465625
v 0.34375 0.28125 0.0309375
v 0.3125 0.3125 0.0465625
v 0.3125 0.3125 0.0309375
v 0.3125 0.28125 0.0465625
v 0.3125 0.28125 0.0309375
v 0.3046875 0.34375 0
v 0.3203125 0.34375 0
v 0.3046875 0.334041875 0.0234375
v 0.3203125 0.334041875 0.0234375
v 0.3046875 0.3203125 0.009708125
v 0.3203125 0.3203125 0.009708125
v 0.3046875 0.3203125 -0.009708125
v 0.3203125 0.3203125 -0.009708125
v 0.3046875 0.334041875 -0.0234375
v 0.3203125 0.334041875 -0.0234375
v 0.3046875 0.353458125 -0.0234375
v 0.3203125 0.353458125 -0.0234375
v 0.3046875 0.3671875 -0.009708125
v 0.3203125 0.3671875 -0.009708125
v 0.3046875 0.3671875 0.009708125
v 0.3203125 0.3671875 0.009708125
v 0.3046875 0.353458125 0.0234375
v 0.3203125 0.353458125 0.0234375
v 0.4078125 0.2734375 0.109375
v 0.4078125 0.2734375 -0.015625
v 0.4078125 0.2578125 0.109375
v 0.4078125 0.2578125 -0.015625
v 0.3609375 0.2734375 0.109375
v 0.3609375 0.2734375 -0.015625
v 0.3609375 0.2578125 0.109375
v 0.3609375 0.2578125 -0.015625
v 0.4078125 0.2578125 0.078125
v 0.4078125 0.2578125 0.046875
v 0.4078125 0.2503125 0.078125
v 0.4078125 0.2503125 0.046875
v 0.3609375 0.2578125 0.078125
v 0.3609375 0.2578125 0.046875
v 0.3609375 0.2503125 0.078125
v 0.3609375 0.2503125 0.046875
v 0.446875 0.25 0.1228125
v 0.446875 0.25 0.0759375
v 0.446875 0.1875 0.1228125
v 0.446875 0.1875 0.0759375
v 0.321875 0.25 0.1228125
v 0.321875 0.25 0.0759375
v 0.321875 0.1875 0.1228125
v 0.321875 0.1875 0.0759375
v 0.5 0.21875 0.0625
v 0.3125 0.21875 0.0625
v 0.5 0.231694375 0.09375
v 0.3125 0.231694375 0.09375
v 0.5 0.25 0.075444375
v 0.3125 0.25 0.075444375
v 0.5 0.25 0.049555625
v 0.3125 0.25 0.049555625
v 0.5 0.231694375 0.03125
v 0.3125 0.231694375 0.03125
v 0.5 0.205805625 0.03125
v 0.3125 0.205805625 0.03125
v 0.5 0.1875 0.049555625
v 0.3125 0.1875 0.049555625
v 0.5 0.1875 0.075444375
v 0.3125 0.1875 0.075444375
v 0.5 0.205805625 0.09375
v 0.3125 0.205805625 0.09375
v 0.504375 0.21875 0.0625
v 0.498125 0.21875 0.0625
v 0.504375 0.2304 0.090625
v 0.498125 0.2304 0.090625
v 0.504375 0.246875 0.07415
v 0.498125 0.246875 0.07415
v 0.504375 0.246875 0.05085
v 0.498125 0.246875 0.05085
v 0.504375 0.2304 0.034375
v 0.498125 0.2304 0.034375
v 0.504375 0.2071 0.034375
v 0.498125 0.2071 0.034375
v 0.504375 0.190625 0.05085
v 0.498125 0.190625 0.05085
v 0.504375 0.190625 0.07415
v 0.498125 0.190625 0.07415
v 0.504375 0.2071 0.090625
v 0.498125 0.2071 0.090625
v 0.4609375 0.203125 0.109375
v 0.4453125 0.203125 0.109375
v 0.4609375 0.20636125 0.1171875
v 0.4453125 0.20636125 0.1171875
v 0.4609375 0.2109375 0.11261125
v 0.4453125 0.2109375 0.11261125
v 0.4609375 0.2109375 0.10613875
v 0.4453125 0.2109375 0.10613875
v 0.4609375 0.20636125 0.1015625
v 0.4453125 0.20636125 0.1015625
v 0.4609375 0.19988875 0.1015625
v 0.4453125 0.19988875 0.1015625
v 0.4609375 0.1953125 0.10613875
v 0.4453125 0.1953125 0.10613875
v 0.4609375 0.1953125 0.11261125
v 0.4453125 0.1953125 0.11261125
v 0.4609375 0.19988875 0.1171875
v 0.4453125 0.19988875 0.1171875
v 0.4609375 0.234375 0.109375
v 0.4453125 0.234375 0.109375
v 0.4609375 0.23761125 0.1171875
v 0.4453125 0.23761125 0.1171875
v 0.4609375 0.2421875 0.11261125
v 0.4453125 0.2421875 0.11261125
v 0.4609375 0.2421875 0.10613875
v 0.4453125 0.2421875 0.10613875
v 0.4609375 0.23761125 0.1015625
v 0.4453125 0.23761125 0.1015625
v 0.4609375 0.23113875 0.1015625
v 0.4453125 0.23113875 0.1015625
v 0.4609375 0.2265625 0.10613875
v 0.4453125 0.2265625 0.10613875
v 0.4609375 0.2265625 0.11261125
v 0.4453125 0.2265625 0.11261125
v 0.4609375 0.23113875 0.1171875
v 0.4453125 0.23113875 0.1171875
v 0.409375 0.187055625 0.053125
v 0.403125 0.187055625 0.053125
v 0.409375 0.16875 0.071430625
v 0.403125 0.16875 0.071430625
v 0.409375 0.16875 0.097319375
v 0.403125 0.16875 0.097319375
v 0.409375 0.187055625 0.115625
v 0.403125 0.187055625 0.115625
v 0.40625 0.2890625 0.015625
v 0.40625 0.2890625 -0.015625
v 0.40625 0.2734375 0.015625
v 0.40625 0.2734375 -0.015625
v 0.34375 0.2890625 0.025
v 0.34375 0.2890625 -0.025
v 0.34375 0.2734375 0.025
v 0.34375 0.2734375 -0.025
v 0.359375 0.3046875 0.03125
v 0.359375 0.3046875 -0.03125
v 0.359375 0.2890625 0.03125
v 0.359375 0.2890625 -0.03125
v 0.34375 0.3046875 0.03125
v 0.34375 0.3046875 -0.03125
v 0.34375 0.2890625 0.03125
v 0.34375 0.2890625 -0.03125
vt 0.265625 0.75
vt 0.265625 0.8125
vt 0.21875 0.8125
vt 0.21875 0.75
vt 0.109375 0.9609375
vt 0.078125 1
vt 0.03125 1
vt 0.359375 0.71875
vt 0.3125 0.71875
vt 0.3125 0.671875
vt 0.359375 0.671875
vt 0.109375 0.9609375
vt 0.03125 1
vt 0 0.9609375
vt 0.453125 0.96875
vt 0.453125 1
vt 0.40625 1
vt 0.40625 0.96875
vt 0.296875 0.234375
vt 0.296875 0.25
vt 0.25 0.25
vt 0.25 0.234375
vt 0.109375 0.94140625
vt 0.109375 0.9609375
vt 0 0.9609375
vt 0.6875 0.5
vt 0.6875 0.47960625
vt 0.734375 0.48046875
vt 0.734375 0.5
vt 0.40625 0.936959375
vt 0.40625 0.90625
vt 0.453125 0.90625
vt 0.453125 0.9375
vt 0.0234375 0.921875
vt 0.0859375 0.921875
vt 0.109375 0.94140625
vt 0 0.94140625
vt 0.109375 0.94140625
vt 0 0.9609375
vt 0 0.94140625
vt 0.109375 0.81554375
vt 0.109375 0.8359375
vt 0 0.8359375
vt 0 0.81640625
vt 0.0234375 0.796875
vt 0.0859375 0.796875
vt 0.3125 0.765625
vt 0.359375 0.765625
vt 0.359375 0.8125
vt 0.3125 0.8125
vt 0.046875 0.609375
vt 0.046875 0.65625
vt 0 0.65625
vt 0 0.609375
vt 0.078125 0.875
vt 0.03125 0.875
vt 0 0.8359375
vt 0.109375 0.8359375
vt 0 0.8359375
vt 0.0859375 0.796875
vt 0.109375 0.81554375
vt 0 0.8359375
vt 0 0.81640625
vt 0.0859375 0.796875
vt 0.0859375 0.796875
vt 0.0625 0.75
vt 0 0.75
vt 0 0.703125
vt 0.0625 0.703125
vt 0.28125 0.671875
vt 0.28125 0.71875
vt 0.21875 0.71875
vt 0.21875 0.671875
vt 0.21875 0.9375
vt 0.28125 0.9375
vt 0.28125 1
vt 0.21875 1
vt 0.28125 0.84375
vt 0.28125 0.90625
vt 0.21875 0.90625
vt 0.21875 0.84375
vt 0.375 0.953125
vt 0.375 1
vt 0.3125 1
vt 0.3125 0.953125
vt 0.375 0.90625
vt 0.3125 0.90625
vt 0.3125 0.859375
vt 0.375 0.859375
vt 0.82603125 0.81040625
vt 0.82240625 0.8125
vt 0.8203125 0.8046875
vt 0.07240625 0.15625
vt 0.07659375 0.15625
vt 0.07659375 0.1875
vt 0.07240625 0.1875
vt 0.25990625 0.171875
vt 0.26353125 0.17396875
vt 0.2578125 0.1796875
vt 0.828125 0.80678125
vt 0.82603125 0.81040625
vt 0.8203125 0.8046875
vt 0.78278125 0.21875
vt 0.78696875 0.21875
vt 0.78696875 0.25
vt 0.78278125 0.25
vt 0.26353125 0.17396875
vt 0.265625 0.17759375
vt 0.2578125 0.1796875
vt 0.828125 0.80259375
vt 0.828125 0.80678125
vt 0.8203125 0.8046875
vt 0.78696875 0.21875
vt 0.79115625 0.21875
vt 0.79115625 0.25
vt 0.78696875 0.25
vt 0.265625 0.17759375
vt 0.265625 0.18178125
vt 0.2578125 0.1796875
vt 0.82603125 0.79896875
vt 0.828125 0.80259375
vt 0.8203125 0.8046875
vt 0.79115625 0.21875
vt 0.79534375 0.21875
vt 0.79534375 0.25
vt 0.79115625 0.25
vt 0.265625 0.18178125
vt 0.26353125 0.18540625
vt 0.2578125 0.1796875
vt 0.82240625 0.796875
vt 0.82603125 0.79896875
vt 0.8203125 0.8046875
vt 0.81403125 0.84375
vt 0.81821875 0.84375
vt 0.81821875 0.875
vt 0.81403125 0.875
vt 0.26353125 0.18540625
vt 0.25990625 0.1875
vt 0.2578125 0.1796875
vt 0.81821875 0.796875
vt 0.82240625 0.796875
vt 0.8203125 0.8046875
vt 0.81821875 0.84375
vt 0.82240625 0.84375
vt 0.82240625 0.875
vt 0.81821875 0.875
vt 0.25990625 0.1875
vt 0.25571875 0.1875
vt 0.2578125 0.1796875
vt 0.81459375 0.79896875
vt 0.81821875 0.796875
vt 0.8203125 0.8046875
vt 0.82240625 0.84375
vt 0.82659375 0.84375
vt 0.82659375 0.875
vt 0.82240625 0.875
vt 0.25571875 0.1875
vt 0.25209375 0.18540625
vt 0.2578125 0.1796875
vt 0.8125 0.80259375
vt 0.81459375 0.79896875
vt 0.8203125 0.8046875
vt 0.81403125 0.90625
vt 0.81821875 0.90625
vt 0.81821875 0.9375
vt 0.81403125 0.9375
vt 0.25209375 0.18540625
vt 0.25 0.18178125
vt 0.2578125 0.1796875
vt 0.8125 0.80678125
vt 0.8125 0.80259375
vt 0.8203125 0.8046875
vt 0.81821875 0.90625
vt 0.82240625 0.90625
vt 0.82240625 0.9375
vt 0.81821875 0.9375
vt 0.25 0.18178125
vt 0.25 0.17759375
vt 0.2578125 0.1796875
vt 0.81459375 0.81040625
vt 0.8125 0.80678125
vt 0.8203125 0.8046875
vt 0.82240625 0.90625
vt 0.82659375 0.90625
vt 0.82659375 0.9375
vt 0.82240625 0.9375
vt 0.25 0.17759375
vt 0.25209375 0.17396875
vt 0.2578125 0.1796875
vt 0.81821875 0.8125
vt 0.81459375 0.81040625
vt 0.8203125 0.8046875
vt 0.06403125 0.15625
vt 0.06821875 0.15625
vt 0.06821875 0.1875
vt 0.06403125 0.1875
vt 0.25209375 0.17396875
vt 0.25571875 0.171875
vt 0.2578125 0.1796875
vt 0.82240625 0.8125
vt 0.81821875 0.8125
vt 0.8203125 0.8046875
vt 0.06821875 0.15625
vt 0.07240625 0.15625
vt 0.07240625 0.1875
vt 0.06821875 0.1875
vt 0.25571875 0.171875
vt 0.25990625 0.171875
vt 0.2578125 0.1796875
vt 0.828125 0.75
vt 0.8125 0.75
vt 0.8125 0.734375
vt 0.828125 0.734375
vt 0.328125 0.171875
vt 0.328125 0.1875
vt 0.3125 0.1875
vt 0.3125 0.171875
vt 0.8125 0.671875
vt 0.828125 0.671875
vt 0.828125 0.6875
vt 0.8125 0.6875
vt 0.390625 0.171875
vt 0.390625 0.1875
vt 0.375 0.1875
vt 0.375 0.171875
vt 0.828125 0.609375
vt 0.828125 0.625
vt 0.8125 0.625
vt 0.8125 0.609375
vt 0.453125 0.1875
vt 0.4375 0.1875
vt 0.4375 0.171875
vt 0.453125 0.171875
vt 0.828125 0.5625
vt 0.8125 0.5625
vt 0.8125 0.546875
vt 0.828125 0.546875
vt 0.828125 0.421875
vt 0.828125 0.4375
vt 0.8125 0.4375
vt 0.8125 0.421875
vt 0.59375 0.171875
vt 0.609375 0.171875
vt 0.609375 0.1875
vt 0.59375 0.1875
vt 0.828125 0.359375
vt 0.828125 0.375
vt 0.8125 0.375
vt 0.8125 0.359375
vt 0.671875 0.171875
vt 0.671875 0.1875
vt 0.65625 0.1875
vt 0.65625 0.171875
vt 0.828125 0.3125
vt 0.8125 0.3125
vt 0.8125 0.296875
vt 0.828125 0.296875
vt 0.77734375 0.735321875
vt 0.770478125 0.7421875
vt 0.765625 0.73046875
vt 0.5 0.140625
vt 0.515625 0.140625
vt 0.515625 0.15625
vt 0.5 0.15625
vt 0.770478125 0.6640625
vt 0.77734375 0.670928125
vt 0.765625 0.67578125
vt 0.77734375 0.725615625
vt 0.77734375 0.735321875
vt 0.765625 0.73046875
vt 0.71875 0.171875
vt 0.734375 0.171875
vt 0.734375 0.1875
vt 0.71875 0.1875
vt 0.77734375 0.670928125
vt 0.77734375 0.680634375
vt 0.765625 0.67578125
vt 0.770478125 0.71875
vt 0.77734375 0.725615625
vt 0.765625 0.73046875
vt 0.125 0.140625
vt 0.140625 0.140625
vt 0.140625 0.15625
vt 0.125 0.15625
vt 0.77734375 0.680634375
vt 0.770478125 0.6875
vt 0.765625 0.67578125
vt 0.760771875 0.71875
vt 0.770478125 0.71875
vt 0.765625 0.73046875
vt 0.84375 0.984375
vt 0.859375 0.984375
vt 0.859375 1
vt 0.84375 1
vt 0.770478125 0.6875
vt 0.760771875 0.6875
vt 0.765625 0.67578125
vt 0.75390625 0.725615625
vt 0.760771875 0.71875
vt 0.765625 0.73046875
vt 0.84375 0.484375
vt 0.859375 0.484375
vt 0.859375 0.5
vt 0.84375 0.5
vt 0.760771875 0.6875
vt 0.75390625 0.680634375
vt 0.765625 0.67578125
vt 0.75390625 0.735321875
vt 0.75390625 0.725615625
vt 0.765625 0.73046875
vt 0 0.140625
vt 0.015625 0.140625
vt 0.015625 0.15625
vt 0 0.15625
vt 0.75390625 0.680634375
vt 0.75390625 0.670928125
vt 0.765625 0.67578125
vt 0.760771875 0.7421875
vt 0.75390625 0.735321875
vt 0.765625 0.73046875
vt 0.1875 0.140625
vt 0.203125 0.140625
vt 0.203125 0.15625
vt 0.1875 0.15625
vt 0.75390625 0.670928125
vt 0.760771875 0.6640625
vt 0.765625 0.67578125
vt 0.770478125 0.7421875
vt 0.760771875 0.7421875
vt 0.765625 0.73046875
vt 0.78125 0.171875
vt 0.796875 0.171875
vt 0.796875 0.1875
vt 0.78125 0.1875
vt 0.760771875 0.6640625
vt 0.770478125 0.6640625
vt 0.765625 0.67578125
vt 0.234375 0.609375
vt 0.234375 0.625
vt 0.09375 0.625
vt 0.09375 0.609375
vt 0.421875 0.625
vt 0.28125 0.625
vt 0.28125 0.609375
vt 0.421875 0.609375
vt 0.375 0.25
vt 0.34375 0.25
vt 0.34375 0.234375
vt 0.375 0.234375
vt 0.15625 0.859375
vt 0.1875 0.859375
vt 0.1875 1
vt 0.15625 1
vt 0.1875 0.671875
vt 0.1875 0.8125
vt 0.15625 0.8125
vt 0.15625 0.671875
vt 0.78125 0.609375
vt 0.78125 0.625
vt 0.75 0.625
vt 0.75 0.609375
vt 0.890625 0.921875
vt 0.890625 0.9375
vt 0.875 0.9375
vt 0.875 0.921875
vt 0.890625 0.875
vt 0.875 0.875
vt 0.875 0.859375
vt 0.890625 0.859375
vt 0.78125 0.3125
vt 0.75 0.3125
vt 0.75 0.296875
vt 0.78125 0.296875
vt 0.71875 0.234375
vt 0.75 0.234375
vt 0.75 0.25
vt 0.71875 0.25
vt 0.03125 0.203125
vt 0.03125 0.21875
vt 0 0.21875
vt 0 0.203125
vt 0.8125 0.984375
vt 0.8125 1
vt 0.78125 1
vt 0.78125 0.984375
vt 0.890625 0.921875
vt 0.890625 0.9375
vt 0.875 0.9375
vt 0.875 0.921875
vt 0.890625 0.875
vt 0.875 0.875
vt 0.875 0.859375
vt 0.890625 0.859375
vt 0.78125 0.3125
vt 0.75 0.3125
vt 0.75 0.296875
vt 0.78125 0.296875
vt 0.71875 0.234375
vt 0.75 0.234375
vt 0.75 0.25
vt 0.71875 0.25
vt 0.03125 0.203125
vt 0.03125 0.21875
vt 0 0.21875
vt 0 0.203125
vt 0.8125 0.984375
vt 0.8125 1
vt 0.78125 1
vt 0.78125 0.984375
vt 0.71875 0.928346875
vt 0.709596875 0.9375
vt 0.703125 0.921875
vt 0.5 0.40625
vt 0.515625 0.40625
vt 0.515625 0.5
vt 0.5 0.5
vt 0.709596875 0.84375
vt 0.71875 0.852903125
vt 0.703125 0.859375
vt 0.71875 0.915403125
vt 0.71875 0.928346875
vt 0.703125 0.921875
vt 0.3125 0.46875
vt 0.328125 0.46875
vt 0.328125 0.5625
vt 0.3125 0.5625
vt 0.71875 0.852903125
vt 0.71875 0.865846875
vt 0.703125 0.859375
vt 0.709596875 0.90625
vt 0.71875 0.915403125
vt 0.703125 0.921875
vt 0.5 0.90625
vt 0.515625 0.90625
vt 0.515625 1
vt 0.5 1
vt 0.71875 0.865846875
vt 0.709596875 0.875
vt 0.703125 0.859375
vt 0.696653125 0.90625
vt 0.709596875 0.90625
vt 0.703125 0.921875
vt 0.46875 0.78125
vt 0.484375 0.78125
vt 0.484375 0.875
vt 0.46875 0.875
vt 0.709596875 0.875
vt 0.696653125 0.875
vt 0.703125 0.859375
vt 0.6875 0.915403125
vt 0.696653125 0.90625
vt 0.703125 0.921875
vt 0.5 0.53125
vt 0.515625 0.53125
vt 0.515625 0.625
vt 0.5 0.625
vt 0.696653125 0.875
vt 0.6875 0.865846875
vt 0.703125 0.859375
vt 0.6875 0.928346875
vt 0.6875 0.915403125
vt 0.703125 0.921875
vt 0.375 0.46875
vt 0.390625 0.46875
vt 0.390625 0.5625
vt 0.375 0.5625
vt 0.6875 0.865846875
vt 0.6875 0.852903125
vt 0.703125 0.859375
vt 0.696653125 0.9375
vt 0.6875 0.928346875
vt 0.703125 0.921875
vt 0.46875 0.65625
vt 0.484375 0.65625
vt 0.484375 0.75
vt 0.46875 0.75
vt 0.6875 0.852903125
vt 0.696653125 0.84375
vt 0.703125 0.859375
vt 0.709596875 0.9375
vt 0.696653125 0.9375
vt 0.703125 0.921875
vt 0.4375 0.46875
vt 0.453125 0.46875
vt 0.453125 0.5625
vt 0.4375 0.5625
vt 0.696653125 0.84375
vt 0.709596875 0.84375
vt 0.703125 0.859375
vt 0.7171875 0.4261375
vt 0.70895 0.434375
vt 0.703125 0.4203125
vt 0.875 0.609375
vt 0.890625 0.609375
vt 0.890625 0.625
vt 0.875 0.625
vt 0.64645 0.284375
vt 0.6546875 0.2926125
vt 0.640625 0.2984375
vt 0.7171875 0.4144875
vt 0.7171875 0.4261375
vt 0.703125 0.4203125
vt 0.875 0.734375
vt 0.890625 0.734375
vt 0.890625 0.75
vt 0.875 0.75
vt 0.6546875 0.2926125
vt 0.6546875 0.3042625
vt 0.640625 0.2984375
vt 0.70895 0.40625
vt 0.7171875 0.4144875
vt 0.703125 0.4203125
vt 0.875 0.546875
vt 0.890625 0.546875
vt 0.890625 0.5625
vt 0.875 0.5625
vt 0.6546875 0.3042625
vt 0.64645 0.3125
vt 0.640625 0.2984375
vt 0.6973 0.40625
vt 0.70895 0.40625
vt 0.703125 0.4203125
vt 0.875 0.671875
vt 0.890625 0.671875
vt 0.890625 0.6875
vt 0.875 0.6875
vt 0.64645 0.3125
vt 0.6348 0.3125
vt 0.640625 0.2984375
vt 0.6890625 0.4144875
vt 0.6973 0.40625
vt 0.703125 0.4203125
vt 0.5625 0.109375
vt 0.578125 0.109375
vt 0.578125 0.125
vt 0.5625 0.125
vt 0.6348 0.3125
vt 0.6265625 0.3042625
vt 0.640625 0.2984375
vt 0.6890625 0.4261375
vt 0.6890625 0.4144875
vt 0.703125 0.4203125
vt 0.375 0.109375
vt 0.390625 0.109375
vt 0.390625 0.125
vt 0.375 0.125
vt 0.6265625 0.3042625
vt 0.6265625 0.2926125
vt 0.640625 0.2984375
vt 0.6973 0.434375
vt 0.6890625 0.4261375
vt 0.703125 0.4203125
vt 0.4375 0.109375
vt 0.453125 0.109375
vt 0.453125 0.125
vt 0.4375 0.125
vt 0.6265625 0.2926125
vt 0.6348 0.284375
vt 0.640625 0.2984375
vt 0.70895 0.434375
vt 0.6973 0.434375
vt 0.703125 0.4203125
vt 0.3125 0.109375
vt 0.328125 0.109375
vt 0.328125 0.125
vt 0.3125 0.125
vt 0.6348 0.284375
vt 0.64645 0.284375
vt 0.640625 0.2984375
vt 0.71875 0.928346875
vt 0.709596875 0.9375
vt 0.703125 0.921875
vt 0.5 0.40625
vt 0.515625 0.40625
vt 0.515625 0.5
vt 0.5 0.5
vt 0.709596875 0.84375
vt 0.71875 0.852903125
vt 0.703125 0.859375
vt 0.71875 0.915403125
vt 0.71875 0.928346875
vt 0.703125 0.921875
vt 0.3125 0.46875
vt 0.328125 0.46875
vt 0.328125 0.5625
vt 0.3125 0.5625
vt 0.71875 0.852903125
vt 0.71875 0.865846875
vt 0.703125 0.859375
vt 0.709596875 0.90625
vt 0.71875 0.915403125
vt 0.703125 0.921875
vt 0.5 0.90625
vt 0.515625 0.90625
vt 0.515625 1
vt 0.5 1
vt 0.71875 0.865846875
vt 0.709596875 0.875
vt 0.703125 0.859375
vt 0.696653125 0.90625
vt 0.709596875 0.90625
vt 0.703125 0.921875
vt 0.46875 0.78125
vt 0.484375 0.78125
vt 0.484375 0.875
vt 0.46875 0.875
vt 0.709596875 0.875
vt 0.696653125 0.875
vt 0.703125 0.859375
vt 0.6875 0.915403125
vt 0.696653125 0.90625
vt 0.703125 0.921875
vt 0.5 0.53125
vt 0.515625 0.53125
vt 0.515625 0.625
vt 0.5 0.625
vt 0.696653125 0.875
vt 0.6875 0.865846875
vt 0.703125 0.859375
vt 0.6875 0.928346875
vt 0.6875 0.915403125
vt 0.703125 0.921875
vt 0.375 0.46875
vt 0.390625 0.46875
vt 0.390625 0.5625
vt 0.375 0.5625
vt 0.6875 0.865846875
vt 0.6875 0.852903125
vt 0.703125 0.859375
vt 0.696653125 0.9375
vt 0.6875 0.928346875
vt 0.703125 0.921875
vt 0.46875 0.65625
vt 0.484375 0.65625
vt 0.484375 0.75
vt 0.46875 0.75
vt 0.6875 0.852903125
vt 0.696653125 0.84375
vt 0.703125 0.859375
vt 0.709596875 0.9375
vt 0.696653125 0.9375
vt 0.703125 0.921875
vt 0.4375 0.46875
vt 0.453125 0.46875
vt 0.453125 0.5625
vt 0.4375 0.5625
vt 0.696653125 0.84375
vt 0.709596875 0.84375
vt 0.703125 0.859375
vt 0.71875 0.928346875
vt 0.709596875 0.9375
vt 0.703125 0.921875
vt 0.5 0.40625
vt 0.515625 0.40625
vt 0.515625 0.5
vt 0.5 0.5
vt 0.709596875 0.84375
vt 0.71875 0.852903125
vt 0.703125 0.859375
vt 0.71875 0.915403125
vt 0.71875 0.928346875
vt 0.703125 0.921875
vt 0.3125 0.46875
vt 0.328125 0.46875
vt 0.328125 0.5625
vt 0.3125 0.5625
vt 0.71875 0.852903125
vt 0.71875 0.865846875
vt 0.703125 0.859375
vt 0.709596875 0.90625
vt 0.71875 0.915403125
vt 0.703125 0.921875
vt 0.5 0.90625
vt 0.515625 0.90625
vt 0.515625 1
vt 0.5 1
vt 0.71875 0.865846875
vt 0.709596875 0.875
vt 0.703125 0.859375
vt 0.696653125 0.90625
vt 0.709596875 0.90625
vt 0.703125 0.921875
vt 0.46875 0.78125
vt 0.484375 0.78125
vt 0.484375 0.875
vt 0.46875 0.875
vt 0.709596875 0.875
vt 0.696653125 0.875
vt 0.703125 0.859375
vt 0.6875 0.915403125
vt 0.696653125 0.90625
vt 0.703125 0.921875
vt 0.5 0.53125
vt 0.515625 0.53125
vt 0.515625 0.625
vt 0.5 0.625
vt 0.696653125 0.875
vt 0.6875 0.865846875
vt 0.703125 0.859375
vt 0.6875 0.928346875
vt 0.6875 0.915403125
vt 0.703125 0.921875
vt 0.375 0.46875
vt 0.390625 0.46875
vt 0.390625 0.5625
vt 0.375 0.5625
vt 0.6875 0.865846875
vt 0.6875 0.852903125
vt 0.703125 0.859375
vt 0.696653125 0.9375
vt 0.6875 0.928346875
vt 0.703125 0.921875
vt 0.46875 0.65625
vt 0.484375 0.65625
vt 0.484375 0.75
vt 0.46875 0.75
vt 0.6875 0.852903125
vt 0.696653125 0.84375
vt 0.703125 0.859375
vt 0.709596875 0.9375
vt 0.696653125 0.9375
vt 0.703125 0.921875
vt 0.4375 0.46875
vt 0.453125 0.46875
vt 0.453125 0.5625
vt 0.4375 0.5625
vt 0.696653125 0.84375
vt 0.709596875 0.84375
vt 0.703125 0.859375
vt 0.5 0.53125
vt 0.515625 0.53125
vt 0.515625 0.625
vt 0.5 0.625
vt 0.375 0.46875
vt 0.390625 0.46875
vt 0.390625 0.5625
vt 0.375 0.5625
vt 0.46875 0.65625
vt 0.484375 0.65625
vt 0.484375 0.75
vt 0.46875 0.75
vt 0.859375 0.25
vt 0.84375 0.25
vt 0.84375 0.234375
vt 0.859375 0.234375
vt 0.4375 0.234375
vt 0.4375 0.25
vt 0.40625 0.25
vt 0.40625 0.234375
vt 0.75 0.85
vt 0.78125 0.8546875
vt 0.78125 0.8703125
vt 0.75 0.875
vt 0.78125 0.7859375
vt 0.78125 0.8015625
vt 0.75 0.80625
vt 0.75 0.78125
vt 0.78125 0.546875
vt 0.78125 0.5625
vt 0.75 0.5625
vt 0.75 0.546875
vt 0.5 0.25
vt 0.46875 0.25
vt 0.46875 0.234375
vt 0.5 0.234375
vt 0.78125 0.4375
vt 0.75 0.4375
vt 0.75 0.421875
vt 0.78125 0.421875
vt 0.625 0.234375
vt 0.625 0.25
vt 0.59375 0.25
vt 0.59375 0.234375
vt 0.75 0.34375
vt 0.765625 0.34375
vt 0.765625 0.375
vt 0.75 0.375
vt 0.671875 0.21875
vt 0.671875 0.25
vt 0.65625 0.25
vt 0.65625 0.21875
vt 0.859375 0.171875
vt 0.859375 0.1875
vt 0.84375 0.1875
vt 0.84375 0.171875
vt 0.078125 0.125
vt 0.0625 0.125
vt 0.0625 0.109375
vt 0.078125 0.109375
vn 0 -1 0
vn -1 0 0
vn 0 0.624695047554424 -0.78086880944303
vn -1 0 0
vn 0 -0.768221279597376 0.64018439966448
vn 0 0 1
vn -1 0 0
vn 0 0 -1
vn 0 -0.782210116615582 -0.623014713681979
vn -1 0 0
vn -1 0 0
vn 1 0 0
vn 1 0 0
vn 0 1 0
vn 0 0.624695047554424 0.78086880944303
vn 1 0 0
vn 1 0 0
vn 1 0 0
vn 1 0 0
vn -1 0 0
vn 0 1 0
vn 0 -1 0
vn 0 0 1
vn 0 0 -1
vn 0 0 -1
vn 0.500032591160127 -0.866006586451679 0
vn 0 0 1
vn 0 0 -1
vn 0.866006586451679 -0.500032591160127 0
vn 0 0 1
vn 0 0 -1
vn 1 0 0
vn 0 0 1
vn 0 0 -1
vn 0.866006586451679 0.500032591160127 0
vn 0 0 1
vn 0 0 -1
vn 0.500032591160127 0.866006586451679 0
vn 0 0 1
vn 0 0 -1
vn 0 1 0
vn 0 0 1
vn 0 0 -1
vn -0.500032591160127 0.866006586451679 0
vn 0 0 1
vn 0 0 -1
vn -0.866006586451679 0.500032591160127 0
vn 0 0 1
vn 0 0 -1
vn -1 0 0
vn 0 0 1
vn 0 0 -1
vn -0.866006586451679 -0.500032591160127 0
vn 0 0 1
vn 0 0 -1
vn -0.500032591160127 -0.866006586451679 0
vn 0 0 1
vn 0 0 -1
vn 0 -1 0
vn 0 0 1
vn 1 0 0
vn -1 0 0
vn 0 1 0
vn 0 -1 0
vn 0 0 1
vn 0 0 -1
vn 1 0 0
vn -1 0 0
vn 0 1 0
vn 0 -1 0
vn 0 0 1
vn 0 0 -1
vn -1 0 0
vn 0 -0.707106781186548 0.707106781186548
vn 1 0 0
vn -1 0 0
vn 0 -1 0
vn 1 0 0
vn -1 0 0
vn 0 -0.707106781186548 -0.707106781186548
vn 1 0 0
vn -1 0 0
vn 0 0 -1
vn 1 0 0
vn -1 0 0
vn 0 0.707106781186548 -0.707106781186548
vn 1 0 0
vn -1 0 0
vn 0 1 0
vn 1 0 0
vn -1 0 0
vn 0 0.707106781186548 0.707106781186548
vn 1 0 0
vn -1 0 0
vn 0 0 1
vn 1 0 0
vn -1 0 0
vn 1 0 0
vn 0 0 -1
vn 0 1 0
vn 0 -1 0
vn 0 0 1
vn -1 0 0
vn 1 0 0
vn 0 0 -1
vn 0 1 0
vn 0 -1 0
vn 0 0 1
vn -1 0 0
vn 1 0 0
vn 0 0 -1
vn 0 1 0
vn 0 -1 0
vn 0 0 1
vn 1 0 0
vn 0 0.707106781186548 0.707106781186548
vn -1 0 0
vn 1 0 0
vn 0 1 0
vn -1 0 0
vn 1 0 0
vn 0 0.707106781186548 -0.707106781186548
vn -1 0 0
vn 1 0 0
vn 0 0 -1
vn -1 0 0
vn 1 0 0
vn 0 -0.707106781186548 -0.707106781186548
vn -1 0 0
vn 1 0 0
vn 0 -1 0
vn -1 0 0
vn 1 0 0
vn 0 -0.707106781186548 0.707106781186548
vn -1 0 0
vn 1 0 0
vn 0 0 1
vn -1 0 0
vn 1 0 0
vn 0 0.707106781186548 0.707106781186548
vn -1 0 0
vn 1 0 0
vn 0 1 0
vn -1 0 0
vn 1 0 0
vn 0 0.707106781186548 -0.707106781186548
vn -1 0 0
vn 1 0 0
vn 0 0 -1
vn -1 0 0
vn 1 0 0
vn 0 -0.707106781186548 -0.707106781186548
vn -1 0 0
vn 1 0 0
vn 0 -1 0
vn -1 0 0
vn 1 0 0
vn 0 -0.707106781186548 0.707106781186548
vn -1 0 0
vn 1 0 0
vn 0 0 1
vn -1 0 0
vn 1 0 0
vn 0 0.707106781186548 0.707106781186548
vn -1 0 0
vn 1 0 0
vn 0 1 0
vn -1 0 0
vn 1 0 0
vn 0 0.707106781186548 -0.707106781186548
vn -1 0 0
vn 1 0 0
vn 0 0 -1
vn -1 0 0
vn 1 0 0
vn 0 -0.707106781186548 -0.707106781186548
vn -1 0 0
vn 1 0 0
vn 0 -1 0
vn -1 0 0
vn 1 0 0
vn 0 -0.707106781186548 0.707106781186548
vn -1 0 0
vn 1 0 0
vn 0 0 1
vn -1 0 0
vn 1 0 0
vn 0 0.707106781186548 0.707106781186548
vn -1 0 0
vn 1 0 0
vn 0 1 0
vn -1 0 0
vn 1 0 0
vn 0 0.707106781186548 -0.707106781186548
vn -1 0 0
vn 1 0 0
vn 0 0 -1
vn -1 0 0
vn 1 0 0
vn 0 -0.707106781186548 -0.707106781186548
vn -1 0 0
vn 1 0 0
vn 0 -1 0
vn -1 0 0
vn 1 0 0
vn 0 -0.707106781186548 0.707106781186548
vn -1 0 0
vn 1 0 0
vn 0 0 1
vn -1 0 0
vn 0 -0.707106781186548 -0.707106781186548
vn 0 -1 0
vn 0 -0.707106781186548 0.707106781186548
vn 1 0 0
vn -1 0 0
vn 0 1 0
vn 0 -1 0
vn 0.148340452930245 0 0.988936352868298
vn 0.148340452930245 0 -0.988936352868298
vn 1 0 0
vn -1 0 0
vn 0 1 0
vn 0 -1 0
vn 0 0 1
vn 0 0 -1
o bridge
f 92/338/97 90/339/97 91/340/97
f 92/338/97 91/340/97 93/341/97
f 87/342/98 86/343/98 88/344/98
f 87/342/98 88/344/98 89/345/98
f 91/346/99 87/347/99 89/348/99
f 91/346/99 89/348/99 93/349/99
f 90/350/100 86/351/100 87/352/100
f 90/350/100 87/352/100 91/353/100
f 89/354/101 88/355/101 92/356/101
f 89/354/101 92/356/101 93/357/101
f 88/358/102 86/359/102 90/360/102
f 88/358/102 90/360/102 92/361/102
o connector_right_top
f 100/362/103 98/363/103 99/364/103
f 100/362/103 99/364/103 101/365/103
f 95/366/104 94/367/104 96/368/104
f 95/366/104 96/368/104 97/369/104
f 99/370/105 95/371/105 97/372/105
f 99/370/105 97/372/105 101/373/105
f 98/374/106 94/375/106 95/376/106
f 98/374/106 95/376/106 99/377/106
f 97/378/107 96/379/107 100/380/107
f 97/378/107 100/380/107 101/381/107
f 96/382/108 94/383/108 98/384/108
f 96/382/108 98/384/108 100/385/108
o electronicmount
f 108/386/109 106/387/109 107/388/109
f 108/386/109 107/388/109 109/389/109
f 103/390/110 102/391/110 104/392/110
f 103/390/110 104/392/110 105/393/110
f 107/394/111 103/395/111 105/396/111
f 107/394/111 105/396/111 109/397/111
f 106/398/112 102/399/112 103/400/112
f 106/398/112 103/400/112 107/401/112
f 105/402/113 104/403/113 108/404/113
f 105/402/113 108/404/113 109/405/113
f 104/406/114 102/407/114 106/408/114
f 104/406/114 106/408/114 108/409/114
o tube_right_inner
f 114/410/115 112/411/115 110/412/115
f 112/413/116 114/414/116 115/415/116
f 112/413/116 115/415/116 113/416/116
f 113/417/117 115/418/117 111/419/117
f 116/420/118 114/421/118 110/422/118
f 114/423/119 116/424/119 117/425/119
f 114/423/119 117/425/119 115/426/119
f 115/427/120 117/428/120 111/429/120
f 118/430/121 116/431/121 110/432/121
f 116/433/122 118/434/122 119/435/122
f 116/433/122 119/435/122 117/436/122
f 117/437/123 119/438/123 111/439/123
f 120/440/124 118/441/124 110/442/124
f 118/443/125 120/444/125 121/445/125
f 118/443/125 121/445/125 119/446/125
f 119/447/126 121/448/126 111/449/126
f 122/450/127 120/451/127 110/452/127
f 120/453/128 122/454/128 123/455/128
f 120/453/128 123/455/128 121/456/128
f 121/457/129 123/458/129 111/459/129
f 124/460/130 122/461/130 110/462/130
f 122/463/131 124/464/131 125/465/131
f 122/463/131 125/465/131 123/466/131
f 123/467/132 125/468/132 111/469/132
f 126/470/133 124/471/133 110/472/133
f 124/473/134 126/474/134 127/475/134
f 124/473/134 127/475/134 125/476/134
f 125/477/135 127/478/135 111/479/135
f 112/480/136 126/481/136 110/482/136
f 126/483/137 112/484/137 113/485/137
f 126/483/137 113/485/137 127/486/137
f 127/487/138 113/488/138 111/489/138
o glass_right_inner
f 132/490/139 130/491/139 128/492/139
f 130/493/140 132/494/140 133/495/140
f 130/493/140 133/495/140 131/496/140
f 131/497/141 133/498/141 129/499/141
f 134/500/142 132/501/142 128/502/142
f 132/503/143 134/504/143 135/505/143
f 132/503/143 135/505/143 133/506/143
f 133/507/144 135/508/144 129/509/144
f 136/510/145 134/511/145 128/512/145
f 134/513/146 136/514/146 137/515/146
f 134/513/146 137/515/146 135/516/146
f 135/517/147 137/518/147 129/519/147
f 138/520/148 136/521/148 128/522/148
f 136/523/149 138/524/149 139/525/149
f 136/523/149 139/525/149 137/526/149
f 137/527/150 139/528/150 129/529/150
f 140/530/151 138/531/151 128/532/151
f 138/533/152 140/534/152 141/535/152
f 138/533/152 141/535/152 139/536/152
f 139/537/153 141/538/153 129/539/153
f 142/540/154 140/541/154 128/542/154
f 140/543/155 142/544/155 143/545/155
f 140/543/155 143/545/155 141/546/155
f 141/547/156 143/548/156 129/549/156
f 144/550/157 142/551/157 128/552/157
f 142/553/158 144/554/158 145/555/158
f 142/553/158 145/555/158 143/556/158
f 143/557/159 145/558/159 129/559/159
f 130/560/160 144/561/160 128/562/160
f 144/563/161 130/564/161 131/565/161
f 144/563/161 131/565/161 145/566/161
f 145/567/162 131/568/162 129/569/162
o knob1
f 150/570/163 148/571/163 146/572/163
f 148/573/164 150/574/164 151/575/164
f 148/573/164 151/575/164 149/576/164
f 149/577/165 151/578/165 147/579/165
f 152/580/166 150/581/166 146/582/166
f 150/583/167 152/584/167 153/585/167
f 150/583/167 153/585/167 151/586/167
f 151/587/168 153/588/168 147/589/168
f 154/590/169 152/591/169 146/592/169
f 152/593/170 154/594/170 155/595/170
f 152/593/170 155/595/170 153/596/170
f 153/597/171 155/598/171 147/599/171
f 156/600/172 154/601/172 146/602/172
f 154/603/173 156/604/173 157/605/173
f 154/603/173 157/605/173 155/606/173
f 155/607/174 157/608/174 147/609/174
f 158/610/175 156/611/175 146/612/175
f 156/613/176 158/614/176 159/615/176
f 156/613/176 159/615/176 157/616/176
f 157/617/177 159/618/177 147/619/177
f 160/620/178 158/621/178 146/622/178
f 158/623/179 160/624/179 161/625/179
f 158/623/179 161/625/179 159/626/179
f 159/627/180 161/628/180 147/629/180
f 162/630/181 160/631/181 146/632/181
f 160/633/182 162/634/182 163/635/182
f 160/633/182 163/635/182 161/636/182
f 161/637/183 163/638/183 147/639/183
f 148/640/184 162/641/184 146/642/184
f 162/643/185 148/644/185 149/645/185
f 162/643/185 149/645/185 163/646/185
f 163/647/186 149/648/186 147/649/186
o knob2
f 168/650/187 166/651/187 164/652/187
f 166/653/188 168/654/188 169/655/188
f 166/653/188 169/655/188 167/656/188
f 167/657/189 169/658/189 165/659/189
f 170/660/190 168/661/190 164/662/190
f 168/663/191 170/664/191 171/665/191
f 168/663/191 171/665/191 169/666/191
f 169/667/192 171/668/192 165/669/192
f 172/670/193 170/671/193 164/672/193
f 170/673/194 172/674/194 173/675/194
f 170/673/194 173/675/194 171/676/194
f 171/677/195 173/678/195 165/679/195
f 174/680/196 172/681/196 164/682/196
f 172/683/197 174/684/197 175/685/197
f 172/683/197 175/685/197 173/686/197
f 173/687/198 175/688/198 165/689/198
f 176/690/199 174/691/199 164/692/199
f 174/693/200 176/694/200 177/695/200
f 174/693/200 177/695/200 175/696/200
f 175/697/201 177/698/201 165/699/201
f 178/700/202 176/701/202 164/702/202
f 176/703/203 178/704/203 179/705/203
f 176/703/203 179/705/203 177/706/203
f 177/707/204 179/708/204 165/709/204
f 180/710/205 178/711/205 164/712/205
f 178/713/206 180/714/206 181/715/206
f 178/713/206 181/715/206 179/716/206
f 179/717/207 181/718/207 165/719/207
f 166/720/208 180/721/208 164/722/208
f 180/723/209 166/724/209 167/725/209
f 180/723/209 167/725/209 181/726/209
f 181/727/210 167/728/210 165/729/210
o wire
f 182/730/211 184/731/211 185/732/211
f 182/730/211 185/732/211 183/733/211
f 184/734/212 186/735/212 187/736/212
f 184/734/212 187/736/212 185/737/212
f 186/738/213 188/739/213 189/740/213
f 186/738/213 189/740/213 187/741/213
o bridge_connect
f 191/742/214 190/743/214 192/744/214
f 191/742/214 192/744/214 193/745/214
f 196/746/215 194/747/215 195/748/215
f 196/746/215 195/748/215 197/749/215
f 194/750/216 190/751/216 191/752/216
f 194/750/216 191/752/216 195/753/216
f 193/754/217 192/755/217 196/756/217
f 193/754/217 196/756/217 197/757/217
f 192/758/218 190/759/218 194/760/218
f 192/758/218 194/760/218 196/761/218
f 195/762/219 191/763/219 193/764/219
f 195/762/219 193/764/219 197/765/219
o hinge
f 199/766/220 198/767/220 200/768/220
f 199/766/220 200/768/220 201/769/220
f 204/770/221 202/771/221 203/772/221
f 204/770/221 203/772/221 205/773/221
f 202/774/222 198/775/222 199/776/222
f 202/774/222 199/776/222 203/777/222
f 201/778/223 200/779/223 204/780/223
f 201/778/223 204/780/223 205/781/223
f 200/782/224 198/783/224 202/784/224
f 200/782/224 202/784/224 204/785/224
f 203/786/225 199/787/225 201/788/225
f 203/786/225 201/788/225 205/789/225
