# PVS-14: supplied geometry, split by Blockbench animation groups; triangulated.
v 0.296875 0.421875 0.046875
v 0.296875 0.421875 -0.046875
v 0.296875 0.265625 0.0625
v 0.296875 0.265625 -0.0625
v 0.203125 0.421875 0.046875
v 0.203125 0.421875 -0.046875
v 0.203125 0.265625 0.0625
v 0.203125 0.265625 -0.0625
v 0.296875 0.34375 0.109375
v 0.203125 0.34375 0.109375
v 0.296875 0.34375 -0.109375
v 0.203125 0.34375 -0.109375
v 0.296875 0.3046875 0.109375
v 0.203125 0.3046875 0.109375
v 0.296875 0.30296 -0.109375
v 0.203125 0.3046875 -0.109375
v 0.296875 0.265625 -0.0625
v 0.3125 0.375 0.0625
v 0.3125 0.375 -0.0625
v 0.3125 0.28125 0.0625
v 0.3125 0.28125 -0.0625
v 0.1875 0.375 0.0625
v 0.1875 0.375 -0.0625
v 0.1875 0.28125 0.0625
v 0.1875 0.28125 -0.0625
v 0.328125 0.296875 -0.03125
v 0.328125 0.296875 0.03125
v 0.332311875 0.28125 -0.03125
v 0.332311875 0.28125 0.03125
v 0.339563125 0.285436875 -0.03125
v 0.339563125 0.285436875 0.03125
v 0.34375 0.292688125 -0.03125
v 0.34375 0.292688125 0.03125
v 0.34375 0.301061875 -0.03125
v 0.34375 0.301061875 0.03125
v 0.339563125 0.308313125 -0.03125
v 0.339563125 0.308313125 0.03125
v 0.332311875 0.3125 -0.03125
v 0.332311875 0.3125 0.03125
v 0.323938125 0.3125 -0.03125
v 0.323938125 0.3125 0.03125
v 0.316686875 0.308313125 -0.03125
v 0.316686875 0.308313125 0.03125
v 0.3125 0.301061875 -0.03125
v 0.3125 0.301061875 0.03125
v 0.3125 0.292688125 -0.03125
v 0.3125 0.292688125 0.03125
v 0.316686875 0.285436875 -0.03125
v 0.316686875 0.285436875 0.03125
v 0.323938125 0.28125 -0.03125
v 0.323938125 0.28125 0.03125
v 0.34375 0.3125 -0.0309375
v 0.34375 0.3125 -0.0465625
v 0.34375 0.28125 -0.0309375
v 0.34375 0.28125 -0.0465625
v 0.3125 0.3125 -0.0309375
v 0.3125 0.3125 -0.0465625
v 0.3125 0.28125 -0.0309375
v 0.3125 0.28125 -0.0465625
v 0.34375 0.3125 0.0465625
v 0.34375 0.3125 0.0309375
v 0.34375 0.28125 0.0465625
v 0.34375 0.28125 0.0309375
v 0.3125 0.3125 0.0465625
v 0.3125 0.3125 0.0309375
v 0.3125 0.28125 0.0465625
v 0.3125 0.28125 0.0309375
v 0.3046875 0.34375 0
v 0.3203125 0.34375 0
v 0.3046875 0.334041875 0.0234375
v 0.3203125 0.334041875 0.0234375
v 0.3046875 0.3203125 0.009708125
v 0.3203125 0.3203125 0.009708125
v 0.3046875 0.3203125 -0.009708125
v 0.3203125 0.3203125 -0.009708125
v 0.3046875 0.334041875 -0.0234375
v 0.3203125 0.334041875 -0.0234375
v 0.3046875 0.353458125 -0.0234375
v 0.3203125 0.353458125 -0.0234375
v 0.3046875 0.3671875 -0.009708125
v 0.3203125 0.3671875 -0.009708125
v 0.3046875 0.3671875 0.009708125
v 0.3203125 0.3671875 0.009708125
v 0.3046875 0.353458125 0.0234375
v 0.3203125 0.353458125 0.0234375
v 0.4078125 0.2734375 0.109375
v 0.4078125 0.2734375 -0.015625
v 0.4078125 0.2578125 0.109375
v 0.4078125 0.2578125 -0.015625
v 0.3609375 0.2734375 0.109375
v 0.3609375 0.2734375 -0.015625
v 0.3609375 0.2578125 0.109375
v 0.3609375 0.2578125 -0.015625
v 0.4078125 0.2578125 0.078125
v 0.4078125 0.2578125 0.046875
v 0.4078125 0.2503125 0.078125
v 0.4078125 0.2503125 0.046875
v 0.3609375 0.2578125 0.078125
v 0.3609375 0.2578125 0.046875
v 0.3609375 0.2503125 0.078125
v 0.3609375 0.2503125 0.046875
v 0.446875 0.25 0.1228125
v 0.446875 0.25 0.0759375
v 0.446875 0.1875 0.1228125
v 0.446875 0.1875 0.0759375
v 0.321875 0.25 0.1228125
v 0.321875 0.25 0.0759375
v 0.321875 0.1875 0.1228125
v 0.321875 0.1875 0.0759375
v 0.5 0.21875 0.0625
v 0.3125 0.21875 0.0625
v 0.5 0.231694375 0.09375
v 0.3125 0.231694375 0.09375
v 0.5 0.25 0.075444375
v 0.3125 0.25 0.075444375
v 0.5 0.25 0.049555625
v 0.3125 0.25 0.049555625
v 0.5 0.231694375 0.03125
v 0.3125 0.231694375 0.03125
v 0.5 0.205805625 0.03125
v 0.3125 0.205805625 0.03125
v 0.5 0.1875 0.049555625
v 0.3125 0.1875 0.049555625
v 0.5 0.1875 0.075444375
v 0.3125 0.1875 0.075444375
v 0.5 0.205805625 0.09375
v 0.3125 0.205805625 0.09375
v 0.504375 0.21875 0.0625
v 0.498125 0.21875 0.0625
v 0.504375 0.2304 0.090625
v 0.498125 0.2304 0.090625
v 0.504375 0.246875 0.07415
v 0.498125 0.246875 0.07415
v 0.504375 0.246875 0.05085
v 0.498125 0.246875 0.05085
v 0.504375 0.2304 0.034375
v 0.498125 0.2304 0.034375
v 0.504375 0.2071 0.034375
v 0.498125 0.2071 0.034375
v 0.504375 0.190625 0.05085
v 0.498125 0.190625 0.05085
v 0.504375 0.190625 0.07415
v 0.498125 0.190625 0.07415
v 0.504375 0.2071 0.090625
v 0.498125 0.2071 0.090625
v 0.4609375 0.203125 0.109375
v 0.4453125 0.203125 0.109375
v 0.4609375 0.20636125 0.1171875
v 0.4453125 0.20636125 0.1171875
v 0.4609375 0.2109375 0.11261125
v 0.4453125 0.2109375 0.11261125
v 0.4609375 0.2109375 0.10613875
v 0.4453125 0.2109375 0.10613875
v 0.4609375 0.20636125 0.1015625
v 0.4453125 0.20636125 0.1015625
v 0.4609375 0.19988875 0.1015625
v 0.4453125 0.19988875 0.1015625
v 0.4609375 0.1953125 0.10613875
v 0.4453125 0.1953125 0.10613875
v 0.4609375 0.1953125 0.11261125
v 0.4453125 0.1953125 0.11261125
v 0.4609375 0.19988875 0.1171875
v 0.4453125 0.19988875 0.1171875
v 0.4609375 0.234375 0.109375
v 0.4453125 0.234375 0.109375
v 0.4609375 0.23761125 0.1171875
v 0.4453125 0.23761125 0.1171875
v 0.4609375 0.2421875 0.11261125
v 0.4453125 0.2421875 0.11261125
v 0.4609375 0.2421875 0.10613875
v 0.4453125 0.2421875 0.10613875
v 0.4609375 0.23761125 0.1015625
v 0.4453125 0.23761125 0.1015625
v 0.4609375 0.23113875 0.1015625
v 0.4453125 0.23113875 0.1015625
v 0.4609375 0.2265625 0.10613875
v 0.4453125 0.2265625 0.10613875
v 0.4609375 0.2265625 0.11261125
v 0.4453125 0.2265625 0.11261125
v 0.4609375 0.23113875 0.1171875
v 0.4453125 0.23113875 0.1171875
v 0.409375 0.187055625 0.053125
v 0.403125 0.187055625 0.053125
v 0.409375 0.16875 0.071430625
v 0.403125 0.16875 0.071430625
v 0.409375 0.16875 0.097319375
v 0.403125 0.16875 0.097319375
v 0.409375 0.187055625 0.115625
v 0.403125 0.187055625 0.115625
v 0.40625 0.2890625 0.015625
v 0.40625 0.2890625 -0.015625
v 0.40625 0.2734375 0.015625
v 0.40625 0.2734375 -0.015625
v 0.34375 0.2890625 0.025
v 0.34375 0.2890625 -0.025
v 0.34375 0.2734375 0.025
v 0.34375 0.2734375 -0.025
v 0.359375 0.3046875 0.03125
v 0.359375 0.3046875 -0.03125
v 0.359375 0.2890625 0.03125
v 0.359375 0.2890625 -0.03125
v 0.34375 0.3046875 0.03125
v 0.34375 0.3046875 -0.03125
v 0.34375 0.2890625 0.03125
v 0.34375 0.2890625 -0.03125
vt 0.265625 0.75
vt 0.265625 0.8125
vt 0.21875 0.8125
vt 0.21875 0.75
vt 0.109375 0.9609375
vt 0.078125 1
vt 0.03125 1
vt 0.359375 0.71875
vt 0.3125 0.71875
vt 0.3125 0.671875
vt 0.359375 0.671875
vt 0.109375 0.9609375
vt 0.03125 1
vt 0 0.9609375
vt 0.453125 0.96875
vt 0.453125 1
vt 0.40625 1
vt 0.40625 0.96875
vt 0.296875 0.234375
vt 0.296875 0.25
vt 0.25 0.25
vt 0.25 0.234375
vt 0.109375 0.94140625
vt 0.109375 0.9609375
vt 0 0.9609375
vt 0.6875 0.5
vt 0.6875 0.47960625
vt 0.734375 0.48046875
vt 0.734375 0.5
vt 0.40625 0.936959375
vt 0.40625 0.90625
vt 0.453125 0.90625
vt 0.453125 0.9375
vt 0.0234375 0.921875
vt 0.0859375 0.921875
vt 0.109375 0.94140625
vt 0 0.94140625
vt 0.109375 0.94140625
vt 0 0.9609375
vt 0 0.94140625
vt 0.109375 0.81554375
vt 0.109375 0.8359375
vt 0 0.8359375
vt 0 0.81640625
vt 0.0234375 0.796875
vt 0.0859375 0.796875
vt 0.3125 0.765625
vt 0.359375 0.765625
vt 0.359375 0.8125
vt 0.3125 0.8125
vt 0.046875 0.609375
vt 0.046875 0.65625
vt 0 0.65625
vt 0 0.609375
vt 0.078125 0.875
vt 0.03125 0.875
vt 0 0.8359375
vt 0.109375 0.8359375
vt 0 0.8359375
vt 0.0859375 0.796875
vt 0.109375 0.81554375
vt 0 0.8359375
vt 0 0.81640625
vt 0.0859375 0.796875
vt 0.0859375 0.796875
vt 0.0625 0.75
vt 0 0.75
vt 0 0.703125
vt 0.0625 0.703125
vt 0.28125 0.671875
vt 0.28125 0.71875
vt 0.21875 0.71875
vt 0.21875 0.671875
vt 0.21875 0.9375
vt 0.28125 0.9375
vt 0.28125 1
vt 0.21875 1
vt 0.28125 0.84375
vt 0.28125 0.90625
vt 0.21875 0.90625
vt 0.21875 0.84375
vt 0.375 0.953125
vt 0.375 1
vt 0.3125 1
vt 0.3125 0.953125
vt 0.375 0.90625
vt 0.3125 0.90625
vt 0.3125 0.859375
vt 0.375 0.859375
vt 0.82603125 0.81040625
vt 0.82240625 0.8125
vt 0.8203125 0.8046875
vt 0.07240625 0.15625
vt 0.07659375 0.15625
vt 0.07659375 0.1875
vt 0.07240625 0.1875
vt 0.25990625 0.171875
vt 0.26353125 0.17396875
vt 0.2578125 0.1796875
vt 0.828125 0.80678125
vt 0.82603125 0.81040625
vt 0.8203125 0.8046875
vt 0.78278125 0.21875
vt 0.78696875 0.21875
vt 0.78696875 0.25
vt 0.78278125 0.25
vt 0.26353125 0.17396875
vt 0.265625 0.17759375
vt 0.2578125 0.1796875
vt 0.828125 0.80259375
vt 0.828125 0.80678125
vt 0.8203125 0.8046875
vt 0.78696875 0.21875
vt 0.79115625 0.21875
vt 0.79115625 0.25
vt 0.78696875 0.25
vt 0.265625 0.17759375
vt 0.265625 0.18178125
vt 0.2578125 0.1796875
vt 0.82603125 0.79896875
vt 0.828125 0.80259375
vt 0.8203125 0.8046875
vt 0.79115625 0.21875
vt 0.79534375 0.21875
vt 0.79534375 0.25
vt 0.79115625 0.25
vt 0.265625 0.18178125
vt 0.26353125 0.18540625
vt 0.2578125 0.1796875
vt 0.82240625 0.796875
vt 0.82603125 0.79896875
vt 0.8203125 0.8046875
vt 0.81403125 0.84375
vt 0.81821875 0.84375
vt 0.81821875 0.875
vt 0.81403125 0.875
vt 0.26353125 0.18540625
vt 0.25990625 0.1875
vt 0.2578125 0.1796875
vt 0.81821875 0.796875
vt 0.82240625 0.796875
vt 0.8203125 0.8046875
vt 0.81821875 0.84375
vt 0.82240625 0.84375
vt 0.82240625 0.875
vt 0.81821875 0.875
vt 0.25990625 0.1875
vt 0.25571875 0.1875
vt 0.2578125 0.1796875
vt 0.81459375 0.79896875
vt 0.81821875 0.796875
vt 0.8203125 0.8046875
vt 0.82240625 0.84375
vt 0.82659375 0.84375
vt 0.82659375 0.875
vt 0.82240625 0.875
vt 0.25571875 0.1875
vt 0.25209375 0.18540625
vt 0.2578125 0.1796875
vt 0.8125 0.80259375
vt 0.81459375 0.79896875
vt 0.8203125 0.8046875
vt 0.81403125 0.90625
vt 0.81821875 0.90625
vt 0.81821875 0.9375
vt 0.81403125 0.9375
vt 0.25209375 0.18540625
vt 0.25 0.18178125
vt 0.2578125 0.1796875
vt 0.8125 0.80678125
vt 0.8125 0.80259375
vt 0.8203125 0.8046875
vt 0.81821875 0.90625
vt 0.82240625 0.90625
vt 0.82240625 0.9375
vt 0.81821875 0.9375
vt 0.25 0.18178125
vt 0.25 0.17759375
vt 0.2578125 0.1796875
vt 0.81459375 0.81040625
vt 0.8125 0.80678125
vt 0.8203125 0.8046875
vt 0.82240625 0.90625
vt 0.82659375 0.90625
vt 0.82659375 0.9375
vt 0.82240625 0.9375
vt 0.25 0.17759375
vt 0.25209375 0.17396875
vt 0.2578125 0.1796875
vt 0.81821875 0.8125
vt 0.81459375 0.81040625
vt 0.8203125 0.8046875
vt 0.06403125 0.15625
vt 0.06821875 0.15625
vt 0.06821875 0.1875
vt 0.06403125 0.1875
vt 0.25209375 0.17396875
vt 0.25571875 0.171875
vt 0.2578125 0.1796875
vt 0.82240625 0.8125
vt 0.81821875 0.8125
vt 0.8203125 0.8046875
vt 0.06821875 0.15625
vt 0.07240625 0.15625
vt 0.07240625 0.1875
vt 0.06821875 0.1875
vt 0.25571875 0.171875
vt 0.25990625 0.171875
vt 0.2578125 0.1796875
vt 0.828125 0.75
vt 0.8125 0.75
vt 0.8125 0.734375
vt 0.828125 0.734375
vt 0.328125 0.171875
vt 0.328125 0.1875
vt 0.3125 0.1875
vt 0.3125 0.171875
vt 0.8125 0.671875
vt 0.828125 0.671875
vt 0.828125 0.6875
vt 0.8125 0.6875
vt 0.390625 0.171875
vt 0.390625 0.1875
vt 0.375 0.1875
vt 0.375 0.171875
vt 0.828125 0.609375
vt 0.828125 0.625
vt 0.8125 0.625
vt 0.8125 0.609375
vt 0.453125 0.1875
vt 0.4375 0.1875
vt 0.4375 0.171875
vt 0.453125 0.171875
vt 0.828125 0.5625
vt 0.8125 0.5625
vt 0.8125 0.546875
vt 0.828125 0.546875
vt 0.828125 0.421875
vt 0.828125 0.4375
vt 0.8125 0.4375
vt 0.8125 0.421875
vt 0.59375 0.171875
vt 0.609375 0.171875
vt 0.609375 0.1875
vt 0.59375 0.1875
vt 0.828125 0.359375
vt 0.828125 0.375
vt 0.8125 0.375
vt 0.8125 0.359375
vt 0.671875 0.171875
vt 0.671875 0.1875
vt 0.65625 0.1875
vt 0.65625 0.171875
vt 0.828125 0.3125
vt 0.8125 0.3125
vt 0.8125 0.296875
vt 0.828125 0.296875
vt 0.77734375 0.735321875
vt 0.770478125 0.7421875
vt 0.765625 0.73046875
vt 0.5 0.140625
vt 0.515625 0.140625
vt 0.515625 0.15625
vt 0.5 0.15625
vt 0.770478125 0.6640625
vt 0.77734375 0.670928125
vt 0.765625 0.67578125
vt 0.77734375 0.725615625
vt 0.77734375 0.735321875
vt 0.765625 0.73046875
vt 0.71875 0.171875
vt 0.734375 0.171875
vt 0.734375 0.1875
vt 0.71875 0.1875
vt 0.77734375 0.670928125
vt 0.77734375 0.680634375
vt 0.765625 0.67578125
vt 0.770478125 0.71875
vt 0.77734375 0.725615625
vt 0.765625 0.73046875
vt 0.125 0.140625
vt 0.140625 0.140625
vt 0.140625 0.15625
vt 0.125 0.15625
vt 0.77734375 0.680634375
vt 0.770478125 0.6875
vt 0.765625 0.67578125
vt 0.760771875 0.71875
vt 0.770478125 0.71875
vt 0.765625 0.73046875
vt 0.84375 0.984375
vt 0.859375 0.984375
vt 0.859375 1
vt 0.84375 1
vt 0.770478125 0.6875
vt 0.760771875 0.6875
vt 0.765625 0.67578125
vt 0.75390625 0.725615625
vt 0.760771875 0.71875
vt 0.765625 0.73046875
vt 0.84375 0.484375
vt 0.859375 0.484375
vt 0.859375 0.5
vt 0.84375 0.5
vt 0.760771875 0.6875
vt 0.75390625 0.680634375
vt 0.765625 0.67578125
vt 0.75390625 0.735321875
vt 0.75390625 0.725615625
vt 0.765625 0.73046875
vt 0 0.140625
vt 0.015625 0.140625
vt 0.015625 0.15625
vt 0 0.15625
vt 0.75390625 0.680634375
vt 0.75390625 0.670928125
vt 0.765625 0.67578125
vt 0.760771875 0.7421875
vt 0.75390625 0.735321875
vt 0.765625 0.73046875
vt 0.1875 0.140625
vt 0.203125 0.140625
vt 0.203125 0.15625
vt 0.1875 0.15625
vt 0.75390625 0.670928125
vt 0.760771875 0.6640625
vt 0.765625 0.67578125
vt 0.770478125 0.7421875
vt 0.760771875 0.7421875
vt 0.765625 0.73046875
vt 0.78125 0.171875
vt 0.796875 0.171875
vt 0.796875 0.1875
vt 0.78125 0.1875
vt 0.760771875 0.6640625
vt 0.770478125 0.6640625
vt 0.765625 0.67578125
vt 0.234375 0.609375
vt 0.234375 0.625
vt 0.09375 0.625
vt 0.09375 0.609375
vt 0.421875 0.625
vt 0.28125 0.625
vt 0.28125 0.609375
vt 0.421875 0.609375
vt 0.375 0.25
vt 0.34375 0.25
vt 0.34375 0.234375
vt 0.375 0.234375
vt 0.15625 0.859375
vt 0.1875 0.859375
vt 0.1875 1
vt 0.15625 1
vt 0.1875 0.671875
vt 0.1875 0.8125
vt 0.15625 0.8125
vt 0.15625 0.671875
vt 0.78125 0.609375
vt 0.78125 0.625
vt 0.75 0.625
vt 0.75 0.609375
vt 0.890625 0.921875
vt 0.890625 0.9375
vt 0.875 0.9375
vt 0.875 0.921875
vt 0.890625 0.875
vt 0.875 0.875
vt 0.875 0.859375
vt 0.890625 0.859375
vt 0.78125 0.3125
vt 0.75 0.3125
vt 0.75 0.296875
vt 0.78125 0.296875
vt 0.71875 0.234375
vt 0.75 0.234375
vt 0.75 0.25
vt 0.71875 0.25
vt 0.03125 0.203125
vt 0.03125 0.21875
vt 0 0.21875
vt 0 0.203125
vt 0.8125 0.984375
vt 0.8125 1
vt 0.78125 1
vt 0.78125 0.984375
vt 0.890625 0.921875
vt 0.890625 0.9375
vt 0.875 0.9375
vt 0.875 0.921875
vt 0.890625 0.875
vt 0.875 0.875
vt 0.875 0.859375
vt 0.890625 0.859375
vt 0.78125 0.3125
vt 0.75 0.3125
vt 0.75 0.296875
vt 0.78125 0.296875
vt 0.71875 0.234375
vt 0.75 0.234375
vt 0.75 0.25
vt 0.71875 0.25
vt 0.03125 0.203125
vt 0.03125 0.21875
vt 0 0.21875
vt 0 0.203125
vt 0.8125 0.984375
vt 0.8125 1
vt 0.78125 1
vt 0.78125 0.984375
vt 0.71875 0.928346875
vt 0.709596875 0.9375
vt 0.703125 0.921875
vt 0.5 0.40625
vt 0.515625 0.40625
vt 0.515625 0.5
vt 0.5 0.5
vt 0.709596875 0.84375
vt 0.71875 0.852903125
vt 0.703125 0.859375
vt 0.71875 0.915403125
vt 0.71875 0.928346875
vt 0.703125 0.921875
vt 0.3125 0.46875
vt 0.328125 0.46875
vt 0.328125 0.5625
vt 0.3125 0.5625
vt 0.71875 0.852903125
vt 0.71875 0.865846875
vt 0.703125 0.859375
vt 0.709596875 0.90625
vt 0.71875 0.915403125
vt 0.703125 0.921875
vt 0.5 0.90625
vt 0.515625 0.90625
vt 0.515625 1
vt 0.5 1
vt 0.71875 0.865846875
vt 0.709596875 0.875
vt 0.703125 0.859375
vt 0.696653125 0.90625
vt 0.709596875 0.90625
vt 0.703125 0.921875
vt 0.46875 0.78125
vt 0.484375 0.78125
vt 0.484375 0.875
vt 0.46875 0.875
vt 0.709596875 0.875
vt 0.696653125 0.875
vt 0.703125 0.859375
vt 0.6875 0.915403125
vt 0.696653125 0.90625
vt 0.703125 0.921875
vt 0.5 0.53125
vt 0.515625 0.53125
vt 0.515625 0.625
vt 0.5 0.625
vt 0.696653125 0.875
vt 0.6875 0.865846875
vt 0.703125 0.859375
vt 0.6875 0.928346875
vt 0.6875 0.915403125
vt 0.703125 0.921875
vt 0.375 0.46875
vt 0.390625 0.46875
vt 0.390625 0.5625
vt 0.375 0.5625
vt 0.6875 0.865846875
vt 0.6875 0.852903125
vt 0.703125 0.859375
vt 0.696653125 0.9375
vt 0.6875 0.928346875
vt 0.703125 0.921875
vt 0.46875 0.65625
vt 0.484375 0.65625
vt 0.484375 0.75
vt 0.46875 0.75
vt 0.6875 0.852903125
vt 0.696653125 0.84375
vt 0.703125 0.859375
vt 0.709596875 0.9375
vt 0.696653125 0.9375
vt 0.703125 0.921875
vt 0.4375 0.46875
vt 0.453125 0.46875
vt 0.453125 0.5625
vt 0.4375 0.5625
vt 0.696653125 0.84375
vt 0.709596875 0.84375
vt 0.703125 0.859375
vt 0.7171875 0.4261375
vt 0.70895 0.434375
vt 0.703125 0.4203125
vt 0.875 0.609375
vt 0.890625 0.609375
vt 0.890625 0.625
vt 0.875 0.625
vt 0.64645 0.284375
vt 0.6546875 0.2926125
vt 0.640625 0.2984375
vt 0.7171875 0.4144875
vt 0.7171875 0.4261375
vt 0.703125 0.4203125
vt 0.875 0.734375
vt 0.890625 0.734375
vt 0.890625 0.75
vt 0.875 0.75
vt 0.6546875 0.2926125
vt 0.6546875 0.3042625
vt 0.640625 0.2984375
vt 0.70895 0.40625
vt 0.7171875 0.4144875
vt 0.703125 0.4203125
vt 0.875 0.546875
vt 0.890625 0.546875
vt 0.890625 0.5625
vt 0.875 0.5625
vt 0.6546875 0.3042625
vt 0.64645 0.3125
vt 0.640625 0.2984375
vt 0.6973 0.40625
vt 0.70895 0.40625
vt 0.703125 0.4203125
vt 0.875 0.671875
vt 0.890625 0.671875
vt 0.890625 0.6875
vt 0.875 0.6875
vt 0.64645 0.3125
vt 0.6348 0.3125
vt 0.640625 0.2984375
vt 0.6890625 0.4144875
vt 0.6973 0.40625
vt 0.703125 0.4203125
vt 0.5625 0.109375
vt 0.578125 0.109375
vt 0.578125 0.125
vt 0.5625 0.125
vt 0.6348 0.3125
vt 0.6265625 0.3042625
vt 0.640625 0.2984375
vt 0.6890625 0.4261375
vt 0.6890625 0.4144875
vt 0.703125 0.4203125
vt 0.375 0.109375
vt 0.390625 0.109375
vt 0.390625 0.125
vt 0.375 0.125
vt 0.6265625 0.3042625
vt 0.6265625 0.2926125
vt 0.640625 0.2984375
vt 0.6973 0.434375
vt 0.6890625 0.4261375
vt 0.703125 0.4203125
vt 0.4375 0.109375
vt 0.453125 0.109375
vt 0.453125 0.125
vt 0.4375 0.125
vt 0.6265625 0.2926125
vt 0.6348 0.284375
vt 0.640625 0.2984375
vt 0.70895 0.434375
vt 0.6973 0.434375
vt 0.703125 0.4203125
vt 0.3125 0.109375
vt 0.328125 0.109375
vt 0.328125 0.125
vt 0.3125 0.125
vt 0.6348 0.284375
vt 0.64645 0.284375
vt 0.640625 0.2984375
vt 0.71875 0.928346875
vt 0.709596875 0.9375
vt 0.703125 0.921875
vt 0.5 0.40625
vt 0.515625 0.40625
vt 0.515625 0.5
vt 0.5 0.5
vt 0.709596875 0.84375
vt 0.71875 0.852903125
vt 0.703125 0.859375
vt 0.71875 0.915403125
vt 0.71875 0.928346875
vt 0.703125 0.921875
vt 0.3125 0.46875
vt 0.328125 0.46875
vt 0.328125 0.5625
vt 0.3125 0.5625
vt 0.71875 0.852903125
vt 0.71875 0.865846875
vt 0.703125 0.859375
vt 0.709596875 0.90625
vt 0.71875 0.915403125
vt 0.703125 0.921875
vt 0.5 0.90625
vt 0.515625 0.90625
vt 0.515625 1
vt 0.5 1
vt 0.71875 0.865846875
vt 0.709596875 0.875
vt 0.703125 0.859375
vt 0.696653125 0.90625
vt 0.709596875 0.90625
vt 0.703125 0.921875
vt 0.46875 0.78125
vt 0.484375 0.78125
vt 0.484375 0.875
vt 0.46875 0.875
vt 0.709596875 0.875
vt 0.696653125 0.875
vt 0.703125 0.859375
vt 0.6875 0.915403125
vt 0.696653125 0.90625
vt 0.703125 0.921875
vt 0.5 0.53125
vt 0.515625 0.53125
vt 0.515625 0.625
vt 0.5 0.625
vt 0.696653125 0.875
vt 0.6875 0.865846875
vt 0.703125 0.859375
vt 0.6875 0.928346875
vt 0.6875 0.915403125
vt 0.703125 0.921875
vt 0.375 0.46875
vt 0.390625 0.46875
vt 0.390625 0.5625
vt 0.375 0.5625
vt 0.6875 0.865846875
vt 0.6875 0.852903125
vt 0.703125 0.859375
vt 0.696653125 0.9375
vt 0.6875 0.928346875
vt 0.703125 0.921875
vt 0.46875 0.65625
vt 0.484375 0.65625
vt 0.484375 0.75
vt 0.46875 0.75
vt 0.6875 0.852903125
vt 0.696653125 0.84375
vt 0.703125 0.859375
vt 0.709596875 0.9375
vt 0.696653125 0.9375
vt 0.703125 0.921875
vt 0.4375 0.46875
vt 0.453125 0.46875
vt 0.453125 0.5625
vt 0.4375 0.5625
vt 0.696653125 0.84375
vt 0.709596875 0.84375
vt 0.703125 0.859375
vt 0.71875 0.928346875
vt 0.709596875 0.9375
vt 0.703125 0.921875
vt 0.5 0.40625
vt 0.515625 0.40625
vt 0.515625 0.5
vt 0.5 0.5
vt 0.709596875 0.84375
vt 0.71875 0.852903125
vt 0.703125 0.859375
vt 0.71875 0.915403125
vt 0.71875 0.928346875
vt 0.703125 0.921875
vt 0.3125 0.46875
vt 0.328125 0.46875
vt 0.328125 0.5625
vt 0.3125 0.5625
vt 0.71875 0.852903125
vt 0.71875 0.865846875
vt 0.703125 0.859375
vt 0.709596875 0.90625
vt 0.71875 0.915403125
vt 0.703125 0.921875
vt 0.5 0.90625
vt 0.515625 0.90625
vt 0.515625 1
vt 0.5 1
vt 0.71875 0.865846875
vt 0.709596875 0.875
vt 0.703125 0.859375
vt 0.696653125 0.90625
vt 0.709596875 0.90625
vt 0.703125 0.921875
vt 0.46875 0.78125
vt 0.484375 0.78125
vt 0.484375 0.875
vt 0.46875 0.875
vt 0.709596875 0.875
vt 0.696653125 0.875
vt 0.703125 0.859375
vt 0.6875 0.915403125
vt 0.696653125 0.90625
vt 0.703125 0.921875
vt 0.5 0.53125
vt 0.515625 0.53125
vt 0.515625 0.625
vt 0.5 0.625
vt 0.696653125 0.875
vt 0.6875 0.865846875
vt 0.703125 0.859375
vt 0.6875 0.928346875
vt 0.6875 0.915403125
vt 0.703125 0.921875
vt 0.375 0.46875
vt 0.390625 0.46875
vt 0.390625 0.5625
vt 0.375 0.5625
vt 0.6875 0.865846875
vt 0.6875 0.852903125
vt 0.703125 0.859375
vt 0.696653125 0.9375
vt 0.6875 0.928346875
vt 0.703125 0.921875
vt 0.46875 0.65625
vt 0.484375 0.65625
vt 0.484375 0.75
vt 0.46875 0.75
vt 0.6875 0.852903125
vt 0.696653125 0.84375
vt 0.703125 0.859375
vt 0.709596875 0.9375
vt 0.696653125 0.9375
vt 0.703125 0.921875
vt 0.4375 0.46875
vt 0.453125 0.46875
vt 0.453125 0.5625
vt 0.4375 0.5625
vt 0.696653125 0.84375
vt 0.709596875 0.84375
vt 0.703125 0.859375
vt 0.5 0.53125
vt 0.515625 0.53125
vt 0.515625 0.625
vt 0.5 0.625
vt 0.375 0.46875
vt 0.390625 0.46875
vt 0.390625 0.5625
vt 0.375 0.5625
vt 0.46875 0.65625
vt 0.484375 0.65625
vt 0.484375 0.75
vt 0.46875 0.75
vt 0.859375 0.25
vt 0.84375 0.25
vt 0.84375 0.234375
vt 0.859375 0.234375
vt 0.4375 0.234375
vt 0.4375 0.25
vt 0.40625 0.25
vt 0.40625 0.234375
vt 0.75 0.85
vt 0.78125 0.8546875
vt 0.78125 0.8703125
vt 0.75 0.875
vt 0.78125 0.7859375
vt 0.78125 0.8015625
vt 0.75 0.80625
vt 0.75 0.78125
vt 0.78125 0.546875
vt 0.78125 0.5625
vt 0.75 0.5625
vt 0.75 0.546875
vt 0.5 0.25
vt 0.46875 0.25
vt 0.46875 0.234375
vt 0.5 0.234375
vt 0.78125 0.4375
vt 0.75 0.4375
vt 0.75 0.421875
vt 0.78125 0.421875
vt 0.625 0.234375
vt 0.625 0.25
vt 0.59375 0.25
vt 0.59375 0.234375
vt 0.75 0.34375
vt 0.765625 0.34375
vt 0.765625 0.375
vt 0.75 0.375
vt 0.671875 0.21875
vt 0.671875 0.25
vt 0.65625 0.25
vt 0.65625 0.21875
vt 0.859375 0.171875
vt 0.859375 0.1875
vt 0.84375 0.1875
vt 0.84375 0.171875
vt 0.078125 0.125
vt 0.0625 0.125
vt 0.0625 0.109375
vt 0.078125 0.109375
vn 0 -1 0
vn -1 0 0
vn 0 0.624695047554424 -0.78086880944303
vn -1 0 0
vn 0 -0.768221279597376 0.64018439966448
vn 0 0 1
vn -1 0 0
vn 0 0 -1
vn 0 -0.782210116615582 -0.623014713681979
vn -1 0 0
vn -1 0 0
vn 1 0 0
vn 1 0 0
vn 0 1 0
vn 0 0.624695047554424 0.78086880944303
vn 1 0 0
vn 1 0 0
vn 1 0 0
vn 1 0 0
vn -1 0 0
vn 0 1 0
vn 0 -1 0
vn 0 0 1
vn 0 0 -1
vn 0 0 -1
vn 0.500032591160127 -0.866006586451679 0
vn 0 0 1
vn 0 0 -1
vn 0.866006586451679 -0.500032591160127 0
vn 0 0 1
vn 0 0 -1
vn 1 0 0
vn 0 0 1
vn 0 0 -1
vn 0.866006586451679 0.500032591160127 0
vn 0 0 1
vn 0 0 -1
vn 0.500032591160127 0.866006586451679 0
vn 0 0 1
vn 0 0 -1
vn 0 1 0
vn 0 0 1
vn 0 0 -1
vn -0.500032591160127 0.866006586451679 0
vn 0 0 1
vn 0 0 -1
vn -0.866006586451679 0.500032591160127 0
vn 0 0 1
vn 0 0 -1
vn -1 0 0
vn 0 0 1
vn 0 0 -1
vn -0.866006586451679 -0.500032591160127 0
vn 0 0 1
vn 0 0 -1
vn -0.500032591160127 -0.866006586451679 0
vn 0 0 1
vn 0 0 -1
vn 0 -1 0
vn 0 0 1
vn 1 0 0
vn -1 0 0
vn 0 1 0
vn 0 -1 0
vn 0 0 1
vn 0 0 -1
vn 1 0 0
vn -1 0 0
vn 0 1 0
vn 0 -1 0
vn 0 0 1
vn 0 0 -1
vn -1 0 0
vn 0 -0.707106781186548 0.707106781186548
vn 1 0 0
vn -1 0 0
vn 0 -1 0
vn 1 0 0
vn -1 0 0
vn 0 -0.707106781186548 -0.707106781186548
vn 1 0 0
vn -1 0 0
vn 0 0 -1
vn 1 0 0
vn -1 0 0
vn 0 0.707106781186548 -0.707106781186548
vn 1 0 0
vn -1 0 0
vn 0 1 0
vn 1 0 0
vn -1 0 0
vn 0 0.707106781186548 0.707106781186548
vn 1 0 0
vn -1 0 0
vn 0 0 1
vn 1 0 0
vn -1 0 0
vn 1 0 0
vn 0 0 -1
vn 0 1 0
vn 0 -1 0
vn 0 0 1
vn -1 0 0
vn 1 0 0
vn 0 0 -1
vn 0 1 0
vn 0 -1 0
vn 0 0 1
vn -1 0 0
vn 1 0 0
vn 0 0 -1
vn 0 1 0
vn 0 -1 0
vn 0 0 1
vn 1 0 0
vn 0 0.707106781186548 0.707106781186548
vn -1 0 0
vn 1 0 0
vn 0 1 0
vn -1 0 0
vn 1 0 0
vn 0 0.707106781186548 -0.707106781186548
vn -1 0 0
vn 1 0 0
vn 0 0 -1
vn -1 0 0
vn 1 0 0
vn 0 -0.707106781186548 -0.707106781186548
vn -1 0 0
vn 1 0 0
vn 0 -1 0
vn -1 0 0
vn 1 0 0
vn 0 -0.707106781186548 0.707106781186548
vn -1 0 0
vn 1 0 0
vn 0 0 1
vn -1 0 0
vn 1 0 0
vn 0 0.707106781186548 0.707106781186548
vn -1 0 0
vn 1 0 0
vn 0 1 0
vn -1 0 0
vn 1 0 0
vn 0 0.707106781186548 -0.707106781186548
vn -1 0 0
vn 1 0 0
vn 0 0 -1
vn -1 0 0
vn 1 0 0
vn 0 -0.707106781186548 -0.707106781186548
vn -1 0 0
vn 1 0 0
vn 0 -1 0
vn -1 0 0
vn 1 0 0
vn 0 -0.707106781186548 0.707106781186548
vn -1 0 0
vn 1 0 0
vn 0 0 1
vn -1 0 0
vn 1 0 0
vn 0 0.707106781186548 0.707106781186548
vn -1 0 0
vn 1 0 0
vn 0 1 0
vn -1 0 0
vn 1 0 0
vn 0 0.707106781186548 -0.707106781186548
vn -1 0 0
vn 1 0 0
vn 0 0 -1
vn -1 0 0
vn 1 0 0
vn 0 -0.707106781186548 -0.707106781186548
vn -1 0 0
vn 1 0 0
vn 0 -1 0
vn -1 0 0
vn 1 0 0
vn 0 -0.707106781186548 0.707106781186548
vn -1 0 0
vn 1 0 0
vn 0 0 1
vn -1 0 0
vn 1 0 0
vn 0 0.707106781186548 0.707106781186548
vn -1 0 0
vn 1 0 0
vn 0 1 0
vn -1 0 0
vn 1 0 0
vn 0 0.707106781186548 -0.707106781186548
vn -1 0 0
vn 1 0 0
vn 0 0 -1
vn -1 0 0
vn 1 0 0
vn 0 -0.707106781186548 -0.707106781186548
vn -1 0 0
vn 1 0 0
vn 0 -1 0
vn -1 0 0
vn 1 0 0
vn 0 -0.707106781186548 0.707106781186548
vn -1 0 0
vn 1 0 0
vn 0 0 1
vn -1 0 0
vn 0 -0.707106781186548 -0.707106781186548
vn 0 -1 0
vn 0 -0.707106781186548 0.707106781186548
vn 1 0 0
vn -1 0 0
vn 0 1 0
vn 0 -1 0
vn 0.148340452930245 0 0.988936352868298
vn 0.148340452930245 0 -0.988936352868298
vn 1 0 0
vn -1 0 0
vn 0 1 0
vn 0 -1 0
vn 0 0 1
vn 0 0 -1
o shroud
f 4/1/1 3/2/1 7/3/1
f 4/1/1 7/3/1 8/4/1
f 10/5/2 5/6/2 6/7/2
f 6/8/3 2/9/3 11/10/3
f 6/8/3 11/10/3 12/11/3
f 10/12/4 6/13/4 12/14/4
f 3/15/5 13/16/5 14/17/5
f 3/15/5 14/17/5 7/18/5
f 13/19/6 9/20/6 10/21/6
f 13/19/6 10/21/6 14/22/6
f 14/23/7 10/24/7 12/25/7
f 11/26/8 15/27/8 16/28/8
f 11/26/8 16/28/8 12/29/8
f 15/30/9 4/31/9 8/32/9
f 15/30/9 8/32/9 16/33/9
f 8/34/10 7/35/10 14/36/10
f 8/34/10 14/36/10 16/37/10
f 14/38/11 12/39/11 16/40/11
f 15/41/12 11/42/12 9/43/12
f 13/44/13 3/45/13 4/46/13
f 5/47/14 1/48/14 2/49/14
f 5/47/14 2/49/14 6/50/14
f 9/51/15 1/52/15 5/53/15
f 9/51/15 5/53/15 10/54/15
f 2/55/16 1/56/16 9/57/16
f 2/55/16 9/57/16 11/58/16
f 9/59/17 17/60/17 15/61/17
f 9/62/18 13/63/18 4/64/18
f 9/62/18 4/64/18 17/65/18
o shroud_connect
f 19/66/19 18/67/19 20/68/19
f 19/66/19 20/68/19 21/69/19
f 24/70/20 22/71/20 23/72/20
f 24/70/20 23/72/20 25/73/20
f 22/74/21 18/75/21 19/76/21
f 22/74/21 19/76/21 23/77/21
f 21/78/22 20/79/22 24/80/22
f 21/78/22 24/80/22 25/81/22
f 20/82/23 18/83/23 22/84/23
f 20/82/23 22/84/23 24/85/23
f 23/86/24 19/87/24 21/88/24
f 23/86/24 21/88/24 25/89/24
o swing
f 30/90/25 28/91/25 26/92/25
f 28/93/26 30/94/26 31/95/26
f 28/93/26 31/95/26 29/96/26
f 29/97/27 31/98/27 27/99/27
f 32/100/28 30/101/28 26/102/28
f 30/103/29 32/104/29 33/105/29
f 30/103/29 33/105/29 31/106/29
f 31/107/30 33/108/30 27/109/30
f 34/110/31 32/111/31 26/112/31
f 32/113/32 34/114/32 35/115/32
f 32/113/32 35/115/32 33/116/32
f 33/117/33 35/118/33 27/119/33
f 36/120/34 34/121/34 26/122/34
f 34/123/35 36/124/35 37/125/35
f 34/123/35 37/125/35 35/126/35
f 35/127/36 37/128/36 27/129/36
f 38/130/37 36/131/37 26/132/37
f 36/133/38 38/134/38 39/135/38
f 36/133/38 39/135/38 37/136/38
f 37/137/39 39/138/39 27/139/39
f 40/140/40 38/141/40 26/142/40
f 38/143/41 40/144/41 41/145/41
f 38/143/41 41/145/41 39/146/41
f 39/147/42 41/148/42 27/149/42
f 42/150/43 40/151/43 26/152/43
f 40/153/44 42/154/44 43/155/44
f 40/153/44 43/155/44 41/156/44
f 41/157/45 43/158/45 27/159/45
f 44/160/46 42/161/46 26/162/46
f 42/163/47 44/164/47 45/165/47
f 42/163/47 45/165/47 43/166/47
f 43/167/48 45/168/48 27/169/48
f 46/170/49 44/171/49 26/172/49
f 44/173/50 46/174/50 47/175/50
f 44/173/50 47/175/50 45/176/50
f 45/177/51 47/178/51 27/179/51
f 48/180/52 46/181/52 26/182/52
f 46/183/53 48/184/53 49/185/53
f 46/183/53 49/185/53 47/186/53
f 47/187/54 49/188/54 27/189/54
f 50/190/55 48/191/55 26/192/55
f 48/193/56 50/194/56 51/195/56
f 48/193/56 51/195/56 49/196/56
f 49/197/57 51/198/57 27/199/57
f 28/200/58 50/201/58 26/202/58
f 50/203/59 28/204/59 29/205/59
f 50/203/59 29/205/59 51/206/59
f 51/207/60 29/208/60 27/209/60
o swing_guard_left
f 53/210/61 52/211/61 54/212/61
f 53/210/61 54/212/61 55/213/61
f 58/214/62 56/215/62 57/216/62
f 58/214/62 57/216/62 59/217/62
f 56/218/63 52/219/63 53/220/63
f 56/218/63 53/220/63 57/221/63
f 55/222/64 54/223/64 58/224/64
f 55/222/64 58/224/64 59/225/64
f 54/226/65 52/227/65 56/228/65
f 54/226/65 56/228/65 58/229/65
f 57/230/66 53/231/66 55/232/66
f 57/230/66 55/232/66 59/233/66
o swing_guard_right
f 61/234/67 60/235/67 62/236/67
f 61/234/67 62/236/67 63/237/67
f 66/238/68 64/239/68 65/240/68
f 66/238/68 65/240/68 67/241/68
f 64/242/69 60/243/69 61/244/69
f 64/242/69 61/244/69 65/245/69
f 63/246/70 62/247/70 66/248/70
f 63/246/70 66/248/70 67/249/70
f 62/250/71 60/251/71 64/252/71
f 62/250/71 64/252/71 66/253/71
f 65/254/72 61/255/72 63/256/72
f 65/254/72 63/256/72 67/257/72
o big_screw
f 72/258/73 70/259/73 68/260/73
f 70/261/74 72/262/74 73/263/74
f 70/261/74 73/263/74 71/264/74
f 71/265/75 73/266/75 69/267/75
f 74/268/76 72/269/76 68/270/76
f 72/271/77 74/272/77 75/273/77
f 72/271/77 75/273/77 73/274/77
f 73/275/78 75/276/78 69/277/78
f 76/278/79 74/279/79 68/280/79
f 74/281/80 76/282/80 77/283/80
f 74/281/80 77/283/80 75/284/80
f 75/285/81 77/286/81 69/287/81
f 78/288/82 76/289/82 68/290/82
f 76/291/83 78/292/83 79/293/83
f 76/291/83 79/293/83 77/294/83
f 77/295/84 79/296/84 69/297/84
f 80/298/85 78/299/85 68/300/85
f 78/301/86 80/302/86 81/303/86
f 78/301/86 81/303/86 79/304/86
f 79/305/87 81/306/87 69/307/87
f 82/308/88 80/309/88 68/310/88
f 80/311/89 82/312/89 83/313/89
f 80/311/89 83/313/89 81/314/89
f 81/315/90 83/316/90 69/317/90
f 84/318/91 82/319/91 68/320/91
f 82/321/92 84/322/92 85/323/92
f 82/321/92 85/323/92 83/324/92
f 83/325/93 85/326/93 69/327/93
f 70/328/94 84/329/94 68/330/94
f 84/331/95 70/332/95 71/333/95
f 84/331/95 71/333/95 85/334/95
f 85/335/96 71/336/96 69/337/96
