# CNVD-T: Forge 1.7.10-compatible decimal coordinates and triangulated faces.
o cylinder
v 0 0.25 -0.5
v 0 0.25 -0.375
v 0.064720625 0.09375 -0.5
v 0.064720625 0.09375 -0.375
v 0.15625 0.185279375 -0.5
v 0.15625 0.185279375 -0.375
v 0.15625 0.314720625 -0.5
v 0.15625 0.314720625 -0.375
v 0.064720625 0.40625 -0.5
v 0.064720625 0.40625 -0.375
v -0.064720625 0.40625 -0.5
v -0.064720625 0.40625 -0.375
v -0.15625 0.314720625 -0.5
v -0.15625 0.314720625 -0.375
v -0.15625 0.185279375 -0.5
v -0.15625 0.185279375 -0.375
v -0.064720625 0.09375 -0.5
v -0.064720625 0.09375 -0.375
vt 0.359375 0.6021171875
vt 0.3364921875 0.625
vt 0.3203125 0.5859375
vt 0.40625 0.9375
vt 0.4375 0.9375
vt 0.4375 0.96875
vt 0.40625 0.96875
vt 0.4146171875 0.546875
vt 0.4375 0.5697578125
vt 0.3984375 0.5859375
vt 0.359375 0.5697578125
vt 0.359375 0.6021171875
vt 0.3203125 0.5859375
vt 0.09375 0.625
vt 0.125 0.625
vt 0.125 0.65625
vt 0.09375 0.65625
vt 0.4375 0.5697578125
vt 0.4375 0.6021171875
vt 0.3984375 0.5859375
vt 0.3364921875 0.546875
vt 0.359375 0.5697578125
vt 0.3203125 0.5859375
vt 0.4375 0.71875
vt 0.46875 0.71875
vt 0.46875 0.75
vt 0.4375 0.75
vt 0.4375 0.6021171875
vt 0.4146171875 0.625
vt 0.3984375 0.5859375
vt 0.3041328125 0.546875
vt 0.3364921875 0.546875
vt 0.3203125 0.5859375
vt 0.375 0.84375
vt 0.40625 0.84375
vt 0.40625 0.875
vt 0.375 0.875
vt 0.4146171875 0.625
vt 0.3822578125 0.625
vt 0.3984375 0.5859375
vt 0.28125 0.5697578125
vt 0.3041328125 0.546875
vt 0.3203125 0.5859375
vt 0.546875 0.53125
vt 0.578125 0.53125
vt 0.578125 0.5625
vt 0.546875 0.5625
vt 0.3822578125 0.625
vt 0.359375 0.6021171875
vt 0.3984375 0.5859375
vt 0.28125 0.6021171875
vt 0.28125 0.5697578125
vt 0.3203125 0.5859375
vt 0.375 0.75
vt 0.40625 0.75
vt 0.40625 0.78125
vt 0.375 0.78125
vt 0.359375 0.6021171875
vt 0.359375 0.5697578125
vt 0.3984375 0.5859375
vt 0.3041328125 0.625
vt 0.28125 0.6021171875
vt 0.3203125 0.5859375
vt 0.453125 0.421875
vt 0.484375 0.421875
vt 0.484375 0.453125
vt 0.453125 0.453125
vt 0.359375 0.5697578125
vt 0.3822578125 0.546875
vt 0.3984375 0.5859375
vt 0.3364921875 0.625
vt 0.3041328125 0.625
vt 0.3203125 0.5859375
vt 0.03125 0.59375
vt 0.0625 0.59375
vt 0.0625 0.625
vt 0.03125 0.625
vt 0.3822578125 0.546875
vt 0.4146171875 0.546875
vt 0.3984375 0.5859375
vn 0 0 -1
vn 0.707106781186548 -0.707106781186548 0
vn 0 0 1
vn 0 0 -1
vn 1 0 0
vn 0 0 1
vn 0 0 -1
vn 0.707106781186548 0.707106781186548 0
vn 0 0 1
vn 0 0 -1
vn 0 1 0
vn 0 0 1
vn 0 0 -1
vn -0.707106781186548 0.707106781186548 0
vn 0 0 1
vn 0 0 -1
vn -1 0 0
vn 0 0 1
vn 0 0 -1
vn -0.707106781186548 -0.707106781186548 0
vn 0 0 1
vn 0 0 -1
vn 0 -1 0
vn 0 0 1
f 5/1/1 3/2/1 1/3/1
f 3/4/2 5/5/2 6/6/2
f 3/4/2 6/6/2 4/7/2
f 4/8/3 6/9/3 2/10/3
f 7/11/4 5/12/4 1/13/4
f 5/14/5 7/15/5 8/16/5
f 5/14/5 8/16/5 6/17/5
f 6/18/6 8/19/6 2/20/6
f 9/21/7 7/22/7 1/23/7
f 7/24/8 9/25/8 10/26/8
f 7/24/8 10/26/8 8/27/8
f 8/28/9 10/29/9 2/30/9
f 11/31/10 9/32/10 1/33/10
f 9/34/11 11/35/11 12/36/11
f 9/34/11 12/36/11 10/37/11
f 10/38/12 12/39/12 2/40/12
f 13/41/13 11/42/13 1/43/13
f 11/44/14 13/45/14 14/46/14
f 11/44/14 14/46/14 12/47/14
f 12/48/15 14/49/15 2/50/15
f 15/51/16 13/52/16 1/53/16
f 13/54/17 15/55/17 16/56/17
f 13/54/17 16/56/17 14/57/17
f 14/58/18 16/59/18 2/60/18
f 17/61/19 15/62/19 1/63/19
f 15/64/20 17/65/20 18/66/20
f 15/64/20 18/66/20 16/67/20
f 16/68/21 18/69/21 2/70/21
f 3/71/22 17/72/22 1/73/22
f 17/74/23 3/75/23 4/76/23
f 17/74/23 4/76/23 18/77/23
f 18/78/24 4/79/24 2/80/24
o cylinder
v 0 0.25 -0.375
v 0 0.25 -0.25
v 0.051776875 0.125 -0.375
v 0.051776875 0.125 -0.25
v 0.125 0.198223125 -0.375
v 0.125 0.198223125 -0.25
v 0.125 0.301776875 -0.375
v 0.125 0.301776875 -0.25
v 0.051776875 0.375 -0.375
v 0.051776875 0.375 -0.25
v -0.051776875 0.375 -0.375
v -0.051776875 0.375 -0.25
v -0.125 0.301776875 -0.375
v -0.125 0.301776875 -0.25
v -0.125 0.198223125 -0.375
v -0.125 0.198223125 -0.25
v -0.051776875 0.125 -0.375
v -0.051776875 0.125 -0.25
vt 0.546875 0.73169375
vt 0.52856875 0.75
vt 0.515625 0.71875
vt 0.5625 0.9375
vt 0.59375 0.9375
vt 0.59375 0.96875
vt 0.5625 0.96875
vt 0.54419375 0.625
vt 0.5625 0.64330625
vt 0.53125 0.65625
vt 0.546875 0.70580625
vt 0.546875 0.73169375
vt 0.515625 0.71875
vt 0.546875 0.5
vt 0.578125 0.5
vt 0.578125 0.53125
vt 0.546875 0.53125
vt 0.5625 0.64330625
vt 0.5625 0.66919375
vt 0.53125 0.65625
vt 0.52856875 0.6875
vt 0.546875 0.70580625
vt 0.515625 0.71875
vt 0.5625 0.90625
vt 0.59375 0.90625
vt 0.59375 0.9375
vt 0.5625 0.9375
vt 0.5625 0.66919375
vt 0.54419375 0.6875
vt 0.53125 0.65625
vt 0.50268125 0.6875
vt 0.52856875 0.6875
vt 0.515625 0.71875
vt 0.546875 0.4375
vt 0.578125 0.4375
vt 0.578125 0.46875
vt 0.546875 0.46875
vt 0.54419375 0.6875
vt 0.51830625 0.6875
vt 0.53125 0.65625
vt 0.484375 0.70580625
vt 0.50268125 0.6875
vt 0.515625 0.71875
vt 0.296875 0.40625
vt 0.328125 0.40625
vt 0.328125 0.4375
vt 0.296875 0.4375
vt 0.51830625 0.6875
vt 0.5 0.66919375
vt 0.53125 0.65625
vt 0.484375 0.73169375
vt 0.484375 0.70580625
vt 0.515625 0.71875
vt 0.484375 0.421875
vt 0.515625 0.421875
vt 0.515625 0.453125
vt 0.484375 0.453125
vt 0.5 0.66919375
vt 0.5 0.64330625
vt 0.53125 0.65625
vt 0.50268125 0.75
vt 0.484375 0.73169375
vt 0.515625 0.71875
vt 0.5625 0.96875
vt 0.59375 0.96875
vt 0.59375 1
vt 0.5625 1
vt 0.5 0.64330625
vt 0.51830625 0.625
vt 0.53125 0.65625
vt 0.52856875 0.75
vt 0.50268125 0.75
vt 0.515625 0.71875
vt 0.546875 0.46875
vt 0.578125 0.46875
vt 0.578125 0.5
vt 0.546875 0.5
vt 0.51830625 0.625
vt 0.54419375 0.625
vt 0.53125 0.65625
vn 0 0 -1
vn 0.707106781186548 -0.707106781186548 0
vn 0 0 1
vn 0 0 -1
vn 1 0 0
vn 0 0 1
vn 0 0 -1
vn 0.707106781186548 0.707106781186548 0
vn 0 0 1
vn 0 0 -1
vn 0 1 0
vn 0 0 1
vn 0 0 -1
vn -0.707106781186548 0.707106781186548 0
vn 0 0 1
vn 0 0 -1
vn -1 0 0
vn 0 0 1
vn 0 0 -1
vn -0.707106781186548 -0.707106781186548 0
vn 0 0 1
vn 0 0 -1
vn 0 -1 0
vn 0 0 1
f 23/81/25 21/82/25 19/83/25
f 21/84/26 23/85/26 24/86/26
f 21/84/26 24/86/26 22/87/26
f 22/88/27 24/89/27 20/90/27
f 25/91/28 23/92/28 19/93/28
f 23/94/29 25/95/29 26/96/29
f 23/94/29 26/96/29 24/97/29
f 24/98/30 26/99/30 20/100/30
f 27/101/31 25/102/31 19/103/31
f 25/104/32 27/105/32 28/106/32
f 25/104/32 28/106/32 26/107/32
f 26/108/33 28/109/33 20/110/33
f 29/111/34 27/112/34 19/113/34
f 27/114/35 29/115/35 30/116/35
f 27/114/35 30/116/35 28/117/35
f 28/118/36 30/119/36 20/120/36
f 31/121/37 29/122/37 19/123/37
f 29/124/38 31/125/38 32/126/38
f 29/124/38 32/126/38 30/127/38
f 30/128/39 32/129/39 20/130/39
f 33/131/40 31/132/40 19/133/40
f 31/134/41 33/135/41 34/136/41
f 31/134/41 34/136/41 32/137/41
f 32/138/42 34/139/42 20/140/42
f 35/141/43 33/142/43 19/143/43
f 33/144/44 35/145/44 36/146/44
f 33/144/44 36/146/44 34/147/44
f 34/148/45 36/149/45 20/150/45
f 21/151/46 35/152/46 19/153/46
f 35/154/47 21/155/47 22/156/47
f 35/154/47 22/156/47 36/157/47
f 36/158/48 22/159/48 20/160/48
o mesh
v 0.25 0.4375 0.25
v 0.1875 0.4375 -0.25
v 0.25 0.0625 0.25
v 0.1875 0.0625 -0.25
v -0.25 0.4375 0.25
v -0.1875 0.4375 -0.25
v -0.25 0.0625 0.25
v -0.1875 0.0625 -0.25
vt 0.25 0.90625
vt 0.125 0.90625
vt 0.125 0.8125
vt 0.25 0.8125
vt 0.25 0.71875
vt 0.25 0.8125
vt 0.125 0.8125
vt 0.125 0.71875
vt 0 0.875
vt 0.125 0.875
vt 0.109375 1
vt 0.015625 1
vt 0.109375 0.75
vt 0.125 0.875
vt 0 0.875
vt 0.015625 0.75
vt 0.25 0.90625
vt 0.25 1
vt 0.125 1
vt 0.125 0.90625
vt 0.34375 0.90625
vt 0.25 0.90625
vt 0.25 0.8125
vt 0.34375 0.8125
vn 0.992277876713668 0 -0.124034734589208
vn -0.992277876713668 0 -0.124034734589208
vn 0 1 0
vn 0 -1 0
vn 0 0 1
vn 0 0 -1
f 38/161/49 37/162/49 39/163/49
f 38/161/49 39/163/49 40/164/49
f 43/165/50 41/166/50 42/167/50
f 43/165/50 42/167/50 44/168/50
f 41/169/51 37/170/51 38/171/51
f 41/169/51 38/171/51 42/172/51
f 40/173/52 39/174/52 43/175/52
f 40/173/52 43/175/52 44/176/52
f 39/177/53 37/178/53 41/179/53
f 39/177/53 41/179/53 43/180/53
f 42/181/54 38/182/54 40/183/54
f 42/181/54 40/183/54 44/184/54
o mesh
v 0.1875 0.5625 0.25
v 0.140625 0.5625 0.125
v 0.1875 0.4375 0.25
v 0.140625 0.4375 0.125
v -0.1875 0.5625 0.25
v -0.140625 0.5625 0.125
v -0.1875 0.4375 0.25
v -0.140625 0.4375 0.125
vt 0.59375 0.6875
vt 0.5625 0.6875
vt 0.5625 0.65625
vt 0.59375 0.65625
vt 0.359375 0.40625
vt 0.359375 0.4375
vt 0.328125 0.4375
vt 0.328125 0.40625
vt 0.515625 0.875
vt 0.609375 0.875
vt 0.59765625 0.90625
vt 0.52734375 0.90625
vt 0.20703125 0.453125
vt 0.21875 0.484375
vt 0.125 0.484375
vt 0.13671875 0.453125
vt 0.609375 0.84375
vt 0.609375 0.875
vt 0.515625 0.875
vt 0.515625 0.84375
vt 0.625 0.84375
vt 0.546875 0.84375
vt 0.546875 0.8125
vt 0.625 0.8125
vn 0.936329177569045 0 -0.351123441588392
vn -0.936329177569045 0 -0.351123441588392
vn 0 1 0
vn 0 -1 0
vn 0 0 1
vn 0 0 -1
f 46/185/55 45/186/55 47/187/55
f 46/185/55 47/187/55 48/188/55
f 51/189/56 49/190/56 50/191/56
f 51/189/56 50/191/56 52/192/56
f 49/193/57 45/194/57 46/195/57
f 49/193/57 46/195/57 50/196/57
f 48/197/58 47/198/58 51/199/58
f 48/197/58 51/199/58 52/200/58
f 47/201/59 45/202/59 49/203/59
f 47/201/59 49/203/59 51/204/59
f 50/205/60 46/206/60 48/207/60
f 50/205/60 48/207/60 52/208/60
o mesh
v 0.25 0.4375 0.375
v 0.25 0.4375 0.25
v 0.25 0.0625 0.375
v 0.25 0.0625 0.25
v -0.25 0.4375 0.375
v -0.25 0.4375 0.25
v -0.25 0.0625 0.375
v -0.25 0.0625 0.25
vt 0.546875 0.84375
vt 0.515625 0.84375
vt 0.515625 0.75
vt 0.546875 0.75
vt 0.25 0.390625
vt 0.25 0.484375
vt 0.21875 0.484375
vt 0.21875 0.390625
vt 0.5 0.59375
vt 0.625 0.59375
vt 0.625 0.625
vt 0.5 0.625
vt 0.625 0.5625
vt 0.625 0.59375
vt 0.5 0.59375
vt 0.5 0.5625
vt 0.125 0.65625
vt 0.125 0.75
vt 0 0.75
vt 0 0.65625
vt 0.375 1
vt 0.25 1
vt 0.25 0.90625
vt 0.375 0.90625
vn 1 0 0
vn -1 0 0
vn 0 1 0
vn 0 -1 0
vn 0 0 1
vn 0 0 -1
f 54/209/61 53/210/61 55/211/61
f 54/209/61 55/211/61 56/212/61
f 59/213/62 57/214/62 58/215/62
f 59/213/62 58/215/62 60/216/62
f 57/217/63 53/218/63 54/219/63
f 57/217/63 54/219/63 58/220/63
f 56/221/64 55/222/64 59/223/64
f 56/221/64 59/223/64 60/224/64
f 55/225/65 53/226/65 57/227/65
f 55/225/65 57/227/65 59/228/65
f 58/229/66 54/230/66 56/231/66
f 58/229/66 56/231/66 60/232/66
o mesh
v 0.1875 0.5625 0.5
v 0.1875 0.5625 0.25
v 0.1875 0.1875 0.5
v 0.1875 0.1875 0.25
v -0.1875 0.5625 0.5
v -0.1875 0.5625 0.25
v -0.1875 0.1875 0.5
v -0.1875 0.1875 0.25
vt 0.5 0.640625
vt 0.4375 0.640625
vt 0.4375 0.546875
vt 0.5 0.546875
vt 0.328125 0.453125
vt 0.328125 0.546875
vt 0.265625 0.546875
vt 0.265625 0.453125
vt 0.328125 0.484375
vt 0.421875 0.484375
vt 0.421875 0.546875
vt 0.328125 0.546875
vt 0.515625 0.484375
vt 0.515625 0.546875
vt 0.421875 0.546875
vt 0.421875 0.484375
vt 0.34375 0.71875
vt 0.34375 0.8125
vt 0.25 0.8125
vt 0.25 0.71875
vt 0.21875 0.71875
vt 0.125 0.71875
vt 0.125 0.625
vt 0.21875 0.625
vn 1 0 0
vn -1 0 0
vn 0 1 0
vn 0 -1 0
vn 0 0 1
vn 0 0 -1
f 62/233/67 61/234/67 63/235/67
f 62/233/67 63/235/67 64/236/67
f 67/237/68 65/238/68 66/239/68
f 67/237/68 66/239/68 68/240/68
f 65/241/69 61/242/69 62/243/69
f 65/241/69 62/243/69 66/244/69
f 64/245/70 63/246/70 67/247/70
f 64/245/70 67/247/70 68/248/70
f 63/249/71 61/250/71 65/251/71
f 63/249/71 65/251/71 67/252/71
f 66/253/72 62/254/72 64/255/72
f 66/253/72 64/255/72 68/256/72
o cylinder
v 0 0.375 0.5
v 0 0.375 0.625
v 0.077665 0.1875 0.5
v 0.077665 0.1875 0.625
v 0.1875 0.297335 0.5
v 0.1875 0.297335 0.625
v 0.1875 0.452665 0.5
v 0.1875 0.452665 0.625
v 0.077665 0.5625 0.5
v 0.077665 0.5625 0.625
v -0.077665 0.5625 0.5
v -0.077665 0.5625 0.625
v -0.1875 0.452665 0.5
v -0.1875 0.452665 0.625
v -0.1875 0.297335 0.5
v -0.1875 0.297335 0.625
v -0.077665 0.1875 0.5
v -0.077665 0.1875 0.625
vt 0.3125 0.691290625
vt 0.285040625 0.71875
vt 0.265625 0.671875
vt 0.578125 0.53125
vt 0.609375 0.53125
vt 0.609375 0.5625
vt 0.578125 0.5625
vt 0.378790625 0.625
vt 0.40625 0.652459375
vt 0.359375 0.671875
vt 0.3125 0.652459375
vt 0.3125 0.691290625
vt 0.265625 0.671875
vt 0.5625 0.625
vt 0.59375 0.625
vt 0.59375 0.65625
vt 0.5625 0.65625
vt 0.40625 0.652459375
vt 0.40625 0.691290625
vt 0.359375 0.671875
vt 0.285040625 0.625
vt 0.3125 0.652459375
vt 0.265625 0.671875
vt 0.0625 0.390625
vt 0.09375 0.390625
vt 0.09375 0.421875
vt 0.0625 0.421875
vt 0.40625 0.691290625
vt 0.378790625 0.71875
vt 0.359375 0.671875
vt 0.246209375 0.625
vt 0.285040625 0.625
vt 0.265625 0.671875
vt 0.546875 0.40625
vt 0.578125 0.40625
vt 0.578125 0.4375
vt 0.546875 0.4375
vt 0.378790625 0.71875
vt 0.339959375 0.71875
vt 0.359375 0.671875
vt 0.21875 0.652459375
vt 0.246209375 0.625
vt 0.265625 0.671875
vt 0.09375 0.390625
vt 0.125 0.390625
vt 0.125 0.421875
vt 0.09375 0.421875
vt 0.339959375 0.71875
vt 0.3125 0.691290625
vt 0.359375 0.671875
vt 0.21875 0.691290625
vt 0.21875 0.652459375
vt 0.265625 0.671875
vt 0 0.390625
vt 0.03125 0.390625
vt 0.03125 0.421875
vt 0 0.421875
vt 0.3125 0.691290625
vt 0.3125 0.652459375
vt 0.359375 0.671875
vt 0.246209375 0.71875
vt 0.21875 0.691290625
vt 0.265625 0.671875
vt 0.03125 0.390625
vt 0.0625 0.390625
vt 0.0625 0.421875
vt 0.03125 0.421875
vt 0.3125 0.652459375
vt 0.339959375 0.625
vt 0.359375 0.671875
vt 0.285040625 0.71875
vt 0.246209375 0.71875
vt 0.265625 0.671875
vt 0.359375 0.40625
vt 0.390625 0.40625
vt 0.390625 0.4375
vt 0.359375 0.4375
vt 0.339959375 0.625
vt 0.378790625 0.625
vt 0.359375 0.671875
vn 0 0 -1
vn 0.707106781186548 -0.707106781186548 0
vn 0 0 1
vn 0 0 -1
vn 1 0 0
vn 0 0 1
vn 0 0 -1
vn 0.707106781186548 0.707106781186548 0
vn 0 0 1
vn 0 0 -1
vn 0 1 0
vn 0 0 1
vn 0 0 -1
vn -0.707106781186548 0.707106781186548 0
vn 0 0 1
vn 0 0 -1
vn -1 0 0
vn 0 0 1
vn 0 0 -1
vn -0.707106781186548 -0.707106781186548 0
vn 0 0 1
vn 0 0 -1
vn 0 -1 0
vn 0 0 1
f 73/257/73 71/258/73 69/259/73
f 71/260/74 73/261/74 74/262/74
f 71/260/74 74/262/74 72/263/74
f 72/264/75 74/265/75 70/266/75
f 75/267/76 73/268/76 69/269/76
f 73/270/77 75/271/77 76/272/77
f 73/270/77 76/272/77 74/273/77
f 74/274/78 76/275/78 70/276/78
f 77/277/79 75/278/79 69/279/79
f 75/280/80 77/281/80 78/282/80
f 75/280/80 78/282/80 76/283/80
f 76/284/81 78/285/81 70/286/81
f 79/287/82 77/288/82 69/289/82
f 77/290/83 79/291/83 80/292/83
f 77/290/83 80/292/83 78/293/83
f 78/294/84 80/295/84 70/296/84
f 81/297/85 79/298/85 69/299/85
f 79/300/86 81/301/86 82/302/86
f 79/300/86 82/302/86 80/303/86
f 80/304/87 82/305/87 70/306/87
f 83/307/88 81/308/88 69/309/88
f 81/310/89 83/311/89 84/312/89
f 81/310/89 84/312/89 82/313/89
f 82/314/90 84/315/90 70/316/90
f 85/317/91 83/318/91 69/319/91
f 83/320/92 85/321/92 86/322/92
f 83/320/92 86/322/92 84/323/92
f 84/324/93 86/325/93 70/326/93
f 71/327/94 85/328/94 69/329/94
f 85/330/95 71/331/95 72/332/95
f 85/330/95 72/332/95 86/333/95
f 86/334/96 72/335/96 70/336/96
o mesh
v 0.1875 0.1875 0.5625
v 0.1875 0.1875 0.375
v 0.1875 0 0.5625
v 0.1875 0 0.375
v -0.1875 0.1875 0.5625
v -0.1875 0.1875 0.375
v -0.1875 0 0.5625
v -0.1875 0 0.375
vt 0.203125 0.453125
vt 0.15625 0.453125
vt 0.15625 0.40625
vt 0.203125 0.40625
vt 0.59375 0.765625
vt 0.59375 0.8125
vt 0.546875 0.8125
vt 0.546875 0.765625
vt 0.46875 0.953125
vt 0.5625 0.953125
vt 0.5625 1
vt 0.46875 1
vt 0.5625 0.90625
vt 0.5625 0.953125
vt 0.46875 0.953125
vt 0.46875 0.90625
vt 0.171875 0.484375
vt 0.171875 0.53125
vt 0.078125 0.53125
vt 0.078125 0.484375
vt 0.265625 0.53125
vt 0.171875 0.53125
vt 0.171875 0.484375
vt 0.265625 0.484375
vn 1 0 0
vn -1 0 0
vn 0 1 0
vn 0 -1 0
vn 0 0 1
vn 0 0 -1
f 88/337/97 87/338/97 89/339/97
f 88/337/97 89/339/97 90/340/97
f 93/341/98 91/342/98 92/343/98
f 93/341/98 92/343/98 94/344/98
f 91/345/99 87/346/99 88/347/99
f 91/345/99 88/347/99 92/348/99
f 90/349/100 89/350/100 93/351/100
f 90/349/100 93/351/100 94/352/100
f 89/353/101 87/354/101 91/355/101
f 89/353/101 91/355/101 93/356/101
f 92/357/102 88/358/102 90/359/102
f 92/357/102 90/359/102 94/360/102
o cylinder
v 0.1875 0.09375 0.46875
v 0.25 0.09375 0.46875
v 0.1875 0 0.4299175
v 0.25 0 0.4299175
v 0.1875 0.0549175 0.375
v 0.25 0.0549175 0.375
v 0.1875 0.1325825 0.375
v 0.25 0.1325825 0.375
v 0.1875 0.1875 0.4299175
v 0.25 0.1875 0.4299175
v 0.1875 0.1875 0.5075825
v 0.25 0.1875 0.5075825
v 0.1875 0.1325825 0.5625
v 0.25 0.1325825 0.5625
v 0.1875 0.0549175 0.5625
v 0.25 0.0549175 0.5625
v 0.1875 0 0.5075825
v 0.25 0 0.5075825
vt 0.59375 0.7518953125
vt 0.5800203125 0.765625
vt 0.5703125 0.7421875
vt 0.484375 0.640625
vt 0.5 0.640625
vt 0.5 0.65625
vt 0.484375 0.65625
vt 0.2831453125 0.40625
vt 0.296875 0.4199796875
vt 0.2734375 0.4296875
vt 0.59375 0.7324796875
vt 0.59375 0.7518953125
vt 0.5703125 0.7421875
vt 0 0.640625
vt 0.015625 0.640625
vt 0.015625 0.65625
vt 0 0.65625
vt 0.296875 0.4199796875
vt 0.296875 0.4393953125
vt 0.2734375 0.4296875
vt 0.5800203125 0.71875
vt 0.59375 0.7324796875
vt 0.5703125 0.7421875
vt 0.171875 0.609375
vt 0.1875 0.609375
vt 0.1875 0.625
vt 0.171875 0.625
vt 0.296875 0.4393953125
vt 0.2831453125 0.453125
vt 0.2734375 0.4296875
vt 0.5606046875 0.71875
vt 0.5800203125 0.71875
vt 0.5703125 0.7421875
vt 0.09375 0.609375
vt 0.109375 0.609375
vt 0.109375 0.625
vt 0.09375 0.625
vt 0.2831453125 0.453125
vt 0.2637296875 0.453125
vt 0.2734375 0.4296875
vt 0.546875 0.7324796875
vt 0.5606046875 0.71875
vt 0.5703125 0.7421875
vt 0.1875 0.53125
vt 0.203125 0.53125
vt 0.203125 0.546875
vt 0.1875 0.546875
vt 0.2637296875 0.453125
vt 0.25 0.4393953125
vt 0.2734375 0.4296875
vt 0.546875 0.7518953125
vt 0.546875 0.7324796875
vt 0.5703125 0.7421875
vt 0.078125 0.640625
vt 0.09375 0.640625
vt 0.09375 0.65625
vt 0.078125 0.65625
vt 0.25 0.4393953125
vt 0.25 0.4199796875
vt 0.2734375 0.4296875
vt 0.5606046875 0.765625
vt 0.546875 0.7518953125
vt 0.5703125 0.7421875
vt 0.453125 0.90625
vt 0.46875 0.90625
vt 0.46875 0.921875
vt 0.453125 0.921875
vt 0.25 0.4199796875
vt 0.2637296875 0.40625
vt 0.2734375 0.4296875
vt 0.5800203125 0.765625
vt 0.5606046875 0.765625
vt 0.5703125 0.7421875
vt 0.375 0.90625
vt 0.390625 0.90625
vt 0.390625 0.921875
vt 0.375 0.921875
vt 0.2637296875 0.40625
vt 0.2831453125 0.40625
vt 0.2734375 0.4296875
vn -1 0 0
vn 0 -0.707106781186548 -0.707106781186547
vn 1 0 0
vn -1 0 0
vn 0 0 -1
vn 1 0 0
vn -1 0 0
vn 0 0.707106781186547 -0.707106781186548
vn 1 0 0
vn -1 0 0
vn 0 1 0
vn 1 0 0
vn -1 0 0
vn 0 0.707106781186548 0.707106781186547
vn 1 0 0
vn -1 0 0
vn 0 0 1
vn 1 0 0
vn -1 0 0
vn 0 -0.707106781186547 0.707106781186548
vn 1 0 0
vn -1 0 0
vn 0 -1 0
vn 1 0 0
f 99/361/103 97/362/103 95/363/103
f 97/364/104 99/365/104 100/366/104
f 97/364/104 100/366/104 98/367/104
f 98/368/105 100/369/105 96/370/105
f 101/371/106 99/372/106 95/373/106
f 99/374/107 101/375/107 102/376/107
f 99/374/107 102/376/107 100/377/107
f 100/378/108 102/379/108 96/380/108
f 103/381/109 101/382/109 95/383/109
f 101/384/110 103/385/110 104/386/110
f 101/384/110 104/386/110 102/387/110
f 102/388/111 104/389/111 96/390/111
f 105/391/112 103/392/112 95/393/112
f 103/394/113 105/395/113 106/396/113
f 103/394/113 106/396/113 104/397/113
f 104/398/114 106/399/114 96/400/114
f 107/401/115 105/402/115 95/403/115
f 105/404/116 107/405/116 108/406/116
f 105/404/116 108/406/116 106/407/116
f 106/408/117 108/409/117 96/410/117
f 109/411/118 107/412/118 95/413/118
f 107/414/119 109/415/119 110/416/119
f 107/414/119 110/416/119 108/417/119
f 108/418/120 110/419/120 96/420/120
f 111/421/121 109/422/121 95/423/121
f 109/424/122 111/425/122 112/426/122
f 109/424/122 112/426/122 110/427/122
f 110/428/123 112/429/123 96/430/123
f 97/431/124 111/432/124 95/433/124
f 111/434/125 97/435/125 98/436/125
f 111/434/125 98/436/125 112/437/125
f 112/438/126 98/439/126 96/440/126
o cylinder
v 0 0.5625 0.3125
v 0 0.59375 0.3125
v 0.064720625 0.5625 0.46875
v 0.064720625 0.59375 0.46875
v 0.15625 0.5625 0.377220625
v 0.15625 0.59375 0.377220625
v 0.15625 0.5625 0.247779375
v 0.15625 0.59375 0.247779375
v 0.064720625 0.5625 0.15625
v 0.064720625 0.59375 0.15625
v -0.064720625 0.5625 0.15625
v -0.064720625 0.59375 0.15625
v -0.15625 0.5625 0.247779375
v -0.15625 0.59375 0.247779375
v -0.15625 0.5625 0.377220625
v -0.15625 0.59375 0.377220625
v -0.064720625 0.5625 0.46875
v -0.064720625 0.59375 0.46875
vt 0.484375 0.6958671875
vt 0.4614921875 0.71875
vt 0.4453125 0.6796875
vt 0.59375 0.75
vt 0.625 0.75
vt 0.625 0.765625
vt 0.59375 0.765625
vt 0.0552421875 0.484375
vt 0.078125 0.5072578125
vt 0.0390625 0.5234375
vt 0.484375 0.6635078125
vt 0.484375 0.6958671875
vt 0.4453125 0.6796875
vt 0.40625 0.625
vt 0.4375 0.625
vt 0.4375 0.640625
vt 0.40625 0.640625
vt 0.078125 0.5072578125
vt 0.078125 0.5396171875
vt 0.0390625 0.5234375
vt 0.4614921875 0.640625
vt 0.484375 0.6635078125
vt 0.4453125 0.6796875
vt 0.59375 0.765625
vt 0.625 0.765625
vt 0.625 0.78125
vt 0.59375 0.78125
vt 0.078125 0.5396171875
vt 0.0552421875 0.5625
vt 0.0390625 0.5234375
vt 0.4291328125 0.640625
vt 0.4614921875 0.640625
vt 0.4453125 0.6796875
vt 0.59375 0.796875
vt 0.625 0.796875
vt 0.625 0.8125
vt 0.59375 0.8125
vt 0.0552421875 0.5625
vt 0.0228828125 0.5625
vt 0.0390625 0.5234375
vt 0.40625 0.6635078125
vt 0.4291328125 0.640625
vt 0.4453125 0.6796875
vt 0.25 0.390625
vt 0.28125 0.390625
vt 0.28125 0.40625
vt 0.25 0.40625
vt 0.0228828125 0.5625
vt 0 0.5396171875
vt 0.0390625 0.5234375
vt 0.40625 0.6958671875
vt 0.40625 0.6635078125
vt 0.4453125 0.6796875
vt 0.59375 0.90625
vt 0.625 0.90625
vt 0.625 0.921875
vt 0.59375 0.921875
vt 0 0.5396171875
vt 0 0.5072578125
vt 0.0390625 0.5234375
vt 0.4291328125 0.71875
vt 0.40625 0.6958671875
vt 0.4453125 0.6796875
vt 0.59375 0.78125
vt 0.625 0.78125
vt 0.625 0.796875
vt 0.59375 0.796875
vt 0 0.5072578125
vt 0.0228828125 0.484375
vt 0.0390625 0.5234375
vt 0.4614921875 0.71875
vt 0.4291328125 0.71875
vt 0.4453125 0.6796875
vt 0.15625 0.390625
vt 0.1875 0.390625
vt 0.1875 0.40625
vt 0.15625 0.40625
vt 0.0228828125 0.484375
vt 0.0552421875 0.484375
vt 0.0390625 0.5234375
vn 0 -1 0
vn 0.707106781186548 0 0.707106781186548
vn 0 1 0
vn 0 -1 0
vn 1 0 0
vn 0 1 0
vn 0 -1 0
vn 0.707106781186548 0 -0.707106781186548
vn 0 1 0
vn 0 -1 0
vn 0 0 -1
vn 0 1 0
vn 0 -1 0
vn -0.707106781186548 0 -0.707106781186548
vn 0 1 0
vn 0 -1 0
vn -1 0 0
vn 0 1 0
vn 0 -1 0
vn -0.707106781186548 0 0.707106781186548
vn 0 1 0
vn 0 -1 0
vn 0 0 1
vn 0 1 0
f 117/441/127 115/442/127 113/443/127
f 115/444/128 117/445/128 118/446/128
f 115/444/128 118/446/128 116/447/128
f 116/448/129 118/449/129 114/450/129
f 119/451/130 117/452/130 113/453/130
f 117/454/131 119/455/131 120/456/131
f 117/454/131 120/456/131 118/457/131
f 118/458/132 120/459/132 114/460/132
f 121/461/133 119/462/133 113/463/133
f 119/464/134 121/465/134 122/466/134
f 119/464/134 122/466/134 120/467/134
f 120/468/135 122/469/135 114/470/135
f 123/471/136 121/472/136 113/473/136
f 121/474/137 123/475/137 124/476/137
f 121/474/137 124/476/137 122/477/137
f 122/478/138 124/479/138 114/480/138
f 125/481/139 123/482/139 113/483/139
f 123/484/140 125/485/140 126/486/140
f 123/484/140 126/486/140 124/487/140
f 124/488/141 126/489/141 114/490/141
f 127/491/142 125/492/142 113/493/142
f 125/494/143 127/495/143 128/496/143
f 125/494/143 128/496/143 126/497/143
f 126/498/144 128/499/144 114/500/144
f 129/501/145 127/502/145 113/503/145
f 127/504/146 129/505/146 130/506/146
f 127/504/146 130/506/146 128/507/146
f 128/508/147 130/509/147 114/510/147
f 115/511/148 129/512/148 113/513/148
f 129/514/149 115/515/149 116/516/149
f 129/514/149 116/516/149 130/517/149
f 130/518/150 116/519/150 114/520/150
o tube
v 0.07442875 0.1953125 0.625
v 0.07442875 0.1953125 0.75
v 0.043346875 0.27035125 0.625
v 0.043346875 0.27035125 0.75
v 0.1796875 0.30057125 0.625
v 0.1796875 0.30057125 0.75
v 0.10464875 0.331653125 0.625
v 0.10464875 0.331653125 0.75
v 0.1796875 0.44942875 0.625
v 0.1796875 0.44942875 0.75
v 0.10464875 0.418346875 0.625
v 0.10464875 0.418346875 0.75
v 0.07442875 0.5546875 0.625
v 0.07442875 0.5546875 0.75
v 0.043346875 0.47964875 0.625
v 0.043346875 0.47964875 0.75
v -0.07442875 0.5546875 0.625
v -0.07442875 0.5546875 0.75
v -0.043346875 0.47964875 0.625
v -0.043346875 0.47964875 0.75
v -0.1796875 0.44942875 0.625
v -0.1796875 0.44942875 0.75
v -0.10464875 0.418346875 0.625
v -0.10464875 0.418346875 0.75
v -0.1796875 0.30057125 0.625
v -0.1796875 0.30057125 0.75
v -0.10464875 0.331653125 0.625
v -0.10464875 0.331653125 0.75
v -0.07442875 0.1953125 0.625
v -0.07442875 0.1953125 0.75
v -0.043346875 0.27035125 0.625
v -0.043346875 0.27035125 0.75
vt 0.578125 0.4375
vt 0.609375 0.4375
vt 0.609375 0.46875
vt 0.578125 0.46875
vt 0.203125 0.40625
vt 0.1875 0.40625
vt 0.1875 0.375
vt 0.203125 0.375
vt 0.0577109375 0.633584375
vt 0.0730375 0.6182578125
vt 0.091796875 0.6260296875
vt 0.0654828125 0.65234375
vt 0.4092328125 0.81640625
vt 0.435546875 0.8427203125
vt 0.4167875 0.8504921875
vt 0.4014609375 0.835165625
vt 0.453125 0.390625
vt 0.484375 0.390625
vt 0.484375 0.421875
vt 0.453125 0.421875
vt 0.359375 0.828125
vt 0.34375 0.828125
vt 0.34375 0.796875
vt 0.359375 0.796875
vt 0.0730375 0.6182578125
vt 0.0730375 0.5965859375
vt 0.091796875 0.5888140625
vt 0.091796875 0.6260296875
vt 0.435546875 0.8427203125
vt 0.435546875 0.8799359375
vt 0.4167875 0.8721640625
vt 0.4167875 0.8504921875
vt 0.578125 0.40625
vt 0.609375 0.40625
vt 0.609375 0.4375
vt 0.578125 0.4375
vt 0.5 0.6875
vt 0.484375 0.6875
vt 0.484375 0.65625
vt 0.5 0.65625
vt 0.0730375 0.5965859375
vt 0.0577109375 0.581259375
vt 0.0654828125 0.5625
vt 0.091796875 0.5888140625
vt 0.435546875 0.8799359375
vt 0.4092328125 0.90625
vt 0.4014609375 0.887490625
vt 0.4167875 0.8721640625
vt 0.484375 0.390625
vt 0.515625 0.390625
vt 0.515625 0.421875
vt 0.484375 0.421875
vt 0.484375 0.75
vt 0.46875 0.75
vt 0.46875 0.71875
vt 0.484375 0.71875
vt 0.0577109375 0.581259375
vt 0.0360390625 0.581259375
vt 0.0282671875 0.5625
vt 0.0654828125 0.5625
vt 0.4092328125 0.90625
vt 0.3720171875 0.90625
vt 0.3797890625 0.887490625
vt 0.4014609375 0.887490625
vt 0.59375 0.9375
vt 0.625 0.9375
vt 0.625 0.96875
vt 0.59375 0.96875
vt 0.609375 0.75
vt 0.59375 0.75
vt 0.59375 0.71875
vt 0.609375 0.71875
vt 0.0360390625 0.581259375
vt 0.0207125 0.5965859375
vt 0.001953125 0.5888140625
vt 0.0282671875 0.5625
vt 0.3720171875 0.90625
vt 0.345703125 0.8799359375
vt 0.3644625 0.8721640625
vt 0.3797890625 0.887490625
vt 0.578125 0.46875
vt 0.609375 0.46875
vt 0.609375 0.5
vt 0.578125 0.5
vt 0.4375 0.828125
vt 0.421875 0.828125
vt 0.421875 0.796875
vt 0.4375 0.796875
vt 0.0207125 0.5965859375
vt 0.0207125 0.6182578125
vt 0.001953125 0.6260296875
vt 0.001953125 0.5888140625
vt 0.345703125 0.8799359375
vt 0.345703125 0.8427203125
vt 0.3644625 0.8504921875
vt 0.3644625 0.8721640625
vt 0.59375 0.96875
vt 0.625 0.96875
vt 0.625 1
vt 0.59375 1
vt 0.265625 0.484375
vt 0.25 0.484375
vt 0.25 0.453125
vt 0.265625 0.453125
vt 0.0207125 0.6182578125
vt 0.0360390625 0.633584375
vt 0.0282671875 0.65234375
vt 0.001953125 0.6260296875
vt 0.345703125 0.8427203125
vt 0.3720171875 0.81640625
vt 0.3797890625 0.835165625
vt 0.3644625 0.8504921875
vt 0.578125 0.5
vt 0.609375 0.5
vt 0.609375 0.53125
vt 0.578125 0.53125
vt 0.09375 0.5625
vt 0.078125 0.5625
vt 0.078125 0.53125
vt 0.09375 0.53125
vt 0.0360390625 0.633584375
vt 0.0577109375 0.633584375
vt 0.0654828125 0.65234375
vt 0.0282671875 0.65234375
vt 0.3720171875 0.81640625
vt 0.4092328125 0.81640625
vt 0.4014609375 0.835165625
vt 0.3797890625 0.835165625
vn 0.707106781186548 -0.707106781186548 0
vn -0.707106781186548 0.707106781186548 0
vn 0 0 -1
vn 0 0 1
vn 1 0 0
vn -1 0 0
vn 0 0 -1
vn 0 0 1
vn 0.707106781186548 0.707106781186548 0
vn -0.707106781186548 -0.707106781186548 0
vn 0 0 -1
vn 0 0 1
vn 0 1 0
vn 0 -1 0
vn 0 0 -1
vn 0 0 1
vn -0.707106781186548 0.707106781186548 0
vn 0.707106781186548 -0.707106781186548 0
vn 0 0 -1
vn 0 0 1
vn -1 0 0
vn 1 0 0
vn 0 0 -1
vn 0 0 1
vn -0.707106781186548 -0.707106781186548 0
vn 0.707106781186548 0.707106781186548 0
vn 0 0 -1
vn 0 0 1
vn 0 -1 0
vn 0 1 0
vn 0 0 -1
vn 0 0 1
f 131/521/151 135/522/151 136/523/151
f 131/521/151 136/523/151 132/524/151
f 134/525/152 138/526/152 137/527/152
f 134/525/152 137/527/152 133/528/152
f 133/529/153 137/530/153 135/531/153
f 133/529/153 135/531/153 131/532/153
f 132/533/154 136/534/154 138/535/154
f 132/533/154 138/535/154 134/536/154
f 135/537/155 139/538/155 140/539/155
f 135/537/155 140/539/155 136/540/155
f 138/541/156 142/542/156 141/543/156
f 138/541/156 141/543/156 137/544/156
f 137/545/157 141/546/157 139/547/157
f 137/545/157 139/547/157 135/548/157
f 136/549/158 140/550/158 142/551/158
f 136/549/158 142/551/158 138/552/158
f 139/553/159 143/554/159 144/555/159
f 139/553/159 144/555/159 140/556/159
f 142/557/160 146/558/160 145/559/160
f 142/557/160 145/559/160 141/560/160
f 141/561/161 145/562/161 143/563/161
f 141/561/161 143/563/161 139/564/161
f 140/565/162 144/566/162 146/567/162
f 140/565/162 146/567/162 142/568/162
f 143/569/163 147/570/163 148/571/163
f 143/569/163 148/571/163 144/572/163
f 146/573/164 150/574/164 149/575/164
f 146/573/164 149/575/164 145/576/164
f 145/577/165 149/578/165 147/579/165
f 145/577/165 147/579/165 143/580/165
f 144/581/166 148/582/166 150/583/166
f 144/581/166 150/583/166 146/584/166
f 147/585/167 151/586/167 152/587/167
f 147/585/167 152/587/167 148/588/167
f 150/589/168 154/590/168 153/591/168
f 150/589/168 153/591/168 149/592/168
f 149/593/169 153/594/169 151/595/169
f 149/593/169 151/595/169 147/596/169
f 148/597/170 152/598/170 154/599/170
f 148/597/170 154/599/170 150/600/170
f 151/601/171 155/602/171 156/603/171
f 151/601/171 156/603/171 152/604/171
f 154/605/172 158/606/172 157/607/172
f 154/605/172 157/607/172 153/608/172
f 153/609/173 157/610/173 155/611/173
f 153/609/173 155/611/173 151/612/173
f 152/613/174 156/614/174 158/615/174
f 152/613/174 158/615/174 154/616/174
f 155/617/175 159/618/175 160/619/175
f 155/617/175 160/619/175 156/620/175
f 158/621/176 162/622/176 161/623/176
f 158/621/176 161/623/176 157/624/176
f 157/625/177 161/626/177 159/627/177
f 157/625/177 159/627/177 155/628/177
f 156/629/178 160/630/178 162/631/178
f 156/629/178 162/631/178 158/632/178
f 159/633/179 131/634/179 132/635/179
f 159/633/179 132/635/179 160/636/179
f 162/637/180 134/638/180 133/639/180
f 162/637/180 133/639/180 161/640/180
f 161/641/181 133/642/181 131/643/181
f 161/641/181 131/643/181 159/644/181
f 160/645/182 132/646/182 134/647/182
f 160/645/182 134/647/182 162/648/182
o cylinder
v 0 0.375 0.65625
v 0 0.375 0.71875
v 0.064720625 0.21875 0.65625
v 0.064720625 0.21875 0.71875
v 0.15625 0.310279375 0.65625
v 0.15625 0.310279375 0.71875
v 0.15625 0.439720625 0.65625
v 0.15625 0.439720625 0.71875
v 0.064720625 0.53125 0.65625
v 0.064720625 0.53125 0.71875
v -0.064720625 0.53125 0.65625
v -0.064720625 0.53125 0.71875
v -0.15625 0.439720625 0.65625
v -0.15625 0.439720625 0.71875
v -0.15625 0.310279375 0.65625
v -0.15625 0.310279375 0.71875
v -0.064720625 0.21875 0.65625
v -0.064720625 0.21875 0.71875
vt 0.515625 0.8833671875
vt 0.4927421875 0.90625
vt 0.4765625 0.8671875
vt 0.59375 0.625
vt 0.625 0.625
vt 0.625 0.640625
vt 0.59375 0.640625
vt 0.4927421875 0.75
vt 0.515625 0.7728828125
vt 0.4765625 0.7890625
vt 0.515625 0.8510078125
vt 0.515625 0.8833671875
vt 0.4765625 0.8671875
vt 0.28125 0.390625
vt 0.3125 0.390625
vt 0.3125 0.40625
vt 0.28125 0.40625
vt 0.515625 0.7728828125
vt 0.515625 0.8052421875
vt 0.4765625 0.7890625
vt 0.4927421875 0.828125
vt 0.515625 0.8510078125
vt 0.4765625 0.8671875
vt 0.59375 0.640625
vt 0.625 0.640625
vt 0.625 0.65625
vt 0.59375 0.65625
vt 0.515625 0.8052421875
vt 0.4927421875 0.828125
vt 0.4765625 0.7890625
vt 0.4603828125 0.828125
vt 0.4927421875 0.828125
vt 0.4765625 0.8671875
vt 0.59375 0.65625
vt 0.625 0.65625
vt 0.625 0.671875
vt 0.59375 0.671875
vt 0.4927421875 0.828125
vt 0.4603828125 0.828125
vt 0.4765625 0.7890625
vt 0.4375 0.8510078125
vt 0.4603828125 0.828125
vt 0.4765625 0.8671875
vt 0.546875 0.390625
vt 0.578125 0.390625
vt 0.578125 0.40625
vt 0.546875 0.40625
vt 0.4603828125 0.828125
vt 0.4375 0.8052421875
vt 0.4765625 0.7890625
vt 0.4375 0.8833671875
vt 0.4375 0.8510078125
vt 0.4765625 0.8671875
vt 0.3125 0.390625
vt 0.34375 0.390625
vt 0.34375 0.40625
vt 0.3125 0.40625
vt 0.4375 0.8052421875
vt 0.4375 0.7728828125
vt 0.4765625 0.7890625
vt 0.4603828125 0.90625
vt 0.4375 0.8833671875
vt 0.4765625 0.8671875
vt 0.34375 0.390625
vt 0.375 0.390625
vt 0.375 0.40625
vt 0.34375 0.40625
vt 0.4375 0.7728828125
vt 0.4603828125 0.75
vt 0.4765625 0.7890625
vt 0.4927421875 0.90625
vt 0.4603828125 0.90625
vt 0.4765625 0.8671875
vt 0.59375 0.671875
vt 0.625 0.671875
vt 0.625 0.6875
vt 0.59375 0.6875
vt 0.4603828125 0.75
vt 0.4927421875 0.75
vt 0.4765625 0.7890625
vn 0 0 -1
vn 0.707106781186548 -0.707106781186548 0
vn 0 0 1
vn 0 0 -1
vn 1 0 0
vn 0 0 1
vn 0 0 -1
vn 0.707106781186548 0.707106781186548 0
vn 0 0 1
vn 0 0 -1
vn 0 1 0
vn 0 0 1
vn 0 0 -1
vn -0.707106781186548 0.707106781186548 0
vn 0 0 1
vn 0 0 -1
vn -1 0 0
vn 0 0 1
vn 0 0 -1
vn -0.707106781186548 -0.707106781186548 0
vn 0 0 1
vn 0 0 -1
vn 0 -1 0
vn 0 0 1
f 167/649/183 165/650/183 163/651/183
f 165/652/184 167/653/184 168/654/184
f 165/652/184 168/654/184 166/655/184
f 166/656/185 168/657/185 164/658/185
f 169/659/186 167/660/186 163/661/186
f 167/662/187 169/663/187 170/664/187
f 167/662/187 170/664/187 168/665/187
f 168/666/188 170/667/188 164/668/188
f 171/669/189 169/670/189 163/671/189
f 169/672/190 171/673/190 172/674/190
f 169/672/190 172/674/190 170/675/190
f 170/676/191 172/677/191 164/678/191
f 173/679/192 171/680/192 163/681/192
f 171/682/193 173/683/193 174/684/193
f 171/682/193 174/684/193 172/685/193
f 172/686/194 174/687/194 164/688/194
f 175/689/195 173/690/195 163/691/195
f 173/692/196 175/693/196 176/694/196
f 173/692/196 176/694/196 174/695/196
f 174/696/197 176/697/197 164/698/197
f 177/699/198 175/700/198 163/701/198
f 175/702/199 177/703/199 178/704/199
f 175/702/199 178/704/199 176/705/199
f 176/706/200 178/707/200 164/708/200
f 179/709/201 177/710/201 163/711/201
f 177/712/202 179/713/202 180/714/202
f 177/712/202 180/714/202 178/715/202
f 178/716/203 180/717/203 164/718/203
f 165/719/204 179/720/204 163/721/204
f 179/722/205 165/723/205 166/724/205
f 179/722/205 166/724/205 180/725/205
f 180/726/206 166/727/206 164/728/206
o tube
v 0.07442875 0.0703125 -0.53125
v 0.07442875 0.0703125 -0.5
v 0.043346875 0.14535125 -0.53125
v 0.043346875 0.14535125 -0.5
v 0.1796875 0.17557125 -0.53125
v 0.1796875 0.17557125 -0.5
v 0.10464875 0.206653125 -0.53125
v 0.10464875 0.206653125 -0.5
v 0.1796875 0.32442875 -0.53125
v 0.1796875 0.32442875 -0.5
v 0.10464875 0.293346875 -0.53125
v 0.10464875 0.293346875 -0.5
v 0.07442875 0.4296875 -0.53125
v 0.07442875 0.4296875 -0.5
v 0.043346875 0.35464875 -0.53125
v 0.043346875 0.35464875 -0.5
v -0.07442875 0.4296875 -0.53125
v -0.07442875 0.4296875 -0.5
v -0.043346875 0.35464875 -0.53125
v -0.043346875 0.35464875 -0.5
v -0.1796875 0.32442875 -0.53125
v -0.1796875 0.32442875 -0.5
v -0.10464875 0.293346875 -0.53125
v -0.10464875 0.293346875 -0.5
v -0.1796875 0.17557125 -0.53125
v -0.1796875 0.17557125 -0.5
v -0.10464875 0.206653125 -0.53125
v -0.10464875 0.206653125 -0.5
v -0.07442875 0.0703125 -0.53125
v -0.07442875 0.0703125 -0.5
v -0.043346875 0.14535125 -0.53125
v -0.043346875 0.14535125 -0.5
vt 0.09375 0.375
vt 0.125 0.375
vt 0.125 0.390625
vt 0.09375 0.390625
vt 0.46875 0.390625
vt 0.453125 0.390625
vt 0.453125 0.375
vt 0.46875 0.375
vt 0.4014609375 0.789834375
vt 0.4167875 0.7745078125
vt 0.435546875 0.7822796875
vt 0.4092328125 0.80859375
vt 0.4404828125 0.91015625
vt 0.466796875 0.9364703125
vt 0.4480375 0.9442421875
vt 0.4327109375 0.928915625
vt 0.578125 0.390625
vt 0.609375 0.390625
vt 0.609375 0.40625
vt 0.578125 0.40625
vt 0.515625 0.5625
vt 0.5 0.5625
vt 0.5 0.546875
vt 0.515625 0.546875
vt 0.4167875 0.7745078125
vt 0.4167875 0.7528359375
vt 0.435546875 0.7450640625
vt 0.435546875 0.7822796875
vt 0.466796875 0.9364703125
vt 0.466796875 0.9736859375
vt 0.4480375 0.9659140625
vt 0.4480375 0.9442421875
vt 0.609375 0.890625
vt 0.640625 0.890625
vt 0.640625 0.90625
vt 0.609375 0.90625
vt 0.390625 0.390625
vt 0.375 0.390625
vt 0.375 0.375
vt 0.390625 0.375
vt 0.4167875 0.7528359375
vt 0.4014609375 0.737509375
vt 0.4092328125 0.71875
vt 0.435546875 0.7450640625
vt 0.466796875 0.9736859375
vt 0.4404828125 1
vt 0.4327109375 0.981240625
vt 0.4480375 0.9659140625
vt 0.03125 0.375
vt 0.0625 0.375
vt 0.0625 0.390625
vt 0.03125 0.390625
vt 0.375 0.390625
vt 0.359375 0.390625
vt 0.359375 0.375
vt 0.375 0.375
vt 0.4014609375 0.737509375
vt 0.3797890625 0.737509375
vt 0.3720171875 0.71875
vt 0.4092328125 0.71875
vt 0.4404828125 1
vt 0.4032671875 1
vt 0.4110390625 0.981240625
vt 0.4327109375 0.981240625
vt 0.609375 0.859375
vt 0.640625 0.859375
vt 0.640625 0.875
vt 0.609375 0.875
vt 0.625 0.546875
vt 0.609375 0.546875
vt 0.609375 0.53125
vt 0.625 0.53125
vt 0.3797890625 0.737509375
vt 0.3644625 0.7528359375
vt 0.345703125 0.7450640625
vt 0.3720171875 0.71875
vt 0.4032671875 1
vt 0.376953125 0.9736859375
vt 0.3957125 0.9659140625
vt 0.4110390625 0.981240625
vt 0.0625 0.375
vt 0.09375 0.375
vt 0.09375 0.390625
vt 0.0625 0.390625
vt 0.390625 0.40625
vt 0.375 0.40625
vt 0.375 0.390625
vt 0.390625 0.390625
vt 0.3644625 0.7528359375
vt 0.3644625 0.7745078125
vt 0.345703125 0.7822796875
vt 0.345703125 0.7450640625
vt 0.376953125 0.9736859375
vt 0.376953125 0.9364703125
vt 0.3957125 0.9442421875
vt 0.3957125 0.9659140625
vt 0.609375 0.875
vt 0.640625 0.875
vt 0.640625 0.890625
vt 0.609375 0.890625
vt 0.625 0.5625
vt 0.609375 0.5625
vt 0.609375 0.546875
vt 0.625 0.546875
vt 0.3644625 0.7745078125
vt 0.3797890625 0.789834375
vt 0.3720171875 0.80859375
vt 0.345703125 0.7822796875
vt 0.376953125 0.9364703125
vt 0.4032671875 0.91015625
vt 0.4110390625 0.928915625
vt 0.3957125 0.9442421875
vt 0 0.375
vt 0.03125 0.375
vt 0.03125 0.390625
vt 0 0.390625
vt 0.359375 0.390625
vt 0.34375 0.390625
vt 0.34375 0.375
vt 0.359375 0.375
vt 0.3797890625 0.789834375
vt 0.4014609375 0.789834375
vt 0.4092328125 0.80859375
vt 0.3720171875 0.80859375
vt 0.4032671875 0.91015625
vt 0.4404828125 0.91015625
vt 0.4327109375 0.928915625
vt 0.4110390625 0.928915625
vn 0.707106781186548 -0.707106781186548 0
vn -0.707106781186548 0.707106781186548 0
vn 0 0 -1
vn 0 0 1
vn 1 0 0
vn -1 0 0
vn 0 0 -1
vn 0 0 1
vn 0.707106781186548 0.707106781186548 0
vn -0.707106781186548 -0.707106781186548 0
vn 0 0 -1
vn 0 0 1
vn 0 1 0
vn 0 -1 0
vn 0 0 -1
vn 0 0 1
vn -0.707106781186548 0.707106781186548 0
vn 0.707106781186548 -0.707106781186548 0
vn 0 0 -1
vn 0 0 1
vn -1 0 0
vn 1 0 0
vn 0 0 -1
vn 0 0 1
vn -0.707106781186548 -0.707106781186548 0
vn 0.707106781186548 0.707106781186548 0
vn 0 0 -1
vn 0 0 1
vn 0 -1 0
vn 0 1 0
vn 0 0 -1
vn 0 0 1
f 181/729/207 185/730/207 186/731/207
f 181/729/207 186/731/207 182/732/207
f 184/733/208 188/734/208 187/735/208
f 184/733/208 187/735/208 183/736/208
f 183/737/209 187/738/209 185/739/209
f 183/737/209 185/739/209 181/740/209
f 182/741/210 186/742/210 188/743/210
f 182/741/210 188/743/210 184/744/210
f 185/745/211 189/746/211 190/747/211
f 185/745/211 190/747/211 186/748/211
f 188/749/212 192/750/212 191/751/212
f 188/749/212 191/751/212 187/752/212
f 187/753/213 191/754/213 189/755/213
f 187/753/213 189/755/213 185/756/213
f 186/757/214 190/758/214 192/759/214
f 186/757/214 192/759/214 188/760/214
f 189/761/215 193/762/215 194/763/215
f 189/761/215 194/763/215 190/764/215
f 192/765/216 196/766/216 195/767/216
f 192/765/216 195/767/216 191/768/216
f 191/769/217 195/770/217 193/771/217
f 191/769/217 193/771/217 189/772/217
f 190/773/218 194/774/218 196/775/218
f 190/773/218 196/775/218 192/776/218
f 193/777/219 197/778/219 198/779/219
f 193/777/219 198/779/219 194/780/219
f 196/781/220 200/782/220 199/783/220
f 196/781/220 199/783/220 195/784/220
f 195/785/221 199/786/221 197/787/221
f 195/785/221 197/787/221 193/788/221
f 194/789/222 198/790/222 200/791/222
f 194/789/222 200/791/222 196/792/222
f 197/793/223 201/794/223 202/795/223
f 197/793/223 202/795/223 198/796/223
f 200/797/224 204/798/224 203/799/224
f 200/797/224 203/799/224 199/800/224
f 199/801/225 203/802/225 201/803/225
f 199/801/225 201/803/225 197/804/225
f 198/805/226 202/806/226 204/807/226
f 198/805/226 204/807/226 200/808/226
f 201/809/227 205/810/227 206/811/227
f 201/809/227 206/811/227 202/812/227
f 204/813/228 208/814/228 207/815/228
f 204/813/228 207/815/228 203/816/228
f 203/817/229 207/818/229 205/819/229
f 203/817/229 205/819/229 201/820/229
f 202/821/230 206/822/230 208/823/230
f 202/821/230 208/823/230 204/824/230
f 205/825/231 209/826/231 210/827/231
f 205/825/231 210/827/231 206/828/231
f 208/829/232 212/830/232 211/831/232
f 208/829/232 211/831/232 207/832/232
f 207/833/233 211/834/233 209/835/233
f 207/833/233 209/835/233 205/836/233
f 206/837/234 210/838/234 212/839/234
f 206/837/234 212/839/234 208/840/234
f 209/841/235 181/842/235 182/843/235
f 209/841/235 182/843/235 210/844/235
f 212/845/236 184/846/236 183/847/236
f 212/845/236 183/847/236 211/848/236
f 211/849/237 183/850/237 181/851/237
f 211/849/237 181/851/237 209/852/237
f 210/853/238 182/854/238 184/855/238
f 210/853/238 184/855/238 212/856/238
o mesh
v 0.171875 0.46875 0.09375
v 0.109375 0.46875 -0.25
v 0.171875 0.4375 0.09375
v 0.109375 0.4375 -0.25
v -0.171875 0.46875 0.09375
v -0.109375 0.46875 -0.25
v -0.171875 0.4375 0.09375
v -0.109375 0.4375 -0.25
vt 0.390625 0.453125
vt 0.296875 0.453125
vt 0.296875 0.4375
vt 0.390625 0.4375
vt 0.640625 0.6875
vt 0.640625 0.703125
vt 0.546875 0.703125
vt 0.546875 0.6875
vt 0.09765625 0.53125
vt 0.18359375 0.53125
vt 0.16796875 0.625
vt 0.11328125 0.625
vt 0.26171875 0.53125
vt 0.27734375 0.625
vt 0.19140625 0.625
vt 0.20703125 0.53125
vt 0.640625 0.703125
vt 0.640625 0.71875
vt 0.546875 0.71875
vt 0.546875 0.703125
vt 0.65625 0.9375
vt 0.59375 0.9375
vt 0.59375 0.921875
vt 0.65625 0.921875
vn 0.983869910099907 0 -0.178885438199983
vn -0.983869910099907 0 -0.178885438199983
vn 0 1 0
vn 0 -1 0
vn 0 0 1
vn 0 0 -1
f 214/857/239 213/858/239 215/859/239
f 214/857/239 215/859/239 216/860/239
f 219/861/240 217/862/240 218/863/240
f 219/861/240 218/863/240 220/864/240
f 217/865/241 213/866/241 214/867/241
f 217/865/241 214/867/241 218/868/241
f 216/869/242 215/870/242 219/871/242
f 216/869/242 219/871/242 220/872/242
f 215/873/243 213/874/243 217/875/243
f 215/873/243 217/875/243 219/876/243
f 218/877/244 214/878/244 216/879/244
f 218/877/244 216/879/244 220/880/244
o mesh
v 0.03125 0.4765625 -0.03125
v 0.03125 0.4765625 -0.09375
v 0.03125 0.4609375 -0.03125
v 0.03125 0.4609375 -0.09375
v -0.03125 0.4765625 -0.03125
v -0.03125 0.4765625 -0.09375
v -0.03125 0.4609375 -0.03125
v -0.03125 0.4609375 -0.09375
vt 0.484375 0.390625
vt 0.46875 0.390625
vt 0.46875 0.375
vt 0.484375 0.375
vt 0.625 0.515625
vt 0.625 0.53125
vt 0.609375 0.53125
vt 0.609375 0.515625
vt 0.484375 0.375
vt 0.5 0.375
vt 0.5 0.390625
vt 0.484375 0.390625
vt 0.625 0.5
vt 0.625 0.515625
vt 0.609375 0.515625
vt 0.609375 0.5
vt 0.515625 0.375
vt 0.515625 0.390625
vt 0.5 0.390625
vt 0.5 0.375
vt 0.625 0.5
vt 0.609375 0.5
vt 0.609375 0.484375
vt 0.625 0.484375
vn 1 0 0
vn -1 0 0
vn 0 1 0
vn 0 -1 0
vn 0 0 1
vn 0 0 -1
f 222/881/245 221/882/245 223/883/245
f 222/881/245 223/883/245 224/884/245
f 227/885/246 225/886/246 226/887/246
f 227/885/246 226/887/246 228/888/246
f 225/889/247 221/890/247 222/891/247
f 225/889/247 222/891/247 226/892/247
f 224/893/248 223/894/248 227/895/248
f 224/893/248 227/895/248 228/896/248
f 223/897/249 221/898/249 225/899/249
f 223/897/249 225/899/249 227/900/249
f 226/901/250 222/902/250 224/903/250
f 226/901/250 224/903/250 228/904/250
o mesh
v 0.015625 0.4765625 0.046875
v 0.03125 0.4765625 -0.015625
v 0.015625 0.4609375 0.046875
v 0.03125 0.4609375 -0.015625
v -0.015625 0.4765625 0.046875
v -0.03125 0.4765625 -0.015625
v -0.015625 0.4609375 0.046875
v -0.03125 0.4609375 -0.015625
vt 0.578125 0.390625
vt 0.5625 0.390625
vt 0.5625 0.375
vt 0.578125 0.375
vt 0.625 0.421875
vt 0.625 0.4375
vt 0.609375 0.4375
vt 0.609375 0.421875
vt 0.61328125 0.46875
vt 0.62109375 0.46875
vt 0.625 0.484375
vt 0.609375 0.484375
vt 0.625 0.453125
vt 0.62109375 0.46875
vt 0.61328125 0.46875
vt 0.609375 0.453125
vt 0.5625 0.375
vt 0.5625 0.390625
vt 0.546875 0.390625
vt 0.546875 0.375
vt 0.625 0.453125
vt 0.609375 0.453125
vt 0.609375 0.4375
vt 0.625 0.4375
vn 0.970142500145332 0 0.242535625036333
vn -0.970142500145332 0 0.242535625036333
vn 0 1 0
vn 0 -1 0
vn 0 0 1
vn 0 0 -1
f 230/905/251 229/906/251 231/907/251
f 230/905/251 231/907/251 232/908/251
f 235/909/252 233/910/252 234/911/252
f 235/909/252 234/911/252 236/912/252
f 233/913/253 229/914/253 230/915/253
f 233/913/253 230/915/253 234/916/253
f 232/917/254 231/918/254 235/919/254
f 232/917/254 235/919/254 236/920/254
f 231/921/255 229/922/255 233/923/255
f 231/921/255 233/923/255 235/924/255
f 234/925/256 230/926/256 232/927/256
f 234/925/256 232/927/256 236/928/256
o mesh
v -0.015625 0.4765625 -0.171875
v -0.03125 0.4765625 -0.109375
v -0.015625 0.4609375 -0.171875
v -0.03125 0.4609375 -0.109375
v 0.015625 0.4765625 -0.171875
v 0.03125 0.4765625 -0.109375
v 0.015625 0.4609375 -0.171875
v 0.03125 0.4609375 -0.109375
vt 0.625 0.390625
vt 0.609375 0.390625
vt 0.609375 0.375
vt 0.625 0.375
vt 0.015625 0.359375
vt 0.015625 0.375
vt 0 0.375
vt 0 0.359375
vt 0.58203125 0.375
vt 0.58984375 0.375
vt 0.59375 0.390625
vt 0.578125 0.390625
vt 0.625 0.40625
vt 0.62109375 0.421875
vt 0.61328125 0.421875
vt 0.609375 0.40625
vt 0.609375 0.375
vt 0.609375 0.390625
vt 0.59375 0.390625
vt 0.59375 0.375
vt 0.625 0.40625
vt 0.609375 0.40625
vt 0.609375 0.390625
vt 0.625 0.390625
vn -0.970142500145332 0 -0.242535625036333
vn 0.970142500145332 0 -0.242535625036333
vn 0 1 0
vn 0 -1 0
vn 0 0 -1
vn 0 0 1
f 238/929/257 237/930/257 239/931/257
f 238/929/257 239/931/257 240/932/257
f 243/933/258 241/934/258 242/935/258
f 243/933/258 242/935/258 244/936/258
f 241/937/259 237/938/259 238/939/259
f 241/937/259 238/939/259 242/940/259
f 240/941/260 239/942/260 243/943/260
f 240/941/260 243/943/260 244/944/260
f 239/945/261 237/946/261 241/947/261
f 239/945/261 241/947/261 243/948/261
f 242/949/262 238/950/262 240/951/262
f 242/949/262 240/951/262 244/952/262
o mesh
v -0.109375 0.4765625 -0.046875
v -0.046875 0.4765625 -0.03125
v -0.109375 0.4609375 -0.046875
v -0.046875 0.4609375 -0.03125
v -0.109375 0.4765625 -0.078125
v -0.046875 0.4765625 -0.09375
v -0.109375 0.4609375 -0.078125
v -0.046875 0.4609375 -0.09375
vt 0.640625 0.96875
vt 0.625 0.96875
vt 0.625 0.953125
vt 0.640625 0.953125
vt 0.0625 0.359375
vt 0.0625 0.375
vt 0.046875 0.375
vt 0.046875 0.359375
vt 0.62890625 0.984375
vt 0.63671875 0.984375
vt 0.640625 1
vt 0.625 1
vt 0.03125 0.359375
vt 0.02734375 0.375
vt 0.01953125 0.375
vt 0.015625 0.359375
vt 0.640625 0.96875
vt 0.640625 0.984375
vt 0.625 0.984375
vt 0.625 0.96875
vt 0.046875 0.375
vt 0.03125 0.375
vt 0.03125 0.359375
vt 0.046875 0.359375
vn -0.242535625036333 0 0.970142500145332
vn -0.242535625036333 0 -0.970142500145332
vn 0 1 0
vn 0 -1 0
vn -1 0 0
vn 1 0 0
f 246/953/263 245/954/263 247/955/263
f 246/953/263 247/955/263 248/956/263
f 251/957/264 249/958/264 250/959/264
f 251/957/264 250/959/264 252/960/264
f 249/961/265 245/962/265 246/963/265
f 249/961/265 246/963/265 250/964/265
f 248/965/266 247/966/266 251/967/266
f 248/965/266 251/967/266 252/968/266
f 247/969/267 245/970/267 249/971/267
f 247/969/267 249/971/267 251/972/267
f 250/973/268 246/974/268 248/975/268
f 250/973/268 248/975/268 252/976/268
o mesh
v 0.109375 0.4765625 -0.078125
v 0.046875 0.4765625 -0.09375
v 0.109375 0.4609375 -0.078125
v 0.046875 0.4609375 -0.09375
v 0.109375 0.4765625 -0.046875
v 0.046875 0.4765625 -0.03125
v 0.109375 0.4609375 -0.046875
v 0.046875 0.4609375 -0.03125
vt 0.109375 0.375
vt 0.09375 0.375
vt 0.09375 0.359375
vt 0.109375 0.359375
vt 0.125 0.359375
vt 0.125 0.375
vt 0.109375 0.375
vt 0.109375 0.359375
vt 0.62890625 0.9375
vt 0.63671875 0.9375
vt 0.640625 0.953125
vt 0.625 0.953125
vt 0.078125 0.359375
vt 0.07421875 0.375
vt 0.06640625 0.375
vt 0.0625 0.359375
vt 0.09375 0.359375
vt 0.09375 0.375
vt 0.078125 0.375
vt 0.078125 0.359375
vt 0.640625 0.921875
vt 0.625 0.921875
vt 0.625 0.90625
vt 0.640625 0.90625
vn 0.242535625036333 0 -0.970142500145332
vn 0.242535625036333 0 0.970142500145332
vn 0 1 0
vn 0 -1 0
vn 1 0 0
vn -1 0 0
f 254/977/269 253/978/269 255/979/269
f 254/977/269 255/979/269 256/980/269
f 259/981/270 257/982/270 258/983/270
f 259/981/270 258/983/270 260/984/270
f 257/985/271 253/986/271 254/987/271
f 257/985/271 254/987/271 258/988/271
f 256/989/272 255/990/272 259/991/272
f 256/989/272 259/991/272 260/992/272
f 255/993/273 253/994/273 257/995/273
f 255/993/273 257/995/273 259/996/273
f 258/997/274 254/998/274 256/999/274
f 258/997/274 256/999/274 260/1000/274
o tube
v 0.077665 0.061404375 -0.125
v 0.077665 0.061404375 0.25
v 0.04523125 -0.007393125 -0.125
v 0.04523125 -0.007393125 0.25
v -0.077665 0.061404375 -0.125
v -0.077665 0.061404375 0.25
v -0.04523125 -0.007393125 -0.125
v -0.04523125 -0.007393125 0.25
v -0.1875 -0.03509875 -0.125
v -0.1875 -0.03509875 0.25
v -0.10919875 -0.063595625 -0.125
v -0.10919875 -0.063595625 0.25
v 0.1875 -0.03509875 -0.125
v 0.1875 -0.03509875 0.25
v 0.10919875 -0.063595625 -0.125
v 0.10919875 -0.063595625 0.25
vt 0.515625 0.46875
vt 0.546875 0.46875
vt 0.546875 0.5625
vt 0.515625 0.5625
vt 0.21875 0.453125
vt 0.203125 0.453125
vt 0.203125 0.359375
vt 0.21875 0.359375
vt 0.3863078125 0.470325
vt 0.3636921875 0.470325
vt 0.355584375 0.453125
vt 0.394415625 0.453125
vt 0.488165625 0.484375
vt 0.449334375 0.484375
vt 0.4574421875 0.467175
vt 0.4800578125 0.467175
vt 0.125 0.359375
vt 0.15625 0.359375
vt 0.15625 0.453125
vt 0.125 0.453125
vt 0.453125 0.453125
vt 0.4375 0.453125
vt 0.4375 0.359375
vt 0.453125 0.359375
vt 0.3636921875 0.470325
vt 0.3477 0.484375
vt 0.328125 0.4772515625
vt 0.355584375 0.453125
vt 0.449334375 0.484375
vt 0.421875 0.4602484375
vt 0.44145 0.453125
vt 0.4574421875 0.467175
vt 0.515625 0.375
vt 0.546875 0.375
vt 0.546875 0.46875
vt 0.515625 0.46875
vt 0.4375 0.453125
vt 0.421875 0.453125
vt 0.421875 0.359375
vt 0.4375 0.359375
vt 0.4023 0.484375
vt 0.3863078125 0.470325
vt 0.394415625 0.453125
vt 0.421875 0.4772515625
vt 0.515625 0.4602484375
vt 0.488165625 0.484375
vt 0.4800578125 0.467175
vt 0.49605 0.453125
vt 0.390625 0.453125
vt 0.390625 0.359375
vt 0.40625 0.359375
vt 0.40625 0.453125
vt 0.40625 0.453125
vt 0.40625 0.359375
vt 0.421875 0.359375
vt 0.421875 0.453125
vn 0 1 0
vn 0 -1 0
vn 0 0 -1
vn 0 0 1
vn -0.660043048046663 0.751227778190657 0
vn 0.66003930318337 -0.751231068482402 0
vn 0 0 -1
vn 0 0 1
vn 0.660043048046663 0.751227778190657 0
vn -0.66003930318337 -0.751231068482402 0
vn 0 0 -1
vn 0 0 1
vn 0.341994187292493 -0.939702067603423 0
vn -0.341994187292493 -0.939702067603423 0
f 261/1001/275 265/1002/275 266/1003/275
f 261/1001/275 266/1003/275 262/1004/275
f 264/1005/276 268/1006/276 267/1007/276
f 264/1005/276 267/1007/276 263/1008/276
f 263/1009/277 267/1010/277 265/1011/277
f 263/1009/277 265/1011/277 261/1012/277
f 262/1013/278 266/1014/278 268/1015/278
f 262/1013/278 268/1015/278 264/1016/278
f 265/1017/279 269/1018/279 270/1019/279
f 265/1017/279 270/1019/279 266/1020/279
f 268/1021/280 272/1022/280 271/1023/280
f 268/1021/280 271/1023/280 267/1024/280
f 267/1025/281 271/1026/281 269/1027/281
f 267/1025/281 269/1027/281 265/1028/281
f 266/1029/282 270/1030/282 272/1031/282
f 266/1029/282 272/1031/282 268/1032/282
f 273/1033/283 261/1034/283 262/1035/283
f 273/1033/283 262/1035/283 274/1036/283
f 276/1037/284 264/1038/284 263/1039/284
f 276/1037/284 263/1039/284 275/1040/284
f 275/1041/285 263/1042/285 261/1043/285
f 275/1041/285 261/1043/285 273/1044/285
f 274/1045/286 262/1046/286 264/1047/286
f 274/1045/286 264/1047/286 276/1048/286
f 276/1049/287 275/1050/287 273/1051/287
f 276/1049/287 273/1051/287 274/1052/287
f 270/1053/288 269/1054/288 271/1055/288
f 270/1053/288 271/1055/288 272/1056/288
o cylinder
v 0 0.5859375 0.3125
v 0 0.6015625 0.3125
v 0.051776875 0.5859375 0.4375
v 0.051776875 0.6015625 0.4375
v 0.125 0.5859375 0.364276875
v 0.125 0.6015625 0.364276875
v 0.125 0.5859375 0.260723125
v 0.125 0.6015625 0.260723125
v 0.051776875 0.5859375 0.1875
v 0.051776875 0.6015625 0.1875
v -0.051776875 0.5859375 0.1875
v -0.051776875 0.6015625 0.1875
v -0.125 0.5859375 0.260723125
v -0.125 0.6015625 0.260723125
v -0.125 0.5859375 0.364276875
v -0.125 0.6015625 0.364276875
v -0.051776875 0.5859375 0.4375
v -0.051776875 0.6015625 0.4375
vt 0.0625 0.46606875
vt 0.04419375 0.484375
vt 0.03125 0.453125
vt 0.609375 0.71875
vt 0.640625 0.71875
vt 0.640625 0.734375
vt 0.609375 0.734375
vt 0.10669375 0.421875
vt 0.125 0.44018125
vt 0.09375 0.453125
vt 0.0625 0.44018125
vt 0.0625 0.46606875
vt 0.03125 0.453125
vt 0.609375 0.84375
vt 0.640625 0.84375
vt 0.640625 0.859375
vt 0.609375 0.859375
vt 0.125 0.44018125
vt 0.125 0.46606875
vt 0.09375 0.453125
vt 0.04419375 0.421875
vt 0.0625 0.44018125
vt 0.03125 0.453125
vt 0.609375 0.734375
vt 0.640625 0.734375
vt 0.640625 0.75
vt 0.609375 0.75
vt 0.125 0.46606875
vt 0.10669375 0.484375
vt 0.09375 0.453125
vt 0.01830625 0.421875
vt 0.04419375 0.421875
vt 0.03125 0.453125
vt 0.25 0.375
vt 0.28125 0.375
vt 0.28125 0.390625
vt 0.25 0.390625
vt 0.10669375 0.484375
vt 0.08080625 0.484375
vt 0.09375 0.453125
vt 0 0.44018125
vt 0.01830625 0.421875
vt 0.03125 0.453125
vt 0.3125 0.375
vt 0.34375 0.375
vt 0.34375 0.390625
vt 0.3125 0.390625
vt 0.08080625 0.484375
vt 0.0625 0.46606875
vt 0.09375 0.453125
vt 0 0.46606875
vt 0 0.44018125
vt 0.03125 0.453125
vt 0.15625 0.375
vt 0.1875 0.375
vt 0.1875 0.390625
vt 0.15625 0.390625
vt 0.0625 0.46606875
vt 0.0625 0.44018125
vt 0.09375 0.453125
vt 0.01830625 0.484375
vt 0 0.46606875
vt 0.03125 0.453125
vt 0.28125 0.375
vt 0.3125 0.375
vt 0.3125 0.390625
vt 0.28125 0.390625
vt 0.0625 0.44018125
vt 0.08080625 0.421875
vt 0.09375 0.453125
vt 0.04419375 0.484375
vt 0.01830625 0.484375
vt 0.03125 0.453125
vt 0.21875 0.375
vt 0.25 0.375
vt 0.25 0.390625
vt 0.21875 0.390625
vt 0.08080625 0.421875
vt 0.10669375 0.421875
vt 0.09375 0.453125
vn 0 -1 0
vn 0.707106781186548 0 0.707106781186548
vn 0 1 0
vn 0 -1 0
vn 1 0 0
vn 0 1 0
vn 0 -1 0
vn 0.707106781186548 0 -0.707106781186548
vn 0 1 0
vn 0 -1 0
vn 0 0 -1
vn 0 1 0
vn 0 -1 0
vn -0.707106781186548 0 -0.707106781186548
vn 0 1 0
vn 0 -1 0
vn -1 0 0
vn 0 1 0
vn 0 -1 0
vn -0.707106781186548 0 0.707106781186548
vn 0 1 0
vn 0 -1 0
vn 0 0 1
vn 0 1 0
f 281/1057/289 279/1058/289 277/1059/289
f 279/1060/290 281/1061/290 282/1062/290
f 279/1060/290 282/1062/290 280/1063/290
f 280/1064/291 282/1065/291 278/1066/291
f 283/1067/292 281/1068/292 277/1069/292
f 281/1070/293 283/1071/293 284/1072/293
f 281/1070/293 284/1072/293 282/1073/293
f 282/1074/294 284/1075/294 278/1076/294
f 285/1077/295 283/1078/295 277/1079/295
f 283/1080/296 285/1081/296 286/1082/296
f 283/1080/296 286/1082/296 284/1083/296
f 284/1084/297 286/1085/297 278/1086/297
f 287/1087/298 285/1088/298 277/1089/298
f 285/1090/299 287/1091/299 288/1092/299
f 285/1090/299 288/1092/299 286/1093/299
f 286/1094/300 288/1095/300 278/1096/300
f 289/1097/301 287/1098/301 277/1099/301
f 287/1100/302 289/1101/302 290/1102/302
f 287/1100/302 290/1102/302 288/1103/302
f 288/1104/303 290/1105/303 278/1106/303
f 291/1107/304 289/1108/304 277/1109/304
f 289/1110/305 291/1111/305 292/1112/305
f 289/1110/305 292/1112/305 290/1113/305
f 290/1114/306 292/1115/306 278/1116/306
f 293/1117/307 291/1118/307 277/1119/307
f 291/1120/308 293/1121/308 294/1122/308
f 291/1120/308 294/1122/308 292/1123/308
f 292/1124/309 294/1125/309 278/1126/309
f 279/1127/310 293/1128/310 277/1129/310
f 293/1130/311 279/1131/311 280/1132/311
f 293/1130/311 280/1132/311 294/1133/311
f 294/1134/312 280/1135/312 278/1136/312
