# Made in Blockbench 5.1.6
mtllib GPNVG_Mount.mtl

o shroud
v 0.296875 0.421875 0.046875
v 0.296875 0.421875 -0.046875
v 0.296875 0.265625 0.0625
v 0.296875 0.265625 -0.0625
v 0.203125 0.421875 0.046875
v 0.203125 0.421875 -0.046875
v 0.203125 0.265625 0.0625
v 0.203125 0.265625 -0.0625
v 0.296875 0.34375 0.109375
v 0.203125 0.34375 0.109375
v 0.296875 0.34375 -0.109375
v 0.203125 0.34375 -0.109375
v 0.296875 0.3046875 0.109375
v 0.203125 0.3046875 0.109375
v 0.296875 0.3029600576858476 -0.109375
v 0.203125 0.3046875 -0.109375
v 0.296875 0.265625 -0.0625
vt 0.265625 0.75
vt 0.265625 0.8125
vt 0.21875 0.8125
vt 0.21875 0.75
vt 0.109375 0.9609375
vt 0.078125 1
vt 0.03125 1
vt 0.359375 0.71875
vt 0.3125 0.71875
vt 0.3125 0.671875
vt 0.359375 0.671875
vt 0.109375 0.9609375
vt 0.03125 1
vt 0 0.9609375
vt 0.453125 0.96875
vt 0.453125 1
vt 0.40625 1
vt 0.40625 0.96875
vt 0.296875 0.234375
vt 0.296875 0.25
vt 0.25 0.25
vt 0.25 0.234375
vt 0.109375 0.94140625
vt 0.109375 0.9609375
vt 0 0.9609375
vt 0.6875 0.5
vt 0.6875 0.47960625
vt 0.734375 0.48046875
vt 0.734375 0.5
vt 0.40625 0.936959375
vt 0.40625 0.90625
vt 0.453125 0.90625
vt 0.453125 0.9375
vt 0.0234375 0.921875
vt 0.0859375 0.921875
vt 0.109375 0.94140625
vt 0 0.94140625
vt 0.109375 0.94140625
vt 0 0.9609375
vt 0 0.94140625
vt 0.109375 0.81554375
vt 0.109375 0.8359375
vt 0 0.8359375
vt 0 0.81640625
vt 0.0234375 0.796875
vt 0.0859375 0.796875
vt 0.3125 0.765625
vt 0.359375 0.765625
vt 0.359375 0.8125
vt 0.3125 0.8125
vt 0.046875 0.609375
vt 0.046875 0.65625
vt 0 0.65625
vt 0 0.609375
vt 0.078125 0.875
vt 0.03125 0.875
vt 0 0.8359375
vt 0.109375 0.8359375
vt 0 0.8359375
vt 0.0859375 0.796875
vt 0.109375 0.81554375
vt 0 0.8359375
vt 0 0.81640625
vt 0.0859375 0.796875
vt 0.0859375 0.796875
vn 0 -1 0
vn -1 0 0
vn 0 0.6246950475544243 -0.7808688094430304
vn -1 0 0
vn 0 -0.7682212795973759 0.6401843996644799
vn 0 0 1
vn -1 0 0
vn 0 0 -1
vn 0 -0.782209647507297 -0.6230153026583778
vn -1 0 0
vn -1 0 0
vn 1 0 0
vn 1 0 0
vn 0 1 0
vn 0 0.6246950475544243 0.7808688094430304
vn 1 0 0
vn 1 0 0
vn 1 0 0
usemtl m_b40c15b3-1af4-fd46-e4c9-fe51480fdaff
f 4/1/1 3/2/1 7/3/1 8/4/1
f 10/5/2 5/6/2 6/7/2
f 6/8/3 2/9/3 11/10/3 12/11/3
f 10/12/4 6/13/4 12/14/4
f 3/15/5 13/16/5 14/17/5 7/18/5
f 13/19/6 9/20/6 10/21/6 14/22/6
f 14/23/7 10/24/7 12/25/7
f 11/26/8 15/27/8 16/28/8 12/29/8
f 15/30/9 4/31/9 8/32/9 16/33/9
f 8/34/10 7/35/10 14/36/10 16/37/10
f 14/38/11 12/39/11 16/40/11
f 15/41/12 11/42/12 9/43/12
f 13/44/13 3/45/13 4/46/13
f 5/47/14 1/48/14 2/49/14 6/50/14
f 9/51/15 1/52/15 5/53/15 10/54/15
f 2/55/16 1/56/16 9/57/16 11/58/16
f 9/59/17 17/60/17 15/61/17
f 9/62/18 13/63/18 4/64/18 17/65/18
o shroud_connect
v 0.3125 0.375 0.0625
v 0.3125 0.375 -0.0625
v 0.3125 0.28125 0.0625
v 0.3125 0.28125 -0.0625
v 0.1875 0.375 0.0625
v 0.1875 0.375 -0.0625
v 0.1875 0.28125 0.0625
v 0.1875 0.28125 -0.0625
vt 0.0625 0.75
vt 0 0.75
vt 0 0.703125
vt 0.0625 0.703125
vt 0.28125 0.671875
vt 0.28125 0.71875
vt 0.21875 0.71875
vt 0.21875 0.671875
vt 0.21875 0.9375
vt 0.28125 0.9375
vt 0.28125 1
vt 0.21875 1
vt 0.28125 0.84375
vt 0.28125 0.90625
vt 0.21875 0.90625
vt 0.21875 0.84375
vt 0.375 0.953125
vt 0.375 1
vt 0.3125 1
vt 0.3125 0.953125
vt 0.375 0.90625
vt 0.3125 0.90625
vt 0.3125 0.859375
vt 0.375 0.859375
vn 1 0 0
vn -1 0 0
vn 0 1 0
vn 0 -1 0
vn 0 0 1
vn 0 0 -1
usemtl m_b40c15b3-1af4-fd46-e4c9-fe51480fdaff
f 19/66/19 18/67/19 20/68/19 21/69/19
f 24/70/20 22/71/20 23/72/20 25/73/20
f 22/74/21 18/75/21 19/76/21 23/77/21
f 21/78/22 20/79/22 24/80/22 25/81/22
f 20/82/23 18/83/23 22/84/23 24/85/23
f 23/86/24 19/87/24 21/88/24 25/89/24
o swing_guard_left
v 0.34375 0.3125 -0.0309375
v 0.34375 0.3125 -0.0465625
v 0.34375 0.28125 -0.0309375
v 0.34375 0.28125 -0.0465625
v 0.3125 0.3125 -0.0309375
v 0.3125 0.3125 -0.0465625
v 0.3125 0.28125 -0.0309375
v 0.3125 0.28125 -0.0465625
vt 0.828125 0.75
vt 0.8125 0.75
vt 0.8125 0.734375
vt 0.828125 0.734375
vt 0.328125 0.171875
vt 0.328125 0.1875
vt 0.3125 0.1875
vt 0.3125 0.171875
vt 0.8125 0.671875
vt 0.828125 0.671875
vt 0.828125 0.6875
vt 0.8125 0.6875
vt 0.390625 0.171875
vt 0.390625 0.1875
vt 0.375 0.1875
vt 0.375 0.171875
vt 0.828125 0.609375
vt 0.828125 0.625
vt 0.8125 0.625
vt 0.8125 0.609375
vt 0.453125 0.1875
vt 0.4375 0.1875
vt 0.4375 0.171875
vt 0.453125 0.171875
vn 1 0 0
vn -1 0 0
vn 0 1 0
vn 0 -1 0
vn 0 0 1
vn 0 0 -1
usemtl m_b40c15b3-1af4-fd46-e4c9-fe51480fdaff
f 27/90/25 26/91/25 28/92/25 29/93/25
f 32/94/26 30/95/26 31/96/26 33/97/26
f 30/98/27 26/99/27 27/100/27 31/101/27
f 29/102/28 28/103/28 32/104/28 33/105/28
f 28/106/29 26/107/29 30/108/29 32/109/29
f 31/110/30 27/111/30 29/112/30 33/113/30
o swing_guard_right
v 0.34375 0.3125 0.0465625
v 0.34375 0.3125 0.0309375
v 0.34375 0.28125 0.0465625
v 0.34375 0.28125 0.0309375
v 0.3125 0.3125 0.0465625
v 0.3125 0.3125 0.0309375
v 0.3125 0.28125 0.0465625
v 0.3125 0.28125 0.0309375
vt 0.828125 0.5625
vt 0.8125 0.5625
vt 0.8125 0.546875
vt 0.828125 0.546875
vt 0.828125 0.421875
vt 0.828125 0.4375
vt 0.8125 0.4375
vt 0.8125 0.421875
vt 0.59375 0.171875
vt 0.609375 0.171875
vt 0.609375 0.1875
vt 0.59375 0.1875
vt 0.828125 0.359375
vt 0.828125 0.375
vt 0.8125 0.375
vt 0.8125 0.359375
vt 0.671875 0.171875
vt 0.671875 0.1875
vt 0.65625 0.1875
vt 0.65625 0.171875
vt 0.828125 0.3125
vt 0.8125 0.3125
vt 0.8125 0.296875
vt 0.828125 0.296875
vn 1 0 0
vn -1 0 0
vn 0 1 0
vn 0 -1 0
vn 0 0 1
vn 0 0 -1
usemtl m_b40c15b3-1af4-fd46-e4c9-fe51480fdaff
f 35/114/31 34/115/31 36/116/31 37/117/31
f 40/118/32 38/119/32 39/120/32 41/121/32
f 38/122/33 34/123/33 35/124/33 39/125/33
f 37/126/34 36/127/34 40/128/34 41/129/34
f 36/130/35 34/131/35 38/132/35 40/133/35
f 39/134/36 35/135/36 37/136/36 41/137/36
o swing
v 0.328125 0.296875 -0.03125
v 0.328125 0.296875 0.03125
v 0.3323117061317363 0.28125 -0.03125
v 0.3323117061317363 0.28125 0.03125
v 0.3395632938682637 0.2854367061317363 -0.03125
v 0.3395632938682637 0.28543670613173633 0.03125
v 0.34375 0.2926882938682637 -0.03125
v 0.34375 0.2926882938682637 0.03125
v 0.34375 0.30106170613173633 -0.03125
v 0.34375 0.30106170613173633 0.03125
v 0.3395632938682637 0.3083132938682637 -0.03125
v 0.3395632938682637 0.3083132938682637 0.03125
v 0.3323117061317363 0.3125 -0.03125
v 0.3323117061317363 0.3125 0.03125
v 0.3239382938682637 0.3125 -0.03125
v 0.3239382938682637 0.3125 0.03125
v 0.3166867061317363 0.3083132938682637 -0.03125
v 0.3166867061317363 0.3083132938682637 0.03125
v 0.3125 0.3010617061317363 -0.03125
v 0.3125 0.30106170613173633 0.03125
v 0.3125 0.2926882938682637 -0.03125
v 0.3125 0.2926882938682637 0.03125
v 0.3166867061317363 0.28543670613173633 -0.03125
v 0.3166867061317363 0.28543670613173633 0.03125
v 0.3239382938682637 0.28125 -0.03125
v 0.3239382938682637 0.28125 0.03125
vt 0.82603125 0.81040625
vt 0.82240625 0.8125
vt 0.8203125 0.8046875
vt 0.07240625 0.15625
vt 0.07659375 0.15625
vt 0.07659375 0.1875
vt 0.07240625 0.1875
vt 0.25990625 0.171875
vt 0.26353125 0.17396875
vt 0.2578125 0.1796875
vt 0.828125 0.80678125
vt 0.82603125 0.81040625
vt 0.8203125 0.8046875
vt 0.78278125 0.21875
vt 0.78696875 0.21875
vt 0.78696875 0.25
vt 0.78278125 0.25
vt 0.26353125 0.17396875
vt 0.265625 0.17759375
vt 0.2578125 0.1796875
vt 0.828125 0.80259375
vt 0.828125 0.80678125
vt 0.8203125 0.8046875
vt 0.78696875 0.21875
vt 0.79115625 0.21875
vt 0.79115625 0.25
vt 0.78696875 0.25
vt 0.265625 0.17759375
vt 0.265625 0.18178125
vt 0.2578125 0.1796875
vt 0.82603125 0.79896875
vt 0.828125 0.80259375
vt 0.8203125 0.8046875
vt 0.79115625 0.21875
vt 0.79534375 0.21875
vt 0.79534375 0.25
vt 0.79115625 0.25
vt 0.265625 0.18178125
vt 0.26353125 0.18540625
vt 0.2578125 0.1796875
vt 0.82240625 0.796875
vt 0.82603125 0.79896875
vt 0.8203125 0.8046875
vt 0.81403125 0.84375
vt 0.81821875 0.84375
vt 0.81821875 0.875
vt 0.81403125 0.875
vt 0.26353125 0.18540625
vt 0.25990625 0.1875
vt 0.2578125 0.1796875
vt 0.81821875 0.796875
vt 0.82240625 0.796875
vt 0.8203125 0.8046875
vt 0.81821875 0.84375
vt 0.82240625 0.84375
vt 0.82240625 0.875
vt 0.81821875 0.875
vt 0.25990625 0.1875
vt 0.25571875 0.1875
vt 0.2578125 0.1796875
vt 0.81459375 0.79896875
vt 0.81821875 0.796875
vt 0.8203125 0.8046875
vt 0.82240625 0.84375
vt 0.82659375 0.84375
vt 0.82659375 0.875
vt 0.82240625 0.875
vt 0.25571875 0.1875
vt 0.25209375 0.18540625
vt 0.2578125 0.1796875
vt 0.8125 0.80259375
vt 0.81459375 0.79896875
vt 0.8203125 0.8046875
vt 0.81403125 0.90625
vt 0.81821875 0.90625
vt 0.81821875 0.9375
vt 0.81403125 0.9375
vt 0.25209375 0.18540625
vt 0.25 0.18178125
vt 0.2578125 0.1796875
vt 0.8125 0.80678125
vt 0.8125 0.80259375
vt 0.8203125 0.8046875
vt 0.81821875 0.90625
vt 0.82240625 0.90625
vt 0.82240625 0.9375
vt 0.81821875 0.9375
vt 0.25 0.18178125
vt 0.25 0.17759375
vt 0.2578125 0.1796875
vt 0.81459375 0.81040625
vt 0.8125 0.80678125
vt 0.8203125 0.8046875
vt 0.82240625 0.90625
vt 0.82659375 0.90625
vt 0.82659375 0.9375
vt 0.82240625 0.9375
vt 0.25 0.17759375
vt 0.25209375 0.17396875
vt 0.2578125 0.1796875
vt 0.81821875 0.8125
vt 0.81459375 0.81040625
vt 0.8203125 0.8046875
vt 0.06403125 0.15625
vt 0.06821875 0.15625
vt 0.06821875 0.1875
vt 0.06403125 0.1875
vt 0.25209375 0.17396875
vt 0.25571875 0.171875
vt 0.2578125 0.1796875
vt 0.82240625 0.8125
vt 0.81821875 0.8125
vt 0.8203125 0.8046875
vt 0.06821875 0.15625
vt 0.07240625 0.15625
vt 0.07240625 0.1875
vt 0.06821875 0.1875
vt 0.25571875 0.171875
vt 0.25990625 0.171875
vt 0.2578125 0.1796875
vn 0 -2.220446049250313e-16 -1
vn 0.4999999999999999 -0.8660254037844387 1.922962686383564e-16
vn 0 2.220446049250313e-16 1
vn 0 -2.220446049250313e-16 -1
vn 0.8660254037844388 -0.5000000000000001 1.1102230246251568e-16
vn 0 2.220446049250313e-16 1
vn 0 -2.220446049250313e-16 -1
vn 1 0 0
vn 0 2.220446049250313e-16 1
vn 0 -2.220446049250313e-16 -1
vn 0.8660254037844387 0.4999999999999999 -1.1102230246251563e-16
vn 0 2.220446049250313e-16 1
vn 0 -2.220446049250313e-16 -1
vn 0.5 0.8660254037844387 -1.922962686383564e-16
vn 0 2.220446049250313e-16 1
vn 0 -2.220446049250313e-16 -1
vn 2.0717043678169394e-16 1 -2.220446049250313e-16
vn 0 2.220446049250313e-16 1
vn 0 -2.220446049250313e-16 -1
vn -0.4999999999999994 0.866025403784439 -1.9229626863835648e-16
vn 0 2.220446049250313e-16 1
vn 0 -2.220446049250313e-16 -1
vn -0.8660254037844389 0.4999999999999996 -1.1102230246251557e-16
vn 0 2.220446049250313e-16 1
vn 0 -2.220446049250313e-16 -1
vn -1 2.0717043678169412e-16 -4.6001077787337445e-32
vn 0 2.220446049250313e-16 1
vn 0 -2.220446049250313e-16 -1
vn -0.8660254037844392 -0.4999999999999995 1.1102230246251554e-16
vn 0 2.220446049250313e-16 1
vn 0 -2.220446049250313e-16 -1
vn -0.4999999999999999 -0.8660254037844387 1.922962686383564e-16
vn 0 2.220446049250313e-16 1
vn 0 -2.220446049250313e-16 -1
vn 0 -1 2.220446049250313e-16
vn 0 2.220446049250313e-16 1
usemtl m_b40c15b3-1af4-fd46-e4c9-fe51480fdaff
f 46/138/37 44/139/37 42/140/37
f 44/141/38 46/142/38 47/143/38 45/144/38
f 45/145/39 47/146/39 43/147/39
f 48/148/40 46/149/40 42/150/40
f 46/151/41 48/152/41 49/153/41 47/154/41
f 47/155/42 49/156/42 43/157/42
f 50/158/43 48/159/43 42/160/43
f 48/161/44 50/162/44 51/163/44 49/164/44
f 49/165/45 51/166/45 43/167/45
f 52/168/46 50/169/46 42/170/46
f 50/171/47 52/172/47 53/173/47 51/174/47
f 51/175/48 53/176/48 43/177/48
f 54/178/49 52/179/49 42/180/49
f 52/181/50 54/182/50 55/183/50 53/184/50
f 53/185/51 55/186/51 43/187/51
f 56/188/52 54/189/52 42/190/52
f 54/191/53 56/192/53 57/193/53 55/194/53
f 55/195/54 57/196/54 43/197/54
f 58/198/55 56/199/55 42/200/55
f 56/201/56 58/202/56 59/203/56 57/204/56
f 57/205/57 59/206/57 43/207/57
f 60/208/58 58/209/58 42/210/58
f 58/211/59 60/212/59 61/213/59 59/214/59
f 59/215/60 61/216/60 43/217/60
f 62/218/61 60/219/61 42/220/61
f 60/221/62 62/222/62 63/223/62 61/224/62
f 61/225/63 63/226/63 43/227/63
f 64/228/64 62/229/64 42/230/64
f 62/231/65 64/232/65 65/233/65 63/234/65
f 63/235/66 65/236/66 43/237/66
f 66/238/67 64/239/67 42/240/67
f 64/241/68 66/242/68 67/243/68 65/244/68
f 65/245/69 67/246/69 43/247/69
f 44/248/70 66/249/70 42/250/70
f 66/251/71 44/252/71 45/253/71 67/254/71
f 67/255/72 45/256/72 43/257/72
o big_screw
v 0.3046875 0.34375 -8.673617379884035e-19
v 0.3203125 0.34375 -8.673617379884035e-19
v 0.3046875 0.3340418696318806 0.023437499999999997
v 0.3203125 0.3340418696318806 0.023437499999999997
v 0.3046875 0.3203125 0.009708130368119416
v 0.3203125 0.3203125 0.009708130368119416
v 0.3046875 0.3203125 -0.009708130368119416
v 0.3203125 0.3203125 -0.009708130368119416
v 0.3046875 0.3340418696318806 -0.023437499999999997
v 0.3203125 0.3340418696318806 -0.023437499999999997
v 0.3046875 0.3534581303681194 -0.023437500000000003
v 0.3203125 0.3534581303681194 -0.023437500000000003
v 0.3046875 0.3671875 -0.009708130368119431
v 0.3203125 0.3671875 -0.009708130368119431
v 0.3046875 0.3671875 0.009708130368119421
v 0.3203125 0.3671875 0.009708130368119421
v 0.3046875 0.35345813036811946 0.023437499999999993
v 0.3203125 0.35345813036811946 0.023437499999999993
vt 0.77734375 0.735321875
vt 0.770478125 0.7421875
vt 0.765625 0.73046875
vt 0.5 0.140625
vt 0.515625 0.140625
vt 0.515625 0.15625
vt 0.5 0.15625
vt 0.770478125 0.6640625
vt 0.77734375 0.670928125
vt 0.765625 0.67578125
vt 0.77734375 0.725615625
vt 0.77734375 0.735321875
vt 0.765625 0.73046875
vt 0.71875 0.171875
vt 0.734375 0.171875
vt 0.734375 0.1875
vt 0.71875 0.1875
vt 0.77734375 0.670928125
vt 0.77734375 0.680634375
vt 0.765625 0.67578125
vt 0.770478125 0.71875
vt 0.77734375 0.725615625
vt 0.765625 0.73046875
vt 0.125 0.140625
vt 0.140625 0.140625
vt 0.140625 0.15625
vt 0.125 0.15625
vt 0.77734375 0.680634375
vt 0.770478125 0.6875
vt 0.765625 0.67578125
vt 0.760771875 0.71875
vt 0.770478125 0.71875
vt 0.765625 0.73046875
vt 0.84375 0.984375
vt 0.859375 0.984375
vt 0.859375 1
vt 0.84375 1
vt 0.770478125 0.6875
vt 0.760771875 0.6875
vt 0.765625 0.67578125
vt 0.75390625 0.725615625
vt 0.760771875 0.71875
vt 0.765625 0.73046875
vt 0.84375 0.484375
vt 0.859375 0.484375
vt 0.859375 0.5
vt 0.84375 0.5
vt 0.760771875 0.6875
vt 0.75390625 0.680634375
vt 0.765625 0.67578125
vt 0.75390625 0.735321875
vt 0.75390625 0.725615625
vt 0.765625 0.73046875
vt 0 0.140625
vt 0.015625 0.140625
vt 0.015625 0.15625
vt 0 0.15625
vt 0.75390625 0.680634375
vt 0.75390625 0.670928125
vt 0.765625 0.67578125
vt 0.760771875 0.7421875
vt 0.75390625 0.735321875
vt 0.765625 0.73046875
vt 0.1875 0.140625
vt 0.203125 0.140625
vt 0.203125 0.15625
vt 0.1875 0.15625
vt 0.75390625 0.670928125
vt 0.760771875 0.6640625
vt 0.765625 0.67578125
vt 0.770478125 0.7421875
vt 0.760771875 0.7421875
vt 0.765625 0.73046875
vt 0.78125 0.171875
vt 0.796875 0.171875
vt 0.796875 0.1875
vt 0.78125 0.1875
vt 0.760771875 0.6640625
vt 0.770478125 0.6640625
vt 0.765625 0.67578125
vn -1 -2.220446049250313e-16 0
vn 1.570092458683775e-16 -0.7071067811865475 0.7071067811865477
vn 1 2.220446049250313e-16 0
vn -1 -2.220446049250313e-16 0
vn 2.220446049250313e-16 -1 0
vn 1 2.220446049250313e-16 0
vn -1 -2.220446049250313e-16 0
vn 1.5700924586837752e-16 -0.7071067811865476 -0.7071067811865476
vn 1 2.220446049250313e-16 0
vn -1 -2.220446049250313e-16 0
vn 7.935327900877013e-32 -3.573753977745242e-16 -1
vn 1 2.220446049250313e-16 0
vn -1 -2.220446049250313e-16 0
vn -1.5700924586837747e-16 0.7071067811865474 -0.7071067811865478
vn 1 2.220446049250313e-16 0
vn -1 -2.220446049250313e-16 0
vn -2.220446049250313e-16 1 -3.5737539777452383e-16
vn 1 2.220446049250313e-16 0
vn -1 -2.220446049250313e-16 0
vn -1.5700924586837752e-16 0.7071067811865476 0.7071067811865475
vn 1 2.220446049250313e-16 0
vn -1 -2.220446049250313e-16 0
vn -3.967663950438504e-32 1.7868769888726197e-16 1
vn 1 2.220446049250313e-16 0
usemtl m_b40c15b3-1af4-fd46-e4c9-fe51480fdaff
f 72/258/73 70/259/73 68/260/73
f 70/261/74 72/262/74 73/263/74 71/264/74
f 71/265/75 73/266/75 69/267/75
f 74/268/76 72/269/76 68/270/76
f 72/271/77 74/272/77 75/273/77 73/274/77
f 73/275/78 75/276/78 69/277/78
f 76/278/79 74/279/79 68/280/79
f 74/281/80 76/282/80 77/283/80 75/284/80
f 75/285/81 77/286/81 69/287/81
f 78/288/82 76/289/82 68/290/82
f 76/291/83 78/292/83 79/293/83 77/294/83
f 77/295/84 79/296/84 69/297/84
f 80/298/85 78/299/85 68/300/85
f 78/301/86 80/302/86 81/303/86 79/304/86
f 79/305/87 81/306/87 69/307/87
f 82/308/88 80/309/88 68/310/88
f 80/311/89 82/312/89 83/313/89 81/314/89
f 81/315/90 83/316/90 69/317/90
f 84/318/91 82/319/91 68/320/91
f 82/321/92 84/322/92 85/323/92 83/324/92
f 83/325/93 85/326/93 69/327/93
f 70/328/94 84/329/94 68/330/94
f 84/331/95 70/332/95 71/333/95 85/334/95
f 85/335/96 71/336/96 69/337/96