# Made in Blockbench 5.1.6
mtllib GPNVG_Flip.mtl

o bridge
v 0.4078125 0.2734375 0.140625
v 0.4078125 0.2734375 -0.140625
v 0.4078125 0.2578125 0.140625
v 0.4078125 0.2578125 -0.140625
v 0.3609375 0.2734375 0.140625
v 0.3609375 0.2734375 -0.140625
v 0.3609375 0.2578125 0.140625
v 0.3609375 0.2578125 -0.140625
vt 0.234375 0.609375
vt 0.234375 0.625
vt 0.09375 0.625
vt 0.09375 0.609375
vt 0.421875 0.625
vt 0.28125 0.625
vt 0.28125 0.609375
vt 0.421875 0.609375
vt 0.375 0.25
vt 0.34375 0.25
vt 0.34375 0.234375
vt 0.375 0.234375
vt 0.15625 0.859375
vt 0.1875 0.859375
vt 0.1875 1
vt 0.15625 1
vt 0.1875 0.671875
vt 0.1875 0.8125
vt 0.15625 0.8125
vt 0.15625 0.671875
vt 0.78125 0.609375
vt 0.78125 0.625
vt 0.75 0.625
vt 0.75 0.609375
vn -1 0 0
vn 1 0 0
vn 0 0 -1
vn 0 1 0
vn 0 -1 0
vn 0 0 1
usemtl m_b40c15b3-1af4-fd46-e4c9-fe51480fdaff
f 7/1/1 5/2/1 6/3/1
f 7/1/1 6/3/1 8/4/1
f 2/5/2 1/6/2 3/7/2
f 2/5/2 3/7/2 4/8/2
f 6/9/3 2/10/3 4/11/3
f 6/9/3 4/11/3 8/12/3
f 5/13/4 1/14/4 2/15/4
f 5/13/4 2/15/4 6/16/4
f 4/17/5 3/18/5 7/19/5
f 4/17/5 7/19/5 8/20/5
f 3/21/6 1/22/6 5/23/6
f 3/21/6 5/23/6 7/24/6
o connector_right
v 0.4078125 0.2503125 0.1328125
v 0.4078125 0.2503125 0.0546875
v 0.4078125 0.2034375 0.1328125
v 0.4078125 0.2034375 0.0546875
v 0.3609375 0.2503125 0.1328125
v 0.3609375 0.2503125 0.0546875
v 0.3609375 0.2034375 0.1328125
v 0.3609375 0.2034375 0.0546875
vt 0.578125 0.84375
vt 0.578125 0.875
vt 0.53125 0.875
vt 0.53125 0.84375
vt 0.578125 0.8125
vt 0.53125 0.8125
vt 0.53125 0.78125
vt 0.578125 0.78125
vt 0.71875 0.8125
vt 0.6875 0.8125
vt 0.6875 0.78125
vt 0.71875 0.78125
vt 0.53125 0.703125
vt 0.5625 0.703125
vt 0.5625 0.75
vt 0.53125 0.75
vt 0.03125 0.390625
vt 0.03125 0.4375
vt 0 0.4375
vt 0 0.390625
vt 0.28125 0.28125
vt 0.28125 0.3125
vt 0.25 0.3125
vt 0.25 0.28125
vn -1 0 0
vn 1 0 0
vn 0 0 -1
vn 0 1 0
vn 0 -1 0
vn 0 0 1
usemtl m_b40c15b3-1af4-fd46-e4c9-fe51480fdaff
f 15/25/7 13/26/7 14/27/7
f 15/25/7 14/27/7 16/28/7
f 10/29/8 9/30/8 11/31/8
f 10/29/8 11/31/8 12/32/8
f 14/33/9 10/34/9 12/35/9
f 14/33/9 12/35/9 16/36/9
f 13/37/10 9/38/10 10/39/10
f 13/37/10 10/39/10 14/40/10
f 12/41/11 11/42/11 15/43/11
f 12/41/11 15/43/11 16/44/11
f 11/45/12 9/46/12 13/47/12
f 11/45/12 13/47/12 15/48/12
o connector_right_top
v 0.4078125 0.2578125 0.109375
v 0.4078125 0.2578125 0.078125
v 0.4078125 0.2503125 0.109375
v 0.4078125 0.2503125 0.078125
v 0.3609375 0.2578125 0.109375
v 0.3609375 0.2578125 0.078125
v 0.3609375 0.2503125 0.109375
v 0.3609375 0.2503125 0.078125
vt 0.890625 0.921875
vt 0.890625 0.9375
vt 0.875 0.9375
vt 0.875 0.921875
vt 0.890625 0.875
vt 0.875 0.875
vt 0.875 0.859375
vt 0.890625 0.859375
vt 0.78125 0.3125
vt 0.75 0.3125
vt 0.75 0.296875
vt 0.78125 0.296875
vt 0.71875 0.234375
vt 0.75 0.234375
vt 0.75 0.25
vt 0.71875 0.25
vt 0.03125 0.203125
vt 0.03125 0.21875
vt 0 0.21875
vt 0 0.203125
vt 0.8125 0.984375
vt 0.8125 1
vt 0.78125 1
vt 0.78125 0.984375
vn -1 0 0
vn 1 0 0
vn 0 0 -1
vn 0 1 0
vn 0 -1 0
vn 0 0 1
usemtl m_b40c15b3-1af4-fd46-e4c9-fe51480fdaff
f 23/49/13 21/50/13 22/51/13
f 23/49/13 22/51/13 24/52/13
f 18/53/14 17/54/14 19/55/14
f 18/53/14 19/55/14 20/56/14
f 22/57/15 18/58/15 20/59/15
f 22/57/15 20/59/15 24/60/15
f 21/61/16 17/62/16 18/63/16
f 21/61/16 18/63/16 22/64/16
f 20/65/17 19/66/17 23/67/17
f 20/65/17 23/67/17 24/68/17
f 19/69/18 17/70/18 21/71/18
f 19/69/18 21/71/18 23/72/18
o connector_left_top
v 0.4078125 0.2578125 -0.078125
v 0.4078125 0.2578125 -0.109375
v 0.4078125 0.2503125 -0.078125
v 0.4078125 0.2503125 -0.109375
v 0.3609375 0.2578125 -0.078125
v 0.3609375 0.2578125 -0.109375
v 0.3609375 0.2503125 -0.078125
v 0.3609375 0.2503125 -0.109375
vt 0.890625 0.796875
vt 0.890625 0.8125
vt 0.875 0.8125
vt 0.875 0.796875
vt 0.265625 0.125
vt 0.25 0.125
vt 0.25 0.109375
vt 0.265625 0.109375
vt 0.15625 0.21875
vt 0.125 0.21875
vt 0.125 0.203125
vt 0.15625 0.203125
vt 0.1875 0.203125
vt 0.21875 0.203125
vt 0.21875 0.21875
vt 0.1875 0.21875
vt 0.8125 0.484375
vt 0.8125 0.5
vt 0.78125 0.5
vt 0.78125 0.484375
vt 0.5625 0.203125
vt 0.5625 0.21875
vt 0.53125 0.21875
vt 0.53125 0.203125
vn -1 0 0
vn 1 0 0
vn 0 0 -1
vn 0 1 0
vn 0 -1 0
vn 0 0 1
usemtl m_b40c15b3-1af4-fd46-e4c9-fe51480fdaff
f 31/73/19 29/74/19 30/75/19
f 31/73/19 30/75/19 32/76/19
f 26/77/20 25/78/20 27/79/20
f 26/77/20 27/79/20 28/80/20
f 30/81/21 26/82/21 28/83/21
f 30/81/21 28/83/21 32/84/21
f 29/85/22 25/86/22 26/87/22
f 29/85/22 26/87/22 30/88/22
f 28/89/23 27/90/23 31/91/23
f 28/89/23 31/91/23 32/92/23
f 27/93/24 25/94/24 29/95/24
f 27/93/24 29/95/24 31/96/24
o connector_left
v 0.4078125 0.2503125 -0.0546875
v 0.4078125 0.2503125 -0.1328125
v 0.4078125 0.2034375 -0.0546875
v 0.4078125 0.2034375 -0.1328125
v 0.3609375 0.2503125 -0.0546875
v 0.3609375 0.2503125 -0.1328125
v 0.3609375 0.2034375 -0.0546875
v 0.3609375 0.2034375 -0.1328125
vt 0.609375 0.96875
vt 0.609375 1
vt 0.5625 1
vt 0.5625 0.96875
vt 0.109375 0.4375
vt 0.0625 0.4375
vt 0.0625 0.40625
vt 0.109375 0.40625
vt 0.71875 0.75
vt 0.6875 0.75
vt 0.6875 0.71875
vt 0.71875 0.71875
vt 0.15625 0.390625
vt 0.1875 0.390625
vt 0.1875 0.4375
vt 0.15625 0.4375
vt 0.25 0.390625
vt 0.25 0.4375
vt 0.21875 0.4375
vt 0.21875 0.390625
vt 0.34375 0.28125
vt 0.34375 0.3125
vt 0.3125 0.3125
vt 0.3125 0.28125
vn -1 0 0
vn 1 0 0
vn 0 0 -1
vn 0 1 0
vn 0 -1 0
vn 0 0 1
usemtl m_b40c15b3-1af4-fd46-e4c9-fe51480fdaff
f 39/97/25 37/98/25 38/99/25
f 39/97/25 38/99/25 40/100/25
f 34/101/26 33/102/26 35/103/26
f 34/101/26 35/103/26 36/104/26
f 38/105/27 34/106/27 36/107/27
f 38/105/27 36/107/27 40/108/27
f 37/109/28 33/110/28 34/111/28
f 37/109/28 34/111/28 38/112/28
f 36/113/29 35/114/29 39/115/29
f 36/113/29 39/115/29 40/116/29
f 35/117/30 33/118/30 37/119/30
f 35/117/30 37/119/30 39/120/30
o tube_left_outer
v 0.473322118 0.21875 -0.175706821
v 0.303389408 0.21875 -0.096465897
v 0.486528939 0.231694174 -0.147384702
v 0.316596229 0.231694174 -0.068143778
v 0.478792563 0.25 -0.163975415
v 0.308859853 0.25 -0.084734491
v 0.467851674 0.25 -0.187438226
v 0.297918964 0.25 -0.108197302
v 0.460115298 0.231694174 -0.204028939
v 0.290182588 0.231694174 -0.124788015
v 0.460115298 0.205805826 -0.204028939
v 0.290182588 0.205805826 -0.124788015
v 0.467851674 0.1875 -0.187438226
v 0.297918964 0.1875 -0.108197302
v 0.478792563 0.1875 -0.163975415
v 0.308859853 0.1875 -0.084734491
v 0.486528939 0.205805826 -0.147384702
v 0.316596229 0.205805826 -0.068143778
vt 0.71875 0.678346875
vt 0.709596875 0.6875
vt 0.703125 0.671875
vt 0.625 0.84375
vt 0.640625 0.84375
vt 0.640625 0.9375
vt 0.625 0.9375
vt 0.397096875 0.28125
vt 0.40625 0.290403125
vt 0.390625 0.296875
vt 0.71875 0.665403125
vt 0.71875 0.678346875
vt 0.703125 0.671875
vt 0.28125 0.34375
vt 0.296875 0.34375
vt 0.296875 0.4375
vt 0.28125 0.4375
vt 0.40625 0.290403125
vt 0.40625 0.303346875
vt 0.390625 0.296875
vt 0.709596875 0.65625
vt 0.71875 0.665403125
vt 0.703125 0.671875
vt 0.5625 0.3125
vt 0.578125 0.3125
vt 0.578125 0.40625
vt 0.5625 0.40625
vt 0.40625 0.303346875
vt 0.397096875 0.3125
vt 0.390625 0.296875
vt 0.696653125 0.65625
vt 0.709596875 0.65625
vt 0.703125 0.671875
vt 0.40625 0.34375
vt 0.421875 0.34375
vt 0.421875 0.4375
vt 0.40625 0.4375
vt 0.397096875 0.3125
vt 0.384153125 0.3125
vt 0.390625 0.296875
vt 0.6875 0.665403125
vt 0.696653125 0.65625
vt 0.703125 0.671875
vt 0.0625 0.28125
vt 0.078125 0.28125
vt 0.078125 0.375
vt 0.0625 0.375
vt 0.384153125 0.3125
vt 0.375 0.303346875
vt 0.390625 0.296875
vt 0.6875 0.678346875
vt 0.6875 0.665403125
vt 0.703125 0.671875
vt 0.34375 0.34375
vt 0.359375 0.34375
vt 0.359375 0.4375
vt 0.34375 0.4375
vt 0.375 0.303346875
vt 0.375 0.290403125
vt 0.390625 0.296875
vt 0.696653125 0.6875
vt 0.6875 0.678346875
vt 0.703125 0.671875
vt 0.5625 0.4375
vt 0.578125 0.4375
vt 0.578125 0.53125
vt 0.5625 0.53125
vt 0.375 0.290403125
vt 0.384153125 0.28125
vt 0.390625 0.296875
vt 0.709596875 0.6875
vt 0.696653125 0.6875
vt 0.703125 0.671875
vt 0.5625 0.5625
vt 0.578125 0.5625
vt 0.578125 0.65625
vt 0.5625 0.65625
vt 0.384153125 0.28125
vt 0.397096875 0.28125
vt 0.390625 0.296875
vn 0.906307787 0 -0.422618262
vn 0.298836239 0.707106781 0.640856382
vn -0.906307787 0 0.422618262
vn 0.906307787 0 -0.422618262
vn 0 1 0
vn -0.906307787 0 0.422618262
vn 0.906307787 0 -0.422618262
vn -0.298836239 0.707106781 -0.640856382
vn -0.906307787 0 0.422618262
vn 0.906307787 0 -0.422618262
vn -0.422618262 0 -0.906307787
vn -0.906307787 0 0.422618262
vn 0.906307787 0 -0.422618262
vn -0.298836239 -0.707106781 -0.640856382
vn -0.906307787 0 0.422618262
vn 0.906307787 0 -0.422618262
vn 0 -1 0
vn -0.906307787 0 0.422618262
vn 0.906307787 0 -0.422618262
vn 0.298836239 -0.707106781 0.640856382
vn -0.906307787 0 0.422618262
vn 0.906307787 0 -0.422618262
vn 0.422618262 0 0.906307787
vn -0.906307787 0 0.422618262
usemtl m_b40c15b3-1af4-fd46-e4c9-fe51480fdaff
f 45/121/31 43/122/31 41/123/31
f 43/124/32 45/125/32 46/126/32
f 43/124/32 46/126/32 44/127/32
f 44/128/33 46/129/33 42/130/33
f 47/131/34 45/132/34 41/133/34
f 45/134/35 47/135/35 48/136/35
f 45/134/35 48/136/35 46/137/35
f 46/138/36 48/139/36 42/140/36
f 49/141/37 47/142/37 41/143/37
f 47/144/38 49/145/38 50/146/38
f 47/144/38 50/146/38 48/147/38
f 48/148/39 50/149/39 42/150/39
f 51/151/40 49/152/40 41/153/40
f 49/154/41 51/155/41 52/156/41
f 49/154/41 52/156/41 50/157/41
f 50/158/42 52/159/42 42/160/42
f 53/161/43 51/162/43 41/163/43
f 51/164/44 53/165/44 54/166/44
f 51/164/44 54/166/44 52/167/44
f 52/168/45 54/169/45 42/170/45
f 55/171/46 53/172/46 41/173/46
f 53/174/47 55/175/47 56/176/47
f 53/174/47 56/176/47 54/177/47
f 54/178/48 56/179/48 42/180/48
f 57/181/49 55/182/49 41/183/49
f 55/184/50 57/185/50 58/186/50
f 55/184/50 58/186/50 56/187/50
f 56/188/51 58/189/51 42/190/51
f 43/191/52 57/192/52 41/193/52
f 57/194/53 43/195/53 44/196/53
f 57/194/53 44/196/53 58/197/53
f 58/198/54 44/199/54 42/200/54
o tube_left_inner
v 0.5 0.21875 -0.05
v 0.3125 0.21875 -0.05
v 0.5 0.231694174 -0.01875
v 0.3125 0.231694174 -0.01875
v 0.5 0.25 -0.037055826
v 0.3125 0.25 -0.037055826
v 0.5 0.25 -0.062944174
v 0.3125 0.25 -0.062944174
v 0.5 0.231694174 -0.08125
v 0.3125 0.231694174 -0.08125
v 0.5 0.205805826 -0.08125
v 0.3125 0.205805826 -0.08125
v 0.5 0.1875 -0.062944174
v 0.3125 0.1875 -0.062944174
v 0.5 0.1875 -0.037055826
v 0.3125 0.1875 -0.037055826
v 0.5 0.205805826 -0.01875
v 0.3125 0.205805826 -0.01875
vt 0.59375 0.928346875
vt 0.584596875 0.9375
vt 0.578125 0.921875
vt 0.25 0.46875
vt 0.265625 0.46875
vt 0.265625 0.5625
vt 0.25 0.5625
vt 0.678346875 0.96875
vt 0.6875 0.977903125
vt 0.671875 0.984375
vt 0.59375 0.915403125
vt 0.59375 0.928346875
vt 0.578125 0.921875
vt 0.09375 0.65625
vt 0.109375 0.65625
vt 0.109375 0.75
vt 0.09375 0.75
vt 0.6875 0.977903125
vt 0.6875 0.990846875
vt 0.671875 0.984375
vt 0.584596875 0.90625
vt 0.59375 0.915403125
vt 0.578125 0.921875
vt 0.125 0.46875
vt 0.140625 0.46875
vt 0.140625 0.5625
vt 0.125 0.5625
vt 0.6875 0.990846875
vt 0.678346875 1
vt 0.671875 0.984375
vt 0.571653125 0.90625
vt 0.584596875 0.90625
vt 0.578125 0.921875
vt 0 0.46875
vt 0.015625 0.46875
vt 0.015625 0.5625
vt 0 0.5625
vt 0.678346875 1
vt 0.665403125 1
vt 0.671875 0.984375
vt 0.5625 0.915403125
vt 0.571653125 0.90625
vt 0.578125 0.921875
vt 0.1875 0.46875
vt 0.203125 0.46875
vt 0.203125 0.5625
vt 0.1875 0.5625
vt 0.665403125 1
vt 0.65625 0.990846875
vt 0.671875 0.984375
vt 0.5625 0.928346875
vt 0.5625 0.915403125
vt 0.578125 0.921875
vt 0.40625 0.78125
vt 0.421875 0.78125
vt 0.421875 0.875
vt 0.40625 0.875
vt 0.65625 0.990846875
vt 0.65625 0.977903125
vt 0.671875 0.984375
vt 0.571653125 0.9375
vt 0.5625 0.928346875
vt 0.578125 0.921875
vt 0.0625 0.46875
vt 0.078125 0.46875
vt 0.078125 0.5625
vt 0.0625 0.5625
vt 0.65625 0.977903125
vt 0.665403125 0.96875
vt 0.671875 0.984375
vt 0.584596875 0.9375
vt 0.571653125 0.9375
vt 0.578125 0.921875
vt 0.40625 0.65625
vt 0.421875 0.65625
vt 0.421875 0.75
vt 0.40625 0.75
vt 0.665403125 0.96875
vt 0.678346875 0.96875
vt 0.671875 0.984375
vn 1 0 0
vn 0 0.707106781 0.707106781
vn -1 0 0
vn 1 0 0
vn 0 1 0
vn -1 0 0
vn 1 0 0
vn 0 0.707106781 -0.707106781
vn -1 0 0
vn 1 0 0
vn 0 0 -1
vn -1 0 0
vn 1 0 0
vn 0 -0.707106781 -0.707106781
vn -1 0 0
vn 1 0 0
vn 0 -1 0
vn -1 0 0
vn 1 0 0
vn 0 -0.707106781 0.707106781
vn -1 0 0
vn 1 0 0
vn 0 0 1
vn -1 0 0
usemtl m_b40c15b3-1af4-fd46-e4c9-fe51480fdaff
f 63/201/55 61/202/55 59/203/55
f 61/204/56 63/205/56 64/206/56
f 61/204/56 64/206/56 62/207/56
f 62/208/57 64/209/57 60/210/57
f 65/211/58 63/212/58 59/213/58
f 63/214/59 65/215/59 66/216/59
f 63/214/59 66/216/59 64/217/59
f 64/218/60 66/219/60 60/220/60
f 67/221/61 65/222/61 59/223/61
f 65/224/62 67/225/62 68/226/62
f 65/224/62 68/226/62 66/227/62
f 66/228/63 68/229/63 60/230/63
f 69/231/64 67/232/64 59/233/64
f 67/234/65 69/235/65 70/236/65
f 67/234/65 70/236/65 68/237/65
f 68/238/66 70/239/66 60/240/66
f 71/241/67 69/242/67 59/243/67
f 69/244/68 71/245/68 72/246/68
f 69/244/68 72/246/68 70/247/68
f 70/248/69 72/249/69 60/250/69
f 73/251/70 71/252/70 59/253/70
f 71/254/71 73/255/71 74/256/71
f 71/254/71 74/256/71 72/257/71
f 72/258/72 74/259/72 60/260/72
f 75/261/73 73/262/73 59/263/73
f 73/264/74 75/265/74 76/266/74
f 73/264/74 76/266/74 74/267/74
f 74/268/75 76/269/75 60/270/75
f 61/271/76 75/272/76 59/273/76
f 75/274/77 61/275/77 62/276/77
f 75/274/77 62/276/77 76/277/77
f 76/278/78 62/279/78 60/280/78
o tube_right_inner
v 0.5 0.21875 0.05
v 0.3125 0.21875 0.05
v 0.5 0.231694174 0.08125
v 0.3125 0.231694174 0.08125
v 0.5 0.25 0.062944174
v 0.3125 0.25 0.062944174
v 0.5 0.25 0.037055826
v 0.3125 0.25 0.037055826
v 0.5 0.231694174 0.01875
v 0.3125 0.231694174 0.01875
v 0.5 0.205805826 0.01875
v 0.3125 0.205805826 0.01875
v 0.5 0.1875 0.037055826
v 0.3125 0.1875 0.037055826
v 0.5 0.1875 0.062944174
v 0.3125 0.1875 0.062944174
v 0.5 0.205805826 0.08125
v 0.3125 0.205805826 0.08125
vt 0.71875 0.928346875
vt 0.709596875 0.9375
vt 0.703125 0.921875
vt 0.5 0.40625
vt 0.515625 0.40625
vt 0.515625 0.5
vt 0.5 0.5
vt 0.709596875 0.84375
vt 0.71875 0.852903125
vt 0.703125 0.859375
vt 0.71875 0.915403125
vt 0.71875 0.928346875
vt 0.703125 0.921875
vt 0.3125 0.46875
vt 0.328125 0.46875
vt 0.328125 0.5625
vt 0.3125 0.5625
vt 0.71875 0.852903125
vt 0.71875 0.865846875
vt 0.703125 0.859375
vt 0.709596875 0.90625
vt 0.71875 0.915403125
vt 0.703125 0.921875
vt 0.5 0.90625
vt 0.515625 0.90625
vt 0.515625 1
vt 0.5 1
vt 0.71875 0.865846875
vt 0.709596875 0.875
vt 0.703125 0.859375
vt 0.696653125 0.90625
vt 0.709596875 0.90625
vt 0.703125 0.921875
vt 0.46875 0.78125
vt 0.484375 0.78125
vt 0.484375 0.875
vt 0.46875 0.875
vt 0.709596875 0.875
vt 0.696653125 0.875
vt 0.703125 0.859375
vt 0.6875 0.915403125
vt 0.696653125 0.90625
vt 0.703125 0.921875
vt 0.5 0.53125
vt 0.515625 0.53125
vt 0.515625 0.625
vt 0.5 0.625
vt 0.696653125 0.875
vt 0.6875 0.865846875
vt 0.703125 0.859375
vt 0.6875 0.928346875
vt 0.6875 0.915403125
vt 0.703125 0.921875
vt 0.375 0.46875
vt 0.390625 0.46875
vt 0.390625 0.5625
vt 0.375 0.5625
vt 0.6875 0.865846875
vt 0.6875 0.852903125
vt 0.703125 0.859375
vt 0.696653125 0.9375
vt 0.6875 0.928346875
vt 0.703125 0.921875
vt 0.46875 0.65625
vt 0.484375 0.65625
vt 0.484375 0.75
vt 0.46875 0.75
vt 0.6875 0.852903125
vt 0.696653125 0.84375
vt 0.703125 0.859375
vt 0.709596875 0.9375
vt 0.696653125 0.9375
vt 0.703125 0.921875
vt 0.4375 0.46875
vt 0.453125 0.46875
vt 0.453125 0.5625
vt 0.4375 0.5625
vt 0.696653125 0.84375
vt 0.709596875 0.84375
vt 0.703125 0.859375
vn 1 0 0
vn 0 0.707106781 0.707106781
vn -1 0 0
vn 1 0 0
vn 0 1 0
vn -1 0 0
vn 1 0 0
vn 0 0.707106781 -0.707106781
vn -1 0 0
vn 1 0 0
vn 0 0 -1
vn -1 0 0
vn 1 0 0
vn 0 -0.707106781 -0.707106781
vn -1 0 0
vn 1 0 0
vn 0 -1 0
vn -1 0 0
vn 1 0 0
vn 0 -0.707106781 0.707106781
vn -1 0 0
vn 1 0 0
vn 0 0 1
vn -1 0 0
usemtl m_b40c15b3-1af4-fd46-e4c9-fe51480fdaff
f 81/281/79 79/282/79 77/283/79
f 79/284/80 81/285/80 82/286/80
f 79/284/80 82/286/80 80/287/80
f 80/288/81 82/289/81 78/290/81
f 83/291/82 81/292/82 77/293/82
f 81/294/83 83/295/83 84/296/83
f 81/294/83 84/296/83 82/297/83
f 82/298/84 84/299/84 78/300/84
f 85/301/85 83/302/85 77/303/85
f 83/304/86 85/305/86 86/306/86
f 83/304/86 86/306/86 84/307/86
f 84/308/87 86/309/87 78/310/87
f 87/311/88 85/312/88 77/313/88
f 85/314/89 87/315/89 88/316/89
f 85/314/89 88/316/89 86/317/89
f 86/318/90 88/319/90 78/320/90
f 89/321/91 87/322/91 77/323/91
f 87/324/92 89/325/92 90/326/92
f 87/324/92 90/326/92 88/327/92
f 88/328/93 90/329/93 78/330/93
f 91/331/94 89/332/94 77/333/94
f 89/334/95 91/335/95 92/336/95
f 89/334/95 92/336/95 90/337/95
f 90/338/96 92/339/96 78/340/96
f 93/341/97 91/342/97 77/343/97
f 91/344/98 93/345/98 94/346/98
f 91/344/98 94/346/98 92/347/98
f 92/348/99 94/349/99 78/350/99
f 79/351/100 93/352/100 77/353/100
f 93/354/101 79/355/101 80/356/101
f 93/354/101 80/356/101 94/357/101
f 94/358/102 80/359/102 78/360/102
o glass_right_inner
v 0.504375 0.21875 0.05
v 0.498125 0.21875 0.05
v 0.504375 0.230399756 0.078125
v 0.498125 0.230399756 0.078125
v 0.504375 0.246875 0.061649756
v 0.498125 0.246875 0.061649756
v 0.504375 0.246875 0.038350244
v 0.498125 0.246875 0.038350244
v 0.504375 0.230399756 0.021875
v 0.498125 0.230399756 0.021875
v 0.504375 0.207100244 0.021875
v 0.498125 0.207100244 0.021875
v 0.504375 0.190625 0.038350244
v 0.498125 0.190625 0.038350244
v 0.504375 0.190625 0.061649756
v 0.498125 0.190625 0.061649756
v 0.504375 0.207100244 0.078125
v 0.498125 0.207100244 0.078125
vt 0.7171875 0.4261375
vt 0.70895 0.434375
vt 0.703125 0.4203125
vt 0.875 0.609375
vt 0.890625 0.609375
vt 0.890625 0.625
vt 0.875 0.625
vt 0.64645 0.284375
vt 0.6546875 0.2926125
vt 0.640625 0.2984375
vt 0.7171875 0.4144875
vt 0.7171875 0.4261375
vt 0.703125 0.4203125
vt 0.875 0.734375
vt 0.890625 0.734375
vt 0.890625 0.75
vt 0.875 0.75
vt 0.6546875 0.2926125
vt 0.6546875 0.3042625
vt 0.640625 0.2984375
vt 0.70895 0.40625
vt 0.7171875 0.4144875
vt 0.703125 0.4203125
vt 0.875 0.546875
vt 0.890625 0.546875
vt 0.890625 0.5625
vt 0.875 0.5625
vt 0.6546875 0.3042625
vt 0.64645 0.3125
vt 0.640625 0.2984375
vt 0.6973 0.40625
vt 0.70895 0.40625
vt 0.703125 0.4203125
vt 0.875 0.671875
vt 0.890625 0.671875
vt 0.890625 0.6875
vt 0.875 0.6875
vt 0.64645 0.3125
vt 0.6348 0.3125
vt 0.640625 0.2984375
vt 0.6890625 0.4144875
vt 0.6973 0.40625
vt 0.703125 0.4203125
vt 0.5625 0.109375
vt 0.578125 0.109375
vt 0.578125 0.125
vt 0.5625 0.125
vt 0.6348 0.3125
vt 0.6265625 0.3042625
vt 0.640625 0.2984375
vt 0.6890625 0.4261375
vt 0.6890625 0.4144875
vt 0.703125 0.4203125
vt 0.375 0.109375
vt 0.390625 0.109375
vt 0.390625 0.125
vt 0.375 0.125
vt 0.6265625 0.3042625
vt 0.6265625 0.2926125
vt 0.640625 0.2984375
vt 0.6973 0.434375
vt 0.6890625 0.4261375
vt 0.703125 0.4203125
vt 0.4375 0.109375
vt 0.453125 0.109375
vt 0.453125 0.125
vt 0.4375 0.125
vt 0.6265625 0.2926125
vt 0.6348 0.284375
vt 0.640625 0.2984375
vt 0.70895 0.434375
vt 0.6973 0.434375
vt 0.703125 0.4203125
vt 0.3125 0.109375
vt 0.328125 0.109375
vt 0.328125 0.125
vt 0.3125 0.125
vt 0.6348 0.284375
vt 0.64645 0.284375
vt 0.640625 0.2984375
vn 1 0 0
vn 0 0.707106781 0.707106781
vn -1 0 0
vn 1 0 0
vn 0 1 0
vn -1 0 0
vn 1 0 0
vn 0 0.707106781 -0.707106781
vn -1 0 0
vn 1 0 0
vn 0 0 -1
vn -1 0 0
vn 1 0 0
vn 0 -0.707106781 -0.707106781
vn -1 0 0
vn 1 0 0
vn 0 -1 0
vn -1 0 0
vn 1 0 0
vn 0 -0.707106781 0.707106781
vn -1 0 0
vn 1 0 0
vn 0 0 1
vn -1 0 0
usemtl m_b40c15b3-1af4-fd46-e4c9-fe51480fdaff
f 99/361/103 97/362/103 95/363/103
f 97/364/104 99/365/104 100/366/104
f 97/364/104 100/366/104 98/367/104
f 98/368/105 100/369/105 96/370/105
f 101/371/106 99/372/106 95/373/106
f 99/374/107 101/375/107 102/376/107
f 99/374/107 102/376/107 100/377/107
f 100/378/108 102/379/108 96/380/108
f 103/381/109 101/382/109 95/383/109
f 101/384/110 103/385/110 104/386/110
f 101/384/110 104/386/110 102/387/110
f 102/388/111 104/389/111 96/390/111
f 105/391/112 103/392/112 95/393/112
f 103/394/113 105/395/113 106/396/113
f 103/394/113 106/396/113 104/397/113
f 104/398/114 106/399/114 96/400/114
f 107/401/115 105/402/115 95/403/115
f 105/404/116 107/405/116 108/406/116
f 105/404/116 108/406/116 106/407/116
f 106/408/117 108/409/117 96/410/117
f 109/411/118 107/412/118 95/413/118
f 107/414/119 109/415/119 110/416/119
f 107/414/119 110/416/119 108/417/119
f 108/418/120 110/419/120 96/420/120
f 111/421/121 109/422/121 95/423/121
f 109/424/122 111/425/122 112/426/122
f 109/424/122 112/426/122 110/427/122
f 110/428/123 112/429/123 96/430/123
f 97/431/124 111/432/124 95/433/124
f 111/434/125 97/435/125 98/436/125
f 111/434/125 98/436/125 112/437/125
f 112/438/126 98/439/126 96/440/126
o glass_right_outer
v 0.477437975 0.21875 0.178032041
v 0.471773551 0.21875 0.175390677
v 0.465551837 0.230399756 0.203521947
v 0.459887413 0.230399756 0.200880583
v 0.472514575 0.246875 0.188590306
v 0.466850152 0.246875 0.185948942
v 0.482361375 0.246875 0.167473776
v 0.476696951 0.246875 0.164832412
v 0.489324114 0.230399756 0.152542134
v 0.48365969 0.230399756 0.14990077
v 0.489324114 0.207100244 0.152542134
v 0.48365969 0.207100244 0.14990077
v 0.482361375 0.190625 0.167473776
v 0.476696951 0.190625 0.164832412
v 0.472514575 0.190625 0.188590306
v 0.466850152 0.190625 0.185948942
v 0.465551837 0.207100244 0.203521947
v 0.459887413 0.207100244 0.200880583
vt 0.7484375 0.9886375
vt 0.7402 0.996875
vt 0.734375 0.9828125
vt 0.5 0.078125
vt 0.515625 0.078125
vt 0.515625 0.09375
vt 0.5 0.09375
vt 0.5527 0.253125
vt 0.5609375 0.2613625
vt 0.546875 0.2671875
vt 0.7484375 0.9769875
vt 0.7484375 0.9886375
vt 0.734375 0.9828125
vt 0 0.078125
vt 0.015625 0.078125
vt 0.015625 0.09375
vt 0 0.09375
vt 0.5609375 0.2613625
vt 0.5609375 0.2730125
vt 0.546875 0.2671875
vt 0.7402 0.96875
vt 0.7484375 0.9769875
vt 0.734375 0.9828125
vt 0.90625 0.234375
vt 0.921875 0.234375
vt 0.921875 0.25
vt 0.90625 0.25
vt 0.5609375 0.2730125
vt 0.5527 0.28125
vt 0.546875 0.2671875
vt 0.72855 0.96875
vt 0.7402 0.96875
vt 0.734375 0.9828125
vt 0.125 0.078125
vt 0.140625 0.078125
vt 0.140625 0.09375
vt 0.125 0.09375
vt 0.5527 0.28125
vt 0.54105 0.28125
vt 0.546875 0.2671875
vt 0.7203125 0.9769875
vt 0.72855 0.96875
vt 0.734375 0.9828125
vt 0.90625 0.171875
vt 0.921875 0.171875
vt 0.921875 0.1875
vt 0.90625 0.1875
vt 0.54105 0.28125
vt 0.5328125 0.2730125
vt 0.546875 0.2671875
vt 0.7203125 0.9886375
vt 0.7203125 0.9769875
vt 0.734375 0.9828125
vt 0.1875 0.078125
vt 0.203125 0.078125
vt 0.203125 0.09375
vt 0.1875 0.09375
vt 0.5328125 0.2730125
vt 0.5328125 0.2613625
vt 0.546875 0.2671875
vt 0.72855 0.996875
vt 0.7203125 0.9886375
vt 0.734375 0.9828125
vt 0.90625 0.484375
vt 0.921875 0.484375
vt 0.921875 0.5
vt 0.90625 0.5
vt 0.5328125 0.2613625
vt 0.54105 0.253125
vt 0.546875 0.2671875
vt 0.7402 0.996875
vt 0.72855 0.996875
vt 0.734375 0.9828125
vt 0.90625 0.984375
vt 0.921875 0.984375
vt 0.921875 1
vt 0.90625 1
vt 0.54105 0.253125
vt 0.5527 0.253125
vt 0.546875 0.2671875
vn 0.906307787 0 0.422618262
vn -0.298836239 0.707106781 0.640856382
vn -0.906307787 0 -0.422618262
vn 0.906307787 0 0.422618262
vn 0 1 0
vn -0.906307787 0 -0.422618262
vn 0.906307787 0 0.422618262
vn 0.298836239 0.707106781 -0.640856382
vn -0.906307787 0 -0.422618262
vn 0.906307787 0 0.422618262
vn 0.422618262 0 -0.906307787
vn -0.906307787 0 -0.422618262
vn 0.906307787 0 0.422618262
vn 0.298836239 -0.707106781 -0.640856382
vn -0.906307787 0 -0.422618262
vn 0.906307787 0 0.422618262
vn 0 -1 0
vn -0.906307787 0 -0.422618262
vn 0.906307787 0 0.422618262
vn -0.298836239 -0.707106781 0.640856382
vn -0.906307787 0 -0.422618262
vn 0.906307787 0 0.422618262
vn -0.422618262 0 0.906307787
vn -0.906307787 0 -0.422618262
usemtl m_b40c15b3-1af4-fd46-e4c9-fe51480fdaff
f 117/441/127 115/442/127 113/443/127
f 115/444/128 117/445/128 118/446/128
f 115/444/128 118/446/128 116/447/128
f 116/448/129 118/449/129 114/450/129
f 119/451/130 117/452/130 113/453/130
f 117/454/131 119/455/131 120/456/131
f 117/454/131 120/456/131 118/457/131
f 118/458/132 120/459/132 114/460/132
f 121/461/133 119/462/133 113/463/133
f 119/464/134 121/465/134 122/466/134
f 119/464/134 122/466/134 120/467/134
f 120/468/135 122/469/135 114/470/135
f 123/471/136 121/472/136 113/473/136
f 121/474/137 123/475/137 124/476/137
f 121/474/137 124/476/137 122/477/137
f 122/478/138 124/479/138 114/480/138
f 125/481/139 123/482/139 113/483/139
f 123/484/140 125/485/140 126/486/140
f 123/484/140 126/486/140 124/487/140
f 124/488/141 126/489/141 114/490/141
f 127/491/142 125/492/142 113/493/142
f 125/494/143 127/495/143 128/496/143
f 125/494/143 128/496/143 126/497/143
f 126/498/144 128/499/144 114/500/144
f 129/501/145 127/502/145 113/503/145
f 127/504/146 129/505/146 130/506/146
f 127/504/146 130/506/146 128/507/146
f 128/508/147 130/509/147 114/510/147
f 115/511/148 129/512/148 113/513/148
f 129/514/149 115/515/149 116/516/149
f 129/514/149 116/516/149 130/517/149
f 130/518/150 116/519/150 114/520/150
o glass_left_outer
v 0.477437975 0.21875 -0.178032041
v 0.471773551 0.21875 -0.175390677
v 0.489324114 0.230399756 -0.152542134
v 0.48365969 0.230399756 -0.14990077
v 0.482361375 0.246875 -0.167473776
v 0.476696951 0.246875 -0.164832412
v 0.472514575 0.246875 -0.188590306
v 0.466850152 0.246875 -0.185948942
v 0.465551837 0.230399756 -0.203521947
v 0.459887413 0.230399756 -0.200880583
v 0.465551837 0.207100244 -0.203521947
v 0.459887413 0.207100244 -0.200880583
v 0.472514575 0.190625 -0.188590306
v 0.466850152 0.190625 -0.185948942
v 0.482361375 0.190625 -0.167473776
v 0.476696951 0.190625 -0.164832412
v 0.489324114 0.207100244 -0.152542134
v 0.48365969 0.207100244 -0.14990077
vt 0.0921875 0.2386375
vt 0.08395 0.246875
vt 0.078125 0.2328125
vt 0.25 0.046875
vt 0.265625 0.046875
vt 0.265625 0.0625
vt 0.25 0.0625
vt 0.77145 0.909375
vt 0.7796875 0.9176125
vt 0.765625 0.9234375
vt 0.0921875 0.2269875
vt 0.0921875 0.2386375
vt 0.078125 0.2328125
vt 0.0625 0.046875
vt 0.078125 0.046875
vt 0.078125 0.0625
vt 0.0625 0.0625
vt 0.7796875 0.9176125
vt 0.7796875 0.9292625
vt 0.765625 0.9234375
vt 0.08395 0.21875
vt 0.0921875 0.2269875
vt 0.078125 0.2328125
vt 0.3125 0.046875
vt 0.328125 0.046875
vt 0.328125 0.0625
vt 0.3125 0.0625
vt 0.7796875 0.9292625
vt 0.77145 0.9375
vt 0.765625 0.9234375
vt 0.0723 0.21875
vt 0.08395 0.21875
vt 0.078125 0.2328125
vt 0.9375 0.859375
vt 0.953125 0.859375
vt 0.953125 0.875
vt 0.9375 0.875
vt 0.77145 0.9375
vt 0.7598 0.9375
vt 0.765625 0.9234375
vt 0.0640625 0.2269875
vt 0.0723 0.21875
vt 0.078125 0.2328125
vt 0.9375 0.671875
vt 0.953125 0.671875
vt 0.953125 0.6875
vt 0.9375 0.6875
vt 0.7598 0.9375
vt 0.7515625 0.9292625
vt 0.765625 0.9234375
vt 0.0640625 0.2386375
vt 0.0640625 0.2269875
vt 0.078125 0.2328125
vt 0.9375 0.796875
vt 0.953125 0.796875
vt 0.953125 0.8125
vt 0.9375 0.8125
vt 0.7515625 0.9292625
vt 0.7515625 0.9176125
vt 0.765625 0.9234375
vt 0.0723 0.246875
vt 0.0640625 0.2386375
vt 0.078125 0.2328125
vt 0.9375 0.734375
vt 0.953125 0.734375
vt 0.953125 0.75
vt 0.9375 0.75
vt 0.7515625 0.9176125
vt 0.7598 0.909375
vt 0.765625 0.9234375
vt 0.08395 0.246875
vt 0.0723 0.246875
vt 0.078125 0.2328125
vt 0.9375 0.921875
vt 0.953125 0.921875
vt 0.953125 0.9375
vt 0.9375 0.9375
vt 0.7598 0.909375
vt 0.77145 0.909375
vt 0.765625 0.9234375
vn 0.906307787 0 -0.422618262
vn 0.298836239 0.707106781 0.640856382
vn -0.906307787 0 0.422618262
vn 0.906307787 0 -0.422618262
vn 0 1 0
vn -0.906307787 0 0.422618262
vn 0.906307787 0 -0.422618262
vn -0.298836239 0.707106781 -0.640856382
vn -0.906307787 0 0.422618262
vn 0.906307787 0 -0.422618262
vn -0.422618262 0 -0.906307787
vn -0.906307787 0 0.422618262
vn 0.906307787 0 -0.422618262
vn -0.298836239 -0.707106781 -0.640856382
vn -0.906307787 0 0.422618262
vn 0.906307787 0 -0.422618262
vn 0 -1 0
vn -0.906307787 0 0.422618262
vn 0.906307787 0 -0.422618262
vn 0.298836239 -0.707106781 0.640856382
vn -0.906307787 0 0.422618262
vn 0.906307787 0 -0.422618262
vn 0.422618262 0 0.906307787
vn -0.906307787 0 0.422618262
usemtl m_b40c15b3-1af4-fd46-e4c9-fe51480fdaff
f 135/521/151 133/522/151 131/523/151
f 133/524/152 135/525/152 136/526/152
f 133/524/152 136/526/152 134/527/152
f 134/528/153 136/529/153 132/530/153
f 137/531/154 135/532/154 131/533/154
f 135/534/155 137/535/155 138/536/155
f 135/534/155 138/536/155 136/537/155
f 136/538/156 138/539/156 132/540/156
f 139/541/157 137/542/157 131/543/157
f 137/544/158 139/545/158 140/546/158
f 137/544/158 140/546/158 138/547/158
f 138/548/159 140/549/159 132/550/159
f 141/551/160 139/552/160 131/553/160
f 139/554/161 141/555/161 142/556/161
f 139/554/161 142/556/161 140/557/161
f 140/558/162 142/559/162 132/560/162
f 143/561/163 141/562/163 131/563/163
f 141/564/164 143/565/164 144/566/164
f 141/564/164 144/566/164 142/567/164
f 142/568/165 144/569/165 132/570/165
f 145/571/166 143/572/166 131/573/166
f 143/574/167 145/575/167 146/576/167
f 143/574/167 146/576/167 144/577/167
f 144/578/168 146/579/168 132/580/168
f 147/581/169 145/582/169 131/583/169
f 145/584/170 147/585/170 148/586/170
f 145/584/170 148/586/170 146/587/170
f 146/588/171 148/589/171 132/590/171
f 133/591/172 147/592/172 131/593/172
f 147/594/173 133/595/173 134/596/173
f 147/594/173 134/596/173 148/597/173
f 148/598/174 134/599/174 132/600/174
o glass_left_inner
v 0.504375 0.21875 -0.05
v 0.498125 0.21875 -0.05
v 0.504375 0.230399756 -0.021875
v 0.498125 0.230399756 -0.021875
v 0.504375 0.246875 -0.038350244
v 0.498125 0.246875 -0.038350244
v 0.504375 0.246875 -0.061649756
v 0.498125 0.246875 -0.061649756
v 0.504375 0.230399756 -0.078125
v 0.498125 0.230399756 -0.078125
v 0.504375 0.207100244 -0.078125
v 0.498125 0.207100244 -0.078125
v 0.504375 0.190625 -0.061649756
v 0.498125 0.190625 -0.061649756
v 0.504375 0.190625 -0.038350244
v 0.498125 0.190625 -0.038350244
v 0.504375 0.207100244 -0.021875
v 0.498125 0.207100244 -0.021875
vt 0.7171875 0.3636375
vt 0.70895 0.371875
vt 0.703125 0.3578125
vt 0.875 0.296875
vt 0.890625 0.296875
vt 0.890625 0.3125
vt 0.875 0.3125
vt 0.70895 0.284375
vt 0.7171875 0.2926125
vt 0.703125 0.2984375
vt 0.7171875 0.3519875
vt 0.7171875 0.3636375
vt 0.703125 0.3578125
vt 0.875 0.421875
vt 0.890625 0.421875
vt 0.890625 0.4375
vt 0.875 0.4375
vt 0.7171875 0.2926125
vt 0.7171875 0.3042625
vt 0.703125 0.2984375
vt 0.70895 0.34375
vt 0.7171875 0.3519875
vt 0.703125 0.3578125
vt 0.8125 0.109375
vt 0.828125 0.109375
vt 0.828125 0.125
vt 0.8125 0.125
vt 0.7171875 0.3042625
vt 0.70895 0.3125
vt 0.703125 0.2984375
vt 0.6973 0.34375
vt 0.70895 0.34375
vt 0.703125 0.3578125
vt 0.875 0.359375
vt 0.890625 0.359375
vt 0.890625 0.375
vt 0.875 0.375
vt 0.70895 0.3125
vt 0.6973 0.3125
vt 0.703125 0.2984375
vt 0.6890625 0.3519875
vt 0.6973 0.34375
vt 0.703125 0.3578125
vt 0.875 0.109375
vt 0.890625 0.109375
vt 0.890625 0.125
vt 0.875 0.125
vt 0.6973 0.3125
vt 0.6890625 0.3042625
vt 0.703125 0.2984375
vt 0.6890625 0.3636375
vt 0.6890625 0.3519875
vt 0.703125 0.3578125
vt 0.6875 0.109375
vt 0.703125 0.109375
vt 0.703125 0.125
vt 0.6875 0.125
vt 0.6890625 0.3042625
vt 0.6890625 0.2926125
vt 0.703125 0.2984375
vt 0.6973 0.371875
vt 0.6890625 0.3636375
vt 0.703125 0.3578125
vt 0.75 0.109375
vt 0.765625 0.109375
vt 0.765625 0.125
vt 0.75 0.125
vt 0.6890625 0.2926125
vt 0.6973 0.284375
vt 0.703125 0.2984375
vt 0.70895 0.371875
vt 0.6973 0.371875
vt 0.703125 0.3578125
vt 0.625 0.109375
vt 0.640625 0.109375
vt 0.640625 0.125
vt 0.625 0.125
vt 0.6973 0.284375
vt 0.70895 0.284375
vt 0.703125 0.2984375
vn 1 0 0
vn 0 0.707106781 0.707106781
vn -1 0 0
vn 1 0 0
vn 0 1 0
vn -1 0 0
vn 1 0 0
vn 0 0.707106781 -0.707106781
vn -1 0 0
vn 1 0 0
vn 0 0 -1
vn -1 0 0
vn 1 0 0
vn 0 -0.707106781 -0.707106781
vn -1 0 0
vn 1 0 0
vn 0 -1 0
vn -1 0 0
vn 1 0 0
vn 0 -0.707106781 0.707106781
vn -1 0 0
vn 1 0 0
vn 0 0 1
vn -1 0 0
usemtl m_b40c15b3-1af4-fd46-e4c9-fe51480fdaff
f 153/601/175 151/602/175 149/603/175
f 151/604/176 153/605/176 154/606/176
f 151/604/176 154/606/176 152/607/176
f 152/608/177 154/609/177 150/610/177
f 155/611/178 153/612/178 149/613/178
f 153/614/179 155/615/179 156/616/179
f 153/614/179 156/616/179 154/617/179
f 154/618/180 156/619/180 150/620/180
f 157/621/181 155/622/181 149/623/181
f 155/624/182 157/625/182 158/626/182
f 155/624/182 158/626/182 156/627/182
f 156/628/183 158/629/183 150/630/183
f 159/631/184 157/632/184 149/633/184
f 157/634/185 159/635/185 160/636/185
f 157/634/185 160/636/185 158/637/185
f 158/638/186 160/639/186 150/640/186
f 161/641/187 159/642/187 149/643/187
f 159/644/188 161/645/188 162/646/188
f 159/644/188 162/646/188 160/647/188
f 160/648/189 162/649/189 150/650/189
f 163/651/190 161/652/190 149/653/190
f 161/654/191 163/655/191 164/656/191
f 161/654/191 164/656/191 162/657/191
f 162/658/192 164/659/192 150/660/192
f 165/661/193 163/662/193 149/663/193
f 163/664/194 165/665/194 166/666/194
f 163/664/194 166/666/194 164/667/194
f 164/668/195 166/669/195 150/670/195
f 151/671/196 165/672/196 149/673/196
f 165/674/197 151/675/197 152/676/197
f 165/674/197 152/676/197 166/677/197
f 166/678/198 152/679/198 150/680/198
o tube_right_outer
v 0.473322118 0.21875 0.175706821
v 0.303389408 0.21875 0.096465897
v 0.460115298 0.231694174 0.204028939
v 0.290182588 0.231694174 0.124788015
v 0.467851674 0.25 0.187438226
v 0.297918964 0.25 0.108197302
v 0.478792563 0.25 0.163975415
v 0.308859853 0.25 0.084734491
v 0.486528939 0.231694174 0.147384702
v 0.316596229 0.231694174 0.068143778
v 0.486528939 0.205805826 0.147384702
v 0.316596229 0.205805826 0.068143778
v 0.478792563 0.1875 0.163975415
v 0.308859853 0.1875 0.084734491
v 0.467851674 0.1875 0.187438226
v 0.297918964 0.1875 0.108197302
v 0.460115298 0.205805826 0.204028939
v 0.290182588 0.205805826 0.124788015
vt 0.71875 0.615846875
vt 0.709596875 0.625
vt 0.703125 0.609375
vt 0.1875 0.25
vt 0.203125 0.25
vt 0.203125 0.34375
vt 0.1875 0.34375
vt 0.709596875 0.53125
vt 0.71875 0.540403125
vt 0.703125 0.546875
vt 0.71875 0.602903125
vt 0.71875 0.615846875
vt 0.703125 0.609375
vt 0.625 0.71875
vt 0.640625 0.71875
vt 0.640625 0.8125
vt 0.625 0.8125
vt 0.71875 0.540403125
vt 0.71875 0.553346875
vt 0.703125 0.546875
vt 0.709596875 0.59375
vt 0.71875 0.602903125
vt 0.703125 0.609375
vt 0 0.25
vt 0.015625 0.25
vt 0.015625 0.34375
vt 0 0.34375
vt 0.71875 0.553346875
vt 0.709596875 0.5625
vt 0.703125 0.546875
vt 0.696653125 0.59375
vt 0.709596875 0.59375
vt 0.703125 0.609375
vt 0.46875 0.28125
vt 0.484375 0.28125
vt 0.484375 0.375
vt 0.46875 0.375
vt 0.709596875 0.5625
vt 0.696653125 0.5625
vt 0.703125 0.546875
vt 0.6875 0.602903125
vt 0.696653125 0.59375
vt 0.703125 0.609375
vt 0.125 0.25
vt 0.140625 0.25
vt 0.140625 0.34375
vt 0.125 0.34375
vt 0.696653125 0.5625
vt 0.6875 0.553346875
vt 0.703125 0.546875
vt 0.6875 0.615846875
vt 0.6875 0.602903125
vt 0.703125 0.609375
vt 0.625 0.59375
vt 0.640625 0.59375
vt 0.640625 0.6875
vt 0.625 0.6875
vt 0.6875 0.553346875
vt 0.6875 0.540403125
vt 0.703125 0.546875
vt 0.696653125 0.625
vt 0.6875 0.615846875
vt 0.703125 0.609375
vt 0.625 0.34375
vt 0.640625 0.34375
vt 0.640625 0.4375
vt 0.625 0.4375
vt 0.6875 0.540403125
vt 0.696653125 0.53125
vt 0.703125 0.546875
vt 0.709596875 0.625
vt 0.696653125 0.625
vt 0.703125 0.609375
vt 0.625 0.46875
vt 0.640625 0.46875
vt 0.640625 0.5625
vt 0.625 0.5625
vt 0.696653125 0.53125
vt 0.709596875 0.53125
vt 0.703125 0.546875
vn 0.906307787 0 0.422618262
vn -0.298836239 0.707106781 0.640856382
vn -0.906307787 0 -0.422618262
vn 0.906307787 0 0.422618262
vn 0 1 0
vn -0.906307787 0 -0.422618262
vn 0.906307787 0 0.422618262
vn 0.298836239 0.707106781 -0.640856382
vn -0.906307787 0 -0.422618262
vn 0.906307787 0 0.422618262
vn 0.422618262 0 -0.906307787
vn -0.906307787 0 -0.422618262
vn 0.906307787 0 0.422618262
vn 0.298836239 -0.707106781 -0.640856382
vn -0.906307787 0 -0.422618262
vn 0.906307787 0 0.422618262
vn 0 -1 0
vn -0.906307787 0 -0.422618262
vn 0.906307787 0 0.422618262
vn -0.298836239 -0.707106781 0.640856382
vn -0.906307787 0 -0.422618262
vn 0.906307787 0 0.422618262
vn -0.422618262 0 0.906307787
vn -0.906307787 0 -0.422618262
usemtl m_b40c15b3-1af4-fd46-e4c9-fe51480fdaff
f 171/681/199 169/682/199 167/683/199
f 169/684/200 171/685/200 172/686/200
f 169/684/200 172/686/200 170/687/200
f 170/688/201 172/689/201 168/690/201
f 173/691/202 171/692/202 167/693/202
f 171/694/203 173/695/203 174/696/203
f 171/694/203 174/696/203 172/697/203
f 172/698/204 174/699/204 168/700/204
f 175/701/205 173/702/205 167/703/205
f 173/704/206 175/705/206 176/706/206
f 173/704/206 176/706/206 174/707/206
f 174/708/207 176/709/207 168/710/207
f 177/711/208 175/712/208 167/713/208
f 175/714/209 177/715/209 178/716/209
f 175/714/209 178/716/209 176/717/209
f 176/718/210 178/719/210 168/720/210
f 179/721/211 177/722/211 167/723/211
f 177/724/212 179/725/212 180/726/212
f 177/724/212 180/726/212 178/727/212
f 178/728/213 180/729/213 168/730/213
f 181/731/214 179/732/214 167/733/214
f 179/734/215 181/735/215 182/736/215
f 179/734/215 182/736/215 180/737/215
f 180/738/216 182/739/216 168/740/216
f 183/741/217 181/742/217 167/743/217
f 181/744/218 183/745/218 184/746/218
f 181/744/218 184/746/218 182/747/218
f 182/748/219 184/749/219 168/750/219
f 169/751/220 183/752/220 167/753/220
f 183/754/221 169/755/221 170/756/221
f 183/754/221 170/756/221 184/757/221
f 184/758/222 170/759/222 168/760/222
o bridge_connect
v 0.40625 0.2890625 0.015625
v 0.40625 0.2890625 -0.015625
v 0.40625 0.2734375 0.015625
v 0.40625 0.2734375 -0.015625
v 0.34375 0.2890625 0.025
v 0.34375 0.2890625 -0.025
v 0.34375 0.2734375 0.025
v 0.34375 0.2734375 -0.025
vt 0.859375 0.25
vt 0.84375 0.25
vt 0.84375 0.234375
vt 0.859375 0.234375
vt 0.4375 0.234375
vt 0.4375 0.25
vt 0.40625 0.25
vt 0.40625 0.234375
vt 0.75 0.85
vt 0.78125 0.8546875
vt 0.78125 0.8703125
vt 0.75 0.875
vt 0.78125 0.7859375
vt 0.78125 0.8015625
vt 0.75 0.80625
vt 0.75 0.78125
vt 0.78125 0.546875
vt 0.78125 0.5625
vt 0.75 0.5625
vt 0.75 0.546875
vt 0.5 0.25
vt 0.46875 0.25
vt 0.46875 0.234375
vt 0.5 0.234375
vn 1 0 0
vn -1 0 0
vn 0 1 0
vn 0 -1 0
vn 0.148340453 0 0.988936353
vn 0.148340453 0 -0.988936353
usemtl m_b40c15b3-1af4-fd46-e4c9-fe51480fdaff
f 186/761/223 185/762/223 187/763/223
f 186/761/223 187/763/223 188/764/223
f 191/765/224 189/766/224 190/767/224
f 191/765/224 190/767/224 192/768/224
f 189/769/225 185/770/225 186/771/225
f 189/769/225 186/771/225 190/772/225
f 188/773/226 187/774/226 191/775/226
f 188/773/226 191/775/226 192/776/226
f 187/777/227 185/778/227 189/779/227
f 187/777/227 189/779/227 191/780/227
f 190/781/228 186/782/228 188/783/228
f 190/781/228 188/783/228 192/784/228
o hinge
v 0.359375 0.3046875 0.03125
v 0.359375 0.3046875 -0.03125
v 0.359375 0.2890625 0.03125
v 0.359375 0.2890625 -0.03125
v 0.34375 0.3046875 0.03125
v 0.34375 0.3046875 -0.03125
v 0.34375 0.2890625 0.03125
v 0.34375 0.2890625 -0.03125
vt 0.78125 0.4375
vt 0.75 0.4375
vt 0.75 0.421875
vt 0.78125 0.421875
vt 0.625 0.234375
vt 0.625 0.25
vt 0.59375 0.25
vt 0.59375 0.234375
vt 0.75 0.34375
vt 0.765625 0.34375
vt 0.765625 0.375
vt 0.75 0.375
vt 0.671875 0.21875
vt 0.671875 0.25
vt 0.65625 0.25
vt 0.65625 0.21875
vt 0.859375 0.171875
vt 0.859375 0.1875
vt 0.84375 0.1875
vt 0.84375 0.171875
vt 0.078125 0.125
vt 0.0625 0.125
vt 0.0625 0.109375
vt 0.078125 0.109375
vn 1 0 0
vn -1 0 0
vn 0 1 0
vn 0 -1 0
vn 0 0 1
vn 0 0 -1
usemtl m_b40c15b3-1af4-fd46-e4c9-fe51480fdaff
f 194/785/229 193/786/229 195/787/229
f 194/785/229 195/787/229 196/788/229
f 199/789/230 197/790/230 198/791/230
f 199/789/230 198/791/230 200/792/230
f 197/793/231 193/794/231 194/795/231
f 197/793/231 194/795/231 198/796/231
f 196/797/232 195/798/232 199/799/232
f 196/797/232 199/799/232 200/800/232
f 195/801/233 193/802/233 197/803/233
f 195/801/233 197/803/233 199/804/233
f 198/805/234 194/806/234 196/807/234
f 198/805/234 196/807/234 200/808/234
