# Made in Blockbench 5.1.6
mtllib CHEMLIGHT.mtl

o cylinder
v 6.071532165918824e-19 -0.015625 6.071532165918824e-19
v 6.071532165918824e-19 0.015625 6.071532165918824e-19
v 0.005861388584430809 -0.015625 0.021875
v 0.005861388584430809 0.015625 0.021875
v 0.016013611415569187 -0.015625 0.016013611415569194
v 0.016013611415569187 0.015625 0.016013611415569194
v 0.021875 -0.015625 0.005861388584430809
v 0.021875 0.015625 0.005861388584430809
v 0.021875 -0.015625 -0.005861388584430809
v 0.021875 0.015625 -0.005861388584430809
v 0.016013611415569194 -0.015625 -0.016013611415569187
v 0.016013611415569194 0.015625 -0.016013611415569187
v 0.005861388584430816 -0.015625 -0.021874999999999995
v 0.005861388584430816 0.015625 -0.021874999999999995
v -0.005861388584430799 -0.015625 -0.021875
v -0.005861388584430799 0.015625 -0.021875
v -0.016013611415569187 -0.015625 -0.016013611415569194
v -0.016013611415569187 0.015625 -0.016013611415569194
v -0.021874999999999995 -0.015625 -0.005861388584430804
v -0.021874999999999995 0.015625 -0.005861388584430804
v -0.021875 -0.015625 0.005861388584430799
v -0.021875 0.015625 0.005861388584430799
v -0.016013611415569194 -0.015625 0.016013611415569187
v -0.016013611415569194 0.015625 0.016013611415569187
v -0.005861388584430806 -0.015625 0.021875
v -0.005861388584430806 0.015625 0.021875
vt 0.004043766904910569 0.9979781165475448
vt 0.003502388275564618 1
vt 0 0.9979781165475448
vt 1.1362438767648086e-16 0.90625
vt 0.0020937500000001137 0.90625
vt 0.0020937500000001137 1
vt 1.1362438767648086e-16 1
vt 8.673617379884035e-19 0.9959559010486729
vt 0.0020217174428785846 0.9964978992929371
vt 0 1
vt 0.004044098951327107 0.9979782825571206
vt 0.0035021007070629023 0.9999999999999992
vt 0 0.9979782825571206
vt 1.1362438767648086e-16 0.90625
vt 0.0020937500000001137 0.90625
vt 0.0020937500000001137 1
vt 1.1362438767648086e-16 1
vt 4.336808689942018e-19 0.9959562330950894
vt 0.0020218834524552845 0.9964976117244354
vt 0 1
vt 0.00390625 0.9979062499999999
vt 0.00390625 0.9999999999999999
vt 0 0.9989531249999999
vt 1.1362438767648086e-16 0.90625
vt 0.0020937500000001137 0.90625
vt 0.0020937500000001137 1
vt 1.1362438767648086e-16 1
vt 0.00390625 0.9979062499999999
vt 0.00390625 0.9999999999999999
vt 0 0.9989531249999999
vt 4.336808689942018e-19 0.9959562330950894
vt 0.0020218834524552845 0.9964976117244354
vt 0 1
vt 1.1362438767648086e-16 0.90625
vt 0.0020937500000001137 0.90625
vt 0.0020937500000001137 1
vt 1.1362438767648086e-16 1
vt 0.004044098951327107 0.9979782825571206
vt 0.0035021007070629023 0.9999999999999992
vt 0 0.9979782825571206
vt 8.673617379884035e-19 0.9959559010486729
vt 0.0020217174428785846 0.9964978992929371
vt 0 1
vt 1.1362438767648086e-16 0.90625
vt 0.0020937500000001137 0.90625
vt 0.0020937500000001137 1
vt 1.1362438767648086e-16 1
vt 0.004043766904910569 0.9979781165475448
vt 0.003502388275564618 1
vt 0 0.9979781165475448
vt 1.1362438767648086e-16 0.99609375
vt 0.0020937500000001137 0.99609375
vt 0.0010468750000001137 1
vt 1.1362438767648086e-16 0.90625
vt 0.0020937500000001137 0.90625
vt 0.0020937500000001137 1
vt 1.1362438767648086e-16 1
vt 0.0020937500000001137 1
vt 1.1362438767648086e-16 1
vt 0.0010468750000001137 0.99609375
vt 0 1
vt 0.0005413786293459511 0.9979781165475448
vt 0.004043766904910569 1
vt 1.1362438767648086e-16 0.90625
vt 0.0020937500000001137 0.90625
vt 0.0020937500000001137 1
vt 1.1362438767648086e-16 1
vt 0.0020217174428793774 0.9999999999999996
vt 7.936359902593892e-16 0.9994580017557354
vt 0.0020217174428793783 0.9959559010486725
vt 4.0592529337857286e-16 1
vt 0.0005419982442646104 0.9979782825571214
vt 0.004044098951327513 1
vt 1.1362438767648086e-16 0.90625
vt 0.0020937500000001137 0.90625
vt 0.0020937500000001137 1
vt 1.1362438767648086e-16 1
vt 0.002021883452455284 1
vt 0 0.999458621370654
vt 0.0020218834524552845 0.9959562330950894
vt 0 0.9999999999999999
vt 0 0.9979062499999999
vt 0.00390625 0.9989531249999999
vt 1.1362438767648086e-16 0.90625
vt 0.0020937500000001137 0.90625
vt 0.0020937500000001137 1
vt 1.1362438767648086e-16 1
vt 0 0.9999999999999999
vt 0 0.9979062499999999
vt 0.00390625 0.9989531249999999
vt 0.002021883452455284 1
vt 0 0.999458621370654
vt 0.0020218834524552845 0.9959562330950894
vt 1.1362438767648086e-16 0.90625
vt 0.0020937500000001137 0.90625
vt 0.0020937500000001137 1
vt 1.1362438767648086e-16 1
vt 4.0592529337857286e-16 1
vt 0.0005419982442646104 0.9979782825571214
vt 0.004044098951327513 1
vt 0.0020217174428793774 0.9999999999999996
vt 7.936359902593892e-16 0.9994580017557354
vt 0.0020217174428793783 0.9959559010486725
vt 1.1362438767648086e-16 0.90625
vt 0.0020937500000001137 0.90625
vt 0.0020937500000001137 1
vt 1.1362438767648086e-16 1
vt 0 1
vt 0.0005413786293459511 0.9979781165475448
vt 0.004043766904910569 1
vt 0.0020937500000001137 1
vt 1.1362438767648086e-16 1
vt 0.0010468750000001137 0.99609375
vt 1.1362438767648086e-16 0.90625
vt 0.0020937500000001137 0.90625
vt 0.0020937500000001137 1
vt 1.1362438767648086e-16 1
vt 1.1362438767648086e-16 0.99609375
vt 0.0020937500000001137 0.99609375
vt 0.0010468750000001137 1
vn 0 -1 0
vn 0.4999999999999998 0 0.8660254037844388
vn 0 1 0
vn 0 -1 0
vn 0.8660254037844387 0 0.5
vn 0 1 0
vn 0 -1 0
vn 1 0 0
vn 0 1 0
vn 0 -1 0
vn 0.8660254037844388 0 -0.4999999999999998
vn 0 1 0
vn 0 -1 0
vn 0.5000000000000001 0 -0.8660254037844388
vn 0 1 0
vn 0 -1 0
vn 2.9595776683099126e-16 0 -1
vn 0 1 0
vn 0 -1 0
vn -0.4999999999999995 0 -0.866025403784439
vn 0 1 0
vn 0 -1 0
vn -0.8660254037844389 0 -0.4999999999999996
vn 0 1 0
vn 0 -1 0
vn -1 0 -2.959577668309916e-16
vn 0 1 0
vn 0 -1 0
vn -0.866025403784439 0 0.4999999999999995
vn 0 1 0
vn 0 -1 0
vn -0.49999999999999994 0 0.8660254037844387
vn 0 1 0
vn 0 -1 0
vn 0 0 1
vn 0 1 0
usemtl none
f 5/1/1 3/2/1 1/3/1
f 3/4/2 5/5/2 6/6/2 4/7/2
f 4/8/3 6/9/3 2/10/3
f 7/11/4 5/12/4 1/13/4
f 5/14/5 7/15/5 8/16/5 6/17/5
f 6/18/6 8/19/6 2/20/6
f 9/21/7 7/22/7 1/23/7
f 7/24/8 9/25/8 10/26/8 8/27/8
f 8/28/9 10/29/9 2/30/9
f 11/31/10 9/32/10 1/33/10
f 9/34/11 11/35/11 12/36/11 10/37/11
f 10/38/12 12/39/12 2/40/12
f 13/41/13 11/42/13 1/43/13
f 11/44/14 13/45/14 14/46/14 12/47/14
f 12/48/15 14/49/15 2/50/15
f 15/51/16 13/52/16 1/53/16
f 13/54/17 15/55/17 16/56/17 14/57/17
f 14/58/18 16/59/18 2/60/18
f 17/61/19 15/62/19 1/63/19
f 15/64/20 17/65/20 18/66/20 16/67/20
f 16/68/21 18/69/21 2/70/21
f 19/71/22 17/72/22 1/73/22
f 17/74/23 19/75/23 20/76/23 18/77/23
f 18/78/24 20/79/24 2/80/24
f 21/81/25 19/82/25 1/83/25
f 19/84/26 21/85/26 22/86/26 20/87/26
f 20/88/27 22/89/27 2/90/27
f 23/91/28 21/92/28 1/93/28
f 21/94/29 23/95/29 24/96/29 22/97/29
f 22/98/30 24/99/30 2/100/30
f 25/101/31 23/102/31 1/103/31
f 23/104/32 25/105/32 26/106/32 24/107/32
f 24/108/33 26/109/33 2/110/33
f 3/111/34 25/112/34 1/113/34
f 25/114/35 3/115/35 4/116/35 26/117/35
f 26/118/36 4/119/36 2/120/36
o circle
v 0 0.40625 0
v 0.016176190318907546 0.40625 -4.959546399643895e-19
v 0.014008991752625837 0.41433809515945375 -2.2223350126206447e-18
v 0.008088095159453777 0.4202589917526258 -3.3532425133337893e-18
v 6.071532165918825e-18 0.42242619031890755 -3.5856513905734375e-18
v -0.008088095159453773 0.4202589917526258 -2.857287873369401e-18
v -0.014008991752625835 0.41433809515945375 -1.3633163779527923e-18
v -0.016176190318907546 0.40625 4.959546399643876e-19
vt 0.004044098951327107 0.9979782825571206
vt 0.0035021007070629023 0.9999999999999992
vt 0 0.9979782825571206
vt 0.004043766904910569 0.9979781165475448
vt 0.003502388275564618 1
vt 0 0.9979781165475448
vt 0.0020937500000001137 1
vt 1.1362438767648086e-16 1
vt 0.0010468750000001137 0.99609375
vt 0.0020217174428793774 0.9999999999999996
vt 7.936359902593892e-16 0.9994580017557354
vt 0.0020217174428793783 0.9959559010486725
vt 0.002021883452455284 1
vt 0 0.999458621370654
vt 0.0020218834524552845 0.9959562330950894
vt 0 0.9999999999999999
vt 0 0.9979062499999999
vt 0.00390625 0.9989531249999999
vn 3.0659545306208e-17 2.2166229006234853e-16 1
vn 3.0659545306208e-17 2.2166229006234853e-16 1
vn 3.0659545306208e-17 2.2166229006234853e-16 1
vn 3.0659545306208e-17 2.2166229006234853e-16 1
vn 3.0659545306208e-17 2.2166229006234853e-16 1
vn 3.0659545306208e-17 2.2166229006234853e-16 1
usemtl none
f 28/121/37 29/122/37 27/123/37
f 29/124/38 30/125/38 27/126/38
f 30/127/39 31/128/39 27/129/39
f 31/130/40 32/131/40 27/132/40
f 32/133/41 33/134/41 27/135/41
f 33/136/42 34/137/42 27/138/42
o mesh
v 0.015625 0.40625 0
v 0.015625 0.40625 0
v 0.015625 0.375 0
v 0.015625 0.375 0
v -0.015625 0.40625 0
v -0.015625 0.40625 0
v -0.015625 0.375 0
v -0.015625 0.375 0
vt 0 1
vt 0 0.90625
vt 0.0078125 1
vt 0.0078125 0.90625
vt 0.0078125 1
vt 0 1
vt 0.0078125 0.90625
vt 0 0.90625
vt 0.0078125 0.9921875
vt 0.0078125 1
vt 0 0.9921875
vt 0 1
vt 0.0078125 1
vt 0 1
vt 0.0078125 0.9921875
vt 0 0.9921875
vt 0.0078125 0.90625
vt 0.0078125 1
vt 0 1
vt 0 0.90625
vt 0.0078125 1
vt 0 1
vt 0 0.90625
vt 0.0078125 0.90625
vn 0 0 0
vn 0 0 0
vn 0 0 0
vn 0 0 0
vn 0 0 1
vn 0 0 -1
usemtl none
f 35/139/43 37/140/43 36/141/43 38/142/43
f 39/143/44 40/144/44 41/145/44 42/146/44
f 35/147/45 36/148/45 39/149/45 40/150/45
f 37/151/46 41/152/46 38/153/46 42/154/46
f 37/155/47 35/156/47 39/157/47 41/158/47
f 40/159/48 36/160/48 38/161/48 42/162/48
o cylinder
v 0 0 0
v 0 0.375 0
v 0.004186706131736291 0 0.015624999999999998
v 0.004186706131736291 0.375 0.015624999999999998
v 0.011438293868263706 0 0.011438293868263708
v 0.011438293868263706 0.375 0.011438293868263708
v 0.015624999999999998 0 0.004186706131736291
v 0.015624999999999998 0.375 0.004186706131736291
v 0.015624999999999998 0 -0.004186706131736293
v 0.015624999999999998 0.375 -0.004186706131736293
v 0.011438293868263708 0 -0.011438293868263706
v 0.011438293868263708 0.375 -0.011438293868263706
v 0.0041867061317362965 0 -0.015624999999999997
v 0.0041867061317362965 0.375 -0.015624999999999997
v -0.004186706131736285 0 -0.015625
v -0.004186706131736285 0.375 -0.015625
v -0.011438293868263706 0 -0.01143829386826371
v -0.011438293868263706 0.375 -0.01143829386826371
v -0.015624999999999998 0 -0.0041867061317362895
v -0.015624999999999998 0.375 -0.0041867061317362895
v -0.015625 0 0.004186706131736284
v -0.015625 0.375 0.004186706131736284
v -0.01143829386826371 0 0.011438293868263704
v -0.01143829386826371 0.375 0.011438293868263704
v -0.00418670613173629 0 0.015624999999999998
v -0.00418670613173629 0.375 0.015624999999999998
vt 0.004043766904910569 0.9979781165475448
vt 0.003502388275564618 1
vt 0 0.9979781165475448
vt 1.1362438767648086e-16 0.90625
vt 0.0020937500000001137 0.90625
vt 0.0020937500000001137 1
vt 1.1362438767648086e-16 1
vt 8.673617379884035e-19 0.9959559010486729
vt 0.0020217174428785846 0.9964978992929371
vt 0 1
vt 0.004044098951327107 0.9979782825571206
vt 0.0035021007070629023 0.9999999999999992
vt 0 0.9979782825571206
vt 1.1362438767648086e-16 0.90625
vt 0.0020937500000001137 0.90625
vt 0.0020937500000001137 1
vt 1.1362438767648086e-16 1
vt 4.336808689942018e-19 0.9959562330950894
vt 0.0020218834524552845 0.9964976117244354
vt 0 1
vt 0.00390625 0.9979062499999999
vt 0.00390625 0.9999999999999999
vt 0 0.9989531249999999
vt 1.1362438767648086e-16 0.90625
vt 0.0020937500000001137 0.90625
vt 0.0020937500000001137 1
vt 1.1362438767648086e-16 1
vt 0.00390625 0.9979062499999999
vt 0.00390625 0.9999999999999999
vt 0 0.9989531249999999
vt 4.336808689942018e-19 0.9959562330950894
vt 0.0020218834524552845 0.9964976117244354
vt 0 1
vt 1.1362438767648086e-16 0.90625
vt 0.0020937500000001137 0.90625
vt 0.0020937500000001137 1
vt 1.1362438767648086e-16 1
vt 0.004044098951327107 0.9979782825571206
vt 0.0035021007070629023 0.9999999999999992
vt 0 0.9979782825571206
vt 8.673617379884035e-19 0.9959559010486729
vt 0.0020217174428785846 0.9964978992929371
vt 0 1
vt 1.1362438767648086e-16 0.90625
vt 0.0020937500000001137 0.90625
vt 0.0020937500000001137 1
vt 1.1362438767648086e-16 1
vt 0.004043766904910569 0.9979781165475448
vt 0.003502388275564618 1
vt 0 0.9979781165475448
vt 1.1362438767648086e-16 0.99609375
vt 0.0020937500000001137 0.99609375
vt 0.0010468750000001137 1
vt 1.1362438767648086e-16 0.90625
vt 0.0020937500000001137 0.90625
vt 0.0020937500000001137 1
vt 1.1362438767648086e-16 1
vt 0.0020937500000001137 1
vt 1.1362438767648086e-16 1
vt 0.0010468750000001137 0.99609375
vt 0 1
vt 0.0005413786293459511 0.9979781165475448
vt 0.004043766904910569 1
vt 1.1362438767648086e-16 0.90625
vt 0.0020937500000001137 0.90625
vt 0.0020937500000001137 1
vt 1.1362438767648086e-16 1
vt 0.0020217174428793774 0.9999999999999996
vt 7.936359902593892e-16 0.9994580017557354
vt 0.0020217174428793783 0.9959559010486725
vt 4.0592529337857286e-16 1
vt 0.0005419982442646104 0.9979782825571214
vt 0.004044098951327513 1
vt 1.1362438767648086e-16 0.90625
vt 0.0020937500000001137 0.90625
vt 0.0020937500000001137 1
vt 1.1362438767648086e-16 1
vt 0.002021883452455284 1
vt 0 0.999458621370654
vt 0.0020218834524552845 0.9959562330950894
vt 0 0.9999999999999999
vt 0 0.9979062499999999
vt 0.00390625 0.9989531249999999
vt 1.1362438767648086e-16 0.90625
vt 0.0020937500000001137 0.90625
vt 0.0020937500000001137 1
vt 1.1362438767648086e-16 1
vt 0 0.9999999999999999
vt 0 0.9979062499999999
vt 0.00390625 0.9989531249999999
vt 0.002021883452455284 1
vt 0 0.999458621370654
vt 0.0020218834524552845 0.9959562330950894
vt 1.1362438767648086e-16 0.90625
vt 0.0020937500000001137 0.90625
vt 0.0020937500000001137 1
vt 1.1362438767648086e-16 1
vt 4.0592529337857286e-16 1
vt 0.0005419982442646104 0.9979782825571214
vt 0.004044098951327513 1
vt 0.0020217174428793774 0.9999999999999996
vt 7.936359902593892e-16 0.9994580017557354
vt 0.0020217174428793783 0.9959559010486725
vt 1.1362438767648086e-16 0.90625
vt 0.0020937500000001137 0.90625
vt 0.0020937500000001137 1
vt 1.1362438767648086e-16 1
vt 0 1
vt 0.0005413786293459511 0.9979781165475448
vt 0.004043766904910569 1
vt 0.0020937500000001137 1
vt 1.1362438767648086e-16 1
vt 0.0010468750000001137 0.99609375
vt 1.1362438767648086e-16 0.90625
vt 0.0020937500000001137 0.90625
vt 0.0020937500000001137 1
vt 1.1362438767648086e-16 1
vt 1.1362438767648086e-16 0.99609375
vt 0.0020937500000001137 0.99609375
vt 0.0010468750000001137 1
vn 0 -1 0
vn 0.4999999999999999 0 0.8660254037844387
vn 0 1 0
vn 0 -1 0
vn 0.8660254037844387 0 0.49999999999999994
vn 0 1 0
vn 0 -1 0
vn 1 0 0
vn 0 1 0
vn 0 -1 0
vn 0.8660254037844387 0 -0.49999999999999994
vn 0 1 0
vn 0 -1 0
vn 0.5000000000000001 0 -0.8660254037844386
vn 0 1 0
vn 0 -1 0
vn 4.143408735633879e-16 0 -1
vn 0 1 0
vn 0 -1 0
vn -0.4999999999999995 0 -0.8660254037844389
vn 0 1 0
vn 0 -1 0
vn -0.8660254037844388 0 -0.4999999999999997
vn 0 1 0
vn 0 -1 0
vn -1 0 -2.0717043678169412e-16
vn 0 1 0
vn 0 -1 0
vn -0.8660254037844389 0 0.4999999999999996
vn 0 1 0
vn 0 -1 0
vn -0.49999999999999994 0 0.8660254037844387
vn 0 1 0
vn 0 -1 0
vn 0 0 1
vn 0 1 0
usemtl none
f 47/163/49 45/164/49 43/165/49
f 45/166/50 47/167/50 48/168/50 46/169/50
f 46/170/51 48/171/51 44/172/51
f 49/173/52 47/174/52 43/175/52
f 47/176/53 49/177/53 50/178/53 48/179/53
f 48/180/54 50/181/54 44/182/54
f 51/183/55 49/184/55 43/185/55
f 49/186/56 51/187/56 52/188/56 50/189/56
f 50/190/57 52/191/57 44/192/57
f 53/193/58 51/194/58 43/195/58
f 51/196/59 53/197/59 54/198/59 52/199/59
f 52/200/60 54/201/60 44/202/60
f 55/203/61 53/204/61 43/205/61
f 53/206/62 55/207/62 56/208/62 54/209/62
f 54/210/63 56/211/63 44/212/63
f 57/213/64 55/214/64 43/215/64
f 55/216/65 57/217/65 58/218/65 56/219/65
f 56/220/66 58/221/66 44/222/66
f 59/223/67 57/224/67 43/225/67
f 57/226/68 59/227/68 60/228/68 58/229/68
f 58/230/69 60/231/69 44/232/69
f 61/233/70 59/234/70 43/235/70
f 59/236/71 61/237/71 62/238/71 60/239/71
f 60/240/72 62/241/72 44/242/72
f 63/243/73 61/244/73 43/245/73
f 61/246/74 63/247/74 64/248/74 62/249/74
f 62/250/75 64/251/75 44/252/75
f 65/253/76 63/254/76 43/255/76
f 63/256/77 65/257/77 66/258/77 64/259/77
f 64/260/78 66/261/78 44/262/78
f 67/263/79 65/264/79 43/265/79
f 65/266/80 67/267/80 68/268/80 66/269/80
f 66/270/81 68/271/81 44/272/81
f 45/273/82 67/274/82 43/275/82
f 67/276/83 45/277/83 46/278/83 68/279/83
f 68/280/84 46/281/84 44/282/84